# Wavefront OBJ export
# Crystal geometry: amethyst
# Vertices: 8, Faces: 6

mtllib amethyst.mtl

# Vertices
v -0.229129 -0.396863 0.000000
v -0.000000 -0.529150 0.229129
v 0.000000 -0.000000 -0.687386
v 0.458258 -0.264575 -0.229129
v -0.687386 0.396863 0.000000
v 0.000000 0.000000 0.687386
v -0.458258 0.793725 -0.687386
v 0.458258 0.264575 0.229129

# Vertex normals
vn 0.000000 -0.755929 -0.654654
vn -0.654654 -0.377964 0.654654
vn 0.654654 0.377964 -0.654654
vn -0.654654 -0.377964 -0.654654
vn 0.654654 -0.377964 0.654654
vn 0.000000 0.755929 0.654654

# Faces
usemtl crystal_material
f 4//1 2//1 1//1 3//1
f 5//2 1//2 2//2 6//2
f 8//3 4//3 3//3 7//3
f 7//4 3//4 1//4 5//4
f 6//5 2//5 4//5 8//5
f 7//6 5//6 6//6 8//6