# Wavefront OBJ export
# Crystal geometry: aragonite
# Vertices: 16, Faces: 12

mtllib aragonite.mtl

# Vertices
v 1.414214 0.000000 -0.848528
v 1.414214 0.000000 0.848528
v 1.368315 -0.045899 -0.802629
v 1.368315 -0.045899 0.802629
v 0.967000 -0.447214 0.000000
v -1.414214 0.000000 -0.848528
v -1.414214 0.000000 0.848528
v -1.368315 -0.045899 -0.802629
v -1.368315 -0.045899 0.802629
v -0.967000 -0.447214 0.000000
v 1.368315 0.045899 -0.802629
v 1.368315 0.045899 0.802629
v 0.967000 0.447214 0.000000
v -1.368315 0.045899 -0.802629
v -1.368315 0.045899 0.802629
v -0.967000 0.447214 0.000000

# Vertex normals
vn 0.707107 -0.707107 0.000000
vn -0.707107 -0.707107 0.000000
vn 0.707107 0.707107 0.000000
vn -0.707107 0.707107 0.000000
vn 0.000000 -0.707107 -0.707107
vn 0.000000 0.707107 -0.707107
vn 0.000000 -0.707107 0.707107
vn 0.000000 0.707107 0.707107
vn 0.000000 0.894427 -0.447214
vn 0.000000 0.894427 0.447214
vn 0.000000 -0.894427 -0.447214
vn 0.000000 -0.894427 0.447214

# Faces
usemtl crystal_material
f 5//1 3//1 1//1 2//1 4//1
f 9//2 7//2 6//2 8//2 10//2
f 12//3 2//3 1//3 11//3 13//3
f 16//4 14//4 6//4 7//4 15//4
f 6//5 1//5 3//5 8//5
f 14//6 11//6 1//6 6//6
f 9//7 4//7 2//7 7//7
f 7//8 2//8 12//8 15//8
f 16//9 13//9 11//9 14//9
f 15//10 12//10 13//10 16//10
f 8//11 3//11 5//11 10//11
f 10//12 5//12 4//12 9//12