# Wavefront OBJ export
# Crystal geometry: calcite-scalenohedron
# Vertices: 8, Faces: 6

mtllib calcite-scalenohedron.mtl

# Vertices
v 0.209838 0.060246 2.655743
v 1.700550 -0.585251 1.165031
v -0.629033 1.513212 0.978002
v 0.861679 0.867715 -0.512710
v -0.861679 -0.867715 0.512710
v 0.629033 -1.513212 -0.978002
v -1.700550 0.585251 -1.165031
v -0.209838 -0.060246 -2.655743

# Vertex normals
vn 0.622171 0.718421 0.311086
vn 0.000000 -0.917663 0.397360
vn -0.894427 0.000000 0.447214
vn -0.622171 -0.718421 -0.311086
vn 0.894427 -0.000000 -0.447214
vn 0.000000 0.917663 -0.397360

# Faces
usemtl crystal_material
f 4//1 3//1 1//1 2//1
f 2//2 1//2 5//2 6//2
f 5//3 1//3 3//3 7//3
f 8//4 6//4 5//4 7//4
f 8//5 4//5 2//5 6//5
f 7//6 3//6 4//6 8//6