# Wavefront OBJ export
# Crystal geometry: corundum-barrel
# Vertices: 12, Faces: 8

mtllib corundum-barrel.mtl

# Vertices
v 0.160770 0.600000 -0.240000
v 0.160770 0.600000 0.240000
v 0.439230 0.439230 -0.240000
v 0.439230 0.439230 0.240000
v -1.039230 0.600000 -0.240000
v -1.039230 0.600000 0.240000
v 1.039230 -0.600000 -0.240000
v 1.039230 -0.600000 0.240000
v -0.160770 -0.600000 -0.240000
v -0.160770 -0.600000 0.240000
v -0.439230 -0.439230 -0.240000
v -0.439230 -0.439230 0.240000

# Vertex normals
vn 0.500000 0.866025 -0.000000
vn 0.000000 1.000000 -0.000000
vn 0.000000 -1.000000 0.000000
vn 0.866025 0.500000 -0.000000
vn -0.866025 -0.500000 0.000000
vn -0.500000 -0.866025 0.000000
vn 0.000000 0.000000 -1.000000
vn 0.000000 0.000000 1.000000

# Faces
usemtl crystal_material
f 3//1 1//1 2//1 4//1
f 6//2 2//2 1//2 5//2
f 9//3 7//3 8//3 10//3
f 8//4 7//4 3//4 4//4
f 12//5 6//5 5//5 11//5
f 11//6 9//6 10//6 12//6
f 11//7 5//7 1//7 3//7 7//7 9//7
f 8//8 4//8 2//8 6//8 12//8 10//8