# Wavefront OBJ export
# Crystal geometry: emerald
# Vertices: 14, Faces: 9

mtllib emerald.mtl

# Vertices
v 0.267949 1.000000 -1.200000
v 0.267949 1.000000 1.200000
v 0.732051 0.732051 -1.200000
v 0.732051 0.732051 1.200000
v -1.732051 1.000000 -1.200000
v -1.732051 1.000000 1.200000
v 0.577350 -1.000000 -1.200000
v 0.577350 -1.000000 1.200000
v -0.267949 -1.000000 -1.200000
v -0.267949 -1.000000 1.200000
v 1.154701 -0.000000 -1.200000
v 1.154701 -0.000000 1.200000
v -0.732051 -0.732051 -1.200000
v -0.732051 -0.732051 1.200000

# Vertex normals
vn 0.500000 0.866025 -0.000000
vn 0.000000 1.000000 -0.000000
vn 0.000000 -1.000000 0.000000
vn 0.866025 0.500000 -0.000000
vn -0.866025 -0.500000 0.000000
vn 0.866025 -0.500000 0.000000
vn -0.500000 -0.866025 0.000000
vn 0.000000 0.000000 -1.000000
vn 0.000000 0.000000 1.000000

# Faces
usemtl crystal_material
f 4//1 3//1 1//1 2//1
f 2//2 1//2 5//2 6//2
f 9//3 7//3 8//3 10//3
f 11//4 3//4 4//4 12//4
f 6//5 5//5 13//5 14//5
f 8//6 7//6 11//6 12//6
f 13//7 9//7 10//7 14//7
f 9//8 13//8 5//8 1//8 3//8 11//8 7//8
f 8//9 12//9 4//9 2//9 6//9 14//9 10//9