# Wavefront OBJ export
# Crystal geometry: epidote
# Vertices: 12, Faces: 8

mtllib epidote.mtl

# Vertices
v 0.007107 -0.700000 -0.800000
v -0.007107 -0.700000 -0.800000
v 0.007107 0.700000 -0.800000
v -0.007107 0.700000 -0.800000
v 0.707107 -0.000000 -0.800000
v -0.707107 -0.000000 -0.800000
v 0.007107 -0.700000 0.800000
v -0.007107 -0.700000 0.800000
v 0.007107 0.700000 0.800000
v -0.007107 0.700000 0.800000
v 0.707107 -0.000000 0.800000
v -0.707107 -0.000000 0.800000

# Vertex normals
vn 0.000000 0.000000 -1.000000
vn 0.000000 0.000000 1.000000
vn 0.000000 -1.000000 0.000000
vn 0.000000 1.000000 0.000000
vn 0.707107 -0.707107 0.000000
vn -0.707107 -0.707107 0.000000
vn 0.707107 0.707107 0.000000
vn -0.707107 0.707107 0.000000

# Faces
usemtl crystal_material
f 3//1 5//1 1//1 2//1 6//1 4//1
f 12//2 8//2 7//2 11//2 9//2 10//2
f 8//3 2//3 1//3 7//3
f 9//4 3//4 4//4 10//4
f 7//5 1//5 5//5 11//5
f 12//6 6//6 2//6 8//6
f 11//7 5//7 3//7 9//7
f 10//8 4//8 6//8 12//8