# Wavefront OBJ export
# Crystal geometry: fluorite-twin
# Vertices: 18, Faces: 16

mtllib fluorite-twin.mtl

# Vertices
v -0.461880 0.000000 -0.923760
v -0.923760 0.000000 -0.461880
v -0.000000 0.692820 -0.692820
v 0.000000 -0.461880 -0.923760
v 0.000000 -0.923760 -0.461880
v 0.692820 -0.000000 -0.692820
v 0.692820 -0.692820 -0.000000
v -0.692820 0.692820 -0.000000
v -0.461880 -0.923760 0.000000
v -0.923760 -0.461880 0.000000
v -0.000000 -0.692820 0.692820
v -0.692820 -0.000000 0.692820
v 0.461880 0.923760 -0.000000
v 0.923760 0.461880 -0.000000
v 0.923760 -0.000000 0.461880
v 0.461880 -0.000000 0.923760
v -0.000000 0.461880 0.923760
v -0.000000 0.923760 0.461880

# Vertex normals
vn -0.577350 0.577350 -0.577350
vn -0.577350 0.577350 0.577350
vn -0.577350 -0.577350 -0.577350
vn 0.577350 -0.577350 0.577350
vn -0.577350 -0.577350 0.577350
vn 0.577350 -0.577350 -0.577350
vn 0.577350 0.577350 -0.577350
vn 0.577350 0.577350 0.577350
vn 0.192450 -0.962250 0.192450
vn 0.962250 -0.192450 -0.192450
vn -0.577350 -0.577350 -0.577350
vn -0.192450 0.962250 -0.192450
vn 0.192450 0.192450 -0.962250
vn -0.962250 0.192450 0.192450
vn -0.192450 -0.192450 0.962250
vn 0.577350 0.577350 0.577350

# Faces
usemtl crystal_material
f 3//1 1//1 2//1 8//1
f 17//2 18//2 8//2 12//2
f 9//3 10//3 2//3 1//3 4//3 5//3
f 11//4 7//4 15//4 16//4
f 12//5 10//5 9//5 11//5
f 7//6 5//6 4//6 6//6
f 6//7 3//7 13//7 14//7
f 16//8 15//8 14//8 13//8 18//8 17//8
f 11//9 9//9 5//9 7//9
f 7//10 6//10 14//10 15//10
f 9//11 10//11 2//11 1//11 4//11 5//11
f 18//12 13//12 3//12 8//12
f 6//13 4//13 1//13 3//13
f 8//14 2//14 10//14 12//14
f 12//15 11//15 16//15 17//15
f 16//16 15//16 14//16 13//16 18//16 17//16