# Wavefront OBJ export
# Crystal geometry: garnet-trapezohedron
# Vertices: 26, Faces: 24

mtllib garnet-trapezohedron.mtl

# Vertices
v -0.816497 0.000000 -0.816497
v -0.612372 0.612372 -0.612372
v 0.000000 0.000000 -1.224745
v 0.000000 0.816497 -0.816497
v -1.224745 0.000000 0.000000
v -0.816497 0.816497 0.000000
v -0.816497 0.000000 0.816497
v 0.000000 -0.816497 0.816497
v -0.612372 -0.612372 0.612372
v 0.000000 0.000000 1.224745
v -0.612372 0.612372 0.612372
v 0.816497 -0.816497 0.000000
v 0.000000 -1.224745 0.000000
v 0.612372 -0.612372 0.612372
v 0.612372 -0.612372 -0.612372
v 0.000000 -0.816497 -0.816497
v 0.816497 0.000000 -0.816497
v 1.224745 0.000000 0.000000
v 0.816497 0.000000 0.816497
v -0.612372 -0.612372 -0.612372
v -0.816497 -0.816497 0.000000
v 0.000000 1.224745 0.000000
v 0.816497 0.816497 0.000000
v 0.612372 0.612372 -0.612372
v 0.000000 0.816497 0.816497
v 0.612372 0.612372 0.612372

# Vertex normals
vn -0.408248 0.408248 -0.816497
vn -0.816497 0.408248 -0.408248
vn -0.408248 -0.408248 0.816497
vn -0.816497 0.408248 0.408248
vn 0.408248 -0.816497 0.408248
vn 0.408248 -0.816497 -0.408248
vn 0.408248 -0.408248 -0.816497
vn 0.816497 -0.408248 -0.408248
vn 0.816497 -0.408248 0.408248
vn -0.816497 -0.408248 -0.408248
vn -0.408248 -0.816497 -0.408248
vn -0.408248 -0.408248 -0.816497
vn -0.816497 -0.408248 0.408248
vn -0.408248 -0.816497 0.408248
vn 0.408248 0.816497 -0.408248
vn 0.408248 0.816497 0.408248
vn -0.408248 0.816497 -0.408248
vn -0.408248 0.816497 0.408248
vn 0.408248 0.408248 0.816497
vn 0.816497 0.408248 -0.408248
vn -0.408248 0.408248 0.816497
vn 0.816497 0.408248 0.408248
vn 0.408248 -0.408248 0.816497
vn 0.408248 0.408248 -0.816497

# Faces
usemtl crystal_material
f 3//1 1//1 2//1 4//1
f 6//2 2//2 1//2 5//2
f 10//3 7//3 9//3 8//3
f 11//4 6//4 5//4 7//4
f 12//5 14//5 8//5 13//5
f 16//6 15//6 12//6 13//6
f 15//7 16//7 3//7 17//7
f 18//8 12//8 15//8 17//8
f 19//9 14//9 12//9 18//9
f 5//10 1//10 20//10 21//10
f 16//11 13//11 21//11 20//11
f 16//12 20//12 1//12 3//12
f 7//13 5//13 21//13 9//13
f 13//14 8//14 9//14 21//14
f 23//15 24//15 4//15 22//15
f 26//16 23//16 22//16 25//16
f 22//17 4//17 2//17 6//17
f 22//18 6//18 11//18 25//18
f 25//19 10//19 19//19 26//19
f 18//20 17//20 24//20 23//20
f 25//21 11//21 7//21 10//21
f 19//22 18//22 23//22 26//22
f 10//23 8//23 14//23 19//23
f 24//24 17//24 3//24 4//24