# Wavefront OBJ export
# Crystal geometry: gypsum
# Vertices: 12, Faces: 8

mtllib gypsum.mtl

# Vertices
v 0.700000 -0.766025 -0.800000
v 0.700000 0.766025 -0.800000
v 0.700000 -0.866025 -0.700000
v 0.700000 -0.000000 0.166025
v 0.700000 0.866025 -0.700000
v -0.700000 -0.766025 0.800000
v -0.700000 0.766025 0.800000
v -0.700000 -0.866025 0.700000
v -0.700000 -0.000000 -0.166025
v -0.700000 0.866025 0.700000
v -0.066025 -0.000000 -0.800000
v 0.066025 -0.000000 0.800000

# Vertex normals
vn 1.000000 0.000000 0.000000
vn -1.000000 0.000000 0.000000
vn 0.000000 0.000000 -1.000000
vn 0.000000 0.000000 1.000000
vn 0.577350 -0.577350 0.577350
vn -0.577350 -0.577350 -0.577350
vn -0.577350 0.577350 -0.577350
vn 0.577350 0.577350 0.577350

# Faces
usemtl crystal_material
f 4//1 3//1 1//1 2//1 5//1
f 9//2 8//2 6//2 7//2 10//2
f 2//3 1//3 11//3
f 7//4 6//4 12//4
f 6//5 8//5 3//5 4//5 12//5
f 9//6 11//6 1//6 3//6 8//6
f 10//7 5//7 2//7 11//7 9//7
f 10//8 7//8 12//8 4//8 5//8