# Wavefront OBJ export
# Crystal geometry: kunzite
# Vertices: 8, Faces: 6

mtllib kunzite.mtl

# Vertices
v 0.800000 -0.600000 -1.200000
v 0.800000 -0.600000 1.200000
v 0.800000 0.600000 -1.200000
v 0.800000 0.600000 1.200000
v -0.800000 -0.600000 -1.200000
v -0.800000 -0.600000 1.200000
v -0.800000 0.600000 -1.200000
v -0.800000 0.600000 1.200000

# Vertex normals
vn 1.000000 0.000000 0.000000
vn -1.000000 0.000000 0.000000
vn 0.000000 -1.000000 0.000000
vn 0.000000 1.000000 0.000000
vn 0.000000 0.000000 -1.000000
vn 0.000000 0.000000 1.000000

# Faces
usemtl crystal_material
f 4//1 2//1 1//1 3//1
f 7//2 5//2 6//2 8//2
f 6//3 5//3 1//3 2//3
f 4//4 3//4 7//4 8//4
f 3//5 1//5 5//5 7//5
f 6//6 2//6 4//6 8//6