# Wavefront OBJ export
# Crystal geometry: kyanite
# Vertices: 12, Faces: 8

mtllib kyanite.mtl

# Vertices
v 1.000000 -0.400000 -1.500000
v 1.000000 -0.400000 1.500000
v 1.000000 -0.151472 -1.500000
v 1.000000 -0.151472 1.500000
v -1.000000 0.400000 -1.500000
v -1.000000 0.400000 1.500000
v -1.000000 0.151472 -1.500000
v -1.000000 0.151472 1.500000
v -0.448528 -0.400000 -1.500000
v -0.448528 -0.400000 1.500000
v 0.448528 0.400000 -1.500000
v 0.448528 0.400000 1.500000

# Vertex normals
vn 1.000000 0.000000 0.000000
vn -1.000000 0.000000 0.000000
vn 0.000000 -1.000000 0.000000
vn 0.000000 1.000000 0.000000
vn 0.000000 0.000000 -1.000000
vn 0.000000 0.000000 1.000000
vn -0.707107 -0.707107 0.000000
vn 0.707107 0.707107 0.000000

# Faces
usemtl crystal_material
f 4//1 2//1 1//1 3//1
f 8//2 6//2 5//2 7//2
f 10//3 9//3 1//3 2//3
f 12//4 11//4 5//4 6//4
f 5//5 11//5 3//5 1//5 9//5 7//5
f 8//6 10//6 2//6 4//6 12//6 6//6
f 8//7 7//7 9//7 10//7
f 4//8 3//8 11//8 12//8