# Wavefront OBJ export
# Crystal geometry: magnetite
# Vertices: 6, Faces: 8

mtllib magnetite.mtl

# Vertices
v -1.732051 0.000000 0.000000
v -0.000000 1.732051 0.000000
v -0.000000 0.000000 -1.732051
v -0.000000 0.000000 1.732051
v -0.000000 -1.732051 0.000000
v 1.732051 0.000000 0.000000

# Vertex normals
vn -0.577350 0.577350 -0.577350
vn -0.577350 0.577350 0.577350
vn -0.577350 -0.577350 -0.577350
vn 0.577350 -0.577350 0.577350
vn -0.577350 -0.577350 0.577350
vn 0.577350 -0.577350 -0.577350
vn 0.577350 0.577350 -0.577350
vn 0.577350 0.577350 0.577350

# Faces
usemtl crystal_material
f 3//1 1//1 2//1
f 2//2 1//2 4//2
f 5//3 1//3 3//3
f 6//4 4//4 5//4
f 4//5 1//5 5//5
f 5//6 3//6 6//6
f 3//7 2//7 6//7
f 6//8 2//8 4//8