# Wavefront OBJ export
# Crystal geometry: moonstone
# Vertices: 16, Faces: 10

mtllib moonstone.mtl

# Vertices
v 0.131371 -1.000000 -0.700000
v 0.131371 -1.000000 0.700000
v -0.131371 -1.000000 -0.700000
v -0.131371 -1.000000 0.700000
v 0.131371 1.000000 -0.700000
v 0.131371 1.000000 0.700000
v -0.131371 1.000000 -0.700000
v -0.131371 1.000000 0.700000
v 0.500000 -0.631371 -0.700000
v 0.500000 -0.631371 0.700000
v -0.500000 -0.631371 -0.700000
v -0.500000 -0.631371 0.700000
v 0.500000 0.631371 -0.700000
v 0.500000 0.631371 0.700000
v -0.500000 0.631371 -0.700000
v -0.500000 0.631371 0.700000

# Vertex normals
vn 0.000000 -1.000000 0.000000
vn 0.000000 1.000000 0.000000
vn 0.707107 -0.707107 0.000000
vn -0.707107 -0.707107 0.000000
vn 0.707107 0.707107 0.000000
vn -0.707107 0.707107 0.000000
vn 0.000000 0.000000 -1.000000
vn 0.000000 0.000000 1.000000
vn 1.000000 0.000000 0.000000
vn -1.000000 0.000000 0.000000

# Faces
usemtl crystal_material
f 4//1 3//1 1//1 2//1
f 6//2 5//2 7//2 8//2
f 2//3 1//3 9//3 10//3
f 12//4 11//4 3//4 4//4
f 14//5 13//5 5//5 6//5
f 8//6 7//6 15//6 16//6
f 5//7 13//7 9//7 1//7 3//7 11//7 15//7 7//7
f 16//8 12//8 4//8 2//8 10//8 14//8 6//8 8//8
f 14//9 10//9 9//9 13//9
f 15//10 11//10 12//10 16//10