# Wavefront OBJ export
# Crystal geometry: orthoclase-carlsbad
# Vertices: 16, Faces: 12

mtllib orthoclase-carlsbad.mtl

# Vertices
v 0.000000 -0.565685 -0.700000
v 0.565685 -0.000000 -0.700000
v -0.565685 -0.000000 -0.700000
v 0.000000 0.565685 -0.700000
v 0.565685 0.000000 0.700000
v -0.000000 -0.565685 0.700000
v 0.000000 0.565685 0.700000
v -0.565685 0.000000 0.700000
v -0.000000 -0.565685 -0.700000
v 0.565685 -0.000000 -0.700000
v -0.565685 0.000000 -0.700000
v 0.000000 0.565685 -0.700000
v 0.565685 -0.000000 0.700000
v -0.000000 -0.565685 0.700000
v 0.000000 0.565685 0.700000
v -0.565685 0.000000 0.700000

# Vertex normals
vn 0.000000 0.000000 -1.000000
vn 0.000000 0.000000 1.000000
vn 0.707107 -0.707107 0.000000
vn -0.707107 -0.707107 0.000000
vn 0.707107 0.707107 -0.000000
vn -0.707107 0.707107 0.000000
vn -0.000000 0.000000 -1.000000
vn 0.000000 0.000000 1.000000
vn -0.707107 0.707107 0.000000
vn 0.707107 0.707107 0.000000
vn -0.707107 -0.707107 0.000000
vn 0.707107 -0.707107 0.000000

# Faces
usemtl crystal_material
f 4//1 2//1 1//1 3//1
f 6//2 5//2 7//2 8//2
f 6//3 1//3 2//3 5//3
f 8//4 3//4 1//4 6//4
f 5//5 2//5 4//5 7//5
f 7//6 4//6 3//6 8//6
f 12//7 10//7 9//7 11//7
f 16//8 14//8 13//8 15//8
f 12//9 11//9 16//9 15//9
f 13//10 10//10 12//10 15//10
f 11//11 9//11 14//11 16//11
f 13//12 14//12 9//12 10//12