# Wavefront OBJ export
# Crystal geometry: pearl
# Vertices: 20, Faces: 12

mtllib pearl.mtl

# Vertices
v 0.424264 -0.989949 0.000000
v 0.636396 -0.777817 -0.212132
v 0.636396 -0.777817 0.212132
v 0.848528 -0.565685 0.000000
v -0.424264 -0.989949 0.000000
v -0.636396 -0.777817 -0.212132
v -0.636396 -0.777817 0.212132
v -0.848528 -0.565685 0.000000
v 0.424264 0.989949 0.000000
v 0.636396 0.777817 -0.212132
v 0.636396 0.777817 0.212132
v 0.848528 0.565685 0.000000
v -0.424264 0.989949 0.000000
v -0.636396 0.777817 -0.212132
v -0.636396 0.777817 0.212132
v -0.848528 0.565685 0.000000
v 0.000000 -0.141421 -0.848528
v 0.000000 0.141421 -0.848528
v 0.000000 -0.141421 0.848528
v 0.000000 0.141421 0.848528

# Vertex normals
vn 0.707107 -0.707107 0.000000
vn -0.707107 -0.707107 0.000000
vn 0.707107 0.707107 0.000000
vn -0.707107 0.707107 0.000000
vn 0.000000 -0.707107 -0.707107
vn 0.000000 0.707107 -0.707107
vn 0.000000 -0.707107 0.707107
vn 0.000000 0.707107 0.707107
vn 0.707107 0.000000 0.707107
vn -0.707107 0.000000 0.707107
vn 0.707107 0.000000 -0.707107
vn -0.707107 0.000000 -0.707107

# Faces
usemtl crystal_material
f 3//1 1//1 2//1 4//1
f 6//2 5//2 7//2 8//2
f 10//3 9//3 11//3 12//3
f 16//4 15//4 13//4 14//4
f 17//5 2//5 1//5 5//5 6//5
f 14//6 13//6 9//6 10//6 18//6
f 7//7 5//7 1//7 3//7 19//7
f 20//8 11//8 9//8 13//8 15//8
f 20//9 19//9 3//9 4//9 12//9 11//9
f 15//10 16//10 8//10 7//10 19//10 20//10
f 10//11 12//11 4//11 2//11 17//11 18//11
f 18//12 17//12 6//12 8//12 16//12 14//12