# Wavefront OBJ export
# Crystal geometry: plagioclase-albite
# Vertices: 12, Faces: 12

mtllib plagioclase-albite.mtl

# Vertices
v -0.500000 0.065685 -0.800000
v -0.500000 -0.065685 -0.800000
v 0.500000 0.065685 -0.800000
v 0.000000 0.565685 -0.800000
v 0.500000 -0.065685 -0.800000
v 0.000000 -0.565685 -0.800000
v -0.500000 -0.065685 0.800000
v -0.500000 0.065685 0.800000
v 0.500000 0.065685 0.800000
v -0.000000 0.565685 0.800000
v -0.000000 -0.565685 0.800000
v 0.500000 -0.065685 0.800000

# Vertex normals
vn 0.000000 0.000000 -1.000000
vn 0.000000 0.000000 1.000000
vn 1.000000 0.000000 -0.000000
vn -1.000000 0.000000 -0.000000
vn -0.707107 -0.707107 -0.000000
vn 0.707107 0.707107 -0.000000
vn 0.000000 0.000000 1.000000
vn 0.000000 0.000000 -1.000000
vn -1.000000 0.000000 -0.000000
vn 1.000000 0.000000 -0.000000
vn 0.707107 -0.707107 0.000000
vn -0.707107 0.707107 -0.000000

# Faces
usemtl crystal_material
f 6//1 2//1 1//1 4//1 3//1 5//1
f 10//2 8//2 7//2 11//2 12//2 9//2
f 5//3 3//3 9//3 12//3
f 7//4 8//4 1//4 2//4
f 7//5 2//5 6//5 11//5
f 9//6 3//6 4//6 10//6
f 10//7 8//7 7//7 11//7 12//7 9//7
f 6//8 2//8 1//8 4//8 3//8 5//8
f 7//9 8//9 1//9 2//9
f 5//10 3//10 9//10 12//10
f 6//11 5//11 12//11 11//11
f 10//12 4//12 1//12 8//12