# Wavefront OBJ export
# Crystal geometry: quartz-short
# Vertices: 13, Faces: 10

mtllib quartz-short.mtl

# Vertices
v 1.732051 -1.000000 -0.678330
v 1.732051 -1.000000 0.678330
v 0.577350 1.000000 0.678330
v 0.577350 1.000000 -0.678330
v -0.267949 -1.000000 -0.678330
v -0.267949 -1.000000 0.683282
v -3.732051 1.000000 -0.678330
v -3.732051 1.000000 0.678330
v -2.000000 -0.000000 -1.833030
v -3.724623 0.995712 0.683282
v 0.729575 -1.000000 1.680806
v 0.000000 -0.000000 -1.833030
v -0.141709 -0.245446 2.116447

# Vertex normals
vn 0.866025 0.500000 -0.000000
vn -0.500000 -0.866025 0.000000
vn 0.000000 -1.000000 0.000000
vn 0.000000 1.000000 -0.000000
vn 0.000000 -0.755929 -0.654654
vn 0.654654 0.377964 0.654654
vn 0.654654 0.377964 -0.654654
vn -0.447214 -0.774597 0.447214
vn 0.000000 0.755929 -0.654654
vn 0.000000 0.755929 0.654654

# Faces
usemtl crystal_material
f 3//1 2//1 1//1 4//1
f 7//2 9//2 5//2 6//2 10//2 8//2
f 6//3 5//3 1//3 2//3 11//3
f 7//4 8//4 3//4 4//4
f 9//5 12//5 1//5 5//5
f 13//6 11//6 2//6 3//6
f 4//7 1//7 12//7
f 10//8 6//8 11//8 13//8
f 7//9 4//9 12//9 9//9
f 13//10 3//10 8//10 10//10