# Wavefront OBJ export
# Crystal geometry: quartz-scepter
# Vertices: 8, Faces: 6

mtllib quartz-scepter.mtl

# Vertices
v 0.519615 -0.300000 -0.160000
v 0.519615 -0.300000 0.160000
v 0.173205 0.300000 -0.160000
v 0.173205 0.300000 0.160000
v -0.080385 -0.300000 -0.160000
v -0.080385 -0.300000 0.160000
v -1.119615 0.300000 -0.160000
v -1.119615 0.300000 0.160000

# Vertex normals
vn 0.866025 0.500000 -0.000000
vn -0.500000 -0.866025 0.000000
vn 0.000000 -1.000000 0.000000
vn 0.000000 1.000000 -0.000000
vn 0.000000 0.000000 -1.000000
vn 0.000000 0.000000 1.000000

# Faces
usemtl crystal_material
f 2//1 1//1 3//1 4//1
f 7//2 5//2 6//2 8//2
f 5//3 1//3 2//3 6//3
f 8//4 4//4 3//4 7//4
f 3//5 1//5 5//5 7//5
f 8//6 6//6 2//6 4//6