# Wavefront OBJ export
# Crystal geometry: quartz-japan-twin
# Vertices: 36, Faces: 22

mtllib quartz-japan-twin.mtl

# Vertices
v 0.284634 0.493000 -0.500000
v 0.804249 -0.407000 -0.500000
v -1.375620 0.582644 -0.396488
v -1.092820 0.092820 -0.500000
v -1.323864 0.493000 -0.500000
v 0.450000 0.779423 -0.169268
v -0.507000 -0.493000 -0.500000
v 0.567195 -0.817589 -0.125197
v 0.754597 -0.493000 -0.500000
v 0.241154 0.900000 -0.030037
v 0.241154 0.900000 0.030037
v -0.960074 0.900000 -0.030037
v -0.839926 0.900000 0.030037
v 0.450000 0.779423 0.169268
v 0.317665 0.550212 0.433938
v 0.893784 -0.251921 0.320931
v 1.054249 0.026013 -0.000000
v 0.703901 0.632833 -0.000000
v -0.307911 -0.099544 0.685089
v 0.338499 -0.872750 0.431500
v -1.375620 0.582644 -0.396488
v -1.092820 0.092820 -0.500000
v -1.380243 0.436622 -0.387243
v -0.072653 0.256770 0.876038
v -0.507000 -0.493000 -0.500000
v 0.567195 -0.817589 -0.125197
v 0.334065 -0.913532 0.341064
v -0.159255 0.499590 0.770782
v -0.119206 0.539640 0.750757
v -0.960074 0.900000 -0.030037
v -0.839926 0.900000 0.030037
v 0.153037 0.482460 0.763193
v 0.317665 0.550212 0.433938
v 0.893784 -0.251921 0.320931
v 0.694162 -0.334074 0.720175
v 0.258323 0.187255 0.891156

# Vertex normals
vn 0.500000 0.866025 -0.000000
vn -0.000000 1.000000 0.000000
vn -0.866025 -0.500000 0.000000
vn 0.866025 -0.500000 -0.000000
vn 0.000000 -0.755929 -0.654654
vn 0.654654 0.377964 0.654654
vn 0.654654 0.377964 -0.654654
vn -0.000000 0.755929 -0.654654
vn -0.000000 0.755929 0.654654
vn 0.000000 0.000000 -1.000000
vn -0.408248 -0.408248 0.816497
vn 0.044658 0.410684 0.910684
vn -0.333333 0.666667 0.666667
vn -0.410684 -0.044658 -0.910684
vn 0.744017 -0.622008 0.244017
vn -0.184459 -0.940388 -0.285735
vn 0.746883 0.470194 0.470194
vn -0.125988 -0.402677 0.906630
vn -0.688412 0.067517 0.722171
vn 0.184459 0.940388 0.285735
vn -0.666667 -0.666667 0.333333
vn 0.408248 0.408248 -0.816497

# Faces
usemtl crystal_material
f 14//1 18//1 6//1 10//1 11//1
f 13//2 11//2 10//2 12//2
f 4//3 3//3 5//3
f 8//4 9//4 2//4 17//4 16//4
f 8//5 7//5 9//5
f 17//6 18//6 14//6 15//6 16//6
f 17//7 2//7 1//7 6//7 18//7
f 12//8 10//8 6//8 1//8 5//8 3//8
f 15//9 14//9 11//9 13//9
f 4//10 5//10 1//10 2//10 9//10 7//10
f 16//11 15//11 13//11 12//11 3//11 4//11 7//11 8//11
f 29//12 28//12 24//12 36//12 32//12
f 30//13 28//13 29//13 31//13
f 23//14 21//14 22//14
f 34//15 35//15 20//15 27//15 26//15
f 27//16 25//16 26//16
f 34//17 33//17 32//17 36//17 35//17
f 36//18 24//18 19//18 20//18 35//18
f 21//19 23//19 19//19 24//19 28//19 30//19
f 31//20 29//20 32//20 33//20
f 25//21 27//21 20//21 19//21 23//21 22//21
f 26//22 25//22 22//22 21//22 30//22 31//22 33//22 34//22