# Wavefront OBJ export
# Crystal geometry: quartz-dauphine-twin
# Vertices: 26, Faces: 18

mtllib quartz-dauphine-twin.mtl

# Vertices
v -3.732051 1.000000 -0.099342
v -3.732051 1.000000 -0.143696
v -3.553467 1.000000 0.079241
v -3.424558 1.000000 0.143696
v 0.552152 -1.000000 0.400000
v -0.089366 -1.000000 0.079241
v -0.267949 -1.000000 -0.099342
v -0.267949 -1.000000 -0.143696
v 1.393931 -1.000000 0.400000
v -3.224871 0.707180 -0.400000
v -3.470318 0.848889 -0.318184
v 0.408290 0.707180 -0.400000
v 1.732051 -1.000000 -0.143696
v 0.577350 1.000000 -0.143696
v 0.490106 0.848889 -0.318184
v 1.224871 -0.707180 -0.400000
v -0.775129 -0.707180 -0.400000
v -0.529682 -0.848889 -0.318184
v 1.470318 -0.848889 -0.318184
v 0.408290 0.707180 0.400000
v -2.404770 0.707180 0.400000
v -2.813849 0.848889 0.318184
v 1.732051 -1.000000 0.143696
v 1.557562 -1.000000 0.318184
v 0.577350 1.000000 0.143696
v 0.490106 0.848889 0.318184

# Vertex normals
vn 0.866025 0.500000 0.000000
vn -0.500000 -0.866025 0.000000
vn 0.000000 -1.000000 0.000000
vn 0.000000 1.000000 0.000000
vn -0.000000 -0.755929 -0.654654
vn 0.654654 0.377964 0.654654
vn 0.654654 0.377964 -0.654654
vn -0.447214 -0.774597 0.447214
vn 0.000000 0.755929 -0.654654
vn 0.000000 0.755929 0.654654
vn -0.000000 -0.500000 -0.866025
vn 0.433013 0.250000 0.866025
vn 0.433013 0.250000 -0.866025
vn -0.353553 -0.612372 0.707107
vn 0.000000 0.500000 0.866025
vn 0.000000 0.500000 -0.866025
vn -0.000000 -0.000000 -1.000000
vn 0.000000 0.000000 1.000000

# Faces
usemtl crystal_material
f 25//1 23//1 13//1 14//1
f 18//2 8//2 7//2 1//2 2//2 11//2 10//2 17//2
f 13//3 23//3 24//3 9//3 5//3 6//3 7//3 8//3
f 25//4 14//4 2//4 1//4 3//4 4//4
f 19//5 13//5 8//5 18//5
f 26//6 24//6 23//6 25//6
f 14//7 13//7 19//7 15//7
f 6//8 3//8 1//8 7//8
f 15//9 11//9 2//9 14//9
f 25//10 4//10 22//10 26//10
f 18//11 17//11 16//11 19//11
f 26//12 20//12 9//12 24//12
f 19//13 16//13 12//13 15//13
f 21//14 22//14 4//14 3//14 6//14 5//14
f 22//15 21//15 20//15 26//15
f 15//16 12//16 10//16 11//16
f 16//17 17//17 10//17 12//17
f 21//18 5//18 9//18 20//18