# Wavefront OBJ export
# Crystal geometry: quartz-brazil-twin
# Vertices: 40, Faces: 24

mtllib quartz-brazil-twin.mtl

# Vertices
v -1.432055 0.959085 -0.114564
v 0.324599 0.959085 -0.114564
v -1.489337 0.859869 0.000000
v -0.889337 0.513459 0.400000
v 0.668292 0.760654 0.114564
v 0.525574 0.513459 0.400000
v -1.003901 0.711890 -0.400000
v 0.181881 0.711890 -0.400000
v -0.296446 -0.513459 -0.400000
v 0.889337 -0.513459 -0.400000
v -0.194910 -0.689324 0.400000
v -0.463624 -0.803021 -0.065643
v -0.594910 -0.689324 0.000000
v 0.707456 0.198431 0.400000
v 0.097455 -0.858121 0.400000
v 0.992891 -0.573246 -0.330964
v 0.992891 0.198431 0.114564
v 0.105006 -1.000000 0.161809
v 0.253732 -1.000000 0.161809
v 0.179369 -1.000000 0.236172
v -0.513459 -0.296446 0.400000
v 0.859869 -1.489337 0.000000
v -0.513459 0.889337 0.400000
v 0.959085 -1.432055 0.114564
v 0.711890 -1.003901 0.400000
v 0.959085 0.324599 0.114564
v 0.711890 0.181881 0.400000
v -0.573246 0.992891 0.330964
v 0.513459 -0.889337 -0.400000
v -0.803021 -0.463624 0.065643
v -0.689324 -0.594910 -0.000000
v -0.689324 -0.194910 -0.400000
v -0.858121 0.097455 -0.400000
v 0.760654 0.668292 -0.114564
v 0.198431 0.992891 -0.114564
v 0.513459 0.525574 -0.400000
v 0.198431 0.707456 -0.400000
v -1.000000 0.253732 -0.161809
v -1.000000 0.105006 -0.161809
v -1.000000 0.179369 -0.236172

# Vertex normals
vn -0.000000 -1.000000 -0.000000
vn 0.654654 0.377964 0.654654
vn -0.447214 -0.774597 0.447214
vn -0.000000 0.755929 -0.654654
vn -0.000000 -0.755929 -0.654654
vn -0.654654 -0.377964 0.654654
vn 0.654654 0.377964 -0.654654
vn -0.654654 -0.377964 -0.654654
vn 0.654654 -0.377964 0.654654
vn 0.000000 0.755929 0.654654
vn -0.000000 0.000000 -1.000000
vn -0.000000 -0.000000 1.000000
vn -1.000000 -0.000000 0.000000
vn 0.377964 0.654654 -0.654654
vn -0.774597 -0.447214 -0.447214
vn 0.755929 0.000000 0.654654
vn -0.755929 -0.000000 0.654654
vn -0.377964 -0.654654 -0.654654
vn 0.377964 0.654654 0.654654
vn -0.377964 -0.654654 0.654654
vn -0.377964 0.654654 -0.654654
vn 0.755929 0.000000 -0.654654
vn -0.000000 0.000000 1.000000
vn 0.000000 -0.000000 -1.000000

# Faces
usemtl crystal_material
f 20//1 18//1 19//1
f 17//2 5//2 6//2 14//2
f 18//3 20//3 15//3 11//3 13//3 12//3
f 8//4 7//4 1//4 2//4
f 19//5 18//5 12//5 9//5 10//5 16//5
f 11//6 4//6 3//6 13//6
f 16//7 10//7 8//7 2//7 5//7 17//7
f 12//8 13//8 3//8 1//8 7//8 9//8
f 16//9 17//9 14//9 15//9 20//9 19//9
f 5//10 2//10 1//10 3//10 4//10 6//10
f 10//11 9//11 7//11 8//11
f 14//12 6//12 4//12 11//12 15//12
f 39//13 38//13 40//13
f 35//14 34//14 36//14 37//14
f 33//15 32//15 31//15 30//15 39//15 40//15
f 27//16 25//16 24//16 26//16
f 38//17 39//17 30//17 21//17 23//17 28//17
f 32//18 29//18 22//18 31//18
f 34//19 35//19 28//19 23//19 27//19 26//19
f 22//20 24//20 25//20 21//20 30//20 31//20
f 33//21 40//21 38//21 28//21 35//21 37//21
f 34//22 26//22 24//22 22//22 29//22 36//22
f 23//23 21//23 25//23 27//23
f 37//24 36//24 29//24 32//24 33//24