# Wavefront OBJ export
# Crystal geometry: realgar
# Vertices: 16, Faces: 10

mtllib realgar.mtl

# Vertices
v 0.000000 -0.670820 -0.036286
v 0.000000 -0.670820 0.036286
v 1.203944 -0.068849 -0.638258
v 0.352933 -0.494354 0.212753
v -0.352933 -0.494354 -0.212753
v -1.203944 -0.068849 0.638258
v 0.000000 0.670820 -0.036286
v 0.000000 0.670820 0.036286
v -0.352933 0.494354 -0.212753
v -1.203944 0.068849 0.638258
v 1.203944 0.068849 -0.638258
v 0.352933 0.494354 0.212753
v 1.272792 0.000000 -0.707107
v 0.141421 0.000000 -0.707107
v -0.141421 0.000000 0.707107
v -1.272792 0.000000 0.707107

# Vertex normals
vn 0.447214 -0.894427 0.000000
vn -0.447214 -0.894427 0.000000
vn -0.447214 0.894427 0.000000
vn 0.447214 0.894427 0.000000
vn 0.000000 -0.707107 -0.707107
vn 0.000000 0.707107 -0.707107
vn 0.000000 -0.707107 0.707107
vn 0.000000 0.707107 0.707107
vn 0.707107 0.000000 0.707107
vn -0.707107 0.000000 -0.707107

# Faces
usemtl crystal_material
f 4//1 2//1 1//1 3//1
f 5//2 1//2 2//2 6//2
f 10//3 8//3 7//3 9//3
f 11//4 7//4 8//4 12//4
f 13//5 3//5 1//5 5//5 14//5
f 14//6 9//6 7//6 11//6 13//6
f 16//7 6//7 2//7 4//7 15//7
f 15//8 12//8 8//8 10//8 16//8
f 15//9 4//9 3//9 13//9 11//9 12//9
f 9//10 14//10 5//10 6//10 16//10 10//10