# Wavefront OBJ export
# Crystal geometry: red-beryl
# Vertices: 16, Faces: 10

mtllib red-beryl.mtl

# Vertices
v 0.053590 0.200000 -0.300000
v 0.146410 0.146410 -0.300000
v -0.115470 0.200000 -0.300000
v 0.115470 -0.200000 -0.300000
v -0.053590 -0.200000 -0.300000
v 0.230940 -0.000000 -0.300000
v -0.230940 -0.000000 -0.300000
v -0.146410 -0.146410 -0.300000
v 0.053590 0.200000 0.300000
v 0.146410 0.146410 0.300000
v -0.115470 0.200000 0.300000
v 0.115470 -0.200000 0.300000
v -0.053590 -0.200000 0.300000
v 0.230940 0.000000 0.300000
v -0.230940 0.000000 0.300000
v -0.146410 -0.146410 0.300000

# Vertex normals
vn 0.000000 0.000000 -1.000000
vn 0.000000 0.000000 1.000000
vn 0.500000 0.866025 -0.000000
vn 0.000000 1.000000 -0.000000
vn 0.000000 -1.000000 0.000000
vn 0.866025 0.500000 -0.000000
vn -0.866025 -0.500000 0.000000
vn -0.866025 0.500000 0.000000
vn 0.866025 -0.500000 0.000000
vn -0.500000 -0.866025 0.000000

# Faces
usemtl crystal_material
f 8//1 7//1 3//1 1//1 2//1 6//1 4//1 5//1
f 12//2 14//2 10//2 9//2 11//2 15//2 16//2 13//2
f 10//3 2//3 1//3 9//3
f 9//4 1//4 3//4 11//4
f 5//5 4//5 12//5 13//5
f 6//6 2//6 10//6 14//6
f 15//7 7//7 8//7 16//7
f 11//8 3//8 7//8 15//8
f 12//9 4//9 6//9 14//9
f 8//10 5//10 13//10 16//10