# Wavefront OBJ export
# Crystal geometry: rhodonite
# Vertices: 8, Faces: 6

mtllib rhodonite.mtl

# Vertices
v -0.614214 -0.800000 -0.600000
v -0.614214 -0.800000 0.600000
v -2.214214 0.800000 -0.600000
v -2.214214 0.800000 0.600000
v 2.214214 -0.800000 -0.600000
v 2.214214 -0.800000 0.600000
v 0.614214 0.800000 -0.600000
v 0.614214 0.800000 0.600000

# Vertex normals
vn -0.707107 -0.707107 0.000000
vn 0.707107 0.707107 0.000000
vn 0.000000 -1.000000 0.000000
vn 0.000000 1.000000 0.000000
vn 0.000000 0.000000 -1.000000
vn 0.000000 0.000000 1.000000

# Faces
usemtl crystal_material
f 4//1 3//1 1//1 2//1
f 6//2 5//2 7//2 8//2
f 6//3 2//3 1//3 5//3
f 7//4 3//4 4//4 8//4
f 5//5 1//5 3//5 7//5
f 4//6 2//6 6//6 8//6