# Wavefront OBJ export
# Crystal geometry: rhodochrosite
# Vertices: 10, Faces: 8

mtllib rhodochrosite.mtl

# Vertices
v -0.000000 0.000000 -0.346410
v 0.692820 -0.400000 -0.115470
v -0.000000 -0.800000 0.115470
v -0.346410 -0.600000 0.000000
v 0.000000 0.800000 -0.115470
v -0.692820 0.000000 0.000000
v -0.692820 0.400000 0.115470
v 0.692820 -0.000000 -0.000000
v -0.000000 -0.000000 0.346410
v 0.346410 0.600000 -0.000000

# Vertex normals
vn 0.000000 -0.500000 -0.866025
vn -0.433013 0.250000 -0.866025
vn 0.433013 -0.250000 0.866025
vn 0.433013 0.250000 -0.866025
vn -0.433013 -0.250000 -0.866025
vn 0.000000 0.500000 0.866025
vn 0.433013 0.250000 0.866025
vn -0.433013 -0.250000 0.866025

# Faces
usemtl crystal_material
f 3//1 4//1 1//1 2//1
f 5//2 1//2 6//2 7//2
f 3//3 2//3 8//3 9//3
f 8//4 2//4 1//4 5//4 10//4
f 6//5 1//5 4//5
f 9//6 10//6 5//6 7//6
f 9//7 8//7 10//7
f 6//8 4//8 3//8 9//8 7//8