# Wavefront OBJ export
# Crystal geometry: ruby
# Vertices: 18, Faces: 12

mtllib ruby.mtl

# Vertices
v 2.291288 -1.322876 -0.000000
v 1.691288 -0.976465 -0.400000
v 0.055220 -1.322876 0.000000
v -0.627266 -1.086456 -0.272994
v -0.563763 -0.976465 -0.400000
v 1.173254 0.613616 -0.000000
v 1.691288 -0.976465 0.400000
v 0.627266 1.086456 0.272994
v 0.563763 0.976465 0.400000
v -1.173254 -0.613616 0.000000
v -2.291288 1.322876 -0.000000
v -0.773254 -0.613616 0.400000
v -1.691288 0.976465 0.400000
v 0.773254 0.613616 -0.400000
v -0.144780 -0.976465 0.400000
v -1.691288 0.976465 -0.400000
v -0.055220 1.322876 -0.000000
v 0.144780 0.976465 -0.400000

# Vertex normals
vn 0.000000 -0.755929 -0.654654
vn 0.654654 0.377964 0.654654
vn -0.654654 -0.377964 0.654654
vn 0.654654 0.377964 -0.654654
vn 0.000000 -0.755929 0.654654
vn -0.654654 -0.377964 -0.654654
vn -0.447214 -0.774597 0.447214
vn 0.447214 0.774597 -0.447214
vn 0.000000 0.755929 -0.654654
vn 0.000000 0.755929 0.654654
vn 0.000000 0.000000 -1.000000
vn 0.000000 0.000000 1.000000

# Faces
usemtl crystal_material
f 5//1 2//1 1//1 3//1 4//1
f 9//2 7//2 1//2 6//2 8//2
f 11//3 10//3 12//3 13//3
f 6//4 1//4 2//4 14//4
f 3//5 1//5 7//5 15//5
f 16//6 5//6 4//6 10//6 11//6
f 10//7 4//7 3//7 15//7 12//7
f 17//8 8//8 6//8 14//8 18//8
f 18//9 16//9 11//9 17//9
f 13//10 9//10 8//10 17//10 11//10
f 18//11 14//11 2//11 5//11 16//11
f 12//12 15//12 7//12 9//12 13//12