# Wavefront OBJ export
# Crystal geometry: rutile
# Vertices: 6, Faces: 8

mtllib rutile.mtl

# Vertices
v 0.848528 -0.848528 0.000000
v -0.848528 -0.848528 0.000000
v 0.000000 0.000000 -1.697056
v 0.000000 0.000000 1.697056
v 0.848528 0.848528 0.000000
v -0.848528 0.848528 0.000000

# Vertex normals
vn 0.000000 -0.707107 -0.707107
vn 0.707107 0.000000 0.707107
vn -0.707107 0.000000 0.707107
vn 0.707107 0.000000 -0.707107
vn 0.000000 -0.707107 0.707107
vn -0.707107 0.000000 -0.707107
vn 0.000000 0.707107 -0.707107
vn 0.000000 0.707107 0.707107

# Faces
usemtl crystal_material
f 3//1 1//1 2//1
f 4//2 1//2 5//2
f 6//3 2//3 4//3
f 5//4 1//4 3//4
f 2//5 1//5 4//5
f 3//6 2//6 6//6
f 5//7 3//7 6//7
f 6//8 4//8 5//8