# Wavefront OBJ export
# Crystal geometry: sapphire
# Vertices: 12, Faces: 10

mtllib sapphire.mtl

# Vertices
v 1.603901 -0.926013 0.000000
v 0.000000 -0.000000 -1.924682
v 0.038654 -0.926013 0.000000
v -0.439086 -0.760519 -0.343973
v 0.000000 0.000000 1.924682
v 0.821278 0.429531 -0.000000
v 0.439086 0.760519 0.343973
v -0.247990 -0.429531 1.031918
v -0.821278 -0.429531 0.000000
v -1.603901 0.926013 0.000000
v 0.247990 0.429531 -1.031918
v -0.038654 0.926013 -0.000000

# Vertex normals
vn 0.000000 -0.755929 -0.654654
vn 0.654654 0.377964 0.654654
vn -0.654654 -0.377964 0.654654
vn 0.654654 0.377964 -0.654654
vn 0.000000 -0.755929 0.654654
vn -0.654654 -0.377964 -0.654654
vn -0.447214 -0.774597 0.447214
vn 0.447214 0.774597 -0.447214
vn 0.000000 0.755929 -0.654654
vn 0.000000 0.755929 0.654654

# Faces
usemtl crystal_material
f 2//1 1//1 3//1 4//1
f 5//2 1//2 6//2 7//2
f 9//3 8//3 5//3 10//3
f 11//4 6//4 1//4 2//4
f 8//5 3//5 1//5 5//5
f 10//6 2//6 4//6 9//6
f 9//7 4//7 3//7 8//7
f 12//8 7//8 6//8 11//8
f 12//9 11//9 2//9 10//9
f 10//10 5//10 7//10 12//10