# Wavefront OBJ export
# Crystal geometry: scheelite
# Vertices: 12, Faces: 10

mtllib scheelite.mtl

# Vertices
v 0.989949 -0.989949 0.000000
v -0.989949 -0.989949 0.000000
v 0.589949 -0.589949 -0.400000
v -0.589949 -0.589949 -0.400000
v 0.589949 -0.589949 0.400000
v 0.989949 0.989949 0.000000
v 0.589949 0.589949 0.400000
v -0.589949 -0.589949 0.400000
v -0.989949 0.989949 0.000000
v -0.589949 0.589949 0.400000
v 0.589949 0.589949 -0.400000
v -0.589949 0.589949 -0.400000

# Vertex normals
vn 0.000000 -0.707107 -0.707107
vn 0.707107 0.000000 0.707107
vn -0.707107 0.000000 0.707107
vn 0.000000 -0.707107 0.707107
vn 0.707107 0.000000 -0.707107
vn -0.707107 0.000000 -0.707107
vn 0.000000 0.707107 -0.707107
vn 0.000000 0.707107 0.707107
vn 0.000000 0.000000 -1.000000
vn 0.000000 0.000000 1.000000

# Faces
usemtl crystal_material
f 4//1 3//1 1//1 2//1
f 7//2 5//2 1//2 6//2
f 9//3 2//3 8//3 10//3
f 2//4 1//4 5//4 8//4
f 6//5 1//5 3//5 11//5
f 12//6 4//6 2//6 9//6
f 9//7 6//7 11//7 12//7
f 10//8 7//8 6//8 9//8
f 11//9 3//9 4//9 12//9
f 8//10 5//10 7//10 10//10