# Wavefront OBJ export
# Crystal geometry: staurolite-cross-90
# Vertices: 24, Faces: 16

mtllib staurolite-cross-90.mtl

# Vertices
v -0.714214 -0.700000 -0.200000
v 0.714214 -0.700000 -0.200000
v -0.714214 -0.700000 0.200000
v 0.714214 -0.700000 0.200000
v -1.414214 -0.000000 -0.200000
v -1.414214 -0.000000 0.200000
v -0.714214 0.700000 0.200000
v -0.714214 0.700000 -0.200000
v 1.414214 0.000000 -0.200000
v 0.714214 0.700000 -0.200000
v 1.414214 0.000000 0.200000
v 0.714214 0.700000 0.200000
v 0.000000 -1.414214 -0.200000
v 0.000000 -1.414214 0.200000
v 0.700000 0.714214 -0.200000
v 0.700000 -0.714214 -0.200000
v 0.700000 0.714214 0.200000
v 0.700000 -0.714214 0.200000
v -0.700000 -0.714214 -0.200000
v -0.700000 -0.714214 0.200000
v -0.000000 1.414214 0.200000
v -0.700000 0.714214 0.200000
v 0.000000 1.414214 -0.200000
v -0.700000 0.714214 -0.200000

# Vertex normals
vn 0.707107 -0.707107 0.000000
vn -0.707107 -0.707107 -0.000000
vn 0.707107 0.707107 0.000000
vn -0.707107 0.707107 0.000000
vn -0.000000 -1.000000 0.000000
vn 0.000000 1.000000 0.000000
vn 0.000000 -0.000000 -1.000000
vn -0.000000 0.000000 1.000000
vn 0.707107 0.707107 0.000000
vn 0.707107 -0.707107 0.000000
vn -0.707107 0.707107 0.000000
vn -0.707107 -0.707107 0.000000
vn 1.000000 -0.000000 0.000000
vn -1.000000 0.000000 0.000000
vn -0.000000 -0.000000 -1.000000
vn 0.000000 0.000000 1.000000

# Faces
usemtl crystal_material
f 4//1 2//1 9//1 11//1
f 6//2 5//2 1//2 3//2
f 11//3 9//3 10//3 12//3
f 7//4 8//4 5//4 6//4
f 4//5 3//5 1//5 2//5
f 10//6 8//6 7//6 12//6
f 10//7 9//7 2//7 1//7 5//7 8//7
f 7//8 6//8 3//8 4//8 11//8 12//8
f 17//9 15//9 23//9 21//9
f 14//10 13//10 16//10 18//10
f 24//11 22//11 21//11 23//11
f 19//12 13//12 14//12 20//12
f 18//13 16//13 15//13 17//13
f 22//14 24//14 19//14 20//14
f 23//15 15//15 16//15 13//15 19//15 24//15
f 22//16 20//16 14//16 18//16 17//16 21//16