# Wavefront OBJ export
# Crystal geometry: tanzanite
# Vertices: 12, Faces: 8

mtllib tanzanite.mtl

# Vertices
v 0.089949 -0.900000 -1.200000
v -0.089949 -0.900000 -1.200000
v 0.089949 -0.900000 1.200000
v -0.089949 -0.900000 1.200000
v 0.089949 0.900000 -1.200000
v -0.089949 0.900000 -1.200000
v 0.089949 0.900000 1.200000
v -0.089949 0.900000 1.200000
v 0.989949 0.000000 -1.200000
v -0.989949 0.000000 -1.200000
v 0.989949 0.000000 1.200000
v -0.989949 0.000000 1.200000

# Vertex normals
vn 0.000000 -1.000000 0.000000
vn 0.000000 1.000000 0.000000
vn 0.000000 0.000000 -1.000000
vn 0.000000 0.000000 1.000000
vn 0.707107 -0.707107 0.000000
vn -0.707107 -0.707107 0.000000
vn 0.707107 0.707107 0.000000
vn -0.707107 0.707107 0.000000

# Faces
usemtl crystal_material
f 4//1 2//1 1//1 3//1
f 7//2 5//2 6//2 8//2
f 5//3 9//3 1//3 2//3 10//3 6//3
f 12//4 4//4 3//4 11//4 7//4 8//4
f 11//5 3//5 1//5 9//5
f 10//6 2//6 4//6 12//6
f 9//7 5//7 7//7 11//7
f 12//8 8//8 6//8 10//8