# Wavefront OBJ export
# Crystal geometry: topaz
# Vertices: 16, Faces: 10

mtllib topaz.mtl

# Vertices
v 1.414214 0.000000 -0.600000
v 1.414214 0.000000 0.600000
v 1.039573 -0.374641 -0.600000
v 1.039573 -0.374641 0.600000
v -1.414214 0.000000 -0.600000
v -1.414214 0.000000 0.600000
v -1.039573 -0.374641 -0.600000
v -1.039573 -0.374641 0.600000
v 1.039573 0.374641 -0.600000
v 1.039573 0.374641 0.600000
v -1.039573 0.374641 -0.600000
v -1.039573 0.374641 0.600000
v 0.000000 -0.894427 -0.600000
v 0.000000 -0.894427 0.600000
v 0.000000 0.894427 -0.600000
v 0.000000 0.894427 0.600000

# Vertex normals
vn 0.707107 -0.707107 0.000000
vn -0.707107 -0.707107 0.000000
vn 0.707107 0.707107 0.000000
vn -0.707107 0.707107 0.000000
vn 0.447214 -0.894427 0.000000
vn -0.447214 -0.894427 0.000000
vn -0.447214 0.894427 0.000000
vn 0.447214 0.894427 0.000000
vn 0.000000 0.000000 -1.000000
vn 0.000000 0.000000 1.000000

# Faces
usemtl crystal_material
f 3//1 1//1 2//1 4//1
f 8//2 6//2 5//2 7//2
f 2//3 1//3 9//3 10//3
f 12//4 11//4 5//4 6//4
f 13//5 3//5 4//5 14//5
f 14//6 8//6 7//6 13//6
f 15//7 11//7 12//7 16//7
f 16//8 10//8 9//8 15//8
f 5//9 11//9 15//9 9//9 1//9 3//9 13//9 7//9
f 8//10 14//10 4//10 2//10 10//10 16//10 12//10 6//10