# Wavefront OBJ export
# Crystal geometry: topaz-tabular
# Vertices: 16, Faces: 10

mtllib topaz-tabular.mtl

# Vertices
v 0.424264 -0.000000 -0.400000
v 0.401315 -0.022950 -0.400000
v -0.424264 -0.000000 -0.400000
v -0.401315 -0.022950 -0.400000
v 0.401315 0.022950 -0.400000
v -0.401315 0.022950 -0.400000
v 0.000000 -0.223607 -0.400000
v 0.000000 0.223607 -0.400000
v 0.424264 -0.000000 0.400000
v 0.401315 -0.022950 0.400000
v -0.424264 -0.000000 0.400000
v -0.401315 -0.022950 0.400000
v 0.401315 0.022950 0.400000
v -0.401315 0.022950 0.400000
v 0.000000 -0.223607 0.400000
v 0.000000 0.223607 0.400000

# Vertex normals
vn 0.000000 0.000000 -1.000000
vn 0.000000 0.000000 1.000000
vn 0.707107 -0.707107 0.000000
vn -0.707107 -0.707107 0.000000
vn 0.707107 0.707107 0.000000
vn -0.707107 0.707107 0.000000
vn 0.447214 -0.894427 0.000000
vn -0.447214 -0.894427 0.000000
vn -0.447214 0.894427 0.000000
vn 0.447214 0.894427 0.000000

# Faces
usemtl crystal_material
f 6//1 8//1 5//1 1//1 2//1 7//1 4//1 3//1
f 11//2 12//2 15//2 10//2 9//2 13//2 16//2 14//2
f 2//3 1//3 9//3 10//3
f 11//4 3//4 4//4 12//4
f 9//5 1//5 5//5 13//5
f 14//6 6//6 3//6 11//6
f 7//7 2//7 10//7 15//7
f 15//8 12//8 4//8 7//8
f 8//9 6//9 14//9 16//9
f 16//10 13//10 5//10 8//10