# Wavefront OBJ export
# Crystal geometry: tourmaline-watermelon
# Vertices: 13, Faces: 10

mtllib tourmaline-watermelon.mtl

# Vertices
v 1.732051 -1.000000 -0.100979
v 1.732051 -1.000000 0.100979
v 0.577350 1.000000 0.100979
v 0.577350 1.000000 -0.100979
v -0.483688 -0.875443 -0.316718
v -2.000000 -0.000000 -1.833030
v -3.516312 0.875443 -0.316718
v -0.124123 -1.000000 -0.100979
v 0.871283 -1.000000 1.392131
v -3.588225 1.000000 -0.100979
v -3.453586 1.000000 0.100979
v 0.000000 -0.000000 -1.833030
v -0.094472 -0.163631 2.116447

# Vertex normals
vn 0.866025 0.500000 -0.000000
vn -0.500000 -0.866025 0.000000
vn 0.000000 -1.000000 0.000000
vn 0.000000 1.000000 -0.000000
vn 0.000000 -0.755929 -0.654654
vn 0.654654 0.377964 0.654654
vn 0.654654 0.377964 -0.654654
vn -0.447214 -0.774597 0.447214
vn 0.000000 0.755929 -0.654654
vn 0.000000 0.755929 0.654654

# Faces
usemtl crystal_material
f 3//1 2//1 1//1 4//1
f 6//2 5//2 7//2
f 8//3 1//3 2//3 9//3
f 10//4 11//4 3//4 4//4
f 6//5 12//5 1//5 8//5 5//5
f 13//6 9//6 2//6 3//6
f 4//7 1//7 12//7
f 11//8 10//8 7//8 5//8 8//8 9//8 13//8
f 7//9 10//9 4//9 12//9 6//9
f 13//10 3//10 11//10