<?xml version="1.0" encoding="utf-8" standalone="no"?>
<!DOCTYPE svg PUBLIC "-//W3C//DTD SVG 1.1//EN"
  "http://www.w3.org/Graphics/SVG/1.1/DTD/svg11.dtd">
<svg xmlns:xlink="http://www.w3.org/1999/xlink" width="424.8pt" height="424.8pt" viewBox="0 0 424.8 424.8" xmlns="http://www.w3.org/2000/svg" version="1.1">
 <metadata>
  <rdf:RDF xmlns:dc="http://purl.org/dc/elements/1.1/" xmlns:cc="http://creativecommons.org/ns#" xmlns:rdf="http://www.w3.org/1999/02/22-rdf-syntax-ns#">
   <cc:Work>
    <dc:type rdf:resource="http://purl.org/dc/dcmitype/StillImage"/>
    <dc:date>2026-01-26T17:06:13.223141</dc:date>
    <dc:format>image/svg+xml</dc:format>
    <dc:creator>
     <cc:Agent>
      <dc:title>Matplotlib v3.10.8, https://matplotlib.org/</dc:title>
     </cc:Agent>
    </dc:creator>
   </cc:Work>
  </rdf:RDF>
 </metadata>
 <defs>
  <style type="text/css">*{stroke-linejoin: round; stroke-linecap: butt}</style>
 </defs>
 <g id="figure_1">
  <g id="patch_1">
   <path d="M 0 424.8 
L 424.8 424.8 
L 424.8 0 
L 0 0 
z
" style="fill: #ffffff"/>
  </g>
  <g id="patch_2">
   <path d="M 7.2 417.6 
L 417.6 417.6 
L 417.6 7.2 
L 7.2 7.2 
z
" style="fill: #ffffff"/>
  </g>
  <g id="axes_1">
   <g id="Path3DCollection_1">
    <defs>
     <path id="C0_0_b982f2b198" d="M 0 2.738613 
C 0.726289 2.738613 1.422928 2.450055 1.936492 1.936492 
C 2.450055 1.422928 2.738613 0.726289 2.738613 -0 
C 2.738613 -0.726289 2.450055 -1.422928 1.936492 -1.936492 
C 1.422928 -2.450055 0.726289 -2.738613 0 -2.738613 
C -0.726289 -2.738613 -1.422928 -2.450055 -1.936492 -1.936492 
C -2.450055 -1.422928 -2.738613 -0.726289 -2.738613 0 
C -2.738613 0.726289 -2.450055 1.422928 -1.936492 1.936492 
C -1.422928 2.450055 -0.726289 2.738613 0 2.738613 
z
"/>
    </defs>
    <g clip-path="url(#p786057ddfc)">
     <use xlink:href="#C0_0_b982f2b198" x="185.059973" y="148.265903" style="fill: #0369a1; fill-opacity: 0.3; stroke: #0369a1; stroke-opacity: 0.3"/>
    </g>
    <g clip-path="url(#p786057ddfc)">
     <use xlink:href="#C0_0_b982f2b198" x="197.382747" y="189.114843" style="fill: #0369a1; fill-opacity: 0.3; stroke: #0369a1; stroke-opacity: 0.3"/>
    </g>
    <g clip-path="url(#p786057ddfc)">
     <use xlink:href="#C0_0_b982f2b198" x="262.396606" y="186.93422" style="fill: #0369a1; fill-opacity: 0.3; stroke: #0369a1; stroke-opacity: 0.3"/>
    </g>
    <g clip-path="url(#p786057ddfc)">
     <use xlink:href="#C0_0_b982f2b198" x="262.396606" y="181.378399" style="fill: #0369a1; fill-opacity: 0.3; stroke: #0369a1; stroke-opacity: 0.3"/>
    </g>
    <g clip-path="url(#p786057ddfc)">
     <use xlink:href="#C0_0_b982f2b198" x="265.420812" y="185.668412" style="fill: #0369a1; fill-opacity: 0.3; stroke: #0369a1; stroke-opacity: 0.3"/>
    </g>
    <g clip-path="url(#p786057ddfc)">
     <use xlink:href="#C0_0_b982f2b198" x="255.282049" y="218.064494" style="fill: #0369a1; fill-opacity: 0.3; stroke: #0369a1; stroke-opacity: 0.3"/>
    </g>
    <g clip-path="url(#p786057ddfc)">
     <use xlink:href="#C0_0_b982f2b198" x="156.752801" y="201.087806" style="fill: #0369a1; fill-opacity: 0.3; stroke: #0369a1; stroke-opacity: 0.3"/>
    </g>
    <g clip-path="url(#p786057ddfc)">
     <use xlink:href="#C0_0_b982f2b198" x="259.70176" y="226.311786" style="fill: #0369a1; fill-opacity: 0.3; stroke: #0369a1; stroke-opacity: 0.3"/>
    </g>
    <g clip-path="url(#p786057ddfc)">
     <use xlink:href="#C0_0_b982f2b198" x="176.190132" y="228.660801" style="fill: #0369a1; fill-opacity: 0.3; stroke: #0369a1; stroke-opacity: 0.3"/>
    </g>
   </g>
   <g id="Poly3DCollection_1">
    <path d="M 262.396606 186.93422 
L 185.059973 148.265903 
L 185.059973 142.710083 
L 262.396606 181.378399 
L 265.420812 185.668412 
z
" clip-path="url(#p786057ddfc)" style="fill: #0ea5e9; fill-opacity: 0.7; stroke: #0369a1; stroke-opacity: 0.7; stroke-width: 1.5"/>
    <path d="M 255.282049 218.064494 
L 197.382747 189.114843 
L 185.059973 148.265903 
L 262.396606 186.93422 
z
" clip-path="url(#p786057ddfc)" style="fill: #0ea5e9; fill-opacity: 0.7; stroke: #0369a1; stroke-opacity: 0.7; stroke-width: 1.5"/>
    <path d="M 156.752801 201.087806 
L 185.059973 148.265903 
L 197.382747 189.114843 
L 176.190132 228.660801 
z
" clip-path="url(#p786057ddfc)" style="fill: #0ea5e9; fill-opacity: 0.7; stroke: #0369a1; stroke-opacity: 0.7; stroke-width: 1.5"/>
    <path d="M 155.645865 200.375467 
L 156.752801 195.531986 
L 185.059973 142.710083 
L 185.059973 148.265903 
L 156.752801 201.087806 
z
" clip-path="url(#p786057ddfc)" style="fill: #0ea5e9; fill-opacity: 0.7; stroke: #0369a1; stroke-opacity: 0.7; stroke-width: 1.5"/>
    <path d="M 262.396606 181.378399 
L 185.059973 142.710083 
L 197.382747 147.850364 
L 255.282049 176.800015 
z
" clip-path="url(#p786057ddfc)" style="fill: #0ea5e9; fill-opacity: 0.7; stroke: #0369a1; stroke-opacity: 0.7; stroke-width: 1.5"/>
    <path d="M 176.190132 187.396322 
L 197.382747 147.850364 
L 185.059973 142.710083 
L 156.752801 195.531986 
z
" clip-path="url(#p786057ddfc)" style="fill: #0ea5e9; fill-opacity: 0.7; stroke: #0369a1; stroke-opacity: 0.7; stroke-width: 1.5"/>
    <path d="M 259.70176 226.311786 
L 255.282049 218.064494 
L 262.396606 186.93422 
L 265.420812 185.668412 
L 280.246027 213.332641 
L 279.139091 218.176122 
z
" clip-path="url(#p786057ddfc)" style="fill: #0ea5e9; fill-opacity: 0.7; stroke: #0369a1; stroke-opacity: 0.7; stroke-width: 1.5"/>
    <path d="M 259.70176 226.311786 
L 250.381313 243.703977 
L 206.073778 249.640061 
L 180.609843 236.908093 
L 176.190132 228.660801 
L 197.382747 189.114843 
L 255.282049 218.064494 
z
" clip-path="url(#p786057ddfc)" style="fill: #0ea5e9; fill-opacity: 0.7; stroke: #0369a1; stroke-opacity: 0.7; stroke-width: 1.5"/>
    <path d="M 279.139091 212.620302 
L 280.246027 213.332641 
L 265.420812 185.668412 
L 262.396606 181.378399 
L 255.282049 176.800015 
L 259.70176 185.047307 
z
" clip-path="url(#p786057ddfc)" style="fill: #0ea5e9; fill-opacity: 0.7; stroke: #0369a1; stroke-opacity: 0.7; stroke-width: 1.5"/>
    <path d="M 176.190132 228.660801 
L 180.609843 236.908093 
L 173.495286 232.329709 
L 170.47108 228.039696 
L 155.645865 200.375467 
L 156.752801 201.087806 
z
" clip-path="url(#p786057ddfc)" style="fill: #0ea5e9; fill-opacity: 0.7; stroke: #0369a1; stroke-opacity: 0.7; stroke-width: 1.5"/>
    <path d="M 176.190132 187.396322 
L 180.609843 195.643615 
L 206.073778 208.375582 
L 250.381313 202.439498 
L 259.70176 185.047307 
L 255.282049 176.800015 
L 197.382747 147.850364 
z
" clip-path="url(#p786057ddfc)" style="fill: #0ea5e9; fill-opacity: 0.7; stroke: #0369a1; stroke-opacity: 0.7; stroke-width: 1.5"/>
    <path d="M 259.70176 226.311786 
L 279.139091 218.176122 
L 269.818644 235.568313 
L 250.381313 243.703977 
z
" clip-path="url(#p786057ddfc)" style="fill: #0ea5e9; fill-opacity: 0.7; stroke: #0369a1; stroke-opacity: 0.7; stroke-width: 1.5"/>
    <path d="M 156.752801 195.531986 
L 155.645865 200.375467 
L 170.47108 228.039696 
L 173.495286 226.773888 
L 180.609843 195.643615 
L 176.190132 187.396322 
z
" clip-path="url(#p786057ddfc)" style="fill: #0ea5e9; fill-opacity: 0.7; stroke: #0369a1; stroke-opacity: 0.7; stroke-width: 1.5"/>
    <path d="M 280.246027 213.332641 
L 279.139091 212.620302 
L 269.818644 230.012493 
L 269.818644 235.568313 
L 279.139091 218.176122 
z
" clip-path="url(#p786057ddfc)" style="fill: #0ea5e9; fill-opacity: 0.7; stroke: #0369a1; stroke-opacity: 0.7; stroke-width: 1.5"/>
    <path d="M 259.70176 185.047307 
L 250.381313 202.439498 
L 269.818644 230.012493 
L 279.139091 212.620302 
z
" clip-path="url(#p786057ddfc)" style="fill: #0ea5e9; fill-opacity: 0.7; stroke: #0369a1; stroke-opacity: 0.7; stroke-width: 1.5"/>
    <path d="M 206.073778 249.640061 
L 198.959221 245.061676 
L 173.495286 232.329709 
L 180.609843 236.908093 
z
" clip-path="url(#p786057ddfc)" style="fill: #0ea5e9; fill-opacity: 0.7; stroke: #0369a1; stroke-opacity: 0.7; stroke-width: 1.5"/>
    <path d="M 269.818644 235.568313 
L 198.959221 245.061676 
L 206.073778 249.640061 
L 250.381313 243.703977 
z
" clip-path="url(#p786057ddfc)" style="fill: #0ea5e9; fill-opacity: 0.7; stroke: #0369a1; stroke-opacity: 0.7; stroke-width: 1.5"/>
    <path d="M 173.495286 226.773888 
L 198.959221 239.505856 
L 206.073778 208.375582 
L 180.609843 195.643615 
z
" clip-path="url(#p786057ddfc)" style="fill: #0ea5e9; fill-opacity: 0.7; stroke: #0369a1; stroke-opacity: 0.7; stroke-width: 1.5"/>
    <path d="M 170.47108 228.039696 
L 173.495286 232.329709 
L 198.959221 245.061676 
L 198.959221 239.505856 
L 173.495286 226.773888 
z
" clip-path="url(#p786057ddfc)" style="fill: #0ea5e9; fill-opacity: 0.7; stroke: #0369a1; stroke-opacity: 0.7; stroke-width: 1.5"/>
    <path d="M 250.381313 202.439498 
L 206.073778 208.375582 
L 198.959221 239.505856 
L 269.818644 230.012493 
z
" clip-path="url(#p786057ddfc)" style="fill: #0ea5e9; fill-opacity: 0.7; stroke: #0369a1; stroke-opacity: 0.7; stroke-width: 1.5"/>
    <path d="M 198.959221 239.505856 
L 198.959221 245.061676 
L 269.818644 235.568313 
L 269.818644 230.012493 
z
" clip-path="url(#p786057ddfc)" style="fill: #0ea5e9; fill-opacity: 0.7; stroke: #0369a1; stroke-opacity: 0.7; stroke-width: 1.5"/>
   </g>
   <g id="Path3DCollection_2">
    <defs>
     <path id="C1_0_634c0fd036" d="M 0 2.738613 
C 0.726289 2.738613 1.422928 2.450055 1.936492 1.936492 
C 2.450055 1.422928 2.738613 0.726289 2.738613 -0 
C 2.738613 -0.726289 2.450055 -1.422928 1.936492 -1.936492 
C 1.422928 -2.450055 0.726289 -2.738613 0 -2.738613 
C -0.726289 -2.738613 -1.422928 -2.450055 -1.936492 -1.936492 
C -2.450055 -1.422928 -2.738613 -0.726289 -2.738613 0 
C -2.738613 0.726289 -2.450055 1.422928 -1.936492 1.936492 
C -1.422928 2.450055 -0.726289 2.738613 0 2.738613 
z
"/>
    </defs>
    <g clip-path="url(#p786057ddfc)">
     <use xlink:href="#C1_0_634c0fd036" x="185.059973" y="142.710083" style="fill: #0369a1; fill-opacity: 0.9; stroke: #0369a1; stroke-opacity: 0.9"/>
    </g>
    <g clip-path="url(#p786057ddfc)">
     <use xlink:href="#C1_0_634c0fd036" x="197.382747" y="147.850364" style="fill: #0369a1; fill-opacity: 0.9; stroke: #0369a1; stroke-opacity: 0.9"/>
    </g>
    <g clip-path="url(#p786057ddfc)">
     <use xlink:href="#C1_0_634c0fd036" x="156.752801" y="195.531986" style="fill: #0369a1; fill-opacity: 0.9; stroke: #0369a1; stroke-opacity: 0.9"/>
    </g>
    <g clip-path="url(#p786057ddfc)">
     <use xlink:href="#C1_0_634c0fd036" x="155.645865" y="200.375467" style="fill: #0369a1; fill-opacity: 0.9; stroke: #0369a1; stroke-opacity: 0.9"/>
    </g>
    <g clip-path="url(#p786057ddfc)">
     <use xlink:href="#C1_0_634c0fd036" x="255.282049" y="176.800015" style="fill: #0369a1; fill-opacity: 0.9; stroke: #0369a1; stroke-opacity: 0.9"/>
    </g>
    <g clip-path="url(#p786057ddfc)">
     <use xlink:href="#C1_0_634c0fd036" x="180.609843" y="236.908093" style="fill: #0369a1; fill-opacity: 0.9; stroke: #0369a1; stroke-opacity: 0.9"/>
    </g>
    <g clip-path="url(#p786057ddfc)">
     <use xlink:href="#C1_0_634c0fd036" x="259.70176" y="185.047307" style="fill: #0369a1; fill-opacity: 0.9; stroke: #0369a1; stroke-opacity: 0.9"/>
    </g>
    <g clip-path="url(#p786057ddfc)">
     <use xlink:href="#C1_0_634c0fd036" x="280.246027" y="213.332641" style="fill: #0369a1; fill-opacity: 0.9; stroke: #0369a1; stroke-opacity: 0.9"/>
    </g>
    <g clip-path="url(#p786057ddfc)">
     <use xlink:href="#C1_0_634c0fd036" x="279.139091" y="218.176122" style="fill: #0369a1; fill-opacity: 0.9; stroke: #0369a1; stroke-opacity: 0.9"/>
    </g>
    <g clip-path="url(#p786057ddfc)">
     <use xlink:href="#C1_0_634c0fd036" x="176.190132" y="187.396322" style="fill: #0369a1; fill-opacity: 0.9; stroke: #0369a1; stroke-opacity: 0.9"/>
    </g>
    <g clip-path="url(#p786057ddfc)">
     <use xlink:href="#C1_0_634c0fd036" x="250.381313" y="243.703977" style="fill: #0369a1; fill-opacity: 0.9; stroke: #0369a1; stroke-opacity: 0.9"/>
    </g>
    <g clip-path="url(#p786057ddfc)">
     <use xlink:href="#C1_0_634c0fd036" x="279.139091" y="212.620302" style="fill: #0369a1; fill-opacity: 0.9; stroke: #0369a1; stroke-opacity: 0.9"/>
    </g>
    <g clip-path="url(#p786057ddfc)">
     <use xlink:href="#C1_0_634c0fd036" x="206.073778" y="249.640061" style="fill: #0369a1; fill-opacity: 0.9; stroke: #0369a1; stroke-opacity: 0.9"/>
    </g>
    <g clip-path="url(#p786057ddfc)">
     <use xlink:href="#C1_0_634c0fd036" x="180.609843" y="195.643615" style="fill: #0369a1; fill-opacity: 0.9; stroke: #0369a1; stroke-opacity: 0.9"/>
    </g>
    <g clip-path="url(#p786057ddfc)">
     <use xlink:href="#C1_0_634c0fd036" x="170.47108" y="228.039696" style="fill: #0369a1; fill-opacity: 0.9; stroke: #0369a1; stroke-opacity: 0.9"/>
    </g>
    <g clip-path="url(#p786057ddfc)">
     <use xlink:href="#C1_0_634c0fd036" x="173.495286" y="232.329709" style="fill: #0369a1; fill-opacity: 0.9; stroke: #0369a1; stroke-opacity: 0.9"/>
    </g>
    <g clip-path="url(#p786057ddfc)">
     <use xlink:href="#C1_0_634c0fd036" x="250.381313" y="202.439498" style="fill: #0369a1; fill-opacity: 0.9; stroke: #0369a1; stroke-opacity: 0.9"/>
    </g>
    <g clip-path="url(#p786057ddfc)">
     <use xlink:href="#C1_0_634c0fd036" x="173.495286" y="226.773888" style="fill: #0369a1; fill-opacity: 0.9; stroke: #0369a1; stroke-opacity: 0.9"/>
    </g>
    <g clip-path="url(#p786057ddfc)">
     <use xlink:href="#C1_0_634c0fd036" x="269.818644" y="235.568313" style="fill: #0369a1; fill-opacity: 0.9; stroke: #0369a1; stroke-opacity: 0.9"/>
    </g>
    <g clip-path="url(#p786057ddfc)">
     <use xlink:href="#C1_0_634c0fd036" x="269.818644" y="230.012493" style="fill: #0369a1; fill-opacity: 0.9; stroke: #0369a1; stroke-opacity: 0.9"/>
    </g>
    <g clip-path="url(#p786057ddfc)">
     <use xlink:href="#C1_0_634c0fd036" x="206.073778" y="208.375582" style="fill: #0369a1; fill-opacity: 0.9; stroke: #0369a1; stroke-opacity: 0.9"/>
    </g>
    <g clip-path="url(#p786057ddfc)">
     <use xlink:href="#C1_0_634c0fd036" x="198.959221" y="245.061676" style="fill: #0369a1; fill-opacity: 0.9; stroke: #0369a1; stroke-opacity: 0.9"/>
    </g>
    <g clip-path="url(#p786057ddfc)">
     <use xlink:href="#C1_0_634c0fd036" x="198.959221" y="239.505856" style="fill: #0369a1; fill-opacity: 0.9; stroke: #0369a1; stroke-opacity: 0.9"/>
    </g>
   </g>
  </g>
 </g>
 <defs>
  <clipPath id="p786057ddfc">
   <rect x="7.2" y="7.2" width="410.4" height="410.4"/>
  </clipPath>
 </defs>
</svg>
