<?xml version="1.0" encoding="utf-8" standalone="no"?>
<!DOCTYPE svg PUBLIC "-//W3C//DTD SVG 1.1//EN"
  "http://www.w3.org/Graphics/SVG/1.1/DTD/svg11.dtd">
<svg xmlns:xlink="http://www.w3.org/1999/xlink" width="424.8pt" height="424.8pt" viewBox="0 0 424.8 424.8" xmlns="http://www.w3.org/2000/svg" version="1.1">
 <metadata>
  <rdf:RDF xmlns:dc="http://purl.org/dc/elements/1.1/" xmlns:cc="http://creativecommons.org/ns#" xmlns:rdf="http://www.w3.org/1999/02/22-rdf-syntax-ns#">
   <cc:Work>
    <dc:type rdf:resource="http://purl.org/dc/dcmitype/StillImage"/>
    <dc:date>2026-01-27T08:32:31.603298</dc:date>
    <dc:format>image/svg+xml</dc:format>
    <dc:creator>
     <cc:Agent>
      <dc:title>Matplotlib v3.10.8, https://matplotlib.org/</dc:title>
     </cc:Agent>
    </dc:creator>
   </cc:Work>
  </rdf:RDF>
 </metadata>
 <defs>
  <style type="text/css">*{stroke-linejoin: round; stroke-linecap: butt}</style>
 </defs>
 <g id="figure_1">
  <g id="patch_1">
   <path d="M 0 424.8 
L 424.8 424.8 
L 424.8 0 
L 0 0 
z
" style="fill: #ffffff"/>
  </g>
  <g id="patch_2">
   <path d="M 7.2 417.6 
L 417.6 417.6 
L 417.6 7.2 
L 7.2 7.2 
z
" style="fill: #ffffff"/>
  </g>
  <g id="axes_1">
   <g id="Path3DCollection_1">
    <defs>
     <path id="C0_0_d64e3331d9" d="M 0 2.738613 
C 0.726289 2.738613 1.422928 2.450055 1.936492 1.936492 
C 2.450055 1.422928 2.738613 0.726289 2.738613 -0 
C 2.738613 -0.726289 2.450055 -1.422928 1.936492 -1.936492 
C 1.422928 -2.450055 0.726289 -2.738613 0 -2.738613 
C -0.726289 -2.738613 -1.422928 -2.450055 -1.936492 -1.936492 
C -2.450055 -1.422928 -2.738613 -0.726289 -2.738613 0 
C -2.738613 0.726289 -2.450055 1.422928 -1.936492 1.936492 
C -1.422928 2.450055 -0.726289 2.738613 0 2.738613 
z
"/>
    </defs>
    <g clip-path="url(#pb4db504a41)">
     <use xlink:href="#C0_0_d64e3331d9" x="246.426034" y="157.876351" style="fill: #0369a1; fill-opacity: 0.3; stroke: #0369a1; stroke-opacity: 0.3"/>
    </g>
    <g clip-path="url(#pb4db504a41)">
     <use xlink:href="#C0_0_d64e3331d9" x="246.426034" y="149.542621" style="fill: #0369a1; fill-opacity: 0.3; stroke: #0369a1; stroke-opacity: 0.3"/>
    </g>
    <g clip-path="url(#pb4db504a41)">
     <use xlink:href="#C0_0_d64e3331d9" x="235.754198" y="204.571762" style="fill: #0369a1; fill-opacity: 0.3; stroke: #0369a1; stroke-opacity: 0.3"/>
    </g>
    <g clip-path="url(#pb4db504a41)">
     <use xlink:href="#C0_0_d64e3331d9" x="140.136898" y="172.116396" style="fill: #0369a1; fill-opacity: 0.3; stroke: #0369a1; stroke-opacity: 0.3"/>
    </g>
    <g clip-path="url(#pb4db504a41)">
     <use xlink:href="#C0_0_d64e3331d9" x="169.292896" y="213.475888" style="fill: #0369a1; fill-opacity: 0.3; stroke: #0369a1; stroke-opacity: 0.3"/>
    </g>
    <g clip-path="url(#pb4db504a41)">
     <use xlink:href="#C0_0_d64e3331d9" x="284.407248" y="228.898287" style="fill: #0369a1; fill-opacity: 0.3; stroke: #0369a1; stroke-opacity: 0.3"/>
    </g>
   </g>
   <g id="Poly3DCollection_1">
    <path d="M 246.426034 149.542621 
L 246.426034 157.876351 
L 140.136898 172.116396 
L 140.136898 163.782665 
z
" clip-path="url(#pb4db504a41)" style="fill: #0ea5e9; fill-opacity: 0.7; stroke: #0369a1; stroke-opacity: 0.7; stroke-width: 1.5"/>
    <path d="M 140.136898 172.116396 
L 246.426034 157.876351 
L 235.754198 204.571762 
L 169.292896 213.475888 
z
" clip-path="url(#pb4db504a41)" style="fill: #0ea5e9; fill-opacity: 0.7; stroke: #0369a1; stroke-opacity: 0.7; stroke-width: 1.5"/>
    <path d="M 246.426034 157.876351 
L 246.426034 149.542621 
L 324.235082 188.447145 
L 324.235082 196.780875 
z
" clip-path="url(#pb4db504a41)" style="fill: #0ea5e9; fill-opacity: 0.7; stroke: #0369a1; stroke-opacity: 0.7; stroke-width: 1.5"/>
    <path d="M 246.426034 157.876351 
L 324.235082 196.780875 
L 284.407248 228.898287 
L 235.754198 204.571762 
z
" clip-path="url(#pb4db504a41)" style="fill: #0ea5e9; fill-opacity: 0.7; stroke: #0369a1; stroke-opacity: 0.7; stroke-width: 1.5"/>
    <path d="M 169.292896 151.57917 
L 235.754198 142.675044 
L 246.426034 149.542621 
L 140.136898 163.782665 
z
" clip-path="url(#pb4db504a41)" style="fill: #0ea5e9; fill-opacity: 0.7; stroke: #0369a1; stroke-opacity: 0.7; stroke-width: 1.5"/>
    <path d="M 235.754198 142.675044 
L 284.407248 167.001569 
L 324.235082 188.447145 
L 246.426034 149.542621 
z
" clip-path="url(#pb4db504a41)" style="fill: #0ea5e9; fill-opacity: 0.7; stroke: #0369a1; stroke-opacity: 0.7; stroke-width: 1.5"/>
    <path d="M 169.292896 213.475888 
L 151.484644 246.706539 
L 111.65681 225.260963 
L 140.136898 172.116396 
z
" clip-path="url(#pb4db504a41)" style="fill: #0ea5e9; fill-opacity: 0.7; stroke: #0369a1; stroke-opacity: 0.7; stroke-width: 1.5"/>
    <path d="M 140.136898 163.782665 
L 140.136898 172.116396 
L 111.65681 225.260963 
L 111.65681 216.927233 
z
" clip-path="url(#pb4db504a41)" style="fill: #0ea5e9; fill-opacity: 0.7; stroke: #0369a1; stroke-opacity: 0.7; stroke-width: 1.5"/>
    <path d="M 266.598996 262.128938 
L 200.137694 271.033064 
L 151.484644 246.706539 
L 169.292896 213.475888 
L 235.754198 204.571762 
L 284.407248 228.898287 
z
" clip-path="url(#pb4db504a41)" style="fill: #0ea5e9; fill-opacity: 0.7; stroke: #0369a1; stroke-opacity: 0.7; stroke-width: 1.5"/>
    <path d="M 140.136898 163.782665 
L 111.65681 216.927233 
L 151.484644 184.809821 
L 169.292896 151.57917 
z
" clip-path="url(#pb4db504a41)" style="fill: #0ea5e9; fill-opacity: 0.7; stroke: #0369a1; stroke-opacity: 0.7; stroke-width: 1.5"/>
    <path d="M 266.598996 262.128938 
L 284.407248 228.898287 
L 324.235082 196.780875 
L 295.754993 249.925443 
z
" clip-path="url(#pb4db504a41)" style="fill: #0ea5e9; fill-opacity: 0.7; stroke: #0369a1; stroke-opacity: 0.7; stroke-width: 1.5"/>
    <path d="M 151.484644 184.809821 
L 200.137694 209.136346 
L 266.598996 200.23222 
L 284.407248 167.001569 
L 235.754198 142.675044 
L 169.292896 151.57917 
z
" clip-path="url(#pb4db504a41)" style="fill: #0ea5e9; fill-opacity: 0.7; stroke: #0369a1; stroke-opacity: 0.7; stroke-width: 1.5"/>
    <path d="M 324.235082 196.780875 
L 324.235082 188.447145 
L 295.754993 241.591713 
L 295.754993 249.925443 
z
" clip-path="url(#pb4db504a41)" style="fill: #0ea5e9; fill-opacity: 0.7; stroke: #0369a1; stroke-opacity: 0.7; stroke-width: 1.5"/>
    <path d="M 295.754993 241.591713 
L 324.235082 188.447145 
L 284.407248 167.001569 
L 266.598996 200.23222 
z
" clip-path="url(#pb4db504a41)" style="fill: #0ea5e9; fill-opacity: 0.7; stroke: #0369a1; stroke-opacity: 0.7; stroke-width: 1.5"/>
    <path d="M 189.465858 264.165487 
L 111.65681 225.260963 
L 151.484644 246.706539 
L 200.137694 271.033064 
z
" clip-path="url(#pb4db504a41)" style="fill: #0ea5e9; fill-opacity: 0.7; stroke: #0369a1; stroke-opacity: 0.7; stroke-width: 1.5"/>
    <path d="M 295.754993 249.925443 
L 189.465858 264.165487 
L 200.137694 271.033064 
L 266.598996 262.128938 
z
" clip-path="url(#pb4db504a41)" style="fill: #0ea5e9; fill-opacity: 0.7; stroke: #0369a1; stroke-opacity: 0.7; stroke-width: 1.5"/>
    <path d="M 200.137694 209.136346 
L 151.484644 184.809821 
L 111.65681 216.927233 
L 189.465858 255.831757 
z
" clip-path="url(#pb4db504a41)" style="fill: #0ea5e9; fill-opacity: 0.7; stroke: #0369a1; stroke-opacity: 0.7; stroke-width: 1.5"/>
    <path d="M 111.65681 216.927233 
L 111.65681 225.260963 
L 189.465858 264.165487 
L 189.465858 255.831757 
z
" clip-path="url(#pb4db504a41)" style="fill: #0ea5e9; fill-opacity: 0.7; stroke: #0369a1; stroke-opacity: 0.7; stroke-width: 1.5"/>
    <path d="M 266.598996 200.23222 
L 200.137694 209.136346 
L 189.465858 255.831757 
L 295.754993 241.591713 
z
" clip-path="url(#pb4db504a41)" style="fill: #0ea5e9; fill-opacity: 0.7; stroke: #0369a1; stroke-opacity: 0.7; stroke-width: 1.5"/>
    <path d="M 189.465858 255.831757 
L 189.465858 264.165487 
L 295.754993 249.925443 
L 295.754993 241.591713 
z
" clip-path="url(#pb4db504a41)" style="fill: #0ea5e9; fill-opacity: 0.7; stroke: #0369a1; stroke-opacity: 0.7; stroke-width: 1.5"/>
   </g>
   <g id="Path3DCollection_2">
    <defs>
     <path id="C1_0_03c53bf23d" d="M 0 2.738613 
C 0.726289 2.738613 1.422928 2.450055 1.936492 1.936492 
C 2.450055 1.422928 2.738613 0.726289 2.738613 -0 
C 2.738613 -0.726289 2.450055 -1.422928 1.936492 -1.936492 
C 1.422928 -2.450055 0.726289 -2.738613 0 -2.738613 
C -0.726289 -2.738613 -1.422928 -2.450055 -1.936492 -1.936492 
C -2.450055 -1.422928 -2.738613 -0.726289 -2.738613 0 
C -2.738613 0.726289 -2.450055 1.422928 -1.936492 1.936492 
C -1.422928 2.450055 -0.726289 2.738613 0 2.738613 
z
"/>
    </defs>
    <g clip-path="url(#pb4db504a41)">
     <use xlink:href="#C1_0_03c53bf23d" x="140.136898" y="163.782665" style="fill: #0369a1; fill-opacity: 0.9; stroke: #0369a1; stroke-opacity: 0.9"/>
    </g>
    <g clip-path="url(#pb4db504a41)">
     <use xlink:href="#C1_0_03c53bf23d" x="235.754198" y="142.675044" style="fill: #0369a1; fill-opacity: 0.9; stroke: #0369a1; stroke-opacity: 0.9"/>
    </g>
    <g clip-path="url(#pb4db504a41)">
     <use xlink:href="#C1_0_03c53bf23d" x="324.235082" y="196.780875" style="fill: #0369a1; fill-opacity: 0.9; stroke: #0369a1; stroke-opacity: 0.9"/>
    </g>
    <g clip-path="url(#pb4db504a41)">
     <use xlink:href="#C1_0_03c53bf23d" x="169.292896" y="151.57917" style="fill: #0369a1; fill-opacity: 0.9; stroke: #0369a1; stroke-opacity: 0.9"/>
    </g>
    <g clip-path="url(#pb4db504a41)">
     <use xlink:href="#C1_0_03c53bf23d" x="324.235082" y="188.447145" style="fill: #0369a1; fill-opacity: 0.9; stroke: #0369a1; stroke-opacity: 0.9"/>
    </g>
    <g clip-path="url(#pb4db504a41)">
     <use xlink:href="#C1_0_03c53bf23d" x="151.484644" y="246.706539" style="fill: #0369a1; fill-opacity: 0.9; stroke: #0369a1; stroke-opacity: 0.9"/>
    </g>
    <g clip-path="url(#pb4db504a41)">
     <use xlink:href="#C1_0_03c53bf23d" x="284.407248" y="167.001569" style="fill: #0369a1; fill-opacity: 0.9; stroke: #0369a1; stroke-opacity: 0.9"/>
    </g>
    <g clip-path="url(#pb4db504a41)">
     <use xlink:href="#C1_0_03c53bf23d" x="111.65681" y="225.260963" style="fill: #0369a1; fill-opacity: 0.9; stroke: #0369a1; stroke-opacity: 0.9"/>
    </g>
    <g clip-path="url(#pb4db504a41)">
     <use xlink:href="#C1_0_03c53bf23d" x="266.598996" y="262.128938" style="fill: #0369a1; fill-opacity: 0.9; stroke: #0369a1; stroke-opacity: 0.9"/>
    </g>
    <g clip-path="url(#pb4db504a41)">
     <use xlink:href="#C1_0_03c53bf23d" x="111.65681" y="216.927233" style="fill: #0369a1; fill-opacity: 0.9; stroke: #0369a1; stroke-opacity: 0.9"/>
    </g>
    <g clip-path="url(#pb4db504a41)">
     <use xlink:href="#C1_0_03c53bf23d" x="151.484644" y="184.809821" style="fill: #0369a1; fill-opacity: 0.9; stroke: #0369a1; stroke-opacity: 0.9"/>
    </g>
    <g clip-path="url(#pb4db504a41)">
     <use xlink:href="#C1_0_03c53bf23d" x="200.137694" y="271.033064" style="fill: #0369a1; fill-opacity: 0.9; stroke: #0369a1; stroke-opacity: 0.9"/>
    </g>
    <g clip-path="url(#pb4db504a41)">
     <use xlink:href="#C1_0_03c53bf23d" x="266.598996" y="200.23222" style="fill: #0369a1; fill-opacity: 0.9; stroke: #0369a1; stroke-opacity: 0.9"/>
    </g>
    <g clip-path="url(#pb4db504a41)">
     <use xlink:href="#C1_0_03c53bf23d" x="295.754993" y="249.925443" style="fill: #0369a1; fill-opacity: 0.9; stroke: #0369a1; stroke-opacity: 0.9"/>
    </g>
    <g clip-path="url(#pb4db504a41)">
     <use xlink:href="#C1_0_03c53bf23d" x="295.754993" y="241.591713" style="fill: #0369a1; fill-opacity: 0.9; stroke: #0369a1; stroke-opacity: 0.9"/>
    </g>
    <g clip-path="url(#pb4db504a41)">
     <use xlink:href="#C1_0_03c53bf23d" x="200.137694" y="209.136346" style="fill: #0369a1; fill-opacity: 0.9; stroke: #0369a1; stroke-opacity: 0.9"/>
    </g>
    <g clip-path="url(#pb4db504a41)">
     <use xlink:href="#C1_0_03c53bf23d" x="189.465858" y="264.165487" style="fill: #0369a1; fill-opacity: 0.9; stroke: #0369a1; stroke-opacity: 0.9"/>
    </g>
    <g clip-path="url(#pb4db504a41)">
     <use xlink:href="#C1_0_03c53bf23d" x="189.465858" y="255.831757" style="fill: #0369a1; fill-opacity: 0.9; stroke: #0369a1; stroke-opacity: 0.9"/>
    </g>
   </g>
  </g>
 </g>
 <defs>
  <clipPath id="pb4db504a41">
   <rect x="7.2" y="7.2" width="410.4" height="410.4"/>
  </clipPath>
 </defs>
</svg>
