<?xml version="1.0" encoding="utf-8" standalone="no"?>
<!DOCTYPE svg PUBLIC "-//W3C//DTD SVG 1.1//EN"
  "http://www.w3.org/Graphics/SVG/1.1/DTD/svg11.dtd">
<svg xmlns:xlink="http://www.w3.org/1999/xlink" width="464.059457pt" height="457.92pt" viewBox="0 0 464.059457 457.92" xmlns="http://www.w3.org/2000/svg" version="1.1">
 <metadata>
  <rdf:RDF xmlns:dc="http://purl.org/dc/elements/1.1/" xmlns:cc="http://creativecommons.org/ns#" xmlns:rdf="http://www.w3.org/1999/02/22-rdf-syntax-ns#">
   <cc:Work>
    <dc:type rdf:resource="http://purl.org/dc/dcmitype/StillImage"/>
    <dc:date>2026-02-02T15:08:40.381108</dc:date>
    <dc:format>image/svg+xml</dc:format>
    <dc:creator>
     <cc:Agent>
      <dc:title>Matplotlib v3.10.8, https://matplotlib.org/</dc:title>
     </cc:Agent>
    </dc:creator>
   </cc:Work>
  </rdf:RDF>
 </metadata>
 <defs>
  <style type="text/css">*{stroke-linejoin: round; stroke-linecap: butt}</style>
 </defs>
 <g id="figure_1">
  <g id="patch_1">
   <path d="M 0 457.92 
L 464.059457 457.92 
L 464.059457 0 
L 0 0 
z
" style="fill: #ffffff"/>
  </g>
  <g id="patch_2">
   <path d="M 7.2 450.72 
L 450.72 450.72 
L 450.72 7.2 
L 7.2 7.2 
z
" style="fill: #ffffff"/>
  </g>
  <g id="pane3d_1">
   <g id="patch_3">
    <path d="M 33.141415 315.654611 
L 234.953514 214.748562 
L 234.953514 29.372313 
L 33.141415 130.278362 
" style="fill: #f2f2f2; opacity: 0.5; stroke: #f2f2f2; stroke-linejoin: miter"/>
   </g>
  </g>
  <g id="pane3d_2">
   <g id="patch_4">
    <path d="M 234.953514 214.748562 
L 436.765612 315.654611 
L 436.765612 130.278362 
L 234.953514 29.372313 
" style="fill: #e6e6e6; opacity: 0.5; stroke: #e6e6e6; stroke-linejoin: miter"/>
   </g>
  </g>
  <g id="pane3d_3">
   <g id="patch_5">
    <path d="M 33.141415 315.654611 
L 234.953514 416.56066 
L 436.765612 315.654611 
L 234.953514 214.748562 
" style="fill: #ececec; opacity: 0.5; stroke: #ececec; stroke-linejoin: miter"/>
   </g>
  </g>
  <g id="grid3d_1">
   <g id="Line3DCollection_1">
    <path d="M 58.389752 328.278779 
L 260.20185 227.37273 
L 260.20185 41.996481 
" style="fill: none; stroke: #b0b0b0; stroke-width: 0.8"/>
    <path d="M 97.188579 347.678193 
L 299.000677 246.772144 
L 299.000677 61.395895 
" style="fill: none; stroke: #b0b0b0; stroke-width: 0.8"/>
    <path d="M 135.987406 367.077606 
L 337.799504 266.171557 
L 337.799504 80.795308 
" style="fill: none; stroke: #b0b0b0; stroke-width: 0.8"/>
    <path d="M 174.786233 386.47702 
L 376.598331 285.570971 
L 376.598331 100.194722 
" style="fill: none; stroke: #b0b0b0; stroke-width: 0.8"/>
    <path d="M 213.58506 405.876433 
L 415.397158 304.970384 
L 415.397158 119.594135 
" style="fill: none; stroke: #b0b0b0; stroke-width: 0.8"/>
   </g>
  </g>
  <g id="grid3d_2">
   <g id="Line3DCollection_2">
    <path d="M 58.389752 117.654194 
L 58.389752 303.030443 
L 260.20185 403.936492 
" style="fill: none; stroke: #b0b0b0; stroke-width: 0.8"/>
    <path d="M 97.188579 98.25478 
L 97.188579 283.631029 
L 299.000677 384.537078 
" style="fill: none; stroke: #b0b0b0; stroke-width: 0.8"/>
    <path d="M 135.987406 78.855367 
L 135.987406 264.231616 
L 337.799504 365.137665 
" style="fill: none; stroke: #b0b0b0; stroke-width: 0.8"/>
    <path d="M 174.786233 59.455953 
L 174.786233 244.832202 
L 376.598331 345.738251 
" style="fill: none; stroke: #b0b0b0; stroke-width: 0.8"/>
    <path d="M 213.58506 40.05654 
L 213.58506 225.432789 
L 415.397158 326.338838 
" style="fill: none; stroke: #b0b0b0; stroke-width: 0.8"/>
   </g>
  </g>
  <g id="grid3d_3">
   <g id="Line3DCollection_3">
    <path d="M 436.765612 293.353508 
L 234.953514 192.447459 
L 33.141415 293.353508 
" style="fill: none; stroke: #b0b0b0; stroke-width: 0.8"/>
    <path d="M 436.765612 257.71451 
L 234.953514 156.808461 
L 33.141415 257.71451 
" style="fill: none; stroke: #b0b0b0; stroke-width: 0.8"/>
    <path d="M 436.765612 222.075512 
L 234.953514 121.169463 
L 33.141415 222.075512 
" style="fill: none; stroke: #b0b0b0; stroke-width: 0.8"/>
    <path d="M 436.765612 186.436513 
L 234.953514 85.530464 
L 33.141415 186.436513 
" style="fill: none; stroke: #b0b0b0; stroke-width: 0.8"/>
    <path d="M 436.765612 150.797515 
L 234.953514 49.891466 
L 33.141415 150.797515 
" style="fill: none; stroke: #b0b0b0; stroke-width: 0.8"/>
   </g>
  </g>
  <g id="axis3d_1">
   <g id="line2d_1">
    <path d="M 33.141415 315.654611 
L 234.953514 416.56066 
" style="fill: none; stroke: #000000; stroke-width: 0.8; stroke-linecap: square"/>
   </g>
   <g id="xtick_1">
    <g id="line2d_2">
     <path d="M 60.004249 327.471531 
L 55.160759 329.893276 
" style="fill: none; stroke: #000000; stroke-width: 0.8; stroke-linecap: square"/>
    </g>
   </g>
   <g id="xtick_2">
    <g id="line2d_3">
     <path d="M 98.803076 346.870944 
L 93.959585 349.29269 
" style="fill: none; stroke: #000000; stroke-width: 0.8; stroke-linecap: square"/>
    </g>
   </g>
   <g id="xtick_3">
    <g id="line2d_4">
     <path d="M 137.601903 366.270358 
L 132.758412 368.692103 
" style="fill: none; stroke: #000000; stroke-width: 0.8; stroke-linecap: square"/>
    </g>
   </g>
   <g id="xtick_4">
    <g id="line2d_5">
     <path d="M 176.40073 385.669771 
L 171.557239 388.091516 
" style="fill: none; stroke: #000000; stroke-width: 0.8; stroke-linecap: square"/>
    </g>
   </g>
   <g id="xtick_5">
    <g id="line2d_6">
     <path d="M 215.199556 405.069185 
L 210.356066 407.49093 
" style="fill: none; stroke: #000000; stroke-width: 0.8; stroke-linecap: square"/>
    </g>
   </g>
  </g>
  <g id="axis3d_2">
   <g id="line2d_7">
    <path d="M 436.765612 315.654611 
L 234.953514 416.56066 
" style="fill: none; stroke: #000000; stroke-width: 0.8; stroke-linecap: square"/>
   </g>
   <g id="xtick_6">
    <g id="line2d_8">
     <path d="M 258.587353 403.129243 
L 263.430844 405.550989 
" style="fill: none; stroke: #000000; stroke-width: 0.8; stroke-linecap: square"/>
    </g>
   </g>
   <g id="xtick_7">
    <g id="line2d_9">
     <path d="M 297.38618 383.72983 
L 302.229671 386.151575 
" style="fill: none; stroke: #000000; stroke-width: 0.8; stroke-linecap: square"/>
    </g>
   </g>
   <g id="xtick_8">
    <g id="line2d_10">
     <path d="M 336.185007 364.330416 
L 341.028497 366.752162 
" style="fill: none; stroke: #000000; stroke-width: 0.8; stroke-linecap: square"/>
    </g>
   </g>
   <g id="xtick_9">
    <g id="line2d_11">
     <path d="M 374.983834 344.931003 
L 379.827324 347.352748 
" style="fill: none; stroke: #000000; stroke-width: 0.8; stroke-linecap: square"/>
    </g>
   </g>
   <g id="xtick_10">
    <g id="line2d_12">
     <path d="M 413.782661 325.53159 
L 418.626151 327.953335 
" style="fill: none; stroke: #000000; stroke-width: 0.8; stroke-linecap: square"/>
    </g>
   </g>
  </g>
  <g id="axis3d_3">
   <g id="line2d_13">
    <path d="M 436.765612 315.654611 
L 436.765612 130.278362 
" style="fill: none; stroke: #000000; stroke-width: 0.8; stroke-linecap: square"/>
   </g>
   <g id="xtick_11">
    <g id="line2d_14">
     <path d="M 435.151115 292.546259 
L 439.994605 294.968005 
" style="fill: none; stroke: #000000; stroke-width: 0.8; stroke-linecap: square"/>
    </g>
   </g>
   <g id="xtick_12">
    <g id="line2d_15">
     <path d="M 435.151115 256.907261 
L 439.994605 259.329006 
" style="fill: none; stroke: #000000; stroke-width: 0.8; stroke-linecap: square"/>
    </g>
   </g>
   <g id="xtick_13">
    <g id="line2d_16">
     <path d="M 435.151115 221.268263 
L 439.994605 223.690008 
" style="fill: none; stroke: #000000; stroke-width: 0.8; stroke-linecap: square"/>
    </g>
   </g>
   <g id="xtick_14">
    <g id="line2d_17">
     <path d="M 435.151115 185.629265 
L 439.994605 188.05101 
" style="fill: none; stroke: #000000; stroke-width: 0.8; stroke-linecap: square"/>
    </g>
   </g>
   <g id="xtick_15">
    <g id="line2d_18">
     <path d="M 435.151115 149.990267 
L 439.994605 152.412012 
" style="fill: none; stroke: #000000; stroke-width: 0.8; stroke-linecap: square"/>
    </g>
   </g>
  </g>
  <g id="axes_1">
   <g id="Path3DCollection_1">
    <defs>
     <path id="C0_0_d1c5be76a5" d="M 0 2.738613 
C 0.726289 2.738613 1.422928 2.450055 1.936492 1.936492 
C 2.450055 1.422928 2.738613 0.726289 2.738613 -0 
C 2.738613 -0.726289 2.450055 -1.422928 1.936492 -1.936492 
C 1.422928 -2.450055 0.726289 -2.738613 0 -2.738613 
C -0.726289 -2.738613 -1.422928 -2.450055 -1.936492 -1.936492 
C -2.450055 -1.422928 -2.738613 -0.726289 -2.738613 0 
C -2.738613 0.726289 -2.450055 1.422928 -1.936492 1.936492 
C -1.422928 2.450055 -0.726289 2.738613 0 2.738613 
z
"/>
    </defs>
    <g clip-path="url(#p3ab888c6cf)">
     <use xlink:href="#C0_0_d1c5be76a5" x="271.630024" y="249.973667" style="fill: #388e3c; fill-opacity: 0.3; stroke: #388e3c; stroke-opacity: 0.3"/>
    </g>
    <g clip-path="url(#p3ab888c6cf)">
     <use xlink:href="#C0_0_d1c5be76a5" x="149.231344" y="266.371981" style="fill: #388e3c; fill-opacity: 0.3; stroke: #388e3c; stroke-opacity: 0.3"/>
    </g>
   </g>
   <g id="text_1">
    <!-- a -->
    <g style="fill: #e53935" transform="translate(116.252341 333.141966) scale(0.14 -0.14)">
     <defs>
      <path id="DejaVuSans-Bold-61" d="M 2106 1575 
Q 1756 1575 1579 1456 
Q 1403 1338 1403 1106 
Q 1403 894 1545 773 
Q 1688 653 1941 653 
Q 2256 653 2472 879 
Q 2688 1106 2688 1447 
L 2688 1575 
L 2106 1575 
z
M 3816 1997 
L 3816 0 
L 2688 0 
L 2688 519 
Q 2463 200 2181 54 
Q 1900 -91 1497 -91 
Q 953 -91 614 226 
Q 275 544 275 1050 
Q 275 1666 698 1953 
Q 1122 2241 2028 2241 
L 2688 2241 
L 2688 2328 
Q 2688 2594 2478 2717 
Q 2269 2841 1825 2841 
Q 1466 2841 1156 2769 
Q 847 2697 581 2553 
L 581 3406 
Q 941 3494 1303 3539 
Q 1666 3584 2028 3584 
Q 2975 3584 3395 3211 
Q 3816 2838 3816 1997 
z
" transform="scale(0.015625)"/>
     </defs>
     <use xlink:href="#DejaVuSans-Bold-61"/>
    </g>
   </g>
   <g id="text_2">
    <!-- b -->
    <g style="fill: #43a047" transform="translate(116.252341 280.763549) scale(0.14 -0.14)">
     <defs>
      <path id="DejaVuSans-Bold-62" d="M 2400 722 
Q 2759 722 2948 984 
Q 3138 1247 3138 1747 
Q 3138 2247 2948 2509 
Q 2759 2772 2400 2772 
Q 2041 2772 1848 2508 
Q 1656 2244 1656 1747 
Q 1656 1250 1848 986 
Q 2041 722 2400 722 
z
M 1656 2988 
Q 1888 3294 2169 3439 
Q 2450 3584 2816 3584 
Q 3463 3584 3878 3070 
Q 4294 2556 4294 1747 
Q 4294 938 3878 423 
Q 3463 -91 2816 -91 
Q 2450 -91 2169 54 
Q 1888 200 1656 506 
L 1656 0 
L 538 0 
L 538 4863 
L 1656 4863 
L 1656 2988 
z
" transform="scale(0.015625)"/>
     </defs>
     <use xlink:href="#DejaVuSans-Bold-62"/>
    </g>
   </g>
   <g id="text_3">
    <!-- c -->
    <g style="fill: #1e88e5" transform="translate(63.873924 258.84011) scale(0.14 -0.14)">
     <defs>
      <path id="DejaVuSans-Bold-63" d="M 3366 3391 
L 3366 2478 
Q 3138 2634 2908 2709 
Q 2678 2784 2431 2784 
Q 1963 2784 1702 2511 
Q 1441 2238 1441 1747 
Q 1441 1256 1702 982 
Q 1963 709 2431 709 
Q 2694 709 2930 787 
Q 3166 866 3366 1019 
L 3366 103 
Q 3103 6 2833 -42 
Q 2563 -91 2291 -91 
Q 1344 -91 809 395 
Q 275 881 275 1747 
Q 275 2613 809 3098 
Q 1344 3584 2291 3584 
Q 2566 3584 2833 3536 
Q 3100 3488 3366 3391 
z
" transform="scale(0.015625)"/>
     </defs>
     <use xlink:href="#DejaVuSans-Bold-63"/>
    </g>
   </g>
   <g id="Line3DCollection_4">
    <path d="M 112.372458 282.703491 
L 63.873924 306.952757 
" clip-path="url(#p3ab888c6cf)" style="fill: none; stroke: #43a047; stroke-width: 2"/>
    <path d="M 112.372458 282.703491 
L 107.687859 286.198796 
" clip-path="url(#p3ab888c6cf)" style="fill: none; stroke: #43a047; stroke-width: 2"/>
    <path d="M 112.372458 282.703491 
L 107.687859 283.892784 
" clip-path="url(#p3ab888c6cf)" style="fill: none; stroke: #43a047; stroke-width: 2"/>
   </g>
   <g id="Line3DCollection_5">
    <path d="M 63.873924 262.40401 
L 63.873924 306.952757 
" clip-path="url(#p3ab888c6cf)" style="fill: none; stroke: #1e88e5; stroke-width: 2"/>
    <path d="M 63.873924 262.40401 
L 62.61869 266.079471 
" clip-path="url(#p3ab888c6cf)" style="fill: none; stroke: #1e88e5; stroke-width: 2"/>
    <path d="M 63.873924 262.40401 
L 65.129159 267.334706 
" clip-path="url(#p3ab888c6cf)" style="fill: none; stroke: #1e88e5; stroke-width: 2"/>
   </g>
   <g id="Line3DCollection_6">
    <path d="M 112.372458 331.202024 
L 63.873924 306.952757 
" clip-path="url(#p3ab888c6cf)" style="fill: none; stroke: #e53935; stroke-width: 2"/>
    <path d="M 112.372458 331.202024 
L 107.687859 330.012731 
" clip-path="url(#p3ab888c6cf)" style="fill: none; stroke: #e53935; stroke-width: 2"/>
    <path d="M 112.372458 331.202024 
L 107.687859 327.706719 
" clip-path="url(#p3ab888c6cf)" style="fill: none; stroke: #e53935; stroke-width: 2"/>
   </g>
   <g id="Poly3DCollection_1">
    <path d="M 271.630024 71.778676 
L 271.630024 249.973667 
L 149.231344 266.371981 
L 149.231344 88.17699 
z
" clip-path="url(#p3ab888c6cf)" style="fill: #a5d6a7; fill-opacity: 0.7; stroke: #388e3c; stroke-opacity: 0.7; stroke-width: 1.5"/>
    <path d="M 361.232076 116.579702 
L 361.232076 294.774693 
L 271.630024 249.973667 
L 271.630024 71.778676 
z
" clip-path="url(#p3ab888c6cf)" style="fill: #a5d6a7; fill-opacity: 0.7; stroke: #388e3c; stroke-opacity: 0.7; stroke-width: 1.5"/>
    <path d="M 149.231344 266.371981 
L 271.630024 249.973667 
L 361.232076 294.774693 
L 328.435449 355.974033 
L 206.036769 372.372347 
L 116.434716 327.571321 
z
" clip-path="url(#p3ab888c6cf)" style="fill: #a5d6a7; fill-opacity: 0.7; stroke: #388e3c; stroke-opacity: 0.7; stroke-width: 1.5"/>
    <path d="M 149.231344 266.371981 
L 116.434716 327.571321 
L 116.434716 149.37633 
L 149.231344 88.17699 
z
" clip-path="url(#p3ab888c6cf)" style="fill: #a5d6a7; fill-opacity: 0.7; stroke: #388e3c; stroke-opacity: 0.7; stroke-width: 1.5"/>
    <path d="M 328.435449 355.974033 
L 361.232076 294.774693 
L 361.232076 116.579702 
L 328.435449 177.779042 
z
" clip-path="url(#p3ab888c6cf)" style="fill: #a5d6a7; fill-opacity: 0.7; stroke: #388e3c; stroke-opacity: 0.7; stroke-width: 1.5"/>
    <path d="M 206.036769 194.177356 
L 328.435449 177.779042 
L 361.232076 116.579702 
L 271.630024 71.778676 
L 149.231344 88.17699 
L 116.434716 149.37633 
z
" clip-path="url(#p3ab888c6cf)" style="fill: #a5d6a7; fill-opacity: 0.7; stroke: #388e3c; stroke-opacity: 0.7; stroke-width: 1.5"/>
    <path d="M 116.434716 149.37633 
L 116.434716 327.571321 
L 206.036769 372.372347 
L 206.036769 194.177356 
z
" clip-path="url(#p3ab888c6cf)" style="fill: #a5d6a7; fill-opacity: 0.7; stroke: #388e3c; stroke-opacity: 0.7; stroke-width: 1.5"/>
    <path d="M 206.036769 194.177356 
L 206.036769 372.372347 
L 328.435449 355.974033 
L 328.435449 177.779042 
z
" clip-path="url(#p3ab888c6cf)" style="fill: #a5d6a7; fill-opacity: 0.7; stroke: #388e3c; stroke-opacity: 0.7; stroke-width: 1.5"/>
   </g>
   <g id="Path3DCollection_2">
    <defs>
     <path id="C1_0_122dd73cf9" d="M 0 2.738613 
C 0.726289 2.738613 1.422928 2.450055 1.936492 1.936492 
C 2.450055 1.422928 2.738613 0.726289 2.738613 -0 
C 2.738613 -0.726289 2.450055 -1.422928 1.936492 -1.936492 
C 1.422928 -2.450055 0.726289 -2.738613 0 -2.738613 
C -0.726289 -2.738613 -1.422928 -2.450055 -1.936492 -1.936492 
C -2.450055 -1.422928 -2.738613 -0.726289 -2.738613 0 
C -2.738613 0.726289 -2.450055 1.422928 -1.936492 1.936492 
C -1.422928 2.450055 -0.726289 2.738613 0 2.738613 
z
"/>
    </defs>
    <g clip-path="url(#p3ab888c6cf)">
     <use xlink:href="#C1_0_122dd73cf9" x="361.232076" y="294.774693" style="fill: #388e3c; fill-opacity: 0.9; stroke: #388e3c; stroke-opacity: 0.9"/>
    </g>
    <g clip-path="url(#p3ab888c6cf)">
     <use xlink:href="#C1_0_122dd73cf9" x="271.630024" y="71.778676" style="fill: #388e3c; fill-opacity: 0.9; stroke: #388e3c; stroke-opacity: 0.9"/>
    </g>
    <g clip-path="url(#p3ab888c6cf)">
     <use xlink:href="#C1_0_122dd73cf9" x="149.231344" y="88.17699" style="fill: #388e3c; fill-opacity: 0.9; stroke: #388e3c; stroke-opacity: 0.9"/>
    </g>
    <g clip-path="url(#p3ab888c6cf)">
     <use xlink:href="#C1_0_122dd73cf9" x="116.434716" y="327.571321" style="fill: #388e3c; fill-opacity: 0.9; stroke: #388e3c; stroke-opacity: 0.9"/>
    </g>
    <g clip-path="url(#p3ab888c6cf)">
     <use xlink:href="#C1_0_122dd73cf9" x="361.232076" y="116.579702" style="fill: #388e3c; fill-opacity: 0.9; stroke: #388e3c; stroke-opacity: 0.9"/>
    </g>
    <g clip-path="url(#p3ab888c6cf)">
     <use xlink:href="#C1_0_122dd73cf9" x="328.435449" y="355.974033" style="fill: #388e3c; fill-opacity: 0.9; stroke: #388e3c; stroke-opacity: 0.9"/>
    </g>
    <g clip-path="url(#p3ab888c6cf)">
     <use xlink:href="#C1_0_122dd73cf9" x="206.036769" y="372.372347" style="fill: #388e3c; fill-opacity: 0.9; stroke: #388e3c; stroke-opacity: 0.9"/>
    </g>
    <g clip-path="url(#p3ab888c6cf)">
     <use xlink:href="#C1_0_122dd73cf9" x="116.434716" y="149.37633" style="fill: #388e3c; fill-opacity: 0.9; stroke: #388e3c; stroke-opacity: 0.9"/>
    </g>
    <g clip-path="url(#p3ab888c6cf)">
     <use xlink:href="#C1_0_122dd73cf9" x="328.435449" y="177.779042" style="fill: #388e3c; fill-opacity: 0.9; stroke: #388e3c; stroke-opacity: 0.9"/>
    </g>
    <g clip-path="url(#p3ab888c6cf)">
     <use xlink:href="#C1_0_122dd73cf9" x="206.036769" y="194.177356" style="fill: #388e3c; fill-opacity: 0.9; stroke: #388e3c; stroke-opacity: 0.9"/>
    </g>
   </g>
  </g>
 </g>
 <defs>
  <clipPath id="p3ab888c6cf">
   <rect x="7.2" y="7.2" width="443.52" height="443.52"/>
  </clipPath>
 </defs>
</svg>
