<?xml version="1.0" encoding="utf-8" standalone="no"?>
<!DOCTYPE svg PUBLIC "-//W3C//DTD SVG 1.1//EN"
  "http://www.w3.org/Graphics/SVG/1.1/DTD/svg11.dtd">
<svg xmlns:xlink="http://www.w3.org/1999/xlink" width="424.8pt" height="424.8pt" viewBox="0 0 424.8 424.8" xmlns="http://www.w3.org/2000/svg" version="1.1">
 <metadata>
  <rdf:RDF xmlns:dc="http://purl.org/dc/elements/1.1/" xmlns:cc="http://creativecommons.org/ns#" xmlns:rdf="http://www.w3.org/1999/02/22-rdf-syntax-ns#">
   <cc:Work>
    <dc:type rdf:resource="http://purl.org/dc/dcmitype/StillImage"/>
    <dc:date>2026-01-26T17:14:37.868475</dc:date>
    <dc:format>image/svg+xml</dc:format>
    <dc:creator>
     <cc:Agent>
      <dc:title>Matplotlib v3.10.8, https://matplotlib.org/</dc:title>
     </cc:Agent>
    </dc:creator>
   </cc:Work>
  </rdf:RDF>
 </metadata>
 <defs>
  <style type="text/css">*{stroke-linejoin: round; stroke-linecap: butt}</style>
 </defs>
 <g id="figure_1">
  <g id="patch_1">
   <path d="M 0 424.8 
L 424.8 424.8 
L 424.8 0 
L 0 0 
z
" style="fill: #ffffff"/>
  </g>
  <g id="patch_2">
   <path d="M 7.2 417.6 
L 417.6 417.6 
L 417.6 7.2 
L 7.2 7.2 
z
" style="fill: #ffffff"/>
  </g>
  <g id="axes_1">
   <g id="Path3DCollection_1">
    <defs>
     <path id="C0_0_76c5051429" d="M 0 2.738613 
C 0.726289 2.738613 1.422928 2.450055 1.936492 1.936492 
C 2.450055 1.422928 2.738613 0.726289 2.738613 -0 
C 2.738613 -0.726289 2.450055 -1.422928 1.936492 -1.936492 
C 1.422928 -2.450055 0.726289 -2.738613 0 -2.738613 
C -0.726289 -2.738613 -1.422928 -2.450055 -1.936492 -1.936492 
C -2.450055 -1.422928 -2.738613 -0.726289 -2.738613 0 
C -2.738613 0.726289 -2.450055 1.422928 -1.936492 1.936492 
C -1.422928 2.450055 -0.726289 2.738613 0 2.738613 
z
"/>
    </defs>
    <g clip-path="url(#p9d27ebf85e)">
     <use xlink:href="#C0_0_76c5051429" x="185.059973" y="197.068592" style="fill: #0369a1; fill-opacity: 0.3; stroke: #0369a1; stroke-opacity: 0.3"/>
    </g>
    <g clip-path="url(#p9d27ebf85e)">
     <use xlink:href="#C0_0_76c5051429" x="274.906122" y="241.991666" style="fill: #0369a1; fill-opacity: 0.3; stroke: #0369a1; stroke-opacity: 0.3"/>
    </g>
   </g>
   <g id="Poly3DCollection_1">
    <path d="M 274.906122 138.830469 
L 274.906122 241.991666 
L 185.059973 197.068592 
L 185.059973 93.907394 
z
" clip-path="url(#p9d27ebf85e)" style="fill: #0ea5e9; fill-opacity: 0.7; stroke: #0369a1; stroke-opacity: 0.7; stroke-width: 1.5"/>
    <path d="M 185.059973 93.907394 
L 185.059973 197.068592 
L 152.174 258.434653 
L 152.174 155.273455 
z
" clip-path="url(#p9d27ebf85e)" style="fill: #0ea5e9; fill-opacity: 0.7; stroke: #0369a1; stroke-opacity: 0.7; stroke-width: 1.5"/>
    <path d="M 160.98577 274.877639 
L 152.174 258.434653 
L 185.059973 197.068592 
L 274.906122 241.991666 
L 283.717892 258.434653 
L 269.818644 284.371002 
L 198.959221 293.864364 
z
" clip-path="url(#p9d27ebf85e)" style="fill: #0ea5e9; fill-opacity: 0.7; stroke: #0369a1; stroke-opacity: 0.7; stroke-width: 1.5"/>
    <path d="M 283.717892 258.434653 
L 274.906122 241.991666 
L 274.906122 138.830469 
L 283.717892 155.273455 
z
" clip-path="url(#p9d27ebf85e)" style="fill: #0ea5e9; fill-opacity: 0.7; stroke: #0369a1; stroke-opacity: 0.7; stroke-width: 1.5"/>
    <path d="M 152.174 155.273455 
L 152.174 258.434653 
L 160.98577 274.877639 
L 160.98577 171.716442 
z
" clip-path="url(#p9d27ebf85e)" style="fill: #0ea5e9; fill-opacity: 0.7; stroke: #0369a1; stroke-opacity: 0.7; stroke-width: 1.5"/>
    <path d="M 269.818644 181.209805 
L 269.818644 284.371002 
L 283.717892 258.434653 
L 283.717892 155.273455 
z
" clip-path="url(#p9d27ebf85e)" style="fill: #0ea5e9; fill-opacity: 0.7; stroke: #0369a1; stroke-opacity: 0.7; stroke-width: 1.5"/>
    <path d="M 198.959221 190.703167 
L 269.818644 181.209805 
L 283.717892 155.273455 
L 274.906122 138.830469 
L 185.059973 93.907394 
L 152.174 155.273455 
L 160.98577 171.716442 
z
" clip-path="url(#p9d27ebf85e)" style="fill: #0ea5e9; fill-opacity: 0.7; stroke: #0369a1; stroke-opacity: 0.7; stroke-width: 1.5"/>
    <path d="M 160.98577 274.877639 
L 198.959221 293.864364 
L 198.959221 190.703167 
L 160.98577 171.716442 
z
" clip-path="url(#p9d27ebf85e)" style="fill: #0ea5e9; fill-opacity: 0.7; stroke: #0369a1; stroke-opacity: 0.7; stroke-width: 1.5"/>
    <path d="M 198.959221 190.703167 
L 198.959221 293.864364 
L 269.818644 284.371002 
L 269.818644 181.209805 
z
" clip-path="url(#p9d27ebf85e)" style="fill: #0ea5e9; fill-opacity: 0.7; stroke: #0369a1; stroke-opacity: 0.7; stroke-width: 1.5"/>
   </g>
   <g id="Path3DCollection_2">
    <defs>
     <path id="C1_0_9d3d8d0038" d="M 0 2.738613 
C 0.726289 2.738613 1.422928 2.450055 1.936492 1.936492 
C 2.450055 1.422928 2.738613 0.726289 2.738613 -0 
C 2.738613 -0.726289 2.450055 -1.422928 1.936492 -1.936492 
C 1.422928 -2.450055 0.726289 -2.738613 0 -2.738613 
C -0.726289 -2.738613 -1.422928 -2.450055 -1.936492 -1.936492 
C -2.450055 -1.422928 -2.738613 -0.726289 -2.738613 0 
C -2.738613 0.726289 -2.450055 1.422928 -1.936492 1.936492 
C -1.422928 2.450055 -0.726289 2.738613 0 2.738613 
z
"/>
    </defs>
    <g clip-path="url(#p9d27ebf85e)">
     <use xlink:href="#C1_0_9d3d8d0038" x="185.059973" y="93.907394" style="fill: #0369a1; fill-opacity: 0.9; stroke: #0369a1; stroke-opacity: 0.9"/>
    </g>
    <g clip-path="url(#p9d27ebf85e)">
     <use xlink:href="#C1_0_9d3d8d0038" x="152.174" y="258.434653" style="fill: #0369a1; fill-opacity: 0.9; stroke: #0369a1; stroke-opacity: 0.9"/>
    </g>
    <g clip-path="url(#p9d27ebf85e)">
     <use xlink:href="#C1_0_9d3d8d0038" x="283.717892" y="258.434653" style="fill: #0369a1; fill-opacity: 0.9; stroke: #0369a1; stroke-opacity: 0.9"/>
    </g>
    <g clip-path="url(#p9d27ebf85e)">
     <use xlink:href="#C1_0_9d3d8d0038" x="160.98577" y="274.877639" style="fill: #0369a1; fill-opacity: 0.9; stroke: #0369a1; stroke-opacity: 0.9"/>
    </g>
    <g clip-path="url(#p9d27ebf85e)">
     <use xlink:href="#C1_0_9d3d8d0038" x="274.906122" y="138.830469" style="fill: #0369a1; fill-opacity: 0.9; stroke: #0369a1; stroke-opacity: 0.9"/>
    </g>
    <g clip-path="url(#p9d27ebf85e)">
     <use xlink:href="#C1_0_9d3d8d0038" x="269.818644" y="284.371002" style="fill: #0369a1; fill-opacity: 0.9; stroke: #0369a1; stroke-opacity: 0.9"/>
    </g>
    <g clip-path="url(#p9d27ebf85e)">
     <use xlink:href="#C1_0_9d3d8d0038" x="152.174" y="155.273455" style="fill: #0369a1; fill-opacity: 0.9; stroke: #0369a1; stroke-opacity: 0.9"/>
    </g>
    <g clip-path="url(#p9d27ebf85e)">
     <use xlink:href="#C1_0_9d3d8d0038" x="283.717892" y="155.273455" style="fill: #0369a1; fill-opacity: 0.9; stroke: #0369a1; stroke-opacity: 0.9"/>
    </g>
    <g clip-path="url(#p9d27ebf85e)">
     <use xlink:href="#C1_0_9d3d8d0038" x="198.959221" y="293.864364" style="fill: #0369a1; fill-opacity: 0.9; stroke: #0369a1; stroke-opacity: 0.9"/>
    </g>
    <g clip-path="url(#p9d27ebf85e)">
     <use xlink:href="#C1_0_9d3d8d0038" x="160.98577" y="171.716442" style="fill: #0369a1; fill-opacity: 0.9; stroke: #0369a1; stroke-opacity: 0.9"/>
    </g>
    <g clip-path="url(#p9d27ebf85e)">
     <use xlink:href="#C1_0_9d3d8d0038" x="269.818644" y="181.209805" style="fill: #0369a1; fill-opacity: 0.9; stroke: #0369a1; stroke-opacity: 0.9"/>
    </g>
    <g clip-path="url(#p9d27ebf85e)">
     <use xlink:href="#C1_0_9d3d8d0038" x="198.959221" y="190.703167" style="fill: #0369a1; fill-opacity: 0.9; stroke: #0369a1; stroke-opacity: 0.9"/>
    </g>
   </g>
  </g>
 </g>
 <defs>
  <clipPath id="p9d27ebf85e">
   <rect x="7.2" y="7.2" width="410.4" height="410.4"/>
  </clipPath>
 </defs>
</svg>
