<?xml version="1.0" encoding="utf-8" standalone="no"?>
<!DOCTYPE svg PUBLIC "-//W3C//DTD SVG 1.1//EN"
  "http://www.w3.org/Graphics/SVG/1.1/DTD/svg11.dtd">
<svg xmlns:xlink="http://www.w3.org/1999/xlink" width="464.059457pt" height="457.92pt" viewBox="0 0 464.059457 457.92" xmlns="http://www.w3.org/2000/svg" version="1.1">
 <metadata>
  <rdf:RDF xmlns:dc="http://purl.org/dc/elements/1.1/" xmlns:cc="http://creativecommons.org/ns#" xmlns:rdf="http://www.w3.org/1999/02/22-rdf-syntax-ns#">
   <cc:Work>
    <dc:type rdf:resource="http://purl.org/dc/dcmitype/StillImage"/>
    <dc:date>2026-02-02T15:08:40.595000</dc:date>
    <dc:format>image/svg+xml</dc:format>
    <dc:creator>
     <cc:Agent>
      <dc:title>Matplotlib v3.10.8, https://matplotlib.org/</dc:title>
     </cc:Agent>
    </dc:creator>
   </cc:Work>
  </rdf:RDF>
 </metadata>
 <defs>
  <style type="text/css">*{stroke-linejoin: round; stroke-linecap: butt}</style>
 </defs>
 <g id="figure_1">
  <g id="patch_1">
   <path d="M 0 457.92 
L 464.059457 457.92 
L 464.059457 0 
L 0 0 
z
" style="fill: #ffffff"/>
  </g>
  <g id="patch_2">
   <path d="M 7.2 450.72 
L 450.72 450.72 
L 450.72 7.2 
L 7.2 7.2 
z
" style="fill: #ffffff"/>
  </g>
  <g id="pane3d_1">
   <g id="patch_3">
    <path d="M 33.141415 315.654611 
L 234.953514 214.748562 
L 234.953514 29.372313 
L 33.141415 130.278362 
" style="fill: #f2f2f2; opacity: 0.5; stroke: #f2f2f2; stroke-linejoin: miter"/>
   </g>
  </g>
  <g id="pane3d_2">
   <g id="patch_4">
    <path d="M 234.953514 214.748562 
L 436.765612 315.654611 
L 436.765612 130.278362 
L 234.953514 29.372313 
" style="fill: #e6e6e6; opacity: 0.5; stroke: #e6e6e6; stroke-linejoin: miter"/>
   </g>
  </g>
  <g id="pane3d_3">
   <g id="patch_5">
    <path d="M 33.141415 315.654611 
L 234.953514 416.56066 
L 436.765612 315.654611 
L 234.953514 214.748562 
" style="fill: #ececec; opacity: 0.5; stroke: #ececec; stroke-linejoin: miter"/>
   </g>
  </g>
  <g id="grid3d_1">
   <g id="Line3DCollection_1">
    <path d="M 52.790011 325.478909 
L 254.602109 224.57286 
L 254.602109 39.196611 
" style="fill: none; stroke: #b0b0b0; stroke-width: 0.8"/>
    <path d="M 94.379199 346.273503 
L 296.191297 245.367454 
L 296.191297 59.991205 
" style="fill: none; stroke: #b0b0b0; stroke-width: 0.8"/>
    <path d="M 135.968387 367.068097 
L 337.780485 266.162048 
L 337.780485 80.785799 
" style="fill: none; stroke: #b0b0b0; stroke-width: 0.8"/>
    <path d="M 177.557575 387.862691 
L 379.369673 286.956642 
L 379.369673 101.580393 
" style="fill: none; stroke: #b0b0b0; stroke-width: 0.8"/>
    <path d="M 219.146763 408.657285 
L 420.958861 307.751236 
L 420.958861 122.374987 
" style="fill: none; stroke: #b0b0b0; stroke-width: 0.8"/>
   </g>
  </g>
  <g id="grid3d_2">
   <g id="Line3DCollection_2">
    <path d="M 52.790011 120.454064 
L 52.790011 305.830313 
L 254.602109 406.736362 
" style="fill: none; stroke: #b0b0b0; stroke-width: 0.8"/>
    <path d="M 94.379199 99.65947 
L 94.379199 285.035719 
L 296.191297 385.941768 
" style="fill: none; stroke: #b0b0b0; stroke-width: 0.8"/>
    <path d="M 135.968387 78.864876 
L 135.968387 264.241125 
L 337.780485 365.147174 
" style="fill: none; stroke: #b0b0b0; stroke-width: 0.8"/>
    <path d="M 177.557575 58.070282 
L 177.557575 243.446531 
L 379.369673 344.35258 
" style="fill: none; stroke: #b0b0b0; stroke-width: 0.8"/>
    <path d="M 219.146763 37.275688 
L 219.146763 222.651937 
L 420.958861 323.557986 
" style="fill: none; stroke: #b0b0b0; stroke-width: 0.8"/>
   </g>
  </g>
  <g id="grid3d_3">
   <g id="Line3DCollection_3">
    <path d="M 436.765612 298.488464 
L 234.953514 197.582415 
L 33.141415 298.488464 
" style="fill: none; stroke: #b0b0b0; stroke-width: 0.8"/>
    <path d="M 436.765612 260.286355 
L 234.953514 159.380306 
L 33.141415 260.286355 
" style="fill: none; stroke: #b0b0b0; stroke-width: 0.8"/>
    <path d="M 436.765612 222.084247 
L 234.953514 121.178198 
L 33.141415 222.084247 
" style="fill: none; stroke: #b0b0b0; stroke-width: 0.8"/>
    <path d="M 436.765612 183.882138 
L 234.953514 82.976089 
L 33.141415 183.882138 
" style="fill: none; stroke: #b0b0b0; stroke-width: 0.8"/>
    <path d="M 436.765612 145.68003 
L 234.953514 44.77398 
L 33.141415 145.68003 
" style="fill: none; stroke: #b0b0b0; stroke-width: 0.8"/>
   </g>
  </g>
  <g id="axis3d_1">
   <g id="line2d_1">
    <path d="M 33.141415 315.654611 
L 234.953514 416.56066 
" style="fill: none; stroke: #000000; stroke-width: 0.8; stroke-linecap: square"/>
   </g>
   <g id="xtick_1">
    <g id="line2d_2">
     <path d="M 54.404508 324.67166 
L 49.561017 327.093405 
" style="fill: none; stroke: #000000; stroke-width: 0.8; stroke-linecap: square"/>
    </g>
   </g>
   <g id="xtick_2">
    <g id="line2d_3">
     <path d="M 95.993696 345.466254 
L 91.150205 347.887999 
" style="fill: none; stroke: #000000; stroke-width: 0.8; stroke-linecap: square"/>
    </g>
   </g>
   <g id="xtick_3">
    <g id="line2d_4">
     <path d="M 137.582884 366.260848 
L 132.739393 368.682593 
" style="fill: none; stroke: #000000; stroke-width: 0.8; stroke-linecap: square"/>
    </g>
   </g>
   <g id="xtick_4">
    <g id="line2d_5">
     <path d="M 179.172072 387.055442 
L 174.328581 389.477187 
" style="fill: none; stroke: #000000; stroke-width: 0.8; stroke-linecap: square"/>
    </g>
   </g>
   <g id="xtick_5">
    <g id="line2d_6">
     <path d="M 220.76126 407.850036 
L 215.917769 410.271781 
" style="fill: none; stroke: #000000; stroke-width: 0.8; stroke-linecap: square"/>
    </g>
   </g>
  </g>
  <g id="axis3d_2">
   <g id="line2d_7">
    <path d="M 436.765612 315.654611 
L 234.953514 416.56066 
" style="fill: none; stroke: #000000; stroke-width: 0.8; stroke-linecap: square"/>
   </g>
   <g id="xtick_6">
    <g id="line2d_8">
     <path d="M 252.987612 405.929114 
L 257.831102 408.350859 
" style="fill: none; stroke: #000000; stroke-width: 0.8; stroke-linecap: square"/>
    </g>
   </g>
   <g id="xtick_7">
    <g id="line2d_9">
     <path d="M 294.5768 385.13452 
L 299.42029 387.556265 
" style="fill: none; stroke: #000000; stroke-width: 0.8; stroke-linecap: square"/>
    </g>
   </g>
   <g id="xtick_8">
    <g id="line2d_10">
     <path d="M 336.165988 364.339926 
L 341.009478 366.761671 
" style="fill: none; stroke: #000000; stroke-width: 0.8; stroke-linecap: square"/>
    </g>
   </g>
   <g id="xtick_9">
    <g id="line2d_11">
     <path d="M 377.755176 343.545332 
L 382.598666 345.967077 
" style="fill: none; stroke: #000000; stroke-width: 0.8; stroke-linecap: square"/>
    </g>
   </g>
   <g id="xtick_10">
    <g id="line2d_12">
     <path d="M 419.344364 322.750738 
L 424.187854 325.172483 
" style="fill: none; stroke: #000000; stroke-width: 0.8; stroke-linecap: square"/>
    </g>
   </g>
  </g>
  <g id="axis3d_3">
   <g id="line2d_13">
    <path d="M 436.765612 315.654611 
L 436.765612 130.278362 
" style="fill: none; stroke: #000000; stroke-width: 0.8; stroke-linecap: square"/>
   </g>
   <g id="xtick_11">
    <g id="line2d_14">
     <path d="M 435.151115 297.681215 
L 439.994605 300.10296 
" style="fill: none; stroke: #000000; stroke-width: 0.8; stroke-linecap: square"/>
    </g>
   </g>
   <g id="xtick_12">
    <g id="line2d_15">
     <path d="M 435.151115 259.479107 
L 439.994605 261.900852 
" style="fill: none; stroke: #000000; stroke-width: 0.8; stroke-linecap: square"/>
    </g>
   </g>
   <g id="xtick_13">
    <g id="line2d_16">
     <path d="M 435.151115 221.276998 
L 439.994605 223.698743 
" style="fill: none; stroke: #000000; stroke-width: 0.8; stroke-linecap: square"/>
    </g>
   </g>
   <g id="xtick_14">
    <g id="line2d_17">
     <path d="M 435.151115 183.07489 
L 439.994605 185.496635 
" style="fill: none; stroke: #000000; stroke-width: 0.8; stroke-linecap: square"/>
    </g>
   </g>
   <g id="xtick_15">
    <g id="line2d_18">
     <path d="M 435.151115 144.872781 
L 439.994605 147.294526 
" style="fill: none; stroke: #000000; stroke-width: 0.8; stroke-linecap: square"/>
    </g>
   </g>
  </g>
  <g id="axes_1">
   <g id="Path3DCollection_1">
    <defs>
     <path id="C0_0_b1bf66803c" d="M 0 2.738613 
C 0.726289 2.738613 1.422928 2.450055 1.936492 1.936492 
C 2.450055 1.422928 2.738613 0.726289 2.738613 -0 
C 2.738613 -0.726289 2.450055 -1.422928 1.936492 -1.936492 
C 1.422928 -2.450055 0.726289 -2.738613 0 -2.738613 
C -0.726289 -2.738613 -1.422928 -2.450055 -1.936492 -1.936492 
C -2.450055 -1.422928 -2.738613 -0.726289 -2.738613 0 
C -2.738613 0.726289 -2.450055 1.422928 -1.936492 1.936492 
C -1.422928 2.450055 -0.726289 2.738613 0 2.738613 
z
"/>
    </defs>
    <g clip-path="url(#p66761688b4)">
     <use xlink:href="#C0_0_b1bf66803c" x="273.950676" y="232.887747" style="fill: #388e3c; fill-opacity: 0.3; stroke: #388e3c; stroke-opacity: 0.3"/>
    </g>
    <g clip-path="url(#p66761688b4)">
     <use xlink:href="#C0_0_b1bf66803c" x="142.749243" y="250.465406" style="fill: #388e3c; fill-opacity: 0.3; stroke: #388e3c; stroke-opacity: 0.3"/>
    </g>
   </g>
   <g id="text_1">
    <!-- a -->
    <g style="fill: #e53935" transform="translate(103.75208 319.751525) scale(0.14 -0.14)">
     <defs>
      <path id="DejaVuSans-Bold-61" d="M 2106 1575 
Q 1756 1575 1579 1456 
Q 1403 1338 1403 1106 
Q 1403 894 1545 773 
Q 1688 653 1941 653 
Q 2256 653 2472 879 
Q 2688 1106 2688 1447 
L 2688 1575 
L 2106 1575 
z
M 3816 1997 
L 3816 0 
L 2688 0 
L 2688 519 
Q 2463 200 2181 54 
Q 1900 -91 1497 -91 
Q 953 -91 614 226 
Q 275 544 275 1050 
Q 275 1666 698 1953 
Q 1122 2241 2028 2241 
L 2688 2241 
L 2688 2328 
Q 2688 2594 2478 2717 
Q 2269 2841 1825 2841 
Q 1466 2841 1156 2769 
Q 847 2697 581 2553 
L 581 3406 
Q 941 3494 1303 3539 
Q 1666 3584 2028 3584 
Q 2975 3584 3395 3211 
Q 3816 2838 3816 1997 
z
" transform="scale(0.015625)"/>
     </defs>
     <use xlink:href="#DejaVuSans-Bold-61"/>
    </g>
   </g>
   <g id="text_2">
    <!-- b -->
    <g style="fill: #43a047" transform="translate(103.75208 267.886622) scale(0.14 -0.14)">
     <defs>
      <path id="DejaVuSans-Bold-62" d="M 2400 722 
Q 2759 722 2948 984 
Q 3138 1247 3138 1747 
Q 3138 2247 2948 2509 
Q 2759 2772 2400 2772 
Q 2041 2772 1848 2508 
Q 1656 2244 1656 1747 
Q 1656 1250 1848 986 
Q 2041 722 2400 722 
z
M 1656 2988 
Q 1888 3294 2169 3439 
Q 2450 3584 2816 3584 
Q 3463 3584 3878 3070 
Q 4294 2556 4294 1747 
Q 4294 938 3878 423 
Q 3463 -91 2816 -91 
Q 2450 -91 2169 54 
Q 1888 200 1656 506 
L 1656 0 
L 538 0 
L 538 4863 
L 1656 4863 
L 1656 2988 
z
" transform="scale(0.015625)"/>
     </defs>
     <use xlink:href="#DejaVuSans-Bold-62"/>
    </g>
   </g>
   <g id="text_3">
    <!-- c -->
    <g style="fill: #1e88e5" transform="translate(51.887177 246.178119) scale(0.14 -0.14)">
     <defs>
      <path id="DejaVuSans-Bold-63" d="M 3366 3391 
L 3366 2478 
Q 3138 2634 2908 2709 
Q 2678 2784 2431 2784 
Q 1963 2784 1702 2511 
Q 1441 2238 1441 1747 
Q 1441 1256 1702 982 
Q 1963 709 2431 709 
Q 2694 709 2930 787 
Q 3166 866 3366 1019 
L 3366 103 
Q 3103 6 2833 -42 
Q 2563 -91 2291 -91 
Q 1344 -91 809 395 
Q 275 881 275 1747 
Q 275 2613 809 3098 
Q 1344 3584 2291 3584 
Q 2566 3584 2833 3536 
Q 3100 3488 3366 3391 
z
" transform="scale(0.015625)"/>
     </defs>
     <use xlink:href="#DejaVuSans-Bold-63"/>
    </g>
   </g>
   <g id="Line3DCollection_4">
    <path d="M 99.910235 269.807545 
L 51.887177 293.819074 
" clip-path="url(#p66761688b4)" style="fill: none; stroke: #43a047; stroke-width: 2"/>
    <path d="M 99.910235 269.807545 
L 95.271564 273.268583 
" clip-path="url(#p66761688b4)" style="fill: none; stroke: #43a047; stroke-width: 2"/>
    <path d="M 99.910235 269.807545 
L 95.271564 270.985178 
" clip-path="url(#p66761688b4)" style="fill: none; stroke: #43a047; stroke-width: 2"/>
   </g>
   <g id="Line3DCollection_5">
    <path d="M 51.887177 249.707078 
L 51.887177 293.819074 
" clip-path="url(#p66761688b4)" style="fill: none; stroke: #1e88e5; stroke-width: 2"/>
    <path d="M 51.887177 249.707078 
L 50.644249 253.346506 
" clip-path="url(#p66761688b4)" style="fill: none; stroke: #1e88e5; stroke-width: 2"/>
    <path d="M 51.887177 249.707078 
L 53.130106 254.589434 
" clip-path="url(#p66761688b4)" style="fill: none; stroke: #1e88e5; stroke-width: 2"/>
   </g>
   <g id="Line3DCollection_6">
    <path d="M 99.910235 317.830603 
L 51.887177 293.819074 
" clip-path="url(#p66761688b4)" style="fill: none; stroke: #e53935; stroke-width: 2"/>
    <path d="M 99.910235 317.830603 
L 95.271564 316.652969 
" clip-path="url(#p66761688b4)" style="fill: none; stroke: #e53935; stroke-width: 2"/>
    <path d="M 99.910235 317.830603 
L 95.271564 314.369565 
" clip-path="url(#p66761688b4)" style="fill: none; stroke: #e53935; stroke-width: 2"/>
   </g>
   <g id="Poly3DCollection_1">
    <path d="M 273.950676 80.079313 
L 273.950676 232.887747 
L 142.749243 250.465406 
L 142.749243 97.656972 
z
" clip-path="url(#p66761688b4)" style="fill: #a5d6a7; fill-opacity: 0.7; stroke: #388e3c; stroke-opacity: 0.7; stroke-width: 1.5"/>
    <path d="M 369.996792 128.10237 
L 369.996792 280.910805 
L 273.950676 232.887747 
L 273.950676 80.079313 
z
" clip-path="url(#p66761688b4)" style="fill: #a5d6a7; fill-opacity: 0.7; stroke: #388e3c; stroke-opacity: 0.7; stroke-width: 1.5"/>
    <path d="M 142.749243 250.465406 
L 273.950676 232.887747 
L 369.996792 280.910805 
L 334.841474 346.511521 
L 203.64004 364.089181 
L 107.593924 316.066123 
z
" clip-path="url(#p66761688b4)" style="fill: #a5d6a7; fill-opacity: 0.7; stroke: #388e3c; stroke-opacity: 0.7; stroke-width: 1.5"/>
    <path d="M 142.749243 250.465406 
L 107.593924 316.066123 
L 107.593924 163.257689 
L 142.749243 97.656972 
z
" clip-path="url(#p66761688b4)" style="fill: #a5d6a7; fill-opacity: 0.7; stroke: #388e3c; stroke-opacity: 0.7; stroke-width: 1.5"/>
    <path d="M 334.841474 193.703087 
L 334.841474 346.511521 
L 369.996792 280.910805 
L 369.996792 128.10237 
z
" clip-path="url(#p66761688b4)" style="fill: #a5d6a7; fill-opacity: 0.7; stroke: #388e3c; stroke-opacity: 0.7; stroke-width: 1.5"/>
    <path d="M 203.64004 211.280746 
L 334.841474 193.703087 
L 369.996792 128.10237 
L 273.950676 80.079313 
L 142.749243 97.656972 
L 107.593924 163.257689 
z
" clip-path="url(#p66761688b4)" style="fill: #a5d6a7; fill-opacity: 0.7; stroke: #388e3c; stroke-opacity: 0.7; stroke-width: 1.5"/>
    <path d="M 107.593924 163.257689 
L 107.593924 316.066123 
L 203.64004 364.089181 
L 203.64004 211.280746 
z
" clip-path="url(#p66761688b4)" style="fill: #a5d6a7; fill-opacity: 0.7; stroke: #388e3c; stroke-opacity: 0.7; stroke-width: 1.5"/>
    <path d="M 203.64004 211.280746 
L 203.64004 364.089181 
L 334.841474 346.511521 
L 334.841474 193.703087 
z
" clip-path="url(#p66761688b4)" style="fill: #a5d6a7; fill-opacity: 0.7; stroke: #388e3c; stroke-opacity: 0.7; stroke-width: 1.5"/>
   </g>
   <g id="Path3DCollection_2">
    <defs>
     <path id="C1_0_ca153c3e83" d="M 0 2.738613 
C 0.726289 2.738613 1.422928 2.450055 1.936492 1.936492 
C 2.450055 1.422928 2.738613 0.726289 2.738613 -0 
C 2.738613 -0.726289 2.450055 -1.422928 1.936492 -1.936492 
C 1.422928 -2.450055 0.726289 -2.738613 0 -2.738613 
C -0.726289 -2.738613 -1.422928 -2.450055 -1.936492 -1.936492 
C -2.450055 -1.422928 -2.738613 -0.726289 -2.738613 0 
C -2.738613 0.726289 -2.450055 1.422928 -1.936492 1.936492 
C -1.422928 2.450055 -0.726289 2.738613 0 2.738613 
z
"/>
    </defs>
    <g clip-path="url(#p66761688b4)">
     <use xlink:href="#C1_0_ca153c3e83" x="369.996792" y="280.910805" style="fill: #388e3c; fill-opacity: 0.9; stroke: #388e3c; stroke-opacity: 0.9"/>
    </g>
    <g clip-path="url(#p66761688b4)">
     <use xlink:href="#C1_0_ca153c3e83" x="273.950676" y="80.079313" style="fill: #388e3c; fill-opacity: 0.9; stroke: #388e3c; stroke-opacity: 0.9"/>
    </g>
    <g clip-path="url(#p66761688b4)">
     <use xlink:href="#C1_0_ca153c3e83" x="142.749243" y="97.656972" style="fill: #388e3c; fill-opacity: 0.9; stroke: #388e3c; stroke-opacity: 0.9"/>
    </g>
    <g clip-path="url(#p66761688b4)">
     <use xlink:href="#C1_0_ca153c3e83" x="107.593924" y="316.066123" style="fill: #388e3c; fill-opacity: 0.9; stroke: #388e3c; stroke-opacity: 0.9"/>
    </g>
    <g clip-path="url(#p66761688b4)">
     <use xlink:href="#C1_0_ca153c3e83" x="369.996792" y="128.10237" style="fill: #388e3c; fill-opacity: 0.9; stroke: #388e3c; stroke-opacity: 0.9"/>
    </g>
    <g clip-path="url(#p66761688b4)">
     <use xlink:href="#C1_0_ca153c3e83" x="334.841474" y="346.511521" style="fill: #388e3c; fill-opacity: 0.9; stroke: #388e3c; stroke-opacity: 0.9"/>
    </g>
    <g clip-path="url(#p66761688b4)">
     <use xlink:href="#C1_0_ca153c3e83" x="203.64004" y="364.089181" style="fill: #388e3c; fill-opacity: 0.9; stroke: #388e3c; stroke-opacity: 0.9"/>
    </g>
    <g clip-path="url(#p66761688b4)">
     <use xlink:href="#C1_0_ca153c3e83" x="107.593924" y="163.257689" style="fill: #388e3c; fill-opacity: 0.9; stroke: #388e3c; stroke-opacity: 0.9"/>
    </g>
    <g clip-path="url(#p66761688b4)">
     <use xlink:href="#C1_0_ca153c3e83" x="334.841474" y="193.703087" style="fill: #388e3c; fill-opacity: 0.9; stroke: #388e3c; stroke-opacity: 0.9"/>
    </g>
    <g clip-path="url(#p66761688b4)">
     <use xlink:href="#C1_0_ca153c3e83" x="203.64004" y="211.280746" style="fill: #388e3c; fill-opacity: 0.9; stroke: #388e3c; stroke-opacity: 0.9"/>
    </g>
   </g>
  </g>
 </g>
 <defs>
  <clipPath id="p66761688b4">
   <rect x="7.2" y="7.2" width="443.52" height="443.52"/>
  </clipPath>
 </defs>
</svg>
