<?xml version="1.0" encoding="utf-8" standalone="no"?>
<!DOCTYPE svg PUBLIC "-//W3C//DTD SVG 1.1//EN"
  "http://www.w3.org/Graphics/SVG/1.1/DTD/svg11.dtd">
<svg xmlns:xlink="http://www.w3.org/1999/xlink" width="208.8pt" height="208.8pt" viewBox="0 0 208.8 208.8" xmlns="http://www.w3.org/2000/svg" version="1.1">
 <metadata>
  <rdf:RDF xmlns:dc="http://purl.org/dc/elements/1.1/" xmlns:cc="http://creativecommons.org/ns#" xmlns:rdf="http://www.w3.org/1999/02/22-rdf-syntax-ns#">
   <cc:Work>
    <dc:type rdf:resource="http://purl.org/dc/dcmitype/StillImage"/>
    <dc:date>2026-02-15T22:32:04.886474</dc:date>
    <dc:format>image/svg+xml</dc:format>
    <dc:creator>
     <cc:Agent>
      <dc:title>Matplotlib v3.10.8, https://matplotlib.org/</dc:title>
     </cc:Agent>
    </dc:creator>
   </cc:Work>
  </rdf:RDF>
 </metadata>
 <defs>
  <style type="text/css">*{stroke-linejoin: round; stroke-linecap: butt}</style>
 </defs>
 <g id="figure_1">
  <g id="patch_1">
   <path d="M 0 208.8 
L 208.8 208.8 
L 208.8 0 
L 0 0 
z
" style="fill: #ffffff"/>
  </g>
  <g id="patch_2">
   <path d="M 7.2 201.6 
L 201.6 201.6 
L 201.6 7.2 
L 7.2 7.2 
z
" style="fill: #ffffff"/>
  </g>
  <g id="axes_1">
   <g id="Path3DCollection_1">
    <defs>
     <path id="C0_0_9800fe3d7f" d="M 0 2.738613 
C 0.726289 2.738613 1.422928 2.450055 1.936492 1.936492 
C 2.450055 1.422928 2.738613 0.726289 2.738613 -0 
C 2.738613 -0.726289 2.450055 -1.422928 1.936492 -1.936492 
C 1.422928 -2.450055 0.726289 -2.738613 0 -2.738613 
C -0.726289 -2.738613 -1.422928 -2.450055 -1.936492 -1.936492 
C -2.450055 -1.422928 -2.738613 -0.726289 -2.738613 0 
C -2.738613 0.726289 -2.450055 1.422928 -1.936492 1.936492 
C -1.422928 2.450055 -0.726289 2.738613 0 2.738613 
z
"/>
    </defs>
    <g clip-path="url(#pf8814345de)">
     <use xlink:href="#C0_0_9800fe3d7f" x="120.517595" y="105.918728" style="fill: #0369a1; fill-opacity: 0.3; stroke: #0369a1; stroke-opacity: 0.3"/>
    </g>
    <g clip-path="url(#pf8814345de)">
     <use xlink:href="#C0_0_9800fe3d7f" x="70.17011" y="112.664012" style="fill: #0369a1; fill-opacity: 0.3; stroke: #0369a1; stroke-opacity: 0.3"/>
    </g>
   </g>
   <g id="Poly3DCollection_1">
    <path d="M 120.517595 47.279732 
L 120.517595 105.918728 
L 70.17011 112.664012 
L 70.17011 54.025016 
z
" clip-path="url(#pf8814345de)" style="fill: #0ea5e9; fill-opacity: 0.7; stroke: #0369a1; stroke-opacity: 0.7; stroke-width: 1.5"/>
    <path d="M 157.374512 65.708191 
L 157.374512 124.347187 
L 120.517595 105.918728 
L 120.517595 47.279732 
z
" clip-path="url(#pf8814345de)" style="fill: #0ea5e9; fill-opacity: 0.7; stroke: #0369a1; stroke-opacity: 0.7; stroke-width: 1.5"/>
    <path d="M 70.17011 112.664012 
L 120.517595 105.918728 
L 157.374512 124.347187 
L 143.883944 149.52093 
L 93.536459 156.266214 
L 56.679542 137.837755 
z
" clip-path="url(#pf8814345de)" style="fill: #0ea5e9; fill-opacity: 0.7; stroke: #0369a1; stroke-opacity: 0.7; stroke-width: 1.5"/>
    <path d="M 70.17011 112.664012 
L 56.679542 137.837755 
L 56.679542 79.198759 
L 70.17011 54.025016 
z
" clip-path="url(#pf8814345de)" style="fill: #0ea5e9; fill-opacity: 0.7; stroke: #0369a1; stroke-opacity: 0.7; stroke-width: 1.5"/>
    <path d="M 143.883944 90.881933 
L 143.883944 149.52093 
L 157.374512 124.347187 
L 157.374512 65.708191 
z
" clip-path="url(#pf8814345de)" style="fill: #0ea5e9; fill-opacity: 0.7; stroke: #0369a1; stroke-opacity: 0.7; stroke-width: 1.5"/>
    <path d="M 93.536459 97.627217 
L 143.883944 90.881933 
L 157.374512 65.708191 
L 120.517595 47.279732 
L 70.17011 54.025016 
L 56.679542 79.198759 
z
" clip-path="url(#pf8814345de)" style="fill: #0ea5e9; fill-opacity: 0.7; stroke: #0369a1; stroke-opacity: 0.7; stroke-width: 1.5"/>
    <path d="M 56.679542 79.198759 
L 56.679542 137.837755 
L 93.536459 156.266214 
L 93.536459 97.627217 
z
" clip-path="url(#pf8814345de)" style="fill: #0ea5e9; fill-opacity: 0.7; stroke: #0369a1; stroke-opacity: 0.7; stroke-width: 1.5"/>
    <path d="M 93.536459 97.627217 
L 93.536459 156.266214 
L 143.883944 149.52093 
L 143.883944 90.881933 
z
" clip-path="url(#pf8814345de)" style="fill: #0ea5e9; fill-opacity: 0.7; stroke: #0369a1; stroke-opacity: 0.7; stroke-width: 1.5"/>
   </g>
   <g id="Path3DCollection_2">
    <defs>
     <path id="C1_0_1c547f975c" d="M 0 2.738613 
C 0.726289 2.738613 1.422928 2.450055 1.936492 1.936492 
C 2.450055 1.422928 2.738613 0.726289 2.738613 -0 
C 2.738613 -0.726289 2.450055 -1.422928 1.936492 -1.936492 
C 1.422928 -2.450055 0.726289 -2.738613 0 -2.738613 
C -0.726289 -2.738613 -1.422928 -2.450055 -1.936492 -1.936492 
C -2.450055 -1.422928 -2.738613 -0.726289 -2.738613 0 
C -2.738613 0.726289 -2.450055 1.422928 -1.936492 1.936492 
C -1.422928 2.450055 -0.726289 2.738613 0 2.738613 
z
"/>
    </defs>
    <g clip-path="url(#pf8814345de)">
     <use xlink:href="#C1_0_1c547f975c" x="157.374512" y="124.347187" style="fill: #0369a1; fill-opacity: 0.9; stroke: #0369a1; stroke-opacity: 0.9"/>
    </g>
    <g clip-path="url(#pf8814345de)">
     <use xlink:href="#C1_0_1c547f975c" x="120.517595" y="47.279732" style="fill: #0369a1; fill-opacity: 0.9; stroke: #0369a1; stroke-opacity: 0.9"/>
    </g>
    <g clip-path="url(#pf8814345de)">
     <use xlink:href="#C1_0_1c547f975c" x="70.17011" y="54.025016" style="fill: #0369a1; fill-opacity: 0.9; stroke: #0369a1; stroke-opacity: 0.9"/>
    </g>
    <g clip-path="url(#pf8814345de)">
     <use xlink:href="#C1_0_1c547f975c" x="56.679542" y="137.837755" style="fill: #0369a1; fill-opacity: 0.9; stroke: #0369a1; stroke-opacity: 0.9"/>
    </g>
    <g clip-path="url(#pf8814345de)">
     <use xlink:href="#C1_0_1c547f975c" x="157.374512" y="65.708191" style="fill: #0369a1; fill-opacity: 0.9; stroke: #0369a1; stroke-opacity: 0.9"/>
    </g>
    <g clip-path="url(#pf8814345de)">
     <use xlink:href="#C1_0_1c547f975c" x="143.883944" y="149.52093" style="fill: #0369a1; fill-opacity: 0.9; stroke: #0369a1; stroke-opacity: 0.9"/>
    </g>
    <g clip-path="url(#pf8814345de)">
     <use xlink:href="#C1_0_1c547f975c" x="93.536459" y="156.266214" style="fill: #0369a1; fill-opacity: 0.9; stroke: #0369a1; stroke-opacity: 0.9"/>
    </g>
    <g clip-path="url(#pf8814345de)">
     <use xlink:href="#C1_0_1c547f975c" x="56.679542" y="79.198759" style="fill: #0369a1; fill-opacity: 0.9; stroke: #0369a1; stroke-opacity: 0.9"/>
    </g>
    <g clip-path="url(#pf8814345de)">
     <use xlink:href="#C1_0_1c547f975c" x="143.883944" y="90.881933" style="fill: #0369a1; fill-opacity: 0.9; stroke: #0369a1; stroke-opacity: 0.9"/>
    </g>
    <g clip-path="url(#pf8814345de)">
     <use xlink:href="#C1_0_1c547f975c" x="93.536459" y="97.627217" style="fill: #0369a1; fill-opacity: 0.9; stroke: #0369a1; stroke-opacity: 0.9"/>
    </g>
   </g>
  </g>
 </g>
 <defs>
  <clipPath id="pf8814345de">
   <rect x="7.2" y="7.2" width="194.4" height="194.4"/>
  </clipPath>
 </defs>
</svg>
