<?xml version="1.0" encoding="utf-8" standalone="no"?>
<!DOCTYPE svg PUBLIC "-//W3C//DTD SVG 1.1//EN"
  "http://www.w3.org/Graphics/SVG/1.1/DTD/svg11.dtd">
<svg xmlns:xlink="http://www.w3.org/1999/xlink" width="464.059457pt" height="457.92pt" viewBox="0 0 464.059457 457.92" xmlns="http://www.w3.org/2000/svg" version="1.1">
 <metadata>
  <rdf:RDF xmlns:dc="http://purl.org/dc/elements/1.1/" xmlns:cc="http://creativecommons.org/ns#" xmlns:rdf="http://www.w3.org/1999/02/22-rdf-syntax-ns#">
   <cc:Work>
    <dc:type rdf:resource="http://purl.org/dc/dcmitype/StillImage"/>
    <dc:date>2026-02-02T15:08:40.709489</dc:date>
    <dc:format>image/svg+xml</dc:format>
    <dc:creator>
     <cc:Agent>
      <dc:title>Matplotlib v3.10.8, https://matplotlib.org/</dc:title>
     </cc:Agent>
    </dc:creator>
   </cc:Work>
  </rdf:RDF>
 </metadata>
 <defs>
  <style type="text/css">*{stroke-linejoin: round; stroke-linecap: butt}</style>
 </defs>
 <g id="figure_1">
  <g id="patch_1">
   <path d="M 0 457.92 
L 464.059457 457.92 
L 464.059457 0 
L 0 0 
z
" style="fill: #ffffff"/>
  </g>
  <g id="patch_2">
   <path d="M 7.2 450.72 
L 450.72 450.72 
L 450.72 7.2 
L 7.2 7.2 
z
" style="fill: #ffffff"/>
  </g>
  <g id="pane3d_1">
   <g id="patch_3">
    <path d="M 33.141415 315.654611 
L 234.953514 214.748562 
L 234.953514 29.372313 
L 33.141415 130.278362 
" style="fill: #f2f2f2; opacity: 0.5; stroke: #f2f2f2; stroke-linejoin: miter"/>
   </g>
  </g>
  <g id="pane3d_2">
   <g id="patch_4">
    <path d="M 234.953514 214.748562 
L 436.765612 315.654611 
L 436.765612 130.278362 
L 234.953514 29.372313 
" style="fill: #e6e6e6; opacity: 0.5; stroke: #e6e6e6; stroke-linejoin: miter"/>
   </g>
  </g>
  <g id="pane3d_3">
   <g id="patch_5">
    <path d="M 33.141415 315.654611 
L 234.953514 416.56066 
L 436.765612 315.654611 
L 234.953514 214.748562 
" style="fill: #ececec; opacity: 0.5; stroke: #ececec; stroke-linejoin: miter"/>
   </g>
  </g>
  <g id="grid3d_1">
   <g id="Line3DCollection_1">
    <path d="M 45.46426 321.816033 
L 247.276358 220.909984 
L 247.276358 35.533735 
" style="fill: none; stroke: #b0b0b0; stroke-width: 0.8"/>
    <path d="M 75.638642 336.903224 
L 277.45074 235.997175 
L 277.45074 50.620926 
" style="fill: none; stroke: #b0b0b0; stroke-width: 0.8"/>
    <path d="M 105.813024 351.990415 
L 307.625122 251.084366 
L 307.625122 65.708117 
" style="fill: none; stroke: #b0b0b0; stroke-width: 0.8"/>
    <path d="M 135.987406 367.077606 
L 337.799504 266.171557 
L 337.799504 80.795308 
" style="fill: none; stroke: #b0b0b0; stroke-width: 0.8"/>
    <path d="M 166.161788 382.164797 
L 367.973886 281.258748 
L 367.973886 95.882499 
" style="fill: none; stroke: #b0b0b0; stroke-width: 0.8"/>
    <path d="M 196.33617 397.251988 
L 398.148268 296.345939 
L 398.148268 110.96969 
" style="fill: none; stroke: #b0b0b0; stroke-width: 0.8"/>
    <path d="M 226.510552 412.339179 
L 428.32265 311.43313 
L 428.32265 126.056881 
" style="fill: none; stroke: #b0b0b0; stroke-width: 0.8"/>
   </g>
  </g>
  <g id="grid3d_2">
   <g id="Line3DCollection_2">
    <path d="M 45.46426 124.11694 
L 45.46426 309.493189 
L 247.276358 410.399238 
" style="fill: none; stroke: #b0b0b0; stroke-width: 0.8"/>
    <path d="M 75.638642 109.029749 
L 75.638642 294.405998 
L 277.45074 395.312047 
" style="fill: none; stroke: #b0b0b0; stroke-width: 0.8"/>
    <path d="M 105.813024 93.942558 
L 105.813024 279.318807 
L 307.625122 380.224856 
" style="fill: none; stroke: #b0b0b0; stroke-width: 0.8"/>
    <path d="M 135.987406 78.855367 
L 135.987406 264.231616 
L 337.799504 365.137665 
" style="fill: none; stroke: #b0b0b0; stroke-width: 0.8"/>
    <path d="M 166.161788 63.768176 
L 166.161788 249.144425 
L 367.973886 350.050474 
" style="fill: none; stroke: #b0b0b0; stroke-width: 0.8"/>
    <path d="M 196.33617 48.680985 
L 196.33617 234.057234 
L 398.148268 334.963283 
" style="fill: none; stroke: #b0b0b0; stroke-width: 0.8"/>
    <path d="M 226.510552 33.593794 
L 226.510552 218.970043 
L 428.32265 319.876092 
" style="fill: none; stroke: #b0b0b0; stroke-width: 0.8"/>
   </g>
  </g>
  <g id="grid3d_3">
   <g id="Line3DCollection_3">
    <path d="M 436.765612 305.226331 
L 234.953514 204.320282 
L 33.141415 305.226331 
" style="fill: none; stroke: #b0b0b0; stroke-width: 0.8"/>
    <path d="M 436.765612 277.509391 
L 234.953514 176.603342 
L 33.141415 277.509391 
" style="fill: none; stroke: #b0b0b0; stroke-width: 0.8"/>
    <path d="M 436.765612 249.792451 
L 234.953514 148.886402 
L 33.141415 249.792451 
" style="fill: none; stroke: #b0b0b0; stroke-width: 0.8"/>
    <path d="M 436.765612 222.075512 
L 234.953514 121.169463 
L 33.141415 222.075512 
" style="fill: none; stroke: #b0b0b0; stroke-width: 0.8"/>
    <path d="M 436.765612 194.358572 
L 234.953514 93.452523 
L 33.141415 194.358572 
" style="fill: none; stroke: #b0b0b0; stroke-width: 0.8"/>
    <path d="M 436.765612 166.641632 
L 234.953514 65.735583 
L 33.141415 166.641632 
" style="fill: none; stroke: #b0b0b0; stroke-width: 0.8"/>
    <path d="M 436.765612 138.924693 
L 234.953514 38.018644 
L 33.141415 138.924693 
" style="fill: none; stroke: #b0b0b0; stroke-width: 0.8"/>
   </g>
  </g>
  <g id="axis3d_1">
   <g id="line2d_1">
    <path d="M 33.141415 315.654611 
L 234.953514 416.56066 
" style="fill: none; stroke: #000000; stroke-width: 0.8; stroke-linecap: square"/>
   </g>
   <g id="xtick_1">
    <g id="line2d_2">
     <path d="M 47.078757 321.008785 
L 42.235266 323.43053 
" style="fill: none; stroke: #000000; stroke-width: 0.8; stroke-linecap: square"/>
    </g>
   </g>
   <g id="xtick_2">
    <g id="line2d_3">
     <path d="M 77.253139 336.095976 
L 72.409648 338.517721 
" style="fill: none; stroke: #000000; stroke-width: 0.8; stroke-linecap: square"/>
    </g>
   </g>
   <g id="xtick_3">
    <g id="line2d_4">
     <path d="M 107.427521 351.183167 
L 102.58403 353.604912 
" style="fill: none; stroke: #000000; stroke-width: 0.8; stroke-linecap: square"/>
    </g>
   </g>
   <g id="xtick_4">
    <g id="line2d_5">
     <path d="M 137.601903 366.270358 
L 132.758412 368.692103 
" style="fill: none; stroke: #000000; stroke-width: 0.8; stroke-linecap: square"/>
    </g>
   </g>
   <g id="xtick_5">
    <g id="line2d_6">
     <path d="M 167.776285 381.357549 
L 162.932794 383.779294 
" style="fill: none; stroke: #000000; stroke-width: 0.8; stroke-linecap: square"/>
    </g>
   </g>
   <g id="xtick_6">
    <g id="line2d_7">
     <path d="M 197.950667 396.44474 
L 193.107176 398.866485 
" style="fill: none; stroke: #000000; stroke-width: 0.8; stroke-linecap: square"/>
    </g>
   </g>
   <g id="xtick_7">
    <g id="line2d_8">
     <path d="M 228.125049 411.531931 
L 223.281558 413.953676 
" style="fill: none; stroke: #000000; stroke-width: 0.8; stroke-linecap: square"/>
    </g>
   </g>
  </g>
  <g id="axis3d_2">
   <g id="line2d_9">
    <path d="M 436.765612 315.654611 
L 234.953514 416.56066 
" style="fill: none; stroke: #000000; stroke-width: 0.8; stroke-linecap: square"/>
   </g>
   <g id="xtick_8">
    <g id="line2d_10">
     <path d="M 245.661861 409.591989 
L 250.505352 412.013735 
" style="fill: none; stroke: #000000; stroke-width: 0.8; stroke-linecap: square"/>
    </g>
   </g>
   <g id="xtick_9">
    <g id="line2d_11">
     <path d="M 275.836243 394.504798 
L 280.679734 396.926544 
" style="fill: none; stroke: #000000; stroke-width: 0.8; stroke-linecap: square"/>
    </g>
   </g>
   <g id="xtick_10">
    <g id="line2d_12">
     <path d="M 306.010625 379.417607 
L 310.854115 381.839353 
" style="fill: none; stroke: #000000; stroke-width: 0.8; stroke-linecap: square"/>
    </g>
   </g>
   <g id="xtick_11">
    <g id="line2d_13">
     <path d="M 336.185007 364.330416 
L 341.028497 366.752162 
" style="fill: none; stroke: #000000; stroke-width: 0.8; stroke-linecap: square"/>
    </g>
   </g>
   <g id="xtick_12">
    <g id="line2d_14">
     <path d="M 366.359389 349.243225 
L 371.202879 351.664971 
" style="fill: none; stroke: #000000; stroke-width: 0.8; stroke-linecap: square"/>
    </g>
   </g>
   <g id="xtick_13">
    <g id="line2d_15">
     <path d="M 396.533771 334.156034 
L 401.377261 336.57778 
" style="fill: none; stroke: #000000; stroke-width: 0.8; stroke-linecap: square"/>
    </g>
   </g>
   <g id="xtick_14">
    <g id="line2d_16">
     <path d="M 426.708153 319.068843 
L 431.551643 321.490589 
" style="fill: none; stroke: #000000; stroke-width: 0.8; stroke-linecap: square"/>
    </g>
   </g>
  </g>
  <g id="axis3d_3">
   <g id="line2d_17">
    <path d="M 436.765612 315.654611 
L 436.765612 130.278362 
" style="fill: none; stroke: #000000; stroke-width: 0.8; stroke-linecap: square"/>
   </g>
   <g id="xtick_15">
    <g id="line2d_18">
     <path d="M 435.151115 304.419082 
L 439.994605 306.840827 
" style="fill: none; stroke: #000000; stroke-width: 0.8; stroke-linecap: square"/>
    </g>
   </g>
   <g id="xtick_16">
    <g id="line2d_19">
     <path d="M 435.151115 276.702142 
L 439.994605 279.123888 
" style="fill: none; stroke: #000000; stroke-width: 0.8; stroke-linecap: square"/>
    </g>
   </g>
   <g id="xtick_17">
    <g id="line2d_20">
     <path d="M 435.151115 248.985203 
L 439.994605 251.406948 
" style="fill: none; stroke: #000000; stroke-width: 0.8; stroke-linecap: square"/>
    </g>
   </g>
   <g id="xtick_18">
    <g id="line2d_21">
     <path d="M 435.151115 221.268263 
L 439.994605 223.690008 
" style="fill: none; stroke: #000000; stroke-width: 0.8; stroke-linecap: square"/>
    </g>
   </g>
   <g id="xtick_19">
    <g id="line2d_22">
     <path d="M 435.151115 193.551323 
L 439.994605 195.973069 
" style="fill: none; stroke: #000000; stroke-width: 0.8; stroke-linecap: square"/>
    </g>
   </g>
   <g id="xtick_20">
    <g id="line2d_23">
     <path d="M 435.151115 165.834384 
L 439.994605 168.256129 
" style="fill: none; stroke: #000000; stroke-width: 0.8; stroke-linecap: square"/>
    </g>
   </g>
   <g id="xtick_21">
    <g id="line2d_24">
     <path d="M 435.151115 138.117444 
L 439.994605 140.539189 
" style="fill: none; stroke: #000000; stroke-width: 0.8; stroke-linecap: square"/>
    </g>
   </g>
  </g>
  <g id="axes_1">
   <g id="Line3DCollection_4">
    <path d="M 196.326031 297.996401 
L 161.407087 315.455873 
" clip-path="url(#p307d06ee1a)" style="fill: none; stroke: #43a047; stroke-width: 2"/>
    <path d="M 196.326031 297.996401 
L 192.95312 300.513021 
" clip-path="url(#p307d06ee1a)" style="fill: none; stroke: #43a047; stroke-width: 2"/>
    <path d="M 196.326031 297.996401 
L 192.95312 298.852692 
" clip-path="url(#p307d06ee1a)" style="fill: none; stroke: #43a047; stroke-width: 2"/>
   </g>
   <g id="text_1">
    <!-- a -->
    <g style="fill: #e53935" transform="translate(199.119546 334.312103) scale(0.14 -0.14)">
     <defs>
      <path id="DejaVuSans-Bold-61" d="M 2106 1575 
Q 1756 1575 1579 1456 
Q 1403 1338 1403 1106 
Q 1403 894 1545 773 
Q 1688 653 1941 653 
Q 2256 653 2472 879 
Q 2688 1106 2688 1447 
L 2688 1575 
L 2106 1575 
z
M 3816 1997 
L 3816 0 
L 2688 0 
L 2688 519 
Q 2463 200 2181 54 
Q 1900 -91 1497 -91 
Q 953 -91 614 226 
Q 275 544 275 1050 
Q 275 1666 698 1953 
Q 1122 2241 2028 2241 
L 2688 2241 
L 2688 2328 
Q 2688 2594 2478 2717 
Q 2269 2841 1825 2841 
Q 1466 2841 1156 2769 
Q 847 2697 581 2553 
L 581 3406 
Q 941 3494 1303 3539 
Q 1666 3584 2028 3584 
Q 2975 3584 3395 3211 
Q 3816 2838 3816 1997 
z
" transform="scale(0.015625)"/>
     </defs>
     <use xlink:href="#DejaVuSans-Bold-61"/>
    </g>
   </g>
   <g id="text_2">
    <!-- b -->
    <g style="fill: #43a047" transform="translate(199.119546 296.599643) scale(0.14 -0.14)">
     <defs>
      <path id="DejaVuSans-Bold-62" d="M 2400 722 
Q 2759 722 2948 984 
Q 3138 1247 3138 1747 
Q 3138 2247 2948 2509 
Q 2759 2772 2400 2772 
Q 2041 2772 1848 2508 
Q 1656 2244 1656 1747 
Q 1656 1250 1848 986 
Q 2041 722 2400 722 
z
M 1656 2988 
Q 1888 3294 2169 3439 
Q 2450 3584 2816 3584 
Q 3463 3584 3878 3070 
Q 4294 2556 4294 1747 
Q 4294 938 3878 423 
Q 3463 -91 2816 -91 
Q 2450 -91 2169 54 
Q 1888 200 1656 506 
L 1656 0 
L 538 0 
L 538 4863 
L 1656 4863 
L 1656 2988 
z
" transform="scale(0.015625)"/>
     </defs>
     <use xlink:href="#DejaVuSans-Bold-62"/>
    </g>
   </g>
   <g id="text_3">
    <!-- c -->
    <g style="fill: #1e88e5" transform="translate(161.407087 280.814767) scale(0.14 -0.14)">
     <defs>
      <path id="DejaVuSans-Bold-63" d="M 3366 3391 
L 3366 2478 
Q 3138 2634 2908 2709 
Q 2678 2784 2431 2784 
Q 1963 2784 1702 2511 
Q 1441 2238 1441 1747 
Q 1441 1256 1702 982 
Q 1963 709 2431 709 
Q 2694 709 2930 787 
Q 3166 866 3366 1019 
L 3366 103 
Q 3103 6 2833 -42 
Q 2563 -91 2291 -91 
Q 1344 -91 809 395 
Q 275 881 275 1747 
Q 275 2613 809 3098 
Q 1344 3584 2291 3584 
Q 2566 3584 2833 3536 
Q 3100 3488 3366 3391 
z
" transform="scale(0.015625)"/>
     </defs>
     <use xlink:href="#DejaVuSans-Bold-63"/>
    </g>
   </g>
   <g id="Line3DCollection_5">
    <path d="M 161.407087 283.380775 
L 161.407087 315.455873 
" clip-path="url(#p307d06ee1a)" style="fill: none; stroke: #1e88e5; stroke-width: 2"/>
    <path d="M 161.407087 283.380775 
L 160.503318 286.027107 
" clip-path="url(#p307d06ee1a)" style="fill: none; stroke: #1e88e5; stroke-width: 2"/>
    <path d="M 161.407087 283.380775 
L 162.310855 286.930876 
" clip-path="url(#p307d06ee1a)" style="fill: none; stroke: #1e88e5; stroke-width: 2"/>
   </g>
   <g id="Path3DCollection_1">
    <defs>
     <path id="C0_0_c30861d0af" d="M 0 2.738613 
C 0.726289 2.738613 1.422928 2.450055 1.936492 1.936492 
C 2.450055 1.422928 2.738613 0.726289 2.738613 -0 
C 2.738613 -0.726289 2.450055 -1.422928 1.936492 -1.936492 
C 1.422928 -2.450055 0.726289 -2.738613 0 -2.738613 
C -0.726289 -2.738613 -1.422928 -2.450055 -1.936492 -1.936492 
C -2.450055 -1.422928 -2.738613 -0.726289 -2.738613 0 
C -2.738613 0.726289 -2.450055 1.422928 -1.936492 1.936492 
C -1.422928 2.450055 -0.726289 2.738613 0 2.738613 
z
"/>
    </defs>
    <g clip-path="url(#p307d06ee1a)">
     <use xlink:href="#C0_0_c30861d0af" x="225.168135" y="206.475508" style="fill: #ef6c00; fill-opacity: 0.3; stroke: #ef6c00; stroke-opacity: 0.3"/>
    </g>
    <g clip-path="url(#p307d06ee1a)">
     <use xlink:href="#C0_0_c30861d0af" x="276.167585" y="193.508696" style="fill: #ef6c00; fill-opacity: 0.3; stroke: #ef6c00; stroke-opacity: 0.3"/>
    </g>
   </g>
   <g id="Line3DCollection_6">
    <path d="M 196.326031 332.915345 
L 161.407087 315.455873 
" clip-path="url(#p307d06ee1a)" style="fill: none; stroke: #e53935; stroke-width: 2"/>
    <path d="M 196.326031 332.915345 
L 192.95312 332.059055 
" clip-path="url(#p307d06ee1a)" style="fill: none; stroke: #e53935; stroke-width: 2"/>
    <path d="M 196.326031 332.915345 
L 192.95312 330.398725 
" clip-path="url(#p307d06ee1a)" style="fill: none; stroke: #e53935; stroke-width: 2"/>
   </g>
   <g id="Poly3DCollection_1">
    <path d="M 225.168135 206.475508 
L 276.167585 193.508696 
L 238.833396 311.173007 
z
" clip-path="url(#p307d06ee1a)" style="fill: #ffcc80; fill-opacity: 0.7; stroke: #ef6c00; stroke-opacity: 0.7; stroke-width: 1.5"/>
    <path d="M 225.168135 206.475508 
L 238.833396 311.173007 
L 187.833946 205.343159 
z
" clip-path="url(#p307d06ee1a)" style="fill: #ffcc80; fill-opacity: 0.7; stroke: #ef6c00; stroke-opacity: 0.7; stroke-width: 1.5"/>
    <path d="M 238.833396 311.173007 
L 276.167585 193.508696 
L 289.832846 238.807864 
z
" clip-path="url(#p307d06ee1a)" style="fill: #ffcc80; fill-opacity: 0.7; stroke: #ef6c00; stroke-opacity: 0.7; stroke-width: 1.5"/>
    <path d="M 238.833396 311.173007 
L 201.499208 250.642328 
L 187.833946 205.343159 
z
" clip-path="url(#p307d06ee1a)" style="fill: #ffcc80; fill-opacity: 0.7; stroke: #ef6c00; stroke-opacity: 0.7; stroke-width: 1.5"/>
    <path d="M 225.168135 206.475508 
L 238.833396 132.978016 
L 276.167585 193.508696 
z
" clip-path="url(#p307d06ee1a)" style="fill: #ffcc80; fill-opacity: 0.7; stroke: #ef6c00; stroke-opacity: 0.7; stroke-width: 1.5"/>
    <path d="M 187.833946 205.343159 
L 238.833396 132.978016 
L 225.168135 206.475508 
z
" clip-path="url(#p307d06ee1a)" style="fill: #ffcc80; fill-opacity: 0.7; stroke: #ef6c00; stroke-opacity: 0.7; stroke-width: 1.5"/>
    <path d="M 238.833396 311.173007 
L 289.832846 238.807864 
L 252.498658 237.675515 
z
" clip-path="url(#p307d06ee1a)" style="fill: #ffcc80; fill-opacity: 0.7; stroke: #ef6c00; stroke-opacity: 0.7; stroke-width: 1.5"/>
    <path d="M 252.498658 237.675515 
L 201.499208 250.642328 
L 238.833396 311.173007 
z
" clip-path="url(#p307d06ee1a)" style="fill: #ffcc80; fill-opacity: 0.7; stroke: #ef6c00; stroke-opacity: 0.7; stroke-width: 1.5"/>
    <path d="M 276.167585 193.508696 
L 238.833396 132.978016 
L 289.832846 238.807864 
z
" clip-path="url(#p307d06ee1a)" style="fill: #ffcc80; fill-opacity: 0.7; stroke: #ef6c00; stroke-opacity: 0.7; stroke-width: 1.5"/>
    <path d="M 201.499208 250.642328 
L 238.833396 132.978016 
L 187.833946 205.343159 
z
" clip-path="url(#p307d06ee1a)" style="fill: #ffcc80; fill-opacity: 0.7; stroke: #ef6c00; stroke-opacity: 0.7; stroke-width: 1.5"/>
    <path d="M 289.832846 238.807864 
L 238.833396 132.978016 
L 252.498658 237.675515 
z
" clip-path="url(#p307d06ee1a)" style="fill: #ffcc80; fill-opacity: 0.7; stroke: #ef6c00; stroke-opacity: 0.7; stroke-width: 1.5"/>
    <path d="M 252.498658 237.675515 
L 238.833396 132.978016 
L 201.499208 250.642328 
z
" clip-path="url(#p307d06ee1a)" style="fill: #ffcc80; fill-opacity: 0.7; stroke: #ef6c00; stroke-opacity: 0.7; stroke-width: 1.5"/>
   </g>
   <g id="Path3DCollection_2">
    <defs>
     <path id="C1_0_f3a99553c8" d="M 0 2.738613 
C 0.726289 2.738613 1.422928 2.450055 1.936492 1.936492 
C 2.450055 1.422928 2.738613 0.726289 2.738613 -0 
C 2.738613 -0.726289 2.450055 -1.422928 1.936492 -1.936492 
C 1.422928 -2.450055 0.726289 -2.738613 0 -2.738613 
C -0.726289 -2.738613 -1.422928 -2.450055 -1.936492 -1.936492 
C -2.450055 -1.422928 -2.738613 -0.726289 -2.738613 0 
C -2.738613 0.726289 -2.450055 1.422928 -1.936492 1.936492 
C -1.422928 2.450055 -0.726289 2.738613 0 2.738613 
z
"/>
    </defs>
    <g clip-path="url(#p307d06ee1a)">
     <use xlink:href="#C1_0_f3a99553c8" x="238.833396" y="311.173007" style="fill: #ef6c00; fill-opacity: 0.9; stroke: #ef6c00; stroke-opacity: 0.9"/>
    </g>
    <g clip-path="url(#p307d06ee1a)">
     <use xlink:href="#C1_0_f3a99553c8" x="187.833946" y="205.343159" style="fill: #ef6c00; fill-opacity: 0.9; stroke: #ef6c00; stroke-opacity: 0.9"/>
    </g>
    <g clip-path="url(#p307d06ee1a)">
     <use xlink:href="#C1_0_f3a99553c8" x="289.832846" y="238.807864" style="fill: #ef6c00; fill-opacity: 0.9; stroke: #ef6c00; stroke-opacity: 0.9"/>
    </g>
    <g clip-path="url(#p307d06ee1a)">
     <use xlink:href="#C1_0_f3a99553c8" x="201.499208" y="250.642328" style="fill: #ef6c00; fill-opacity: 0.9; stroke: #ef6c00; stroke-opacity: 0.9"/>
    </g>
    <g clip-path="url(#p307d06ee1a)">
     <use xlink:href="#C1_0_f3a99553c8" x="252.498658" y="237.675515" style="fill: #ef6c00; fill-opacity: 0.9; stroke: #ef6c00; stroke-opacity: 0.9"/>
    </g>
    <g clip-path="url(#p307d06ee1a)">
     <use xlink:href="#C1_0_f3a99553c8" x="238.833396" y="132.978016" style="fill: #ef6c00; fill-opacity: 0.9; stroke: #ef6c00; stroke-opacity: 0.9"/>
    </g>
   </g>
  </g>
 </g>
 <defs>
  <clipPath id="p307d06ee1a">
   <rect x="7.2" y="7.2" width="443.52" height="443.52"/>
  </clipPath>
 </defs>
</svg>
