<?xml version="1.0" encoding="utf-8" standalone="no"?>
<!DOCTYPE svg PUBLIC "-//W3C//DTD SVG 1.1//EN"
  "http://www.w3.org/Graphics/SVG/1.1/DTD/svg11.dtd">
<svg xmlns:xlink="http://www.w3.org/1999/xlink" width="464.059457pt" height="457.92pt" viewBox="0 0 464.059457 457.92" xmlns="http://www.w3.org/2000/svg" version="1.1">
 <metadata>
  <rdf:RDF xmlns:dc="http://purl.org/dc/elements/1.1/" xmlns:cc="http://creativecommons.org/ns#" xmlns:rdf="http://www.w3.org/1999/02/22-rdf-syntax-ns#">
   <cc:Work>
    <dc:type rdf:resource="http://purl.org/dc/dcmitype/StillImage"/>
    <dc:date>2026-02-02T15:08:41.017378</dc:date>
    <dc:format>image/svg+xml</dc:format>
    <dc:creator>
     <cc:Agent>
      <dc:title>Matplotlib v3.10.8, https://matplotlib.org/</dc:title>
     </cc:Agent>
    </dc:creator>
   </cc:Work>
  </rdf:RDF>
 </metadata>
 <defs>
  <style type="text/css">*{stroke-linejoin: round; stroke-linecap: butt}</style>
 </defs>
 <g id="figure_1">
  <g id="patch_1">
   <path d="M 0 457.92 
L 464.059457 457.92 
L 464.059457 0 
L 0 0 
z
" style="fill: #ffffff"/>
  </g>
  <g id="patch_2">
   <path d="M 7.2 450.72 
L 450.72 450.72 
L 450.72 7.2 
L 7.2 7.2 
z
" style="fill: #ffffff"/>
  </g>
  <g id="pane3d_1">
   <g id="patch_3">
    <path d="M 33.141415 315.654611 
L 234.953514 214.748562 
L 234.953514 29.372313 
L 33.141415 130.278362 
" style="fill: #f2f2f2; opacity: 0.5; stroke: #f2f2f2; stroke-linejoin: miter"/>
   </g>
  </g>
  <g id="pane3d_2">
   <g id="patch_4">
    <path d="M 234.953514 214.748562 
L 436.765612 315.654611 
L 436.765612 130.278362 
L 234.953514 29.372313 
" style="fill: #e6e6e6; opacity: 0.5; stroke: #e6e6e6; stroke-linejoin: miter"/>
   </g>
  </g>
  <g id="pane3d_3">
   <g id="patch_5">
    <path d="M 33.141415 315.654611 
L 234.953514 416.56066 
L 436.765612 315.654611 
L 234.953514 214.748562 
" style="fill: #ececec; opacity: 0.5; stroke: #ececec; stroke-linejoin: miter"/>
   </g>
  </g>
  <g id="grid3d_1">
   <g id="Line3DCollection_1">
    <path d="M 47.244786 322.706296 
L 249.056884 221.800247 
L 249.056884 36.423998 
" style="fill: none; stroke: #b0b0b0; stroke-width: 0.8"/>
    <path d="M 69.425686 333.796746 
L 271.237784 232.890697 
L 271.237784 47.514448 
" style="fill: none; stroke: #b0b0b0; stroke-width: 0.8"/>
    <path d="M 91.606586 344.887196 
L 293.418684 243.981147 
L 293.418684 58.604898 
" style="fill: none; stroke: #b0b0b0; stroke-width: 0.8"/>
    <path d="M 113.787487 355.977647 
L 315.599585 255.071598 
L 315.599585 69.695348 
" style="fill: none; stroke: #b0b0b0; stroke-width: 0.8"/>
    <path d="M 135.968387 367.068097 
L 337.780485 266.162048 
L 337.780485 80.785799 
" style="fill: none; stroke: #b0b0b0; stroke-width: 0.8"/>
    <path d="M 158.149287 378.158547 
L 359.961385 277.252498 
L 359.961385 91.876249 
" style="fill: none; stroke: #b0b0b0; stroke-width: 0.8"/>
    <path d="M 180.330187 389.248997 
L 382.142285 288.342948 
L 382.142285 102.966699 
" style="fill: none; stroke: #b0b0b0; stroke-width: 0.8"/>
    <path d="M 202.511088 400.339447 
L 404.323186 299.433398 
L 404.323186 114.057149 
" style="fill: none; stroke: #b0b0b0; stroke-width: 0.8"/>
    <path d="M 224.691988 411.429897 
L 426.504086 310.523848 
L 426.504086 125.147599 
" style="fill: none; stroke: #b0b0b0; stroke-width: 0.8"/>
   </g>
  </g>
  <g id="grid3d_2">
   <g id="Line3DCollection_2">
    <path d="M 47.244786 123.226677 
L 47.244786 308.602926 
L 249.056884 409.508975 
" style="fill: none; stroke: #b0b0b0; stroke-width: 0.8"/>
    <path d="M 69.425686 112.136227 
L 69.425686 297.512476 
L 271.237784 398.418525 
" style="fill: none; stroke: #b0b0b0; stroke-width: 0.8"/>
    <path d="M 91.606586 101.045777 
L 91.606586 286.422026 
L 293.418684 387.328075 
" style="fill: none; stroke: #b0b0b0; stroke-width: 0.8"/>
    <path d="M 113.787487 89.955326 
L 113.787487 275.331575 
L 315.599585 376.237624 
" style="fill: none; stroke: #b0b0b0; stroke-width: 0.8"/>
    <path d="M 135.968387 78.864876 
L 135.968387 264.241125 
L 337.780485 365.147174 
" style="fill: none; stroke: #b0b0b0; stroke-width: 0.8"/>
    <path d="M 158.149287 67.774426 
L 158.149287 253.150675 
L 359.961385 354.056724 
" style="fill: none; stroke: #b0b0b0; stroke-width: 0.8"/>
    <path d="M 180.330187 56.683976 
L 180.330187 242.060225 
L 382.142285 342.966274 
" style="fill: none; stroke: #b0b0b0; stroke-width: 0.8"/>
    <path d="M 202.511088 45.593526 
L 202.511088 230.969775 
L 404.323186 331.875824 
" style="fill: none; stroke: #b0b0b0; stroke-width: 0.8"/>
    <path d="M 224.691988 34.503076 
L 224.691988 219.879325 
L 426.504086 320.785374 
" style="fill: none; stroke: #b0b0b0; stroke-width: 0.8"/>
   </g>
  </g>
  <g id="grid3d_3">
   <g id="Line3DCollection_3">
    <path d="M 436.765612 303.582078 
L 234.953514 202.676029 
L 33.141415 303.582078 
" style="fill: none; stroke: #b0b0b0; stroke-width: 0.8"/>
    <path d="M 436.765612 283.20762 
L 234.953514 182.301571 
L 33.141415 283.20762 
" style="fill: none; stroke: #b0b0b0; stroke-width: 0.8"/>
    <path d="M 436.765612 262.833162 
L 234.953514 161.927113 
L 33.141415 262.833162 
" style="fill: none; stroke: #b0b0b0; stroke-width: 0.8"/>
    <path d="M 436.765612 242.458704 
L 234.953514 141.552655 
L 33.141415 242.458704 
" style="fill: none; stroke: #b0b0b0; stroke-width: 0.8"/>
    <path d="M 436.765612 222.084247 
L 234.953514 121.178198 
L 33.141415 222.084247 
" style="fill: none; stroke: #b0b0b0; stroke-width: 0.8"/>
    <path d="M 436.765612 201.709789 
L 234.953514 100.80374 
L 33.141415 201.709789 
" style="fill: none; stroke: #b0b0b0; stroke-width: 0.8"/>
    <path d="M 436.765612 181.335331 
L 234.953514 80.429282 
L 33.141415 181.335331 
" style="fill: none; stroke: #b0b0b0; stroke-width: 0.8"/>
    <path d="M 436.765612 160.960873 
L 234.953514 60.054824 
L 33.141415 160.960873 
" style="fill: none; stroke: #b0b0b0; stroke-width: 0.8"/>
    <path d="M 436.765612 140.586415 
L 234.953514 39.680366 
L 33.141415 140.586415 
" style="fill: none; stroke: #b0b0b0; stroke-width: 0.8"/>
   </g>
  </g>
  <g id="axis3d_1">
   <g id="line2d_1">
    <path d="M 33.141415 315.654611 
L 234.953514 416.56066 
" style="fill: none; stroke: #000000; stroke-width: 0.8; stroke-linecap: square"/>
   </g>
   <g id="xtick_1">
    <g id="line2d_2">
     <path d="M 48.859283 321.899048 
L 44.015792 324.320793 
" style="fill: none; stroke: #000000; stroke-width: 0.8; stroke-linecap: square"/>
    </g>
   </g>
   <g id="xtick_2">
    <g id="line2d_3">
     <path d="M 71.040183 332.989498 
L 66.196692 335.411243 
" style="fill: none; stroke: #000000; stroke-width: 0.8; stroke-linecap: square"/>
    </g>
   </g>
   <g id="xtick_3">
    <g id="line2d_4">
     <path d="M 93.221083 344.079948 
L 88.377593 346.501693 
" style="fill: none; stroke: #000000; stroke-width: 0.8; stroke-linecap: square"/>
    </g>
   </g>
   <g id="xtick_4">
    <g id="line2d_5">
     <path d="M 115.401983 355.170398 
L 110.558493 357.592143 
" style="fill: none; stroke: #000000; stroke-width: 0.8; stroke-linecap: square"/>
    </g>
   </g>
   <g id="xtick_5">
    <g id="line2d_6">
     <path d="M 137.582884 366.260848 
L 132.739393 368.682593 
" style="fill: none; stroke: #000000; stroke-width: 0.8; stroke-linecap: square"/>
    </g>
   </g>
   <g id="xtick_6">
    <g id="line2d_7">
     <path d="M 159.763784 377.351298 
L 154.920294 379.773044 
" style="fill: none; stroke: #000000; stroke-width: 0.8; stroke-linecap: square"/>
    </g>
   </g>
   <g id="xtick_7">
    <g id="line2d_8">
     <path d="M 181.944684 388.441749 
L 177.101194 390.863494 
" style="fill: none; stroke: #000000; stroke-width: 0.8; stroke-linecap: square"/>
    </g>
   </g>
   <g id="xtick_8">
    <g id="line2d_9">
     <path d="M 204.125584 399.532199 
L 199.282094 401.953944 
" style="fill: none; stroke: #000000; stroke-width: 0.8; stroke-linecap: square"/>
    </g>
   </g>
   <g id="xtick_9">
    <g id="line2d_10">
     <path d="M 226.306485 410.622649 
L 221.462994 413.044394 
" style="fill: none; stroke: #000000; stroke-width: 0.8; stroke-linecap: square"/>
    </g>
   </g>
  </g>
  <g id="axis3d_2">
   <g id="line2d_11">
    <path d="M 436.765612 315.654611 
L 234.953514 416.56066 
" style="fill: none; stroke: #000000; stroke-width: 0.8; stroke-linecap: square"/>
   </g>
   <g id="xtick_10">
    <g id="line2d_12">
     <path d="M 247.442387 408.701727 
L 252.285877 411.123472 
" style="fill: none; stroke: #000000; stroke-width: 0.8; stroke-linecap: square"/>
    </g>
   </g>
   <g id="xtick_11">
    <g id="line2d_13">
     <path d="M 269.623287 397.611276 
L 274.466778 400.033022 
" style="fill: none; stroke: #000000; stroke-width: 0.8; stroke-linecap: square"/>
    </g>
   </g>
   <g id="xtick_12">
    <g id="line2d_14">
     <path d="M 291.804188 386.520826 
L 296.647678 388.942571 
" style="fill: none; stroke: #000000; stroke-width: 0.8; stroke-linecap: square"/>
    </g>
   </g>
   <g id="xtick_13">
    <g id="line2d_15">
     <path d="M 313.985088 375.430376 
L 318.828578 377.852121 
" style="fill: none; stroke: #000000; stroke-width: 0.8; stroke-linecap: square"/>
    </g>
   </g>
   <g id="xtick_14">
    <g id="line2d_16">
     <path d="M 336.165988 364.339926 
L 341.009478 366.761671 
" style="fill: none; stroke: #000000; stroke-width: 0.8; stroke-linecap: square"/>
    </g>
   </g>
   <g id="xtick_15">
    <g id="line2d_17">
     <path d="M 358.346888 353.249476 
L 363.190379 355.671221 
" style="fill: none; stroke: #000000; stroke-width: 0.8; stroke-linecap: square"/>
    </g>
   </g>
   <g id="xtick_16">
    <g id="line2d_18">
     <path d="M 380.527789 342.159026 
L 385.371279 344.580771 
" style="fill: none; stroke: #000000; stroke-width: 0.8; stroke-linecap: square"/>
    </g>
   </g>
   <g id="xtick_17">
    <g id="line2d_19">
     <path d="M 402.708689 331.068576 
L 407.552179 333.490321 
" style="fill: none; stroke: #000000; stroke-width: 0.8; stroke-linecap: square"/>
    </g>
   </g>
   <g id="xtick_18">
    <g id="line2d_20">
     <path d="M 424.889589 319.978125 
L 429.733079 322.399871 
" style="fill: none; stroke: #000000; stroke-width: 0.8; stroke-linecap: square"/>
    </g>
   </g>
  </g>
  <g id="axis3d_3">
   <g id="line2d_21">
    <path d="M 436.765612 315.654611 
L 436.765612 130.278362 
" style="fill: none; stroke: #000000; stroke-width: 0.8; stroke-linecap: square"/>
   </g>
   <g id="xtick_19">
    <g id="line2d_22">
     <path d="M 435.151115 302.77483 
L 439.994605 305.196575 
" style="fill: none; stroke: #000000; stroke-width: 0.8; stroke-linecap: square"/>
    </g>
   </g>
   <g id="xtick_20">
    <g id="line2d_23">
     <path d="M 435.151115 282.400372 
L 439.994605 284.822117 
" style="fill: none; stroke: #000000; stroke-width: 0.8; stroke-linecap: square"/>
    </g>
   </g>
   <g id="xtick_21">
    <g id="line2d_24">
     <path d="M 435.151115 262.025914 
L 439.994605 264.447659 
" style="fill: none; stroke: #000000; stroke-width: 0.8; stroke-linecap: square"/>
    </g>
   </g>
   <g id="xtick_22">
    <g id="line2d_25">
     <path d="M 435.151115 241.651456 
L 439.994605 244.073201 
" style="fill: none; stroke: #000000; stroke-width: 0.8; stroke-linecap: square"/>
    </g>
   </g>
   <g id="xtick_23">
    <g id="line2d_26">
     <path d="M 435.151115 221.276998 
L 439.994605 223.698743 
" style="fill: none; stroke: #000000; stroke-width: 0.8; stroke-linecap: square"/>
    </g>
   </g>
   <g id="xtick_24">
    <g id="line2d_27">
     <path d="M 435.151115 200.90254 
L 439.994605 203.324285 
" style="fill: none; stroke: #000000; stroke-width: 0.8; stroke-linecap: square"/>
    </g>
   </g>
   <g id="xtick_25">
    <g id="line2d_28">
     <path d="M 435.151115 180.528082 
L 439.994605 182.949828 
" style="fill: none; stroke: #000000; stroke-width: 0.8; stroke-linecap: square"/>
    </g>
   </g>
   <g id="xtick_26">
    <g id="line2d_29">
     <path d="M 435.151115 160.153625 
L 439.994605 162.57537 
" style="fill: none; stroke: #000000; stroke-width: 0.8; stroke-linecap: square"/>
    </g>
   </g>
   <g id="xtick_27">
    <g id="line2d_30">
     <path d="M 435.151115 139.779167 
L 439.994605 142.200912 
" style="fill: none; stroke: #000000; stroke-width: 0.8; stroke-linecap: square"/>
    </g>
   </g>
  </g>
  <g id="axes_1">
   <g id="Path3DCollection_1">
    <defs>
     <path id="C0_0_f3c5d52a63" d="M 0 2.738613 
C 0.726289 2.738613 1.422928 2.450055 1.936492 1.936492 
C 2.450055 1.422928 2.738613 0.726289 2.738613 -0 
C 2.738613 -0.726289 2.450055 -1.422928 1.936492 -1.936492 
C 1.422928 -2.450055 0.726289 -2.738613 0 -2.738613 
C -0.726289 -2.738613 -1.422928 -2.450055 -1.936492 -1.936492 
C -2.450055 -1.422928 -2.738613 -0.726289 -2.738613 0 
C -2.738613 0.726289 -2.450055 1.422928 -1.936492 1.936492 
C -1.422928 2.450055 -0.726289 2.738613 0 2.738613 
z
"/>
    </defs>
    <g clip-path="url(#pb7804c14a3)">
     <use xlink:href="#C0_0_f3c5d52a63" x="320.196445" y="174.061189" style="fill: #c62828; fill-opacity: 0.3; stroke: #c62828; stroke-opacity: 0.3"/>
    </g>
    <g clip-path="url(#pb7804c14a3)">
     <use xlink:href="#C0_0_f3c5d52a63" x="327.518959" y="184.448605" style="fill: #c62828; fill-opacity: 0.3; stroke: #c62828; stroke-opacity: 0.3"/>
    </g>
   </g>
   <g id="text_1">
    <!-- a -->
    <g style="fill: #e53935" transform="translate(98.206855 334.343911) scale(0.14 -0.14)">
     <defs>
      <path id="DejaVuSans-Bold-61" d="M 2106 1575 
Q 1756 1575 1579 1456 
Q 1403 1338 1403 1106 
Q 1403 894 1545 773 
Q 1688 653 1941 653 
Q 2256 653 2472 879 
Q 2688 1106 2688 1447 
L 2688 1575 
L 2106 1575 
z
M 3816 1997 
L 3816 0 
L 2688 0 
L 2688 519 
Q 2463 200 2181 54 
Q 1900 -91 1497 -91 
Q 953 -91 614 226 
Q 275 544 275 1050 
Q 275 1666 698 1953 
Q 1122 2241 2028 2241 
L 2688 2241 
L 2688 2328 
Q 2688 2594 2478 2717 
Q 2269 2841 1825 2841 
Q 1466 2841 1156 2769 
Q 847 2697 581 2553 
L 581 3406 
Q 941 3494 1303 3539 
Q 1666 3584 2028 3584 
Q 2975 3584 3395 3211 
Q 3816 2838 3816 1997 
z
" transform="scale(0.015625)"/>
     </defs>
     <use xlink:href="#DejaVuSans-Bold-61"/>
    </g>
   </g>
   <g id="text_2">
    <!-- b -->
    <g style="fill: #43a047" transform="translate(98.206855 282.479009) scale(0.14 -0.14)">
     <defs>
      <path id="DejaVuSans-Bold-62" d="M 2400 722 
Q 2759 722 2948 984 
Q 3138 1247 3138 1747 
Q 3138 2247 2948 2509 
Q 2759 2772 2400 2772 
Q 2041 2772 1848 2508 
Q 1656 2244 1656 1747 
Q 1656 1250 1848 986 
Q 2041 722 2400 722 
z
M 1656 2988 
Q 1888 3294 2169 3439 
Q 2450 3584 2816 3584 
Q 3463 3584 3878 3070 
Q 4294 2556 4294 1747 
Q 4294 938 3878 423 
Q 3463 -91 2816 -91 
Q 2450 -91 2169 54 
Q 1888 200 1656 506 
L 1656 0 
L 538 0 
L 538 4863 
L 1656 4863 
L 1656 2988 
z
" transform="scale(0.015625)"/>
     </defs>
     <use xlink:href="#DejaVuSans-Bold-62"/>
    </g>
   </g>
   <g id="text_3">
    <!-- c -->
    <g style="fill: #1e88e5" transform="translate(46.341952 260.770505) scale(0.14 -0.14)">
     <defs>
      <path id="DejaVuSans-Bold-63" d="M 3366 3391 
L 3366 2478 
Q 3138 2634 2908 2709 
Q 2678 2784 2431 2784 
Q 1963 2784 1702 2511 
Q 1441 2238 1441 1747 
Q 1441 1256 1702 982 
Q 1963 709 2431 709 
Q 2694 709 2930 787 
Q 3166 866 3366 1019 
L 3366 103 
Q 3103 6 2833 -42 
Q 2563 -91 2291 -91 
Q 1344 -91 809 395 
Q 275 881 275 1747 
Q 275 2613 809 3098 
Q 1344 3584 2291 3584 
Q 2566 3584 2833 3536 
Q 3100 3488 3366 3391 
z
" transform="scale(0.015625)"/>
     </defs>
     <use xlink:href="#DejaVuSans-Bold-63"/>
    </g>
   </g>
   <g id="Line3DCollection_4">
    <path d="M 94.36501 284.399931 
L 46.341952 308.41146 
" clip-path="url(#pb7804c14a3)" style="fill: none; stroke: #43a047; stroke-width: 2"/>
    <path d="M 94.36501 284.399931 
L 89.726339 287.860969 
" clip-path="url(#pb7804c14a3)" style="fill: none; stroke: #43a047; stroke-width: 2"/>
    <path d="M 94.36501 284.399931 
L 89.726339 285.577564 
" clip-path="url(#pb7804c14a3)" style="fill: none; stroke: #43a047; stroke-width: 2"/>
   </g>
   <g id="Line3DCollection_5">
    <path d="M 46.341952 264.299464 
L 46.341952 308.41146 
" clip-path="url(#pb7804c14a3)" style="fill: none; stroke: #1e88e5; stroke-width: 2"/>
    <path d="M 46.341952 264.299464 
L 45.099024 267.938892 
" clip-path="url(#pb7804c14a3)" style="fill: none; stroke: #1e88e5; stroke-width: 2"/>
    <path d="M 46.341952 264.299464 
L 47.58488 269.18182 
" clip-path="url(#pb7804c14a3)" style="fill: none; stroke: #1e88e5; stroke-width: 2"/>
   </g>
   <g id="Line3DCollection_6">
    <path d="M 94.36501 332.422989 
L 46.341952 308.41146 
" clip-path="url(#pb7804c14a3)" style="fill: none; stroke: #e53935; stroke-width: 2"/>
    <path d="M 94.36501 332.422989 
L 89.726339 331.245355 
" clip-path="url(#pb7804c14a3)" style="fill: none; stroke: #e53935; stroke-width: 2"/>
    <path d="M 94.36501 332.422989 
L 89.726339 328.961951 
" clip-path="url(#pb7804c14a3)" style="fill: none; stroke: #e53935; stroke-width: 2"/>
   </g>
   <g id="Poly3DCollection_1">
    <path d="M 327.518959 184.448605 
L 320.196445 174.061189 
L 327.518959 170.996287 
L 334.841474 181.383703 
z
" clip-path="url(#pb7804c14a3)" style="fill: #ef9a9a; fill-opacity: 0.7; stroke: #c62828; stroke-opacity: 0.7; stroke-width: 1.5"/>
    <path d="M 142.749243 174.061189 
L 320.196445 174.061189 
L 327.518959 184.448605 
L 238.795358 310.308237 
z
" clip-path="url(#pb7804c14a3)" style="fill: #ef9a9a; fill-opacity: 0.7; stroke: #c62828; stroke-opacity: 0.7; stroke-width: 1.5"/>
    <path d="M 238.795358 133.860256 
L 327.518959 170.996287 
L 320.196445 174.061189 
L 142.749243 174.061189 
z
" clip-path="url(#pb7804c14a3)" style="fill: #ef9a9a; fill-opacity: 0.7; stroke: #c62828; stroke-opacity: 0.7; stroke-width: 1.5"/>
    <path d="M 238.795358 310.308237 
L 327.518959 184.448605 
L 334.841474 181.383703 
L 334.841474 270.107304 
z
" clip-path="url(#pb7804c14a3)" style="fill: #ef9a9a; fill-opacity: 0.7; stroke: #c62828; stroke-opacity: 0.7; stroke-width: 1.5"/>
    <path d="M 334.841474 270.107304 
L 334.841474 181.383703 
L 327.518959 170.996287 
L 238.795358 133.860256 
z
" clip-path="url(#pb7804c14a3)" style="fill: #ef9a9a; fill-opacity: 0.7; stroke: #c62828; stroke-opacity: 0.7; stroke-width: 1.5"/>
    <path d="M 238.795358 310.308237 
L 150.071757 273.172206 
L 142.749243 262.78479 
L 142.749243 174.061189 
z
" clip-path="url(#pb7804c14a3)" style="fill: #ef9a9a; fill-opacity: 0.7; stroke: #c62828; stroke-opacity: 0.7; stroke-width: 1.5"/>
    <path d="M 142.749243 174.061189 
L 142.749243 262.78479 
L 150.071757 259.719888 
L 238.795358 133.860256 
z
" clip-path="url(#pb7804c14a3)" style="fill: #ef9a9a; fill-opacity: 0.7; stroke: #c62828; stroke-opacity: 0.7; stroke-width: 1.5"/>
    <path d="M 334.841474 270.107304 
L 157.394272 270.107304 
L 150.071757 273.172206 
L 238.795358 310.308237 
z
" clip-path="url(#pb7804c14a3)" style="fill: #ef9a9a; fill-opacity: 0.7; stroke: #c62828; stroke-opacity: 0.7; stroke-width: 1.5"/>
    <path d="M 238.795358 133.860256 
L 150.071757 259.719888 
L 157.394272 270.107304 
L 334.841474 270.107304 
z
" clip-path="url(#pb7804c14a3)" style="fill: #ef9a9a; fill-opacity: 0.7; stroke: #c62828; stroke-opacity: 0.7; stroke-width: 1.5"/>
    <path d="M 157.394272 270.107304 
L 150.071757 259.719888 
L 142.749243 262.78479 
L 150.071757 273.172206 
z
" clip-path="url(#pb7804c14a3)" style="fill: #ef9a9a; fill-opacity: 0.7; stroke: #c62828; stroke-opacity: 0.7; stroke-width: 1.5"/>
   </g>
   <g id="Path3DCollection_2">
    <defs>
     <path id="C1_0_bfaa5c39d9" d="M 0 2.738613 
C 0.726289 2.738613 1.422928 2.450055 1.936492 1.936492 
C 2.450055 1.422928 2.738613 0.726289 2.738613 -0 
C 2.738613 -0.726289 2.450055 -1.422928 1.936492 -1.936492 
C 1.422928 -2.450055 0.726289 -2.738613 0 -2.738613 
C -0.726289 -2.738613 -1.422928 -2.450055 -1.936492 -1.936492 
C -2.450055 -1.422928 -2.738613 -0.726289 -2.738613 0 
C -2.738613 0.726289 -2.450055 1.422928 -1.936492 1.936492 
C -1.422928 2.450055 -0.726289 2.738613 0 2.738613 
z
"/>
    </defs>
    <g clip-path="url(#pb7804c14a3)">
     <use xlink:href="#C1_0_bfaa5c39d9" x="142.749243" y="174.061189" style="fill: #c62828; fill-opacity: 0.9; stroke: #c62828; stroke-opacity: 0.9"/>
    </g>
    <g clip-path="url(#pb7804c14a3)">
     <use xlink:href="#C1_0_bfaa5c39d9" x="327.518959" y="170.996287" style="fill: #c62828; fill-opacity: 0.9; stroke: #c62828; stroke-opacity: 0.9"/>
    </g>
    <g clip-path="url(#pb7804c14a3)">
     <use xlink:href="#C1_0_bfaa5c39d9" x="334.841474" y="181.383703" style="fill: #c62828; fill-opacity: 0.9; stroke: #c62828; stroke-opacity: 0.9"/>
    </g>
    <g clip-path="url(#pb7804c14a3)">
     <use xlink:href="#C1_0_bfaa5c39d9" x="238.795358" y="310.308237" style="fill: #c62828; fill-opacity: 0.9; stroke: #c62828; stroke-opacity: 0.9"/>
    </g>
    <g clip-path="url(#pb7804c14a3)">
     <use xlink:href="#C1_0_bfaa5c39d9" x="238.795358" y="133.860256" style="fill: #c62828; fill-opacity: 0.9; stroke: #c62828; stroke-opacity: 0.9"/>
    </g>
    <g clip-path="url(#pb7804c14a3)">
     <use xlink:href="#C1_0_bfaa5c39d9" x="142.749243" y="262.78479" style="fill: #c62828; fill-opacity: 0.9; stroke: #c62828; stroke-opacity: 0.9"/>
    </g>
    <g clip-path="url(#pb7804c14a3)">
     <use xlink:href="#C1_0_bfaa5c39d9" x="150.071757" y="273.172206" style="fill: #c62828; fill-opacity: 0.9; stroke: #c62828; stroke-opacity: 0.9"/>
    </g>
    <g clip-path="url(#pb7804c14a3)">
     <use xlink:href="#C1_0_bfaa5c39d9" x="150.071757" y="259.719888" style="fill: #c62828; fill-opacity: 0.9; stroke: #c62828; stroke-opacity: 0.9"/>
    </g>
    <g clip-path="url(#pb7804c14a3)">
     <use xlink:href="#C1_0_bfaa5c39d9" x="334.841474" y="270.107304" style="fill: #c62828; fill-opacity: 0.9; stroke: #c62828; stroke-opacity: 0.9"/>
    </g>
    <g clip-path="url(#pb7804c14a3)">
     <use xlink:href="#C1_0_bfaa5c39d9" x="157.394272" y="270.107304" style="fill: #c62828; fill-opacity: 0.9; stroke: #c62828; stroke-opacity: 0.9"/>
    </g>
   </g>
  </g>
 </g>
 <defs>
  <clipPath id="pb7804c14a3">
   <rect x="7.2" y="7.2" width="443.52" height="443.52"/>
  </clipPath>
 </defs>
</svg>
