<?xml version="1.0" encoding="utf-8" standalone="no"?>
<!DOCTYPE svg PUBLIC "-//W3C//DTD SVG 1.1//EN"
  "http://www.w3.org/Graphics/SVG/1.1/DTD/svg11.dtd">
<svg xmlns:xlink="http://www.w3.org/1999/xlink" width="424.8pt" height="424.8pt" viewBox="0 0 424.8 424.8" xmlns="http://www.w3.org/2000/svg" version="1.1">
 <metadata>
  <rdf:RDF xmlns:dc="http://purl.org/dc/elements/1.1/" xmlns:cc="http://creativecommons.org/ns#" xmlns:rdf="http://www.w3.org/1999/02/22-rdf-syntax-ns#">
   <cc:Work>
    <dc:type rdf:resource="http://purl.org/dc/dcmitype/StillImage"/>
    <dc:date>2026-01-26T17:06:13.684957</dc:date>
    <dc:format>image/svg+xml</dc:format>
    <dc:creator>
     <cc:Agent>
      <dc:title>Matplotlib v3.10.8, https://matplotlib.org/</dc:title>
     </cc:Agent>
    </dc:creator>
   </cc:Work>
  </rdf:RDF>
 </metadata>
 <defs>
  <style type="text/css">*{stroke-linejoin: round; stroke-linecap: butt}</style>
 </defs>
 <g id="figure_1">
  <g id="patch_1">
   <path d="M 0 424.8 
L 424.8 424.8 
L 424.8 0 
L 0 0 
z
" style="fill: #ffffff"/>
  </g>
  <g id="patch_2">
   <path d="M 7.2 417.6 
L 417.6 417.6 
L 417.6 7.2 
L 7.2 7.2 
z
" style="fill: #ffffff"/>
  </g>
  <g id="axes_1">
   <g id="Poly3DCollection_1">
    <path d="M 165.113343 165.238747 
L 166.483069 155.808014 
L 274.865806 209.999383 
L 233.825245 270.691717 
L 181.787898 244.673044 
z
" clip-path="url(#pd8fcab9481)" style="fill: #0ea5e9; fill-opacity: 0.7; stroke: #0369a1; stroke-opacity: 0.7; stroke-width: 1.5"/>
    <path d="M 181.787898 244.673044 
L 198.462454 227.469036 
L 165.113343 165.238747 
z
" clip-path="url(#pd8fcab9481)" style="fill: #0ea5e9; fill-opacity: 0.7; stroke: #0369a1; stroke-opacity: 0.7; stroke-width: 1.5"/>
    <path d="M 166.483069 155.808014 
L 169.986204 151.123911 
L 274.865806 203.563712 
L 274.865806 209.999383 
z
" clip-path="url(#pd8fcab9481)" style="fill: #0ea5e9; fill-opacity: 0.7; stroke: #0369a1; stroke-opacity: 0.7; stroke-width: 1.5"/>
    <path d="M 169.986204 151.123911 
L 166.483069 155.808014 
L 165.113343 165.238747 
L 198.462454 227.469036 
L 204.57705 226.892352 
L 230.476211 192.262136 
L 227.109739 145.736434 
z
" clip-path="url(#pd8fcab9481)" style="fill: #0ea5e9; fill-opacity: 0.7; stroke: #0369a1; stroke-opacity: 0.7; stroke-width: 1.5"/>
    <path d="M 227.109739 145.736434 
L 274.865806 203.563712 
L 169.986204 151.123911 
z
" clip-path="url(#pd8fcab9481)" style="fill: #0ea5e9; fill-opacity: 0.7; stroke: #0369a1; stroke-opacity: 0.7; stroke-width: 1.5"/>
    <path d="M 181.787898 244.673044 
L 233.825245 270.691717 
L 252.872236 251.039945 
L 204.57705 226.892352 
L 198.462454 227.469036 
z
" clip-path="url(#pd8fcab9481)" style="fill: #0ea5e9; fill-opacity: 0.7; stroke: #0369a1; stroke-opacity: 0.7; stroke-width: 1.5"/>
    <path d="M 274.865806 209.999383 
L 252.872236 251.039945 
L 233.825245 270.691717 
z
" clip-path="url(#pd8fcab9481)" style="fill: #0ea5e9; fill-opacity: 0.7; stroke: #0369a1; stroke-opacity: 0.7; stroke-width: 1.5"/>
    <path d="M 274.865806 203.563712 
L 252.872236 244.604273 
L 252.872236 251.039945 
L 274.865806 209.999383 
z
" clip-path="url(#pd8fcab9481)" style="fill: #0ea5e9; fill-opacity: 0.7; stroke: #0369a1; stroke-opacity: 0.7; stroke-width: 1.5"/>
    <path d="M 227.109739 145.736434 
L 230.476211 192.262136 
L 252.872236 244.604273 
L 274.865806 203.563712 
z
" clip-path="url(#pd8fcab9481)" style="fill: #0ea5e9; fill-opacity: 0.7; stroke: #0369a1; stroke-opacity: 0.7; stroke-width: 1.5"/>
    <path d="M 204.57705 226.892352 
L 252.872236 251.039945 
L 252.872236 244.604273 
L 230.476211 192.262136 
z
" clip-path="url(#pd8fcab9481)" style="fill: #0ea5e9; fill-opacity: 0.7; stroke: #0369a1; stroke-opacity: 0.7; stroke-width: 1.5"/>
   </g>
   <g id="Path3DCollection_1">
    <defs>
     <path id="C0_0_956cec1e5a" d="M 0 2.738613 
C 0.726289 2.738613 1.422928 2.450055 1.936492 1.936492 
C 2.450055 1.422928 2.738613 0.726289 2.738613 -0 
C 2.738613 -0.726289 2.450055 -1.422928 1.936492 -1.936492 
C 1.422928 -2.450055 0.726289 -2.738613 0 -2.738613 
C -0.726289 -2.738613 -1.422928 -2.450055 -1.936492 -1.936492 
C -2.450055 -1.422928 -2.738613 -0.726289 -2.738613 0 
C -2.738613 0.726289 -2.450055 1.422928 -1.936492 1.936492 
C -1.422928 2.450055 -0.726289 2.738613 0 2.738613 
z
"/>
    </defs>
    <g clip-path="url(#pd8fcab9481)">
     <use xlink:href="#C0_0_956cec1e5a" x="166.483069" y="155.808014" style="fill: #0369a1; fill-opacity: 0.9; stroke: #0369a1; stroke-opacity: 0.9"/>
    </g>
    <g clip-path="url(#pd8fcab9481)">
     <use xlink:href="#C0_0_956cec1e5a" x="165.113343" y="165.238747" style="fill: #0369a1; fill-opacity: 0.9; stroke: #0369a1; stroke-opacity: 0.9"/>
    </g>
    <g clip-path="url(#pd8fcab9481)">
     <use xlink:href="#C0_0_956cec1e5a" x="169.986204" y="151.123911" style="fill: #0369a1; fill-opacity: 0.9; stroke: #0369a1; stroke-opacity: 0.9"/>
    </g>
    <g clip-path="url(#pd8fcab9481)">
     <use xlink:href="#C0_0_956cec1e5a" x="181.787898" y="244.673044" style="fill: #0369a1; fill-opacity: 0.9; stroke: #0369a1; stroke-opacity: 0.9"/>
    </g>
    <g clip-path="url(#pd8fcab9481)">
     <use xlink:href="#C0_0_956cec1e5a" x="233.825245" y="270.691717" style="fill: #0369a1; fill-opacity: 0.9; stroke: #0369a1; stroke-opacity: 0.9"/>
    </g>
    <g clip-path="url(#pd8fcab9481)">
     <use xlink:href="#C0_0_956cec1e5a" x="274.865806" y="209.999383" style="fill: #0369a1; fill-opacity: 0.9; stroke: #0369a1; stroke-opacity: 0.9"/>
    </g>
    <g clip-path="url(#pd8fcab9481)">
     <use xlink:href="#C0_0_956cec1e5a" x="274.865806" y="203.563712" style="fill: #0369a1; fill-opacity: 0.9; stroke: #0369a1; stroke-opacity: 0.9"/>
    </g>
    <g clip-path="url(#pd8fcab9481)">
     <use xlink:href="#C0_0_956cec1e5a" x="198.462454" y="227.469036" style="fill: #0369a1; fill-opacity: 0.9; stroke: #0369a1; stroke-opacity: 0.9"/>
    </g>
    <g clip-path="url(#pd8fcab9481)">
     <use xlink:href="#C0_0_956cec1e5a" x="204.57705" y="226.892352" style="fill: #0369a1; fill-opacity: 0.9; stroke: #0369a1; stroke-opacity: 0.9"/>
    </g>
    <g clip-path="url(#pd8fcab9481)">
     <use xlink:href="#C0_0_956cec1e5a" x="227.109739" y="145.736434" style="fill: #0369a1; fill-opacity: 0.9; stroke: #0369a1; stroke-opacity: 0.9"/>
    </g>
    <g clip-path="url(#pd8fcab9481)">
     <use xlink:href="#C0_0_956cec1e5a" x="252.872236" y="251.039945" style="fill: #0369a1; fill-opacity: 0.9; stroke: #0369a1; stroke-opacity: 0.9"/>
    </g>
    <g clip-path="url(#pd8fcab9481)">
     <use xlink:href="#C0_0_956cec1e5a" x="252.872236" y="244.604273" style="fill: #0369a1; fill-opacity: 0.9; stroke: #0369a1; stroke-opacity: 0.9"/>
    </g>
    <g clip-path="url(#pd8fcab9481)">
     <use xlink:href="#C0_0_956cec1e5a" x="230.476211" y="192.262136" style="fill: #0369a1; fill-opacity: 0.9; stroke: #0369a1; stroke-opacity: 0.9"/>
    </g>
   </g>
  </g>
 </g>
 <defs>
  <clipPath id="pd8fcab9481">
   <rect x="7.2" y="7.2" width="410.4" height="410.4"/>
  </clipPath>
 </defs>
</svg>
