<?xml version="1.0" encoding="utf-8" standalone="no"?>
<!DOCTYPE svg PUBLIC "-//W3C//DTD SVG 1.1//EN"
  "http://www.w3.org/Graphics/SVG/1.1/DTD/svg11.dtd">
<svg xmlns:xlink="http://www.w3.org/1999/xlink" width="208.8pt" height="208.8pt" viewBox="0 0 208.8 208.8" xmlns="http://www.w3.org/2000/svg" version="1.1">
 <metadata>
  <rdf:RDF xmlns:dc="http://purl.org/dc/elements/1.1/" xmlns:cc="http://creativecommons.org/ns#" xmlns:rdf="http://www.w3.org/1999/02/22-rdf-syntax-ns#">
   <cc:Work>
    <dc:type rdf:resource="http://purl.org/dc/dcmitype/StillImage"/>
    <dc:date>2026-02-15T22:32:05.206683</dc:date>
    <dc:format>image/svg+xml</dc:format>
    <dc:creator>
     <cc:Agent>
      <dc:title>Matplotlib v3.10.8, https://matplotlib.org/</dc:title>
     </cc:Agent>
    </dc:creator>
   </cc:Work>
  </rdf:RDF>
 </metadata>
 <defs>
  <style type="text/css">*{stroke-linejoin: round; stroke-linecap: butt}</style>
 </defs>
 <g id="figure_1">
  <g id="patch_1">
   <path d="M 0 208.8 
L 208.8 208.8 
L 208.8 0 
L 0 0 
z
" style="fill: #ffffff"/>
  </g>
  <g id="patch_2">
   <path d="M 7.2 201.6 
L 201.6 201.6 
L 201.6 7.2 
L 7.2 7.2 
z
" style="fill: #ffffff"/>
  </g>
  <g id="axes_1">
   <g id="Path3DCollection_1">
    <defs>
     <path id="C0_0_8026062cb6" d="M 0 2.738613 
C 0.726289 2.738613 1.422928 2.450055 1.936492 1.936492 
C 2.450055 1.422928 2.738613 0.726289 2.738613 -0 
C 2.738613 -0.726289 2.450055 -1.422928 1.936492 -1.936492 
C 1.422928 -2.450055 0.726289 -2.738613 0 -2.738613 
C -0.726289 -2.738613 -1.422928 -2.450055 -1.936492 -1.936492 
C -2.450055 -1.422928 -2.738613 -0.726289 -2.738613 0 
C -2.738613 0.726289 -2.450055 1.422928 -1.936492 1.936492 
C -1.422928 2.450055 -0.726289 2.738613 0 2.738613 
z
"/>
    </defs>
    <g clip-path="url(#pb650b05cb8)">
     <use xlink:href="#C0_0_8026062cb6" x="97.291559" y="97.302628" style="fill: #0369a1; fill-opacity: 0.3; stroke: #0369a1; stroke-opacity: 0.3"/>
    </g>
    <g clip-path="url(#pb650b05cb8)">
     <use xlink:href="#C0_0_8026062cb6" x="93.396146" y="97.824514" style="fill: #0369a1; fill-opacity: 0.3; stroke: #0369a1; stroke-opacity: 0.3"/>
    </g>
    <g clip-path="url(#pb650b05cb8)">
     <use xlink:href="#C0_0_8026062cb6" x="120.517595" y="78.573009" style="fill: #0369a1; fill-opacity: 0.3; stroke: #0369a1; stroke-opacity: 0.3"/>
    </g>
    <g clip-path="url(#pb650b05cb8)">
     <use xlink:href="#C0_0_8026062cb6" x="120.517595" y="74.625452" style="fill: #0369a1; fill-opacity: 0.3; stroke: #0369a1; stroke-opacity: 0.3"/>
    </g>
    <g clip-path="url(#pb650b05cb8)">
     <use xlink:href="#C0_0_8026062cb6" x="70.17011" y="85.318293" style="fill: #0369a1; fill-opacity: 0.3; stroke: #0369a1; stroke-opacity: 0.3"/>
    </g>
    <g clip-path="url(#pb650b05cb8)">
     <use xlink:href="#C0_0_8026062cb6" x="70.17011" y="81.370736" style="fill: #0369a1; fill-opacity: 0.3; stroke: #0369a1; stroke-opacity: 0.3"/>
    </g>
   </g>
   <g id="Poly3DCollection_1">
    <path d="M 70.17011 85.318293 
L 70.17011 81.370736 
L 120.517595 74.625452 
L 120.517595 78.573009 
L 97.291559 97.302628 
L 93.396146 97.824514 
z
" clip-path="url(#pb650b05cb8)" style="fill: #0ea5e9; fill-opacity: 0.7; stroke: #0369a1; stroke-opacity: 0.7; stroke-width: 1.5"/>
    <path d="M 97.291559 97.302628 
L 120.517595 78.573009 
L 157.374512 97.001467 
L 151.151115 124.232406 
z
" clip-path="url(#pb650b05cb8)" style="fill: #0ea5e9; fill-opacity: 0.7; stroke: #0369a1; stroke-opacity: 0.7; stroke-width: 1.5"/>
    <path d="M 137.520233 67.508851 
L 140.371874 68.934671 
L 157.374512 93.053911 
L 157.374512 97.001467 
L 120.517595 78.573009 
L 120.517595 74.625452 
z
" clip-path="url(#pb650b05cb8)" style="fill: #0ea5e9; fill-opacity: 0.7; stroke: #0369a1; stroke-opacity: 0.7; stroke-width: 1.5"/>
    <path d="M 137.520233 67.508851 
L 120.517595 74.625452 
L 70.17011 81.370736 
L 63.946712 77.365833 
z
" clip-path="url(#pb650b05cb8)" style="fill: #0ea5e9; fill-opacity: 0.7; stroke: #0369a1; stroke-opacity: 0.7; stroke-width: 1.5"/>
    <path d="M 73.68218 134.611275 
L 56.679542 110.492035 
L 70.17011 85.318293 
L 93.396146 97.824514 
z
" clip-path="url(#pb650b05cb8)" style="fill: #0ea5e9; fill-opacity: 0.7; stroke: #0369a1; stroke-opacity: 0.7; stroke-width: 1.5"/>
    <path d="M 151.151115 124.232406 
L 150.107342 126.180113 
L 76.533821 136.037095 
L 73.68218 134.611275 
L 93.396146 97.824514 
L 97.291559 97.302628 
z
" clip-path="url(#pb650b05cb8)" style="fill: #0ea5e9; fill-opacity: 0.7; stroke: #0369a1; stroke-opacity: 0.7; stroke-width: 1.5"/>
    <path d="M 70.17011 81.370736 
L 70.17011 85.318293 
L 56.679542 110.492035 
L 56.679542 106.544479 
L 62.902939 79.31354 
L 63.946712 77.365833 
z
" clip-path="url(#pb650b05cb8)" style="fill: #0ea5e9; fill-opacity: 0.7; stroke: #0369a1; stroke-opacity: 0.7; stroke-width: 1.5"/>
    <path d="M 150.107342 126.180113 
L 151.151115 124.232406 
L 157.374512 97.001467 
L 157.374512 93.053911 
L 143.883944 118.227653 
L 143.883944 122.17521 
z
" clip-path="url(#pb650b05cb8)" style="fill: #0ea5e9; fill-opacity: 0.7; stroke: #0369a1; stroke-opacity: 0.7; stroke-width: 1.5"/>
    <path d="M 116.762495 106.243318 
L 120.657908 105.721432 
L 140.371874 68.934671 
L 137.520233 67.508851 
L 63.946712 77.365833 
L 62.902939 79.31354 
z
" clip-path="url(#pb650b05cb8)" style="fill: #0ea5e9; fill-opacity: 0.7; stroke: #0369a1; stroke-opacity: 0.7; stroke-width: 1.5"/>
    <path d="M 120.657908 105.721432 
L 143.883944 118.227653 
L 157.374512 93.053911 
L 140.371874 68.934671 
z
" clip-path="url(#pb650b05cb8)" style="fill: #0ea5e9; fill-opacity: 0.7; stroke: #0369a1; stroke-opacity: 0.7; stroke-width: 1.5"/>
    <path d="M 150.107342 126.180113 
L 143.883944 122.17521 
L 93.536459 128.920494 
L 76.533821 136.037095 
z
" clip-path="url(#pb650b05cb8)" style="fill: #0ea5e9; fill-opacity: 0.7; stroke: #0369a1; stroke-opacity: 0.7; stroke-width: 1.5"/>
    <path d="M 93.536459 128.920494 
L 93.536459 124.972937 
L 56.679542 106.544479 
L 56.679542 110.492035 
L 73.68218 134.611275 
L 76.533821 136.037095 
z
" clip-path="url(#pb650b05cb8)" style="fill: #0ea5e9; fill-opacity: 0.7; stroke: #0369a1; stroke-opacity: 0.7; stroke-width: 1.5"/>
    <path d="M 62.902939 79.31354 
L 56.679542 106.544479 
L 93.536459 124.972937 
L 116.762495 106.243318 
z
" clip-path="url(#pb650b05cb8)" style="fill: #0ea5e9; fill-opacity: 0.7; stroke: #0369a1; stroke-opacity: 0.7; stroke-width: 1.5"/>
    <path d="M 120.657908 105.721432 
L 116.762495 106.243318 
L 93.536459 124.972937 
L 93.536459 128.920494 
L 143.883944 122.17521 
L 143.883944 118.227653 
z
" clip-path="url(#pb650b05cb8)" style="fill: #0ea5e9; fill-opacity: 0.7; stroke: #0369a1; stroke-opacity: 0.7; stroke-width: 1.5"/>
   </g>
   <g id="Path3DCollection_2">
    <defs>
     <path id="C1_0_56dd492b03" d="M 0 2.738613 
C 0.726289 2.738613 1.422928 2.450055 1.936492 1.936492 
C 2.450055 1.422928 2.738613 0.726289 2.738613 -0 
C 2.738613 -0.726289 2.450055 -1.422928 1.936492 -1.936492 
C 1.422928 -2.450055 0.726289 -2.738613 0 -2.738613 
C -0.726289 -2.738613 -1.422928 -2.450055 -1.936492 -1.936492 
C -2.450055 -1.422928 -2.738613 -0.726289 -2.738613 0 
C -2.738613 0.726289 -2.450055 1.422928 -1.936492 1.936492 
C -1.422928 2.450055 -0.726289 2.738613 0 2.738613 
z
"/>
    </defs>
    <g clip-path="url(#pb650b05cb8)">
     <use xlink:href="#C1_0_56dd492b03" x="137.520233" y="67.508851" style="fill: #0369a1; fill-opacity: 0.9; stroke: #0369a1; stroke-opacity: 0.9"/>
    </g>
    <g clip-path="url(#pb650b05cb8)">
     <use xlink:href="#C1_0_56dd492b03" x="140.371874" y="68.934671" style="fill: #0369a1; fill-opacity: 0.9; stroke: #0369a1; stroke-opacity: 0.9"/>
    </g>
    <g clip-path="url(#pb650b05cb8)">
     <use xlink:href="#C1_0_56dd492b03" x="157.374512" y="97.001467" style="fill: #0369a1; fill-opacity: 0.9; stroke: #0369a1; stroke-opacity: 0.9"/>
    </g>
    <g clip-path="url(#pb650b05cb8)">
     <use xlink:href="#C1_0_56dd492b03" x="157.374512" y="93.053911" style="fill: #0369a1; fill-opacity: 0.9; stroke: #0369a1; stroke-opacity: 0.9"/>
    </g>
    <g clip-path="url(#pb650b05cb8)">
     <use xlink:href="#C1_0_56dd492b03" x="151.151115" y="124.232406" style="fill: #0369a1; fill-opacity: 0.9; stroke: #0369a1; stroke-opacity: 0.9"/>
    </g>
    <g clip-path="url(#pb650b05cb8)">
     <use xlink:href="#C1_0_56dd492b03" x="63.946712" y="77.365833" style="fill: #0369a1; fill-opacity: 0.9; stroke: #0369a1; stroke-opacity: 0.9"/>
    </g>
    <g clip-path="url(#pb650b05cb8)">
     <use xlink:href="#C1_0_56dd492b03" x="150.107342" y="126.180113" style="fill: #0369a1; fill-opacity: 0.9; stroke: #0369a1; stroke-opacity: 0.9"/>
    </g>
    <g clip-path="url(#pb650b05cb8)">
     <use xlink:href="#C1_0_56dd492b03" x="62.902939" y="79.31354" style="fill: #0369a1; fill-opacity: 0.9; stroke: #0369a1; stroke-opacity: 0.9"/>
    </g>
    <g clip-path="url(#pb650b05cb8)">
     <use xlink:href="#C1_0_56dd492b03" x="56.679542" y="110.492035" style="fill: #0369a1; fill-opacity: 0.9; stroke: #0369a1; stroke-opacity: 0.9"/>
    </g>
    <g clip-path="url(#pb650b05cb8)">
     <use xlink:href="#C1_0_56dd492b03" x="56.679542" y="106.544479" style="fill: #0369a1; fill-opacity: 0.9; stroke: #0369a1; stroke-opacity: 0.9"/>
    </g>
    <g clip-path="url(#pb650b05cb8)">
     <use xlink:href="#C1_0_56dd492b03" x="73.68218" y="134.611275" style="fill: #0369a1; fill-opacity: 0.9; stroke: #0369a1; stroke-opacity: 0.9"/>
    </g>
    <g clip-path="url(#pb650b05cb8)">
     <use xlink:href="#C1_0_56dd492b03" x="76.533821" y="136.037095" style="fill: #0369a1; fill-opacity: 0.9; stroke: #0369a1; stroke-opacity: 0.9"/>
    </g>
    <g clip-path="url(#pb650b05cb8)">
     <use xlink:href="#C1_0_56dd492b03" x="143.883944" y="122.17521" style="fill: #0369a1; fill-opacity: 0.9; stroke: #0369a1; stroke-opacity: 0.9"/>
    </g>
    <g clip-path="url(#pb650b05cb8)">
     <use xlink:href="#C1_0_56dd492b03" x="143.883944" y="118.227653" style="fill: #0369a1; fill-opacity: 0.9; stroke: #0369a1; stroke-opacity: 0.9"/>
    </g>
    <g clip-path="url(#pb650b05cb8)">
     <use xlink:href="#C1_0_56dd492b03" x="93.536459" y="128.920494" style="fill: #0369a1; fill-opacity: 0.9; stroke: #0369a1; stroke-opacity: 0.9"/>
    </g>
    <g clip-path="url(#pb650b05cb8)">
     <use xlink:href="#C1_0_56dd492b03" x="93.536459" y="124.972937" style="fill: #0369a1; fill-opacity: 0.9; stroke: #0369a1; stroke-opacity: 0.9"/>
    </g>
    <g clip-path="url(#pb650b05cb8)">
     <use xlink:href="#C1_0_56dd492b03" x="120.657908" y="105.721432" style="fill: #0369a1; fill-opacity: 0.9; stroke: #0369a1; stroke-opacity: 0.9"/>
    </g>
    <g clip-path="url(#pb650b05cb8)">
     <use xlink:href="#C1_0_56dd492b03" x="116.762495" y="106.243318" style="fill: #0369a1; fill-opacity: 0.9; stroke: #0369a1; stroke-opacity: 0.9"/>
    </g>
   </g>
  </g>
 </g>
 <defs>
  <clipPath id="pb650b05cb8">
   <rect x="7.2" y="7.2" width="194.4" height="194.4"/>
  </clipPath>
 </defs>
</svg>
