<?xml version="1.0" encoding="utf-8" standalone="no"?>
<!DOCTYPE svg PUBLIC "-//W3C//DTD SVG 1.1//EN"
  "http://www.w3.org/Graphics/SVG/1.1/DTD/svg11.dtd">
<svg xmlns:xlink="http://www.w3.org/1999/xlink" width="424.8pt" height="424.8pt" viewBox="0 0 424.8 424.8" xmlns="http://www.w3.org/2000/svg" version="1.1">
 <metadata>
  <rdf:RDF xmlns:dc="http://purl.org/dc/elements/1.1/" xmlns:cc="http://creativecommons.org/ns#" xmlns:rdf="http://www.w3.org/1999/02/22-rdf-syntax-ns#">
   <cc:Work>
    <dc:type rdf:resource="http://purl.org/dc/dcmitype/StillImage"/>
    <dc:date>2026-01-27T08:32:32.048109</dc:date>
    <dc:format>image/svg+xml</dc:format>
    <dc:creator>
     <cc:Agent>
      <dc:title>Matplotlib v3.10.8, https://matplotlib.org/</dc:title>
     </cc:Agent>
    </dc:creator>
   </cc:Work>
  </rdf:RDF>
 </metadata>
 <defs>
  <style type="text/css">*{stroke-linejoin: round; stroke-linecap: butt}</style>
 </defs>
 <g id="figure_1">
  <g id="patch_1">
   <path d="M 0 424.8 
L 424.8 424.8 
L 424.8 0 
L 0 0 
z
" style="fill: #ffffff"/>
  </g>
  <g id="patch_2">
   <path d="M 7.2 417.6 
L 417.6 417.6 
L 417.6 7.2 
L 7.2 7.2 
z
" style="fill: #ffffff"/>
  </g>
  <g id="axes_1">
   <g id="Path3DCollection_1">
    <defs>
     <path id="C0_0_85a735e8c4" d="M 0 2.738613 
C 0.726289 2.738613 1.422928 2.450055 1.936492 1.936492 
C 2.450055 1.422928 2.738613 0.726289 2.738613 -0 
C 2.738613 -0.726289 2.450055 -1.422928 1.936492 -1.936492 
C 1.422928 -2.450055 0.726289 -2.738613 0 -2.738613 
C -0.726289 -2.738613 -1.422928 -2.450055 -1.936492 -1.936492 
C -2.450055 -1.422928 -2.738613 -0.726289 -2.738613 0 
C -2.738613 0.726289 -2.450055 1.422928 -1.936492 1.936492 
C -1.422928 2.450055 -0.726289 2.738613 0 2.738613 
z
"/>
    </defs>
    <g clip-path="url(#p95c2855b9f)">
     <use xlink:href="#C0_0_85a735e8c4" x="197.393291" y="197.416659" style="fill: #0369a1; fill-opacity: 0.3; stroke: #0369a1; stroke-opacity: 0.3"/>
    </g>
    <g clip-path="url(#p95c2855b9f)">
     <use xlink:href="#C0_0_85a735e8c4" x="189.169641" y="198.518419" style="fill: #0369a1; fill-opacity: 0.3; stroke: #0369a1; stroke-opacity: 0.3"/>
    </g>
    <g clip-path="url(#p95c2855b9f)">
     <use xlink:href="#C0_0_85a735e8c4" x="246.426034" y="157.876351" style="fill: #0369a1; fill-opacity: 0.3; stroke: #0369a1; stroke-opacity: 0.3"/>
    </g>
    <g clip-path="url(#p95c2855b9f)">
     <use xlink:href="#C0_0_85a735e8c4" x="246.426034" y="149.542621" style="fill: #0369a1; fill-opacity: 0.3; stroke: #0369a1; stroke-opacity: 0.3"/>
    </g>
    <g clip-path="url(#p95c2855b9f)">
     <use xlink:href="#C0_0_85a735e8c4" x="140.136898" y="172.116396" style="fill: #0369a1; fill-opacity: 0.3; stroke: #0369a1; stroke-opacity: 0.3"/>
    </g>
    <g clip-path="url(#p95c2855b9f)">
     <use xlink:href="#C0_0_85a735e8c4" x="140.136898" y="163.782665" style="fill: #0369a1; fill-opacity: 0.3; stroke: #0369a1; stroke-opacity: 0.3"/>
    </g>
   </g>
   <g id="Poly3DCollection_1">
    <path d="M 140.136898 172.116396 
L 140.136898 163.782665 
L 246.426034 149.542621 
L 246.426034 157.876351 
L 197.393291 197.416659 
L 189.169641 198.518419 
z
" clip-path="url(#p95c2855b9f)" style="fill: #0ea5e9; fill-opacity: 0.7; stroke: #0369a1; stroke-opacity: 0.7; stroke-width: 1.5"/>
    <path d="M 197.393291 197.416659 
L 246.426034 157.876351 
L 324.235082 196.780875 
L 311.096798 254.268412 
z
" clip-path="url(#p95c2855b9f)" style="fill: #0ea5e9; fill-opacity: 0.7; stroke: #0369a1; stroke-opacity: 0.7; stroke-width: 1.5"/>
    <path d="M 282.320493 134.518685 
L 288.340623 137.52875 
L 324.235082 188.447145 
L 324.235082 196.780875 
L 246.426034 157.876351 
L 246.426034 149.542621 
z
" clip-path="url(#p95c2855b9f)" style="fill: #0ea5e9; fill-opacity: 0.7; stroke: #0369a1; stroke-opacity: 0.7; stroke-width: 1.5"/>
    <path d="M 282.320493 134.518685 
L 246.426034 149.542621 
L 140.136898 163.782665 
L 126.998615 155.327871 
z
" clip-path="url(#p95c2855b9f)" style="fill: #0ea5e9; fill-opacity: 0.7; stroke: #0369a1; stroke-opacity: 0.7; stroke-width: 1.5"/>
    <path d="M 147.551269 276.179358 
L 111.65681 225.260963 
L 140.136898 172.116396 
L 189.169641 198.518419 
z
" clip-path="url(#p95c2855b9f)" style="fill: #0ea5e9; fill-opacity: 0.7; stroke: #0369a1; stroke-opacity: 0.7; stroke-width: 1.5"/>
    <path d="M 311.096798 254.268412 
L 308.893277 258.380238 
L 153.571399 279.189423 
L 147.551269 276.179358 
L 189.169641 198.518419 
L 197.393291 197.416659 
z
" clip-path="url(#p95c2855b9f)" style="fill: #0ea5e9; fill-opacity: 0.7; stroke: #0369a1; stroke-opacity: 0.7; stroke-width: 1.5"/>
    <path d="M 140.136898 163.782665 
L 140.136898 172.116396 
L 111.65681 225.260963 
L 111.65681 216.927233 
L 124.795094 159.439696 
L 126.998615 155.327871 
z
" clip-path="url(#p95c2855b9f)" style="fill: #0ea5e9; fill-opacity: 0.7; stroke: #0369a1; stroke-opacity: 0.7; stroke-width: 1.5"/>
    <path d="M 308.893277 258.380238 
L 311.096798 254.268412 
L 324.235082 196.780875 
L 324.235082 188.447145 
L 295.754993 241.591713 
L 295.754993 249.925443 
z
" clip-path="url(#p95c2855b9f)" style="fill: #0ea5e9; fill-opacity: 0.7; stroke: #0369a1; stroke-opacity: 0.7; stroke-width: 1.5"/>
    <path d="M 238.4986 216.291449 
L 246.722251 215.189689 
L 288.340623 137.52875 
L 282.320493 134.518685 
L 126.998615 155.327871 
L 124.795094 159.439696 
z
" clip-path="url(#p95c2855b9f)" style="fill: #0ea5e9; fill-opacity: 0.7; stroke: #0369a1; stroke-opacity: 0.7; stroke-width: 1.5"/>
    <path d="M 246.722251 215.189689 
L 295.754993 241.591713 
L 324.235082 188.447145 
L 288.340623 137.52875 
z
" clip-path="url(#p95c2855b9f)" style="fill: #0ea5e9; fill-opacity: 0.7; stroke: #0369a1; stroke-opacity: 0.7; stroke-width: 1.5"/>
    <path d="M 308.893277 258.380238 
L 295.754993 249.925443 
L 189.465858 264.165487 
L 153.571399 279.189423 
z
" clip-path="url(#p95c2855b9f)" style="fill: #0ea5e9; fill-opacity: 0.7; stroke: #0369a1; stroke-opacity: 0.7; stroke-width: 1.5"/>
    <path d="M 189.465858 264.165487 
L 189.465858 255.831757 
L 111.65681 216.927233 
L 111.65681 225.260963 
L 147.551269 276.179358 
L 153.571399 279.189423 
z
" clip-path="url(#p95c2855b9f)" style="fill: #0ea5e9; fill-opacity: 0.7; stroke: #0369a1; stroke-opacity: 0.7; stroke-width: 1.5"/>
    <path d="M 124.795094 159.439696 
L 111.65681 216.927233 
L 189.465858 255.831757 
L 238.4986 216.291449 
z
" clip-path="url(#p95c2855b9f)" style="fill: #0ea5e9; fill-opacity: 0.7; stroke: #0369a1; stroke-opacity: 0.7; stroke-width: 1.5"/>
    <path d="M 246.722251 215.189689 
L 238.4986 216.291449 
L 189.465858 255.831757 
L 189.465858 264.165487 
L 295.754993 249.925443 
L 295.754993 241.591713 
z
" clip-path="url(#p95c2855b9f)" style="fill: #0ea5e9; fill-opacity: 0.7; stroke: #0369a1; stroke-opacity: 0.7; stroke-width: 1.5"/>
   </g>
   <g id="Path3DCollection_2">
    <defs>
     <path id="C1_0_6effa0f7ff" d="M 0 2.738613 
C 0.726289 2.738613 1.422928 2.450055 1.936492 1.936492 
C 2.450055 1.422928 2.738613 0.726289 2.738613 -0 
C 2.738613 -0.726289 2.450055 -1.422928 1.936492 -1.936492 
C 1.422928 -2.450055 0.726289 -2.738613 0 -2.738613 
C -0.726289 -2.738613 -1.422928 -2.450055 -1.936492 -1.936492 
C -2.450055 -1.422928 -2.738613 -0.726289 -2.738613 0 
C -2.738613 0.726289 -2.450055 1.422928 -1.936492 1.936492 
C -1.422928 2.450055 -0.726289 2.738613 0 2.738613 
z
"/>
    </defs>
    <g clip-path="url(#p95c2855b9f)">
     <use xlink:href="#C1_0_6effa0f7ff" x="282.320493" y="134.518685" style="fill: #0369a1; fill-opacity: 0.9; stroke: #0369a1; stroke-opacity: 0.9"/>
    </g>
    <g clip-path="url(#p95c2855b9f)">
     <use xlink:href="#C1_0_6effa0f7ff" x="288.340623" y="137.52875" style="fill: #0369a1; fill-opacity: 0.9; stroke: #0369a1; stroke-opacity: 0.9"/>
    </g>
    <g clip-path="url(#p95c2855b9f)">
     <use xlink:href="#C1_0_6effa0f7ff" x="324.235082" y="196.780875" style="fill: #0369a1; fill-opacity: 0.9; stroke: #0369a1; stroke-opacity: 0.9"/>
    </g>
    <g clip-path="url(#p95c2855b9f)">
     <use xlink:href="#C1_0_6effa0f7ff" x="324.235082" y="188.447145" style="fill: #0369a1; fill-opacity: 0.9; stroke: #0369a1; stroke-opacity: 0.9"/>
    </g>
    <g clip-path="url(#p95c2855b9f)">
     <use xlink:href="#C1_0_6effa0f7ff" x="311.096798" y="254.268412" style="fill: #0369a1; fill-opacity: 0.9; stroke: #0369a1; stroke-opacity: 0.9"/>
    </g>
    <g clip-path="url(#p95c2855b9f)">
     <use xlink:href="#C1_0_6effa0f7ff" x="126.998615" y="155.327871" style="fill: #0369a1; fill-opacity: 0.9; stroke: #0369a1; stroke-opacity: 0.9"/>
    </g>
    <g clip-path="url(#p95c2855b9f)">
     <use xlink:href="#C1_0_6effa0f7ff" x="308.893277" y="258.380238" style="fill: #0369a1; fill-opacity: 0.9; stroke: #0369a1; stroke-opacity: 0.9"/>
    </g>
    <g clip-path="url(#p95c2855b9f)">
     <use xlink:href="#C1_0_6effa0f7ff" x="124.795094" y="159.439696" style="fill: #0369a1; fill-opacity: 0.9; stroke: #0369a1; stroke-opacity: 0.9"/>
    </g>
    <g clip-path="url(#p95c2855b9f)">
     <use xlink:href="#C1_0_6effa0f7ff" x="111.65681" y="225.260963" style="fill: #0369a1; fill-opacity: 0.9; stroke: #0369a1; stroke-opacity: 0.9"/>
    </g>
    <g clip-path="url(#p95c2855b9f)">
     <use xlink:href="#C1_0_6effa0f7ff" x="111.65681" y="216.927233" style="fill: #0369a1; fill-opacity: 0.9; stroke: #0369a1; stroke-opacity: 0.9"/>
    </g>
    <g clip-path="url(#p95c2855b9f)">
     <use xlink:href="#C1_0_6effa0f7ff" x="147.551269" y="276.179358" style="fill: #0369a1; fill-opacity: 0.9; stroke: #0369a1; stroke-opacity: 0.9"/>
    </g>
    <g clip-path="url(#p95c2855b9f)">
     <use xlink:href="#C1_0_6effa0f7ff" x="153.571399" y="279.189423" style="fill: #0369a1; fill-opacity: 0.9; stroke: #0369a1; stroke-opacity: 0.9"/>
    </g>
    <g clip-path="url(#p95c2855b9f)">
     <use xlink:href="#C1_0_6effa0f7ff" x="295.754993" y="249.925443" style="fill: #0369a1; fill-opacity: 0.9; stroke: #0369a1; stroke-opacity: 0.9"/>
    </g>
    <g clip-path="url(#p95c2855b9f)">
     <use xlink:href="#C1_0_6effa0f7ff" x="295.754993" y="241.591713" style="fill: #0369a1; fill-opacity: 0.9; stroke: #0369a1; stroke-opacity: 0.9"/>
    </g>
    <g clip-path="url(#p95c2855b9f)">
     <use xlink:href="#C1_0_6effa0f7ff" x="189.465858" y="264.165487" style="fill: #0369a1; fill-opacity: 0.9; stroke: #0369a1; stroke-opacity: 0.9"/>
    </g>
    <g clip-path="url(#p95c2855b9f)">
     <use xlink:href="#C1_0_6effa0f7ff" x="189.465858" y="255.831757" style="fill: #0369a1; fill-opacity: 0.9; stroke: #0369a1; stroke-opacity: 0.9"/>
    </g>
    <g clip-path="url(#p95c2855b9f)">
     <use xlink:href="#C1_0_6effa0f7ff" x="246.722251" y="215.189689" style="fill: #0369a1; fill-opacity: 0.9; stroke: #0369a1; stroke-opacity: 0.9"/>
    </g>
    <g clip-path="url(#p95c2855b9f)">
     <use xlink:href="#C1_0_6effa0f7ff" x="238.4986" y="216.291449" style="fill: #0369a1; fill-opacity: 0.9; stroke: #0369a1; stroke-opacity: 0.9"/>
    </g>
   </g>
  </g>
 </g>
 <defs>
  <clipPath id="p95c2855b9f">
   <rect x="7.2" y="7.2" width="410.4" height="410.4"/>
  </clipPath>
 </defs>
</svg>
