<?xml version="1.0" encoding="utf-8" standalone="no"?>
<!DOCTYPE svg PUBLIC "-//W3C//DTD SVG 1.1//EN"
  "http://www.w3.org/Graphics/SVG/1.1/DTD/svg11.dtd">
<svg xmlns:xlink="http://www.w3.org/1999/xlink" width="464.059457pt" height="457.92pt" viewBox="0 0 464.059457 457.92" xmlns="http://www.w3.org/2000/svg" version="1.1">
 <metadata>
  <rdf:RDF xmlns:dc="http://purl.org/dc/elements/1.1/" xmlns:cc="http://creativecommons.org/ns#" xmlns:rdf="http://www.w3.org/1999/02/22-rdf-syntax-ns#">
   <cc:Work>
    <dc:type rdf:resource="http://purl.org/dc/dcmitype/StillImage"/>
    <dc:date>2026-02-02T15:08:41.295665</dc:date>
    <dc:format>image/svg+xml</dc:format>
    <dc:creator>
     <cc:Agent>
      <dc:title>Matplotlib v3.10.8, https://matplotlib.org/</dc:title>
     </cc:Agent>
    </dc:creator>
   </cc:Work>
  </rdf:RDF>
 </metadata>
 <defs>
  <style type="text/css">*{stroke-linejoin: round; stroke-linecap: butt}</style>
 </defs>
 <g id="figure_1">
  <g id="patch_1">
   <path d="M 0 457.92 
L 464.059457 457.92 
L 464.059457 0 
L 0 0 
z
" style="fill: #ffffff"/>
  </g>
  <g id="patch_2">
   <path d="M 7.2 450.72 
L 450.72 450.72 
L 450.72 7.2 
L 7.2 7.2 
z
" style="fill: #ffffff"/>
  </g>
  <g id="pane3d_1">
   <g id="patch_3">
    <path d="M 33.141415 315.654611 
L 234.953514 214.748562 
L 234.953514 29.372313 
L 33.141415 130.278362 
" style="fill: #f2f2f2; opacity: 0.5; stroke: #f2f2f2; stroke-linejoin: miter"/>
   </g>
  </g>
  <g id="pane3d_2">
   <g id="patch_4">
    <path d="M 234.953514 214.748562 
L 436.765612 315.654611 
L 436.765612 130.278362 
L 234.953514 29.372313 
" style="fill: #e6e6e6; opacity: 0.5; stroke: #e6e6e6; stroke-linejoin: miter"/>
   </g>
  </g>
  <g id="pane3d_3">
   <g id="patch_5">
    <path d="M 33.141415 315.654611 
L 234.953514 416.56066 
L 436.765612 315.654611 
L 234.953514 214.748562 
" style="fill: #ececec; opacity: 0.5; stroke: #ececec; stroke-linejoin: miter"/>
   </g>
  </g>
  <g id="grid3d_1">
   <g id="Line3DCollection_1">
    <path d="M 38.990339 318.579073 
L 240.802437 217.673024 
L 240.802437 32.296775 
" style="fill: none; stroke: #b0b0b0; stroke-width: 0.8"/>
    <path d="M 71.322694 334.74525 
L 273.134792 233.839201 
L 273.134792 48.462952 
" style="fill: none; stroke: #b0b0b0; stroke-width: 0.8"/>
    <path d="M 103.65505 350.911428 
L 305.467148 250.005379 
L 305.467148 64.62913 
" style="fill: none; stroke: #b0b0b0; stroke-width: 0.8"/>
    <path d="M 135.987406 367.077606 
L 337.799504 266.171557 
L 337.799504 80.795308 
" style="fill: none; stroke: #b0b0b0; stroke-width: 0.8"/>
    <path d="M 168.319762 383.243784 
L 370.13186 282.337735 
L 370.13186 96.961486 
" style="fill: none; stroke: #b0b0b0; stroke-width: 0.8"/>
    <path d="M 200.652117 399.409962 
L 402.464215 298.503913 
L 402.464215 113.127664 
" style="fill: none; stroke: #b0b0b0; stroke-width: 0.8"/>
    <path d="M 232.984473 415.57614 
L 434.796571 314.670091 
L 434.796571 129.293842 
" style="fill: none; stroke: #b0b0b0; stroke-width: 0.8"/>
   </g>
  </g>
  <g id="grid3d_2">
   <g id="Line3DCollection_2">
    <path d="M 38.990339 127.3539 
L 38.990339 312.730149 
L 240.802437 413.636198 
" style="fill: none; stroke: #b0b0b0; stroke-width: 0.8"/>
    <path d="M 71.322694 111.187723 
L 71.322694 296.563972 
L 273.134792 397.470021 
" style="fill: none; stroke: #b0b0b0; stroke-width: 0.8"/>
    <path d="M 103.65505 95.021545 
L 103.65505 280.397794 
L 305.467148 381.303843 
" style="fill: none; stroke: #b0b0b0; stroke-width: 0.8"/>
    <path d="M 135.987406 78.855367 
L 135.987406 264.231616 
L 337.799504 365.137665 
" style="fill: none; stroke: #b0b0b0; stroke-width: 0.8"/>
    <path d="M 168.319762 62.689189 
L 168.319762 248.065438 
L 370.13186 348.971487 
" style="fill: none; stroke: #b0b0b0; stroke-width: 0.8"/>
    <path d="M 200.652117 46.523011 
L 200.652117 231.89926 
L 402.464215 332.805309 
" style="fill: none; stroke: #b0b0b0; stroke-width: 0.8"/>
    <path d="M 232.984473 30.356833 
L 232.984473 215.733082 
L 434.796571 316.639131 
" style="fill: none; stroke: #b0b0b0; stroke-width: 0.8"/>
   </g>
  </g>
  <g id="grid3d_3">
   <g id="Line3DCollection_3">
    <path d="M 436.765612 311.173007 
L 234.953514 210.266958 
L 33.141415 311.173007 
" style="fill: none; stroke: #b0b0b0; stroke-width: 0.8"/>
    <path d="M 436.765612 281.473842 
L 234.953514 180.567793 
L 33.141415 281.473842 
" style="fill: none; stroke: #b0b0b0; stroke-width: 0.8"/>
    <path d="M 436.765612 251.774677 
L 234.953514 150.868628 
L 33.141415 251.774677 
" style="fill: none; stroke: #b0b0b0; stroke-width: 0.8"/>
    <path d="M 436.765612 222.075512 
L 234.953514 121.169463 
L 33.141415 222.075512 
" style="fill: none; stroke: #b0b0b0; stroke-width: 0.8"/>
    <path d="M 436.765612 192.376346 
L 234.953514 91.470297 
L 33.141415 192.376346 
" style="fill: none; stroke: #b0b0b0; stroke-width: 0.8"/>
    <path d="M 436.765612 162.677181 
L 234.953514 61.771132 
L 33.141415 162.677181 
" style="fill: none; stroke: #b0b0b0; stroke-width: 0.8"/>
    <path d="M 436.765612 132.978016 
L 234.953514 32.071967 
L 33.141415 132.978016 
" style="fill: none; stroke: #b0b0b0; stroke-width: 0.8"/>
   </g>
  </g>
  <g id="axis3d_1">
   <g id="line2d_1">
    <path d="M 33.141415 315.654611 
L 234.953514 416.56066 
" style="fill: none; stroke: #000000; stroke-width: 0.8; stroke-linecap: square"/>
   </g>
   <g id="xtick_1">
    <g id="line2d_2">
     <path d="M 40.604835 317.771824 
L 35.761345 320.193569 
" style="fill: none; stroke: #000000; stroke-width: 0.8; stroke-linecap: square"/>
    </g>
   </g>
   <g id="xtick_2">
    <g id="line2d_3">
     <path d="M 72.937191 333.938002 
L 68.093701 336.359747 
" style="fill: none; stroke: #000000; stroke-width: 0.8; stroke-linecap: square"/>
    </g>
   </g>
   <g id="xtick_3">
    <g id="line2d_4">
     <path d="M 105.269547 350.10418 
L 100.426057 352.525925 
" style="fill: none; stroke: #000000; stroke-width: 0.8; stroke-linecap: square"/>
    </g>
   </g>
   <g id="xtick_4">
    <g id="line2d_5">
     <path d="M 137.601903 366.270358 
L 132.758412 368.692103 
" style="fill: none; stroke: #000000; stroke-width: 0.8; stroke-linecap: square"/>
    </g>
   </g>
   <g id="xtick_5">
    <g id="line2d_6">
     <path d="M 169.934258 382.436536 
L 165.090768 384.858281 
" style="fill: none; stroke: #000000; stroke-width: 0.8; stroke-linecap: square"/>
    </g>
   </g>
   <g id="xtick_6">
    <g id="line2d_7">
     <path d="M 202.266614 398.602714 
L 197.423124 401.024459 
" style="fill: none; stroke: #000000; stroke-width: 0.8; stroke-linecap: square"/>
    </g>
   </g>
   <g id="xtick_7">
    <g id="line2d_8">
     <path d="M 234.59897 414.768891 
L 229.755479 417.190637 
" style="fill: none; stroke: #000000; stroke-width: 0.8; stroke-linecap: square"/>
    </g>
   </g>
  </g>
  <g id="axis3d_2">
   <g id="line2d_9">
    <path d="M 436.765612 315.654611 
L 234.953514 416.56066 
" style="fill: none; stroke: #000000; stroke-width: 0.8; stroke-linecap: square"/>
   </g>
   <g id="xtick_8">
    <g id="line2d_10">
     <path d="M 239.18794 412.82895 
L 244.03143 415.250695 
" style="fill: none; stroke: #000000; stroke-width: 0.8; stroke-linecap: square"/>
    </g>
   </g>
   <g id="xtick_9">
    <g id="line2d_11">
     <path d="M 271.520296 396.662772 
L 276.363786 399.084517 
" style="fill: none; stroke: #000000; stroke-width: 0.8; stroke-linecap: square"/>
    </g>
   </g>
   <g id="xtick_10">
    <g id="line2d_12">
     <path d="M 303.852651 380.496594 
L 308.696142 382.918339 
" style="fill: none; stroke: #000000; stroke-width: 0.8; stroke-linecap: square"/>
    </g>
   </g>
   <g id="xtick_11">
    <g id="line2d_13">
     <path d="M 336.185007 364.330416 
L 341.028497 366.752162 
" style="fill: none; stroke: #000000; stroke-width: 0.8; stroke-linecap: square"/>
    </g>
   </g>
   <g id="xtick_12">
    <g id="line2d_14">
     <path d="M 368.517363 348.164239 
L 373.360853 350.585984 
" style="fill: none; stroke: #000000; stroke-width: 0.8; stroke-linecap: square"/>
    </g>
   </g>
   <g id="xtick_13">
    <g id="line2d_15">
     <path d="M 400.849719 331.998061 
L 405.693209 334.419806 
" style="fill: none; stroke: #000000; stroke-width: 0.8; stroke-linecap: square"/>
    </g>
   </g>
   <g id="xtick_14">
    <g id="line2d_16">
     <path d="M 433.182074 315.831883 
L 438.025565 318.253628 
" style="fill: none; stroke: #000000; stroke-width: 0.8; stroke-linecap: square"/>
    </g>
   </g>
  </g>
  <g id="axis3d_3">
   <g id="line2d_17">
    <path d="M 436.765612 315.654611 
L 436.765612 130.278362 
" style="fill: none; stroke: #000000; stroke-width: 0.8; stroke-linecap: square"/>
   </g>
   <g id="xtick_15">
    <g id="line2d_18">
     <path d="M 435.151115 310.365759 
L 439.994605 312.787504 
" style="fill: none; stroke: #000000; stroke-width: 0.8; stroke-linecap: square"/>
    </g>
   </g>
   <g id="xtick_16">
    <g id="line2d_19">
     <path d="M 435.151115 280.666593 
L 439.994605 283.088339 
" style="fill: none; stroke: #000000; stroke-width: 0.8; stroke-linecap: square"/>
    </g>
   </g>
   <g id="xtick_17">
    <g id="line2d_20">
     <path d="M 435.151115 250.967428 
L 439.994605 253.389173 
" style="fill: none; stroke: #000000; stroke-width: 0.8; stroke-linecap: square"/>
    </g>
   </g>
   <g id="xtick_18">
    <g id="line2d_21">
     <path d="M 435.151115 221.268263 
L 439.994605 223.690008 
" style="fill: none; stroke: #000000; stroke-width: 0.8; stroke-linecap: square"/>
    </g>
   </g>
   <g id="xtick_19">
    <g id="line2d_22">
     <path d="M 435.151115 191.569098 
L 439.994605 193.990843 
" style="fill: none; stroke: #000000; stroke-width: 0.8; stroke-linecap: square"/>
    </g>
   </g>
   <g id="xtick_20">
    <g id="line2d_23">
     <path d="M 435.151115 161.869933 
L 439.994605 164.291678 
" style="fill: none; stroke: #000000; stroke-width: 0.8; stroke-linecap: square"/>
    </g>
   </g>
   <g id="xtick_21">
    <g id="line2d_24">
     <path d="M 435.151115 132.170768 
L 439.994605 134.592513 
" style="fill: none; stroke: #000000; stroke-width: 0.8; stroke-linecap: square"/>
    </g>
   </g>
  </g>
  <g id="axes_1">
   <g id="Path3DCollection_1">
    <defs>
     <path id="C0_0_50c6ed2f07" d="M 0 2.738613 
C 0.726289 2.738613 1.422928 2.450055 1.936492 1.936492 
C 2.450055 1.422928 2.738613 0.726289 2.738613 -0 
C 2.738613 -0.726289 2.450055 -1.422928 1.936492 -1.936492 
C 1.422928 -2.450055 0.726289 -2.738613 0 -2.738613 
C -0.726289 -2.738613 -1.422928 -2.450055 -1.936492 -1.936492 
C -2.450055 -1.422928 -2.738613 -0.726289 -2.738613 0 
C -2.738613 0.726289 -2.450055 1.422928 -1.936492 1.936492 
C -1.422928 2.450055 -0.726289 2.738613 0 2.738613 
z
"/>
    </defs>
    <g clip-path="url(#p0e32ff274b)">
     <use xlink:href="#C0_0_50c6ed2f07" x="239.752512" y="265.448151" style="fill: #455a64; fill-opacity: 0.3; stroke: #455a64; stroke-opacity: 0.3"/>
    </g>
    <g clip-path="url(#p0e32ff274b)">
     <use xlink:href="#C0_0_50c6ed2f07" x="330.283108" y="265.448151" style="fill: #455a64; fill-opacity: 0.3; stroke: #455a64; stroke-opacity: 0.3"/>
    </g>
    <g clip-path="url(#p0e32ff274b)">
     <use xlink:href="#C0_0_50c6ed2f07" x="147.383684" y="311.632565" style="fill: #455a64; fill-opacity: 0.3; stroke: #455a64; stroke-opacity: 0.3"/>
    </g>
   </g>
   <g id="text_1">
    <!-- a -->
    <g style="fill: #e53935" transform="translate(138.356491 358.046099) scale(0.14 -0.14)">
     <defs>
      <path id="DejaVuSans-Bold-61" d="M 2106 1575 
Q 1756 1575 1579 1456 
Q 1403 1338 1403 1106 
Q 1403 894 1545 773 
Q 1688 653 1941 653 
Q 2256 653 2472 879 
Q 2688 1106 2688 1447 
L 2688 1575 
L 2106 1575 
z
M 3816 1997 
L 3816 0 
L 2688 0 
L 2688 519 
Q 2463 200 2181 54 
Q 1900 -91 1497 -91 
Q 953 -91 614 226 
Q 275 544 275 1050 
Q 275 1666 698 1953 
Q 1122 2241 2028 2241 
L 2688 2241 
L 2688 2328 
Q 2688 2594 2478 2717 
Q 2269 2841 1825 2841 
Q 1466 2841 1156 2769 
Q 847 2697 581 2553 
L 581 3406 
Q 941 3494 1303 3539 
Q 1666 3584 2028 3584 
Q 2975 3584 3395 3211 
Q 3816 2838 3816 1997 
z
" transform="scale(0.015625)"/>
     </defs>
     <use xlink:href="#DejaVuSans-Bold-61"/>
    </g>
   </g>
   <g id="text_2">
    <!-- b -->
    <g style="fill: #43a047" transform="translate(138.356491 314.048229) scale(0.14 -0.14)">
     <defs>
      <path id="DejaVuSans-Bold-62" d="M 2400 722 
Q 2759 722 2948 984 
Q 3138 1247 3138 1747 
Q 3138 2247 2948 2509 
Q 2759 2772 2400 2772 
Q 2041 2772 1848 2508 
Q 1656 2244 1656 1747 
Q 1656 1250 1848 986 
Q 2041 722 2400 722 
z
M 1656 2988 
Q 1888 3294 2169 3439 
Q 2450 3584 2816 3584 
Q 3463 3584 3878 3070 
Q 4294 2556 4294 1747 
Q 4294 938 3878 423 
Q 3463 -91 2816 -91 
Q 2450 -91 2169 54 
Q 1888 200 1656 506 
L 1656 0 
L 538 0 
L 538 4863 
L 1656 4863 
L 1656 2988 
z
" transform="scale(0.015625)"/>
     </defs>
     <use xlink:href="#DejaVuSans-Bold-62"/>
    </g>
   </g>
   <g id="text_3">
    <!-- c -->
    <g style="fill: #1e88e5" transform="translate(94.358621 295.63254) scale(0.14 -0.14)">
     <defs>
      <path id="DejaVuSans-Bold-63" d="M 3366 3391 
L 3366 2478 
Q 3138 2634 2908 2709 
Q 2678 2784 2431 2784 
Q 1963 2784 1702 2511 
Q 1441 2238 1441 1747 
Q 1441 1256 1702 982 
Q 1963 709 2431 709 
Q 2694 709 2930 787 
Q 3166 866 3366 1019 
L 3366 103 
Q 3103 6 2833 -42 
Q 2563 -91 2291 -91 
Q 1344 -91 809 395 
Q 275 881 275 1747 
Q 275 2613 809 3098 
Q 1344 3584 2291 3584 
Q 2566 3584 2833 3536 
Q 3100 3488 3366 3391 
z
" transform="scale(0.015625)"/>
     </defs>
     <use xlink:href="#DejaVuSans-Bold-63"/>
    </g>
   </g>
   <g id="Line3DCollection_4">
    <path d="M 135.097389 315.67778 
L 94.358621 336.047164 
" clip-path="url(#p0e32ff274b)" style="fill: none; stroke: #43a047; stroke-width: 2"/>
    <path d="M 135.097389 315.67778 
L 131.162326 318.613837 
" clip-path="url(#p0e32ff274b)" style="fill: none; stroke: #43a047; stroke-width: 2"/>
    <path d="M 135.097389 315.67778 
L 131.162326 316.676786 
" clip-path="url(#p0e32ff274b)" style="fill: none; stroke: #43a047; stroke-width: 2"/>
   </g>
   <g id="Line3DCollection_5">
    <path d="M 94.358621 298.626216 
L 94.358621 336.047164 
" clip-path="url(#p0e32ff274b)" style="fill: none; stroke: #1e88e5; stroke-width: 2"/>
    <path d="M 94.358621 298.626216 
L 93.304224 301.713603 
" clip-path="url(#p0e32ff274b)" style="fill: none; stroke: #1e88e5; stroke-width: 2"/>
    <path d="M 94.358621 298.626216 
L 95.413018 302.768 
" clip-path="url(#p0e32ff274b)" style="fill: none; stroke: #1e88e5; stroke-width: 2"/>
   </g>
   <g id="Line3DCollection_6">
    <path d="M 135.097389 356.416548 
L 94.358621 336.047164 
" clip-path="url(#p0e32ff274b)" style="fill: none; stroke: #e53935; stroke-width: 2"/>
    <path d="M 135.097389 356.416548 
L 131.162326 355.417542 
" clip-path="url(#p0e32ff274b)" style="fill: none; stroke: #e53935; stroke-width: 2"/>
    <path d="M 135.097389 356.416548 
L 131.162326 353.480491 
" clip-path="url(#p0e32ff274b)" style="fill: none; stroke: #e53935; stroke-width: 2"/>
   </g>
   <g id="Poly3DCollection_1">
    <path d="M 330.283108 87.25316 
L 330.283108 265.448151 
L 239.752512 265.448151 
L 239.752512 87.25316 
z
" clip-path="url(#p0e32ff274b)" style="fill: #b0bec5; fill-opacity: 0.7; stroke: #455a64; stroke-opacity: 0.7; stroke-width: 1.5"/>
    <path d="M 330.283108 265.448151 
L 330.283108 310.713449 
L 237.91428 356.897863 
L 147.383684 356.897863 
L 147.383684 311.632565 
L 239.752512 265.448151 
z
" clip-path="url(#p0e32ff274b)" style="fill: #b0bec5; fill-opacity: 0.7; stroke: #455a64; stroke-opacity: 0.7; stroke-width: 1.5"/>
    <path d="M 330.283108 132.518458 
L 330.283108 310.713449 
L 330.283108 265.448151 
L 330.283108 87.25316 
z
" clip-path="url(#p0e32ff274b)" style="fill: #b0bec5; fill-opacity: 0.7; stroke: #455a64; stroke-opacity: 0.7; stroke-width: 1.5"/>
    <path d="M 239.752512 265.448151 
L 147.383684 311.632565 
L 147.383684 133.437574 
L 239.752512 87.25316 
z
" clip-path="url(#p0e32ff274b)" style="fill: #b0bec5; fill-opacity: 0.7; stroke: #455a64; stroke-opacity: 0.7; stroke-width: 1.5"/>
    <path d="M 237.91428 178.702872 
L 237.91428 356.897863 
L 330.283108 310.713449 
L 330.283108 132.518458 
z
" clip-path="url(#p0e32ff274b)" style="fill: #b0bec5; fill-opacity: 0.7; stroke: #455a64; stroke-opacity: 0.7; stroke-width: 1.5"/>
    <path d="M 147.383684 133.437574 
L 147.383684 311.632565 
L 147.383684 356.897863 
L 147.383684 178.702872 
z
" clip-path="url(#p0e32ff274b)" style="fill: #b0bec5; fill-opacity: 0.7; stroke: #455a64; stroke-opacity: 0.7; stroke-width: 1.5"/>
    <path d="M 239.752512 87.25316 
L 147.383684 133.437574 
L 147.383684 178.702872 
L 237.91428 178.702872 
L 330.283108 132.518458 
L 330.283108 87.25316 
z
" clip-path="url(#p0e32ff274b)" style="fill: #b0bec5; fill-opacity: 0.7; stroke: #455a64; stroke-opacity: 0.7; stroke-width: 1.5"/>
    <path d="M 147.383684 178.702872 
L 147.383684 356.897863 
L 237.91428 356.897863 
L 237.91428 178.702872 
z
" clip-path="url(#p0e32ff274b)" style="fill: #b0bec5; fill-opacity: 0.7; stroke: #455a64; stroke-opacity: 0.7; stroke-width: 1.5"/>
   </g>
   <g id="Path3DCollection_2">
    <defs>
     <path id="C1_0_3df75ee102" d="M 0 2.738613 
C 0.726289 2.738613 1.422928 2.450055 1.936492 1.936492 
C 2.450055 1.422928 2.738613 0.726289 2.738613 -0 
C 2.738613 -0.726289 2.450055 -1.422928 1.936492 -1.936492 
C 1.422928 -2.450055 0.726289 -2.738613 0 -2.738613 
C -0.726289 -2.738613 -1.422928 -2.450055 -1.936492 -1.936492 
C -2.450055 -1.422928 -2.738613 -0.726289 -2.738613 0 
C -2.738613 0.726289 -2.450055 1.422928 -1.936492 1.936492 
C -1.422928 2.450055 -0.726289 2.738613 0 2.738613 
z
"/>
    </defs>
    <g clip-path="url(#p0e32ff274b)">
     <use xlink:href="#C1_0_3df75ee102" x="330.283108" y="310.713449" style="fill: #455a64; fill-opacity: 0.9; stroke: #455a64; stroke-opacity: 0.9"/>
    </g>
    <g clip-path="url(#p0e32ff274b)">
     <use xlink:href="#C1_0_3df75ee102" x="239.752512" y="87.25316" style="fill: #455a64; fill-opacity: 0.9; stroke: #455a64; stroke-opacity: 0.9"/>
    </g>
    <g clip-path="url(#p0e32ff274b)">
     <use xlink:href="#C1_0_3df75ee102" x="330.283108" y="87.25316" style="fill: #455a64; fill-opacity: 0.9; stroke: #455a64; stroke-opacity: 0.9"/>
    </g>
    <g clip-path="url(#p0e32ff274b)">
     <use xlink:href="#C1_0_3df75ee102" x="237.91428" y="356.897863" style="fill: #455a64; fill-opacity: 0.9; stroke: #455a64; stroke-opacity: 0.9"/>
    </g>
    <g clip-path="url(#p0e32ff274b)">
     <use xlink:href="#C1_0_3df75ee102" x="147.383684" y="356.897863" style="fill: #455a64; fill-opacity: 0.9; stroke: #455a64; stroke-opacity: 0.9"/>
    </g>
    <g clip-path="url(#p0e32ff274b)">
     <use xlink:href="#C1_0_3df75ee102" x="330.283108" y="132.518458" style="fill: #455a64; fill-opacity: 0.9; stroke: #455a64; stroke-opacity: 0.9"/>
    </g>
    <g clip-path="url(#p0e32ff274b)">
     <use xlink:href="#C1_0_3df75ee102" x="147.383684" y="133.437574" style="fill: #455a64; fill-opacity: 0.9; stroke: #455a64; stroke-opacity: 0.9"/>
    </g>
    <g clip-path="url(#p0e32ff274b)">
     <use xlink:href="#C1_0_3df75ee102" x="237.91428" y="178.702872" style="fill: #455a64; fill-opacity: 0.9; stroke: #455a64; stroke-opacity: 0.9"/>
    </g>
    <g clip-path="url(#p0e32ff274b)">
     <use xlink:href="#C1_0_3df75ee102" x="147.383684" y="178.702872" style="fill: #455a64; fill-opacity: 0.9; stroke: #455a64; stroke-opacity: 0.9"/>
    </g>
   </g>
  </g>
 </g>
 <defs>
  <clipPath id="p0e32ff274b">
   <rect x="7.2" y="7.2" width="443.52" height="443.52"/>
  </clipPath>
 </defs>
</svg>
