<?xml version="1.0" encoding="utf-8" standalone="no"?>
<!DOCTYPE svg PUBLIC "-//W3C//DTD SVG 1.1//EN"
  "http://www.w3.org/Graphics/SVG/1.1/DTD/svg11.dtd">
<svg xmlns:xlink="http://www.w3.org/1999/xlink" width="464.059457pt" height="457.92pt" viewBox="0 0 464.059457 457.92" xmlns="http://www.w3.org/2000/svg" version="1.1">
 <metadata>
  <rdf:RDF xmlns:dc="http://purl.org/dc/elements/1.1/" xmlns:cc="http://creativecommons.org/ns#" xmlns:rdf="http://www.w3.org/1999/02/22-rdf-syntax-ns#">
   <cc:Work>
    <dc:type rdf:resource="http://purl.org/dc/dcmitype/StillImage"/>
    <dc:date>2026-02-02T15:08:41.426006</dc:date>
    <dc:format>image/svg+xml</dc:format>
    <dc:creator>
     <cc:Agent>
      <dc:title>Matplotlib v3.10.8, https://matplotlib.org/</dc:title>
     </cc:Agent>
    </dc:creator>
   </cc:Work>
  </rdf:RDF>
 </metadata>
 <defs>
  <style type="text/css">*{stroke-linejoin: round; stroke-linecap: butt}</style>
 </defs>
 <g id="figure_1">
  <g id="patch_1">
   <path d="M 0 457.92 
L 464.059457 457.92 
L 464.059457 0 
L 0 0 
z
" style="fill: #ffffff"/>
  </g>
  <g id="patch_2">
   <path d="M 7.2 450.72 
L 450.72 450.72 
L 450.72 7.2 
L 7.2 7.2 
z
" style="fill: #ffffff"/>
  </g>
  <g id="pane3d_1">
   <g id="patch_3">
    <path d="M 33.141415 315.654611 
L 234.953514 214.748562 
L 234.953514 29.372313 
L 33.141415 130.278362 
" style="fill: #f2f2f2; opacity: 0.5; stroke: #f2f2f2; stroke-linejoin: miter"/>
   </g>
  </g>
  <g id="pane3d_2">
   <g id="patch_4">
    <path d="M 234.953514 214.748562 
L 436.765612 315.654611 
L 436.765612 130.278362 
L 234.953514 29.372313 
" style="fill: #e6e6e6; opacity: 0.5; stroke: #e6e6e6; stroke-linejoin: miter"/>
   </g>
  </g>
  <g id="pane3d_3">
   <g id="patch_5">
    <path d="M 33.141415 315.654611 
L 234.953514 416.56066 
L 436.765612 315.654611 
L 234.953514 214.748562 
" style="fill: #ececec; opacity: 0.5; stroke: #ececec; stroke-linejoin: miter"/>
   </g>
  </g>
  <g id="grid3d_1">
   <g id="Line3DCollection_1">
    <path d="M 59.131494 328.64965 
L 260.943592 227.743601 
L 260.943592 42.367352 
" style="fill: none; stroke: #b0b0b0; stroke-width: 0.8"/>
    <path d="M 97.549941 347.858874 
L 299.362039 246.952825 
L 299.362039 61.576576 
" style="fill: none; stroke: #b0b0b0; stroke-width: 0.8"/>
    <path d="M 135.968387 367.068097 
L 337.780485 266.162048 
L 337.780485 80.785799 
" style="fill: none; stroke: #b0b0b0; stroke-width: 0.8"/>
    <path d="M 174.386833 386.27732 
L 376.198931 285.371271 
L 376.198931 99.995022 
" style="fill: none; stroke: #b0b0b0; stroke-width: 0.8"/>
    <path d="M 212.805279 405.486543 
L 414.617377 304.580494 
L 414.617377 119.204245 
" style="fill: none; stroke: #b0b0b0; stroke-width: 0.8"/>
   </g>
  </g>
  <g id="grid3d_2">
   <g id="Line3DCollection_2">
    <path d="M 59.131494 117.283323 
L 59.131494 302.659572 
L 260.943592 403.565621 
" style="fill: none; stroke: #b0b0b0; stroke-width: 0.8"/>
    <path d="M 97.549941 98.074099 
L 97.549941 283.450348 
L 299.362039 384.356397 
" style="fill: none; stroke: #b0b0b0; stroke-width: 0.8"/>
    <path d="M 135.968387 78.864876 
L 135.968387 264.241125 
L 337.780485 365.147174 
" style="fill: none; stroke: #b0b0b0; stroke-width: 0.8"/>
    <path d="M 174.386833 59.655653 
L 174.386833 245.031902 
L 376.198931 345.937951 
" style="fill: none; stroke: #b0b0b0; stroke-width: 0.8"/>
    <path d="M 212.805279 40.44643 
L 212.805279 225.822679 
L 414.617377 326.728728 
" style="fill: none; stroke: #b0b0b0; stroke-width: 0.8"/>
   </g>
  </g>
  <g id="grid3d_3">
   <g id="Line3DCollection_3">
    <path d="M 436.765612 292.663439 
L 234.953514 191.75739 
L 33.141415 292.663439 
" style="fill: none; stroke: #b0b0b0; stroke-width: 0.8"/>
    <path d="M 436.765612 257.373843 
L 234.953514 156.467794 
L 33.141415 257.373843 
" style="fill: none; stroke: #b0b0b0; stroke-width: 0.8"/>
    <path d="M 436.765612 222.084247 
L 234.953514 121.178198 
L 33.141415 222.084247 
" style="fill: none; stroke: #b0b0b0; stroke-width: 0.8"/>
    <path d="M 436.765612 186.79465 
L 234.953514 85.888601 
L 33.141415 186.79465 
" style="fill: none; stroke: #b0b0b0; stroke-width: 0.8"/>
    <path d="M 436.765612 151.505054 
L 234.953514 50.599005 
L 33.141415 151.505054 
" style="fill: none; stroke: #b0b0b0; stroke-width: 0.8"/>
   </g>
  </g>
  <g id="axis3d_1">
   <g id="line2d_1">
    <path d="M 33.141415 315.654611 
L 234.953514 416.56066 
" style="fill: none; stroke: #000000; stroke-width: 0.8; stroke-linecap: square"/>
   </g>
   <g id="xtick_1">
    <g id="line2d_2">
     <path d="M 60.745991 327.842402 
L 55.902501 330.264147 
" style="fill: none; stroke: #000000; stroke-width: 0.8; stroke-linecap: square"/>
    </g>
   </g>
   <g id="xtick_2">
    <g id="line2d_3">
     <path d="M 99.164437 347.051625 
L 94.320947 349.47337 
" style="fill: none; stroke: #000000; stroke-width: 0.8; stroke-linecap: square"/>
    </g>
   </g>
   <g id="xtick_3">
    <g id="line2d_4">
     <path d="M 137.582884 366.260848 
L 132.739393 368.682593 
" style="fill: none; stroke: #000000; stroke-width: 0.8; stroke-linecap: square"/>
    </g>
   </g>
   <g id="xtick_4">
    <g id="line2d_5">
     <path d="M 176.00133 385.470071 
L 171.157839 387.891817 
" style="fill: none; stroke: #000000; stroke-width: 0.8; stroke-linecap: square"/>
    </g>
   </g>
   <g id="xtick_5">
    <g id="line2d_6">
     <path d="M 214.419776 404.679294 
L 209.576286 407.10104 
" style="fill: none; stroke: #000000; stroke-width: 0.8; stroke-linecap: square"/>
    </g>
   </g>
  </g>
  <g id="axis3d_2">
   <g id="line2d_7">
    <path d="M 436.765612 315.654611 
L 234.953514 416.56066 
" style="fill: none; stroke: #000000; stroke-width: 0.8; stroke-linecap: square"/>
   </g>
   <g id="xtick_6">
    <g id="line2d_8">
     <path d="M 259.329096 402.758372 
L 264.172586 405.180117 
" style="fill: none; stroke: #000000; stroke-width: 0.8; stroke-linecap: square"/>
    </g>
   </g>
   <g id="xtick_7">
    <g id="line2d_9">
     <path d="M 297.747542 383.549149 
L 302.591032 385.970894 
" style="fill: none; stroke: #000000; stroke-width: 0.8; stroke-linecap: square"/>
    </g>
   </g>
   <g id="xtick_8">
    <g id="line2d_10">
     <path d="M 336.165988 364.339926 
L 341.009478 366.761671 
" style="fill: none; stroke: #000000; stroke-width: 0.8; stroke-linecap: square"/>
    </g>
   </g>
   <g id="xtick_9">
    <g id="line2d_11">
     <path d="M 374.584434 345.130703 
L 379.427925 347.552448 
" style="fill: none; stroke: #000000; stroke-width: 0.8; stroke-linecap: square"/>
    </g>
   </g>
   <g id="xtick_10">
    <g id="line2d_12">
     <path d="M 413.002881 325.92148 
L 417.846371 328.343225 
" style="fill: none; stroke: #000000; stroke-width: 0.8; stroke-linecap: square"/>
    </g>
   </g>
  </g>
  <g id="axis3d_3">
   <g id="line2d_13">
    <path d="M 436.765612 315.654611 
L 436.765612 130.278362 
" style="fill: none; stroke: #000000; stroke-width: 0.8; stroke-linecap: square"/>
   </g>
   <g id="xtick_11">
    <g id="line2d_14">
     <path d="M 435.151115 291.856191 
L 439.994605 294.277936 
" style="fill: none; stroke: #000000; stroke-width: 0.8; stroke-linecap: square"/>
    </g>
   </g>
   <g id="xtick_12">
    <g id="line2d_15">
     <path d="M 435.151115 256.566594 
L 439.994605 258.98834 
" style="fill: none; stroke: #000000; stroke-width: 0.8; stroke-linecap: square"/>
    </g>
   </g>
   <g id="xtick_13">
    <g id="line2d_16">
     <path d="M 435.151115 221.276998 
L 439.994605 223.698743 
" style="fill: none; stroke: #000000; stroke-width: 0.8; stroke-linecap: square"/>
    </g>
   </g>
   <g id="xtick_14">
    <g id="line2d_17">
     <path d="M 435.151115 185.987402 
L 439.994605 188.409147 
" style="fill: none; stroke: #000000; stroke-width: 0.8; stroke-linecap: square"/>
    </g>
   </g>
   <g id="xtick_15">
    <g id="line2d_18">
     <path d="M 435.151115 150.697806 
L 439.994605 153.119551 
" style="fill: none; stroke: #000000; stroke-width: 0.8; stroke-linecap: square"/>
    </g>
   </g>
  </g>
  <g id="axes_1">
   <g id="Path3DCollection_1">
    <defs>
     <path id="mb67030b721" d="M 0 2.738613 
C 0.726289 2.738613 1.422928 2.450055 1.936492 1.936492 
C 2.450055 1.422928 2.738613 0.726289 2.738613 0 
C 2.738613 -0.726289 2.450055 -1.422928 1.936492 -1.936492 
C 1.422928 -2.450055 0.726289 -2.738613 0 -2.738613 
C -0.726289 -2.738613 -1.422928 -2.450055 -1.936492 -1.936492 
C -2.450055 -1.422928 -2.738613 -0.726289 -2.738613 0 
C -2.738613 0.726289 -2.450055 1.422928 -1.936492 1.936492 
C -1.422928 2.450055 -0.726289 2.738613 0 2.738613 
z
" style="stroke: #0277bd; stroke-opacity: 0.3"/>
    </defs>
    <g clip-path="url(#p0e38b99a0b)">
     <use xlink:href="#mb67030b721" x="238.795358" y="214.262122" style="fill: #0277bd; fill-opacity: 0.3; stroke: #0277bd; stroke-opacity: 0.3"/>
    </g>
   </g>
   <g id="text_1">
    <!-- a -->
    <g style="fill: #e53935" transform="translate(90.88434 338.005168) scale(0.14 -0.14)">
     <defs>
      <path id="DejaVuSans-Bold-61" d="M 2106 1575 
Q 1756 1575 1579 1456 
Q 1403 1338 1403 1106 
Q 1403 894 1545 773 
Q 1688 653 1941 653 
Q 2256 653 2472 879 
Q 2688 1106 2688 1447 
L 2688 1575 
L 2106 1575 
z
M 3816 1997 
L 3816 0 
L 2688 0 
L 2688 519 
Q 2463 200 2181 54 
Q 1900 -91 1497 -91 
Q 953 -91 614 226 
Q 275 544 275 1050 
Q 275 1666 698 1953 
Q 1122 2241 2028 2241 
L 2688 2241 
L 2688 2328 
Q 2688 2594 2478 2717 
Q 2269 2841 1825 2841 
Q 1466 2841 1156 2769 
Q 847 2697 581 2553 
L 581 3406 
Q 941 3494 1303 3539 
Q 1666 3584 2028 3584 
Q 2975 3584 3395 3211 
Q 3816 2838 3816 1997 
z
" transform="scale(0.015625)"/>
     </defs>
     <use xlink:href="#DejaVuSans-Bold-61"/>
    </g>
   </g>
   <g id="text_2">
    <!-- b -->
    <g style="fill: #43a047" transform="translate(90.88434 286.140266) scale(0.14 -0.14)">
     <defs>
      <path id="DejaVuSans-Bold-62" d="M 2400 722 
Q 2759 722 2948 984 
Q 3138 1247 3138 1747 
Q 3138 2247 2948 2509 
Q 2759 2772 2400 2772 
Q 2041 2772 1848 2508 
Q 1656 2244 1656 1747 
Q 1656 1250 1848 986 
Q 2041 722 2400 722 
z
M 1656 2988 
Q 1888 3294 2169 3439 
Q 2450 3584 2816 3584 
Q 3463 3584 3878 3070 
Q 4294 2556 4294 1747 
Q 4294 938 3878 423 
Q 3463 -91 2816 -91 
Q 2450 -91 2169 54 
Q 1888 200 1656 506 
L 1656 0 
L 538 0 
L 538 4863 
L 1656 4863 
L 1656 2988 
z
" transform="scale(0.015625)"/>
     </defs>
     <use xlink:href="#DejaVuSans-Bold-62"/>
    </g>
   </g>
   <g id="text_3">
    <!-- c -->
    <g style="fill: #1e88e5" transform="translate(39.019438 264.431762) scale(0.14 -0.14)">
     <defs>
      <path id="DejaVuSans-Bold-63" d="M 3366 3391 
L 3366 2478 
Q 3138 2634 2908 2709 
Q 2678 2784 2431 2784 
Q 1963 2784 1702 2511 
Q 1441 2238 1441 1747 
Q 1441 1256 1702 982 
Q 1963 709 2431 709 
Q 2694 709 2930 787 
Q 3166 866 3366 1019 
L 3366 103 
Q 3103 6 2833 -42 
Q 2563 -91 2291 -91 
Q 1344 -91 809 395 
Q 275 881 275 1747 
Q 275 2613 809 3098 
Q 1344 3584 2291 3584 
Q 2566 3584 2833 3536 
Q 3100 3488 3366 3391 
z
" transform="scale(0.015625)"/>
     </defs>
     <use xlink:href="#DejaVuSans-Bold-63"/>
    </g>
   </g>
   <g id="Line3DCollection_4">
    <path d="M 87.042496 288.061188 
L 39.019438 312.072717 
" clip-path="url(#p0e38b99a0b)" style="fill: none; stroke: #43a047; stroke-width: 2"/>
    <path d="M 87.042496 288.061188 
L 82.403824 291.522226 
" clip-path="url(#p0e38b99a0b)" style="fill: none; stroke: #43a047; stroke-width: 2"/>
    <path d="M 87.042496 288.061188 
L 82.403824 289.238821 
" clip-path="url(#p0e38b99a0b)" style="fill: none; stroke: #43a047; stroke-width: 2"/>
   </g>
   <g id="Line3DCollection_5">
    <path d="M 39.019438 267.960722 
L 39.019438 312.072717 
" clip-path="url(#p0e38b99a0b)" style="fill: none; stroke: #1e88e5; stroke-width: 2"/>
    <path d="M 39.019438 267.960722 
L 37.77651 271.600149 
" clip-path="url(#p0e38b99a0b)" style="fill: none; stroke: #1e88e5; stroke-width: 2"/>
    <path d="M 39.019438 267.960722 
L 40.262366 272.843077 
" clip-path="url(#p0e38b99a0b)" style="fill: none; stroke: #1e88e5; stroke-width: 2"/>
   </g>
   <g id="Line3DCollection_6">
    <path d="M 87.042496 336.084246 
L 39.019438 312.072717 
" clip-path="url(#p0e38b99a0b)" style="fill: none; stroke: #e53935; stroke-width: 2"/>
    <path d="M 87.042496 336.084246 
L 82.403824 334.906613 
" clip-path="url(#p0e38b99a0b)" style="fill: none; stroke: #e53935; stroke-width: 2"/>
    <path d="M 87.042496 336.084246 
L 82.403824 332.623208 
" clip-path="url(#p0e38b99a0b)" style="fill: none; stroke: #e53935; stroke-width: 2"/>
   </g>
   <g id="Poly3DCollection_1">
    <path d="M 430.887589 133.860256 
L 430.887589 310.308237 
L 238.795358 214.262122 
L 238.795358 37.81414 
z
" clip-path="url(#p0e38b99a0b)" style="fill: #81d4fa; fill-opacity: 0.7; stroke: #0277bd; stroke-opacity: 0.7; stroke-width: 1.5"/>
    <path d="M 238.795358 37.81414 
L 238.795358 214.262122 
L 46.703127 310.308237 
L 46.703127 133.860256 
z
" clip-path="url(#p0e38b99a0b)" style="fill: #81d4fa; fill-opacity: 0.7; stroke: #0277bd; stroke-opacity: 0.7; stroke-width: 1.5"/>
    <path d="M 238.795358 214.262122 
L 430.887589 310.308237 
L 238.795358 406.354353 
L 46.703127 310.308237 
z
" clip-path="url(#p0e38b99a0b)" style="fill: #81d4fa; fill-opacity: 0.7; stroke: #0277bd; stroke-opacity: 0.7; stroke-width: 1.5"/>
    <path d="M 238.795358 229.906372 
L 430.887589 133.860256 
L 238.795358 37.81414 
L 46.703127 133.860256 
z
" clip-path="url(#p0e38b99a0b)" style="fill: #81d4fa; fill-opacity: 0.7; stroke: #0277bd; stroke-opacity: 0.7; stroke-width: 1.5"/>
    <path d="M 46.703127 310.308237 
L 238.795358 406.354353 
L 238.795358 229.906372 
L 46.703127 133.860256 
z
" clip-path="url(#p0e38b99a0b)" style="fill: #81d4fa; fill-opacity: 0.7; stroke: #0277bd; stroke-opacity: 0.7; stroke-width: 1.5"/>
    <path d="M 238.795358 406.354353 
L 430.887589 310.308237 
L 430.887589 133.860256 
L 238.795358 229.906372 
z
" clip-path="url(#p0e38b99a0b)" style="fill: #81d4fa; fill-opacity: 0.7; stroke: #0277bd; stroke-opacity: 0.7; stroke-width: 1.5"/>
   </g>
   <g id="Path3DCollection_2">
    <defs>
     <path id="C0_0_b94e9fcd2e" d="M 0 2.738613 
C 0.726289 2.738613 1.422928 2.450055 1.936492 1.936492 
C 2.450055 1.422928 2.738613 0.726289 2.738613 -0 
C 2.738613 -0.726289 2.450055 -1.422928 1.936492 -1.936492 
C 1.422928 -2.450055 0.726289 -2.738613 0 -2.738613 
C -0.726289 -2.738613 -1.422928 -2.450055 -1.936492 -1.936492 
C -2.450055 -1.422928 -2.738613 -0.726289 -2.738613 0 
C -2.738613 0.726289 -2.450055 1.422928 -1.936492 1.936492 
C -1.422928 2.450055 -0.726289 2.738613 0 2.738613 
z
"/>
    </defs>
    <g clip-path="url(#p0e38b99a0b)">
     <use xlink:href="#C0_0_b94e9fcd2e" x="238.795358" y="37.81414" style="fill: #0277bd; fill-opacity: 0.9; stroke: #0277bd; stroke-opacity: 0.9"/>
    </g>
    <g clip-path="url(#p0e38b99a0b)">
     <use xlink:href="#C0_0_b94e9fcd2e" x="46.703127" y="310.308237" style="fill: #0277bd; fill-opacity: 0.9; stroke: #0277bd; stroke-opacity: 0.9"/>
    </g>
    <g clip-path="url(#p0e38b99a0b)">
     <use xlink:href="#C0_0_b94e9fcd2e" x="430.887589" y="310.308237" style="fill: #0277bd; fill-opacity: 0.9; stroke: #0277bd; stroke-opacity: 0.9"/>
    </g>
    <g clip-path="url(#p0e38b99a0b)">
     <use xlink:href="#C0_0_b94e9fcd2e" x="46.703127" y="133.860256" style="fill: #0277bd; fill-opacity: 0.9; stroke: #0277bd; stroke-opacity: 0.9"/>
    </g>
    <g clip-path="url(#p0e38b99a0b)">
     <use xlink:href="#C0_0_b94e9fcd2e" x="430.887589" y="133.860256" style="fill: #0277bd; fill-opacity: 0.9; stroke: #0277bd; stroke-opacity: 0.9"/>
    </g>
    <g clip-path="url(#p0e38b99a0b)">
     <use xlink:href="#C0_0_b94e9fcd2e" x="238.795358" y="406.354353" style="fill: #0277bd; fill-opacity: 0.9; stroke: #0277bd; stroke-opacity: 0.9"/>
    </g>
    <g clip-path="url(#p0e38b99a0b)">
     <use xlink:href="#C0_0_b94e9fcd2e" x="238.795358" y="229.906372" style="fill: #0277bd; fill-opacity: 0.9; stroke: #0277bd; stroke-opacity: 0.9"/>
    </g>
   </g>
  </g>
 </g>
 <defs>
  <clipPath id="p0e38b99a0b">
   <rect x="7.2" y="7.2" width="443.52" height="443.52"/>
  </clipPath>
 </defs>
</svg>
