<?xml version="1.0" encoding="utf-8" standalone="no"?>
<!DOCTYPE svg PUBLIC "-//W3C//DTD SVG 1.1//EN"
  "http://www.w3.org/Graphics/SVG/1.1/DTD/svg11.dtd">
<svg xmlns:xlink="http://www.w3.org/1999/xlink" width="424.8pt" height="424.8pt" viewBox="0 0 424.8 424.8" xmlns="http://www.w3.org/2000/svg" version="1.1">
 <metadata>
  <rdf:RDF xmlns:dc="http://purl.org/dc/elements/1.1/" xmlns:cc="http://creativecommons.org/ns#" xmlns:rdf="http://www.w3.org/1999/02/22-rdf-syntax-ns#">
   <cc:Work>
    <dc:type rdf:resource="http://purl.org/dc/dcmitype/StillImage"/>
    <dc:date>2026-01-26T17:14:38.650729</dc:date>
    <dc:format>image/svg+xml</dc:format>
    <dc:creator>
     <cc:Agent>
      <dc:title>Matplotlib v3.10.8, https://matplotlib.org/</dc:title>
     </cc:Agent>
    </dc:creator>
   </cc:Work>
  </rdf:RDF>
 </metadata>
 <defs>
  <style type="text/css">*{stroke-linejoin: round; stroke-linecap: butt}</style>
 </defs>
 <g id="figure_1">
  <g id="patch_1">
   <path d="M 0 424.8 
L 424.8 424.8 
L 424.8 0 
L 0 0 
z
" style="fill: #ffffff"/>
  </g>
  <g id="patch_2">
   <path d="M 7.2 417.6 
L 417.6 417.6 
L 417.6 7.2 
L 7.2 7.2 
z
" style="fill: #ffffff"/>
  </g>
  <g id="axes_1">
   <g id="Path3DCollection_1">
    <defs>
     <path id="C0_0_ded5daa1ac" d="M 0 2.738613 
C 0.726289 2.738613 1.422928 2.450055 1.936492 1.936492 
C 2.450055 1.422928 2.738613 0.726289 2.738613 -0 
C 2.738613 -0.726289 2.450055 -1.422928 1.936492 -1.936492 
C 1.422928 -2.450055 0.726289 -2.738613 0 -2.738613 
C -0.726289 -2.738613 -1.422928 -2.450055 -1.936492 -1.936492 
C -2.450055 -1.422928 -2.738613 -0.726289 -2.738613 0 
C -2.738613 0.726289 -2.450055 1.422928 -1.936492 1.936492 
C -1.422928 2.450055 -0.726289 2.738613 0 2.738613 
z
"/>
    </defs>
    <g clip-path="url(#pac3d724aa3)">
     <use xlink:href="#C0_0_ded5daa1ac" x="185.059973" y="195.005368" style="fill: #0369a1; fill-opacity: 0.3; stroke: #0369a1; stroke-opacity: 0.3"/>
    </g>
    <g clip-path="url(#pac3d724aa3)">
     <use xlink:href="#C0_0_ded5daa1ac" x="274.906122" y="239.928442" style="fill: #0369a1; fill-opacity: 0.3; stroke: #0369a1; stroke-opacity: 0.3"/>
    </g>
   </g>
   <g id="Poly3DCollection_1">
    <path d="M 274.906122 140.893693 
L 274.906122 239.928442 
L 185.059973 195.005368 
L 185.059973 95.970618 
z
" clip-path="url(#pac3d724aa3)" style="fill: #0ea5e9; fill-opacity: 0.7; stroke: #0369a1; stroke-opacity: 0.7; stroke-width: 1.5"/>
    <path d="M 185.059973 95.970618 
L 185.059973 195.005368 
L 152.174 256.371429 
L 152.174 157.336679 
z
" clip-path="url(#pac3d724aa3)" style="fill: #0ea5e9; fill-opacity: 0.7; stroke: #0369a1; stroke-opacity: 0.7; stroke-width: 1.5"/>
    <path d="M 160.98577 272.814415 
L 152.174 256.371429 
L 185.059973 195.005368 
L 274.906122 239.928442 
L 283.717892 256.371429 
L 269.818644 282.307778 
L 198.959221 291.801141 
z
" clip-path="url(#pac3d724aa3)" style="fill: #0ea5e9; fill-opacity: 0.7; stroke: #0369a1; stroke-opacity: 0.7; stroke-width: 1.5"/>
    <path d="M 283.717892 157.336679 
L 283.717892 256.371429 
L 274.906122 239.928442 
L 274.906122 140.893693 
z
" clip-path="url(#pac3d724aa3)" style="fill: #0ea5e9; fill-opacity: 0.7; stroke: #0369a1; stroke-opacity: 0.7; stroke-width: 1.5"/>
    <path d="M 152.174 256.371429 
L 160.98577 272.814415 
L 160.98577 173.779666 
L 152.174 157.336679 
z
" clip-path="url(#pac3d724aa3)" style="fill: #0ea5e9; fill-opacity: 0.7; stroke: #0369a1; stroke-opacity: 0.7; stroke-width: 1.5"/>
    <path d="M 269.818644 282.307778 
L 283.717892 256.371429 
L 283.717892 157.336679 
L 269.818644 183.273029 
z
" clip-path="url(#pac3d724aa3)" style="fill: #0ea5e9; fill-opacity: 0.7; stroke: #0369a1; stroke-opacity: 0.7; stroke-width: 1.5"/>
    <path d="M 198.959221 192.766391 
L 269.818644 183.273029 
L 283.717892 157.336679 
L 274.906122 140.893693 
L 185.059973 95.970618 
L 152.174 157.336679 
L 160.98577 173.779666 
z
" clip-path="url(#pac3d724aa3)" style="fill: #0ea5e9; fill-opacity: 0.7; stroke: #0369a1; stroke-opacity: 0.7; stroke-width: 1.5"/>
    <path d="M 160.98577 272.814415 
L 198.959221 291.801141 
L 198.959221 192.766391 
L 160.98577 173.779666 
z
" clip-path="url(#pac3d724aa3)" style="fill: #0ea5e9; fill-opacity: 0.7; stroke: #0369a1; stroke-opacity: 0.7; stroke-width: 1.5"/>
    <path d="M 198.959221 192.766391 
L 198.959221 291.801141 
L 269.818644 282.307778 
L 269.818644 183.273029 
z
" clip-path="url(#pac3d724aa3)" style="fill: #0ea5e9; fill-opacity: 0.7; stroke: #0369a1; stroke-opacity: 0.7; stroke-width: 1.5"/>
   </g>
   <g id="Path3DCollection_2">
    <defs>
     <path id="C1_0_ce13608671" d="M 0 2.738613 
C 0.726289 2.738613 1.422928 2.450055 1.936492 1.936492 
C 2.450055 1.422928 2.738613 0.726289 2.738613 -0 
C 2.738613 -0.726289 2.450055 -1.422928 1.936492 -1.936492 
C 1.422928 -2.450055 0.726289 -2.738613 0 -2.738613 
C -0.726289 -2.738613 -1.422928 -2.450055 -1.936492 -1.936492 
C -2.450055 -1.422928 -2.738613 -0.726289 -2.738613 0 
C -2.738613 0.726289 -2.450055 1.422928 -1.936492 1.936492 
C -1.422928 2.450055 -0.726289 2.738613 0 2.738613 
z
"/>
    </defs>
    <g clip-path="url(#pac3d724aa3)">
     <use xlink:href="#C1_0_ce13608671" x="185.059973" y="95.970618" style="fill: #0369a1; fill-opacity: 0.9; stroke: #0369a1; stroke-opacity: 0.9"/>
    </g>
    <g clip-path="url(#pac3d724aa3)">
     <use xlink:href="#C1_0_ce13608671" x="152.174" y="256.371429" style="fill: #0369a1; fill-opacity: 0.9; stroke: #0369a1; stroke-opacity: 0.9"/>
    </g>
    <g clip-path="url(#pac3d724aa3)">
     <use xlink:href="#C1_0_ce13608671" x="283.717892" y="256.371429" style="fill: #0369a1; fill-opacity: 0.9; stroke: #0369a1; stroke-opacity: 0.9"/>
    </g>
    <g clip-path="url(#pac3d724aa3)">
     <use xlink:href="#C1_0_ce13608671" x="160.98577" y="272.814415" style="fill: #0369a1; fill-opacity: 0.9; stroke: #0369a1; stroke-opacity: 0.9"/>
    </g>
    <g clip-path="url(#pac3d724aa3)">
     <use xlink:href="#C1_0_ce13608671" x="274.906122" y="140.893693" style="fill: #0369a1; fill-opacity: 0.9; stroke: #0369a1; stroke-opacity: 0.9"/>
    </g>
    <g clip-path="url(#pac3d724aa3)">
     <use xlink:href="#C1_0_ce13608671" x="269.818644" y="282.307778" style="fill: #0369a1; fill-opacity: 0.9; stroke: #0369a1; stroke-opacity: 0.9"/>
    </g>
    <g clip-path="url(#pac3d724aa3)">
     <use xlink:href="#C1_0_ce13608671" x="152.174" y="157.336679" style="fill: #0369a1; fill-opacity: 0.9; stroke: #0369a1; stroke-opacity: 0.9"/>
    </g>
    <g clip-path="url(#pac3d724aa3)">
     <use xlink:href="#C1_0_ce13608671" x="283.717892" y="157.336679" style="fill: #0369a1; fill-opacity: 0.9; stroke: #0369a1; stroke-opacity: 0.9"/>
    </g>
    <g clip-path="url(#pac3d724aa3)">
     <use xlink:href="#C1_0_ce13608671" x="198.959221" y="291.801141" style="fill: #0369a1; fill-opacity: 0.9; stroke: #0369a1; stroke-opacity: 0.9"/>
    </g>
    <g clip-path="url(#pac3d724aa3)">
     <use xlink:href="#C1_0_ce13608671" x="160.98577" y="173.779666" style="fill: #0369a1; fill-opacity: 0.9; stroke: #0369a1; stroke-opacity: 0.9"/>
    </g>
    <g clip-path="url(#pac3d724aa3)">
     <use xlink:href="#C1_0_ce13608671" x="269.818644" y="183.273029" style="fill: #0369a1; fill-opacity: 0.9; stroke: #0369a1; stroke-opacity: 0.9"/>
    </g>
    <g clip-path="url(#pac3d724aa3)">
     <use xlink:href="#C1_0_ce13608671" x="198.959221" y="192.766391" style="fill: #0369a1; fill-opacity: 0.9; stroke: #0369a1; stroke-opacity: 0.9"/>
    </g>
   </g>
  </g>
 </g>
 <defs>
  <clipPath id="pac3d724aa3">
   <rect x="7.2" y="7.2" width="410.4" height="410.4"/>
  </clipPath>
 </defs>
</svg>
