<?xml version="1.0" encoding="utf-8" standalone="no"?>
<!DOCTYPE svg PUBLIC "-//W3C//DTD SVG 1.1//EN"
  "http://www.w3.org/Graphics/SVG/1.1/DTD/svg11.dtd">
<svg xmlns:xlink="http://www.w3.org/1999/xlink" width="424.8pt" height="424.8pt" viewBox="0 0 424.8 424.8" xmlns="http://www.w3.org/2000/svg" version="1.1">
 <metadata>
  <rdf:RDF xmlns:dc="http://purl.org/dc/elements/1.1/" xmlns:cc="http://creativecommons.org/ns#" xmlns:rdf="http://www.w3.org/1999/02/22-rdf-syntax-ns#">
   <cc:Work>
    <dc:type rdf:resource="http://purl.org/dc/dcmitype/StillImage"/>
    <dc:date>2026-01-26T17:06:14.273193</dc:date>
    <dc:format>image/svg+xml</dc:format>
    <dc:creator>
     <cc:Agent>
      <dc:title>Matplotlib v3.10.8, https://matplotlib.org/</dc:title>
     </cc:Agent>
    </dc:creator>
   </cc:Work>
  </rdf:RDF>
 </metadata>
 <defs>
  <style type="text/css">*{stroke-linejoin: round; stroke-linecap: butt}</style>
 </defs>
 <g id="figure_1">
  <g id="patch_1">
   <path d="M 0 424.8 
L 424.8 424.8 
L 424.8 0 
L 0 0 
z
" style="fill: #ffffff"/>
  </g>
  <g id="patch_2">
   <path d="M 7.2 417.6 
L 417.6 417.6 
L 417.6 7.2 
L 7.2 7.2 
z
" style="fill: #ffffff"/>
  </g>
  <g id="axes_1">
   <g id="Path3DCollection_1">
    <defs>
     <path id="C0_0_6c9a4e438f" d="M 0 2.738613 
C 0.726289 2.738613 1.422928 2.450055 1.936492 1.936492 
C 2.450055 1.422928 2.738613 0.726289 2.738613 -0 
C 2.738613 -0.726289 2.450055 -1.422928 1.936492 -1.936492 
C 1.422928 -2.450055 0.726289 -2.738613 0 -2.738613 
C -0.726289 -2.738613 -1.422928 -2.450055 -1.936492 -1.936492 
C -2.450055 -1.422928 -2.738613 -0.726289 -2.738613 0 
C -2.738613 0.726289 -2.450055 1.422928 -1.936492 1.936492 
C -1.422928 2.450055 -0.726289 2.738613 0 2.738613 
z
"/>
    </defs>
    <g clip-path="url(#p4d47117bc8)">
     <use xlink:href="#C0_0_6c9a4e438f" x="217.945946" y="148.497268" style="fill: #0369a1; fill-opacity: 0.3; stroke: #0369a1; stroke-opacity: 0.3"/>
    </g>
    <g clip-path="url(#p4d47117bc8)">
     <use xlink:href="#C0_0_6c9a4e438f" x="140.136898" y="203.685617" style="fill: #0369a1; fill-opacity: 0.3; stroke: #0369a1; stroke-opacity: 0.3"/>
    </g>
    <g clip-path="url(#p4d47117bc8)">
     <use xlink:href="#C0_0_6c9a4e438f" x="276.302732" y="231.279792" style="fill: #0369a1; fill-opacity: 0.3; stroke: #0369a1; stroke-opacity: 0.3"/>
    </g>
    <g clip-path="url(#p4d47117bc8)">
     <use xlink:href="#C0_0_6c9a4e438f" x="179.041422" y="258.873966" style="fill: #0369a1; fill-opacity: 0.3; stroke: #0369a1; stroke-opacity: 0.3"/>
    </g>
   </g>
   <g id="Poly3DCollection_1">
    <path d="M 276.302732 231.279792 
L 179.041422 258.873966 
L 140.136898 203.685617 
L 217.945946 148.497268 
z
" clip-path="url(#p4d47117bc8)" style="fill: #0ea5e9; fill-opacity: 0.7; stroke: #0369a1; stroke-opacity: 0.7; stroke-width: 1.5"/>
    <path d="M 295.754993 132.213443 
L 334.659517 187.401792 
L 276.302732 231.279792 
L 217.945946 148.497268 
z
" clip-path="url(#p4d47117bc8)" style="fill: #0ea5e9; fill-opacity: 0.7; stroke: #0369a1; stroke-opacity: 0.7; stroke-width: 1.5"/>
    <path d="M 217.945946 148.497268 
L 140.136898 203.685617 
L 101.232375 187.401792 
L 159.58916 124.071531 
z
" clip-path="url(#p4d47117bc8)" style="fill: #0ea5e9; fill-opacity: 0.7; stroke: #0369a1; stroke-opacity: 0.7; stroke-width: 1.5"/>
    <path d="M 256.85047 115.929618 
L 295.754993 132.213443 
L 217.945946 148.497268 
L 159.58916 124.071531 
z
" clip-path="url(#p4d47117bc8)" style="fill: #0ea5e9; fill-opacity: 0.7; stroke: #0369a1; stroke-opacity: 0.7; stroke-width: 1.5"/>
    <path d="M 276.302732 289.636577 
L 179.041422 297.77849 
L 179.041422 258.873966 
L 276.302732 231.279792 
z
" clip-path="url(#p4d47117bc8)" style="fill: #0ea5e9; fill-opacity: 0.7; stroke: #0369a1; stroke-opacity: 0.7; stroke-width: 1.5"/>
    <path d="M 101.232375 226.306316 
L 101.232375 187.401792 
L 140.136898 203.685617 
L 179.041422 258.873966 
L 179.041422 297.77849 
L 140.136898 281.494665 
z
" clip-path="url(#p4d47117bc8)" style="fill: #0ea5e9; fill-opacity: 0.7; stroke: #0369a1; stroke-opacity: 0.7; stroke-width: 1.5"/>
    <path d="M 101.232375 226.306316 
L 101.232375 187.401792 
L 140.136898 203.685617 
L 179.041422 258.873966 
L 179.041422 297.77849 
L 140.136898 281.494665 
z
" clip-path="url(#p4d47117bc8)" style="fill: #0ea5e9; fill-opacity: 0.7; stroke: #0369a1; stroke-opacity: 0.7; stroke-width: 1.5"/>
    <path d="M 276.302732 289.636577 
L 276.302732 231.279792 
L 334.659517 187.401792 
L 334.659517 226.306316 
z
" clip-path="url(#p4d47117bc8)" style="fill: #0ea5e9; fill-opacity: 0.7; stroke: #0369a1; stroke-opacity: 0.7; stroke-width: 1.5"/>
    <path d="M 159.58916 124.071531 
L 101.232375 187.401792 
L 101.232375 226.306316 
L 159.58916 182.428316 
z
" clip-path="url(#p4d47117bc8)" style="fill: #0ea5e9; fill-opacity: 0.7; stroke: #0369a1; stroke-opacity: 0.7; stroke-width: 1.5"/>
    <path d="M 256.85047 154.834142 
L 295.754993 210.022491 
L 334.659517 226.306316 
L 334.659517 187.401792 
L 295.754993 132.213443 
L 256.85047 115.929618 
z
" clip-path="url(#p4d47117bc8)" style="fill: #0ea5e9; fill-opacity: 0.7; stroke: #0369a1; stroke-opacity: 0.7; stroke-width: 1.5"/>
    <path d="M 256.85047 154.834142 
L 295.754993 210.022491 
L 334.659517 226.306316 
L 334.659517 187.401792 
L 295.754993 132.213443 
L 256.85047 115.929618 
z
" clip-path="url(#p4d47117bc8)" style="fill: #0ea5e9; fill-opacity: 0.7; stroke: #0369a1; stroke-opacity: 0.7; stroke-width: 1.5"/>
    <path d="M 159.58916 124.071531 
L 159.58916 182.428316 
L 256.85047 154.834142 
L 256.85047 115.929618 
z
" clip-path="url(#p4d47117bc8)" style="fill: #0ea5e9; fill-opacity: 0.7; stroke: #0369a1; stroke-opacity: 0.7; stroke-width: 1.5"/>
    <path d="M 217.945946 265.21084 
L 140.136898 281.494665 
L 179.041422 297.77849 
L 276.302732 289.636577 
z
" clip-path="url(#p4d47117bc8)" style="fill: #0ea5e9; fill-opacity: 0.7; stroke: #0369a1; stroke-opacity: 0.7; stroke-width: 1.5"/>
    <path d="M 217.945946 265.21084 
L 276.302732 289.636577 
L 334.659517 226.306316 
L 295.754993 210.022491 
z
" clip-path="url(#p4d47117bc8)" style="fill: #0ea5e9; fill-opacity: 0.7; stroke: #0369a1; stroke-opacity: 0.7; stroke-width: 1.5"/>
    <path d="M 159.58916 182.428316 
L 101.232375 226.306316 
L 140.136898 281.494665 
L 217.945946 265.21084 
z
" clip-path="url(#p4d47117bc8)" style="fill: #0ea5e9; fill-opacity: 0.7; stroke: #0369a1; stroke-opacity: 0.7; stroke-width: 1.5"/>
    <path d="M 159.58916 182.428316 
L 217.945946 265.21084 
L 295.754993 210.022491 
L 256.85047 154.834142 
z
" clip-path="url(#p4d47117bc8)" style="fill: #0ea5e9; fill-opacity: 0.7; stroke: #0369a1; stroke-opacity: 0.7; stroke-width: 1.5"/>
   </g>
   <g id="Path3DCollection_2">
    <defs>
     <path id="C1_0_5fc70888b8" d="M 0 2.738613 
C 0.726289 2.738613 1.422928 2.450055 1.936492 1.936492 
C 2.450055 1.422928 2.738613 0.726289 2.738613 -0 
C 2.738613 -0.726289 2.450055 -1.422928 1.936492 -1.936492 
C 1.422928 -2.450055 0.726289 -2.738613 0 -2.738613 
C -0.726289 -2.738613 -1.422928 -2.450055 -1.936492 -1.936492 
C -2.450055 -1.422928 -2.738613 -0.726289 -2.738613 0 
C -2.738613 0.726289 -2.450055 1.422928 -1.936492 1.936492 
C -1.422928 2.450055 -0.726289 2.738613 0 2.738613 
z
"/>
    </defs>
    <g clip-path="url(#p4d47117bc8)">
     <use xlink:href="#C1_0_5fc70888b8" x="295.754993" y="132.213443" style="fill: #0369a1; fill-opacity: 0.9; stroke: #0369a1; stroke-opacity: 0.9"/>
    </g>
    <g clip-path="url(#p4d47117bc8)">
     <use xlink:href="#C1_0_5fc70888b8" x="334.659517" y="187.401792" style="fill: #0369a1; fill-opacity: 0.9; stroke: #0369a1; stroke-opacity: 0.9"/>
    </g>
    <g clip-path="url(#p4d47117bc8)">
     <use xlink:href="#C1_0_5fc70888b8" x="101.232375" y="187.401792" style="fill: #0369a1; fill-opacity: 0.9; stroke: #0369a1; stroke-opacity: 0.9"/>
    </g>
    <g clip-path="url(#p4d47117bc8)">
     <use xlink:href="#C1_0_5fc70888b8" x="159.58916" y="124.071531" style="fill: #0369a1; fill-opacity: 0.9; stroke: #0369a1; stroke-opacity: 0.9"/>
    </g>
    <g clip-path="url(#p4d47117bc8)">
     <use xlink:href="#C1_0_5fc70888b8" x="179.041422" y="297.77849" style="fill: #0369a1; fill-opacity: 0.9; stroke: #0369a1; stroke-opacity: 0.9"/>
    </g>
    <g clip-path="url(#p4d47117bc8)">
     <use xlink:href="#C1_0_5fc70888b8" x="256.85047" y="115.929618" style="fill: #0369a1; fill-opacity: 0.9; stroke: #0369a1; stroke-opacity: 0.9"/>
    </g>
    <g clip-path="url(#p4d47117bc8)">
     <use xlink:href="#C1_0_5fc70888b8" x="276.302732" y="289.636577" style="fill: #0369a1; fill-opacity: 0.9; stroke: #0369a1; stroke-opacity: 0.9"/>
    </g>
    <g clip-path="url(#p4d47117bc8)">
     <use xlink:href="#C1_0_5fc70888b8" x="334.659517" y="226.306316" style="fill: #0369a1; fill-opacity: 0.9; stroke: #0369a1; stroke-opacity: 0.9"/>
    </g>
    <g clip-path="url(#p4d47117bc8)">
     <use xlink:href="#C1_0_5fc70888b8" x="101.232375" y="226.306316" style="fill: #0369a1; fill-opacity: 0.9; stroke: #0369a1; stroke-opacity: 0.9"/>
    </g>
    <g clip-path="url(#p4d47117bc8)">
     <use xlink:href="#C1_0_5fc70888b8" x="140.136898" y="281.494665" style="fill: #0369a1; fill-opacity: 0.9; stroke: #0369a1; stroke-opacity: 0.9"/>
    </g>
    <g clip-path="url(#p4d47117bc8)">
     <use xlink:href="#C1_0_5fc70888b8" x="256.85047" y="154.834142" style="fill: #0369a1; fill-opacity: 0.9; stroke: #0369a1; stroke-opacity: 0.9"/>
    </g>
    <g clip-path="url(#p4d47117bc8)">
     <use xlink:href="#C1_0_5fc70888b8" x="159.58916" y="182.428316" style="fill: #0369a1; fill-opacity: 0.9; stroke: #0369a1; stroke-opacity: 0.9"/>
    </g>
    <g clip-path="url(#p4d47117bc8)">
     <use xlink:href="#C1_0_5fc70888b8" x="295.754993" y="210.022491" style="fill: #0369a1; fill-opacity: 0.9; stroke: #0369a1; stroke-opacity: 0.9"/>
    </g>
    <g clip-path="url(#p4d47117bc8)">
     <use xlink:href="#C1_0_5fc70888b8" x="217.945946" y="265.21084" style="fill: #0369a1; fill-opacity: 0.9; stroke: #0369a1; stroke-opacity: 0.9"/>
    </g>
   </g>
  </g>
 </g>
 <defs>
  <clipPath id="p4d47117bc8">
   <rect x="7.2" y="7.2" width="410.4" height="410.4"/>
  </clipPath>
 </defs>
</svg>
