<?xml version="1.0" encoding="utf-8" standalone="no"?>
<!DOCTYPE svg PUBLIC "-//W3C//DTD SVG 1.1//EN"
  "http://www.w3.org/Graphics/SVG/1.1/DTD/svg11.dtd">
<svg xmlns:xlink="http://www.w3.org/1999/xlink" width="424.8pt" height="424.8pt" viewBox="0 0 424.8 424.8" xmlns="http://www.w3.org/2000/svg" version="1.1">
 <metadata>
  <rdf:RDF xmlns:dc="http://purl.org/dc/elements/1.1/" xmlns:cc="http://creativecommons.org/ns#" xmlns:rdf="http://www.w3.org/1999/02/22-rdf-syntax-ns#">
   <cc:Work>
    <dc:type rdf:resource="http://purl.org/dc/dcmitype/StillImage"/>
    <dc:date>2026-01-27T08:32:32.497265</dc:date>
    <dc:format>image/svg+xml</dc:format>
    <dc:creator>
     <cc:Agent>
      <dc:title>Matplotlib v3.10.8, https://matplotlib.org/</dc:title>
     </cc:Agent>
    </dc:creator>
   </cc:Work>
  </rdf:RDF>
 </metadata>
 <defs>
  <style type="text/css">*{stroke-linejoin: round; stroke-linecap: butt}</style>
 </defs>
 <g id="figure_1">
  <g id="patch_1">
   <path d="M 0 424.8 
L 424.8 424.8 
L 424.8 0 
L 0 0 
z
" style="fill: #ffffff"/>
  </g>
  <g id="patch_2">
   <path d="M 7.2 417.6 
L 417.6 417.6 
L 417.6 7.2 
L 7.2 7.2 
z
" style="fill: #ffffff"/>
  </g>
  <g id="axes_1">
   <g id="Path3DCollection_1">
    <defs>
     <path id="C0_0_871e9e09ee" d="M 0 2.738613 
C 0.726289 2.738613 1.422928 2.450055 1.936492 1.936492 
C 2.450055 1.422928 2.738613 0.726289 2.738613 -0 
C 2.738613 -0.726289 2.450055 -1.422928 1.936492 -1.936492 
C 1.422928 -2.450055 0.726289 -2.738613 0 -2.738613 
C -0.726289 -2.738613 -1.422928 -2.450055 -1.936492 -1.936492 
C -2.450055 -1.422928 -2.738613 -0.726289 -2.738613 0 
C -2.738613 0.726289 -2.450055 1.422928 -1.936492 1.936492 
C -1.422928 2.450055 -0.726289 2.738613 0 2.738613 
z
"/>
    </defs>
    <g clip-path="url(#p7064f035ba)">
     <use xlink:href="#C0_0_871e9e09ee" x="217.945946" y="203.05193" style="fill: #0369a1; fill-opacity: 0.3; stroke: #0369a1; stroke-opacity: 0.3"/>
    </g>
    <g clip-path="url(#p7064f035ba)">
     <use xlink:href="#C0_0_871e9e09ee" x="280.193184" y="174.46306" style="fill: #0369a1; fill-opacity: 0.3; stroke: #0369a1; stroke-opacity: 0.3"/>
    </g>
   </g>
   <g id="Poly3DCollection_1">
    <path d="M 280.193184 174.46306 
L 249.069565 278.326228 
L 124.575089 249.737358 
L 155.698708 145.874191 
z
" clip-path="url(#p7064f035ba)" style="fill: #0ea5e9; fill-opacity: 0.7; stroke: #0369a1; stroke-opacity: 0.7; stroke-width: 1.5"/>
    <path d="M 311.316803 163.97075 
L 311.316803 249.737358 
L 217.945946 203.05193 
L 217.945946 117.285321 
z
" clip-path="url(#p7064f035ba)" style="fill: #0ea5e9; fill-opacity: 0.7; stroke: #0369a1; stroke-opacity: 0.7; stroke-width: 1.5"/>
    <path d="M 217.945946 203.05193 
L 124.575089 249.737358 
L 124.575089 163.97075 
L 217.945946 117.285321 
z
" clip-path="url(#p7064f035ba)" style="fill: #0ea5e9; fill-opacity: 0.7; stroke: #0369a1; stroke-opacity: 0.7; stroke-width: 1.5"/>
    <path d="M 217.945946 296.422787 
L 124.575089 249.737358 
L 217.945946 203.05193 
L 311.316803 249.737358 
z
" clip-path="url(#p7064f035ba)" style="fill: #0ea5e9; fill-opacity: 0.7; stroke: #0369a1; stroke-opacity: 0.7; stroke-width: 1.5"/>
    <path d="M 311.316803 163.97075 
L 280.193184 174.46306 
L 155.698708 145.874191 
L 186.822327 135.38188 
z
" clip-path="url(#p7064f035ba)" style="fill: #0ea5e9; fill-opacity: 0.7; stroke: #0369a1; stroke-opacity: 0.7; stroke-width: 1.5"/>
    <path d="M 280.193184 267.833917 
L 249.069565 278.326228 
L 280.193184 174.46306 
L 311.316803 163.97075 
z
" clip-path="url(#p7064f035ba)" style="fill: #0ea5e9; fill-opacity: 0.7; stroke: #0369a1; stroke-opacity: 0.7; stroke-width: 1.5"/>
    <path d="M 155.698708 145.874191 
L 124.575089 249.737358 
L 155.698708 239.245048 
L 186.822327 135.38188 
z
" clip-path="url(#p7064f035ba)" style="fill: #0ea5e9; fill-opacity: 0.7; stroke: #0369a1; stroke-opacity: 0.7; stroke-width: 1.5"/>
    <path d="M 155.698708 239.245048 
L 124.575089 249.737358 
L 249.069565 278.326228 
L 280.193184 267.833917 
z
" clip-path="url(#p7064f035ba)" style="fill: #0ea5e9; fill-opacity: 0.7; stroke: #0369a1; stroke-opacity: 0.7; stroke-width: 1.5"/>
    <path d="M 217.945946 117.285321 
L 124.575089 163.97075 
L 217.945946 210.656178 
L 311.316803 163.97075 
z
" clip-path="url(#p7064f035ba)" style="fill: #0ea5e9; fill-opacity: 0.7; stroke: #0369a1; stroke-opacity: 0.7; stroke-width: 1.5"/>
    <path d="M 124.575089 163.97075 
L 124.575089 249.737358 
L 217.945946 296.422787 
L 217.945946 210.656178 
z
" clip-path="url(#p7064f035ba)" style="fill: #0ea5e9; fill-opacity: 0.7; stroke: #0369a1; stroke-opacity: 0.7; stroke-width: 1.5"/>
    <path d="M 217.945946 210.656178 
L 217.945946 296.422787 
L 311.316803 249.737358 
L 311.316803 163.97075 
z
" clip-path="url(#p7064f035ba)" style="fill: #0ea5e9; fill-opacity: 0.7; stroke: #0369a1; stroke-opacity: 0.7; stroke-width: 1.5"/>
    <path d="M 186.822327 135.38188 
L 155.698708 239.245048 
L 280.193184 267.833917 
L 311.316803 163.97075 
z
" clip-path="url(#p7064f035ba)" style="fill: #0ea5e9; fill-opacity: 0.7; stroke: #0369a1; stroke-opacity: 0.7; stroke-width: 1.5"/>
   </g>
   <g id="Path3DCollection_2">
    <defs>
     <path id="C1_0_2d8e542472" d="M 0 2.738613 
C 0.726289 2.738613 1.422928 2.450055 1.936492 1.936492 
C 2.450055 1.422928 2.738613 0.726289 2.738613 -0 
C 2.738613 -0.726289 2.450055 -1.422928 1.936492 -1.936492 
C 1.422928 -2.450055 0.726289 -2.738613 0 -2.738613 
C -0.726289 -2.738613 -1.422928 -2.450055 -1.936492 -1.936492 
C -2.450055 -1.422928 -2.738613 -0.726289 -2.738613 0 
C -2.738613 0.726289 -2.450055 1.422928 -1.936492 1.936492 
C -1.422928 2.450055 -0.726289 2.738613 0 2.738613 
z
"/>
    </defs>
    <g clip-path="url(#p7064f035ba)">
     <use xlink:href="#C1_0_2d8e542472" x="155.698708" y="145.874191" style="fill: #0369a1; fill-opacity: 0.9; stroke: #0369a1; stroke-opacity: 0.9"/>
    </g>
    <g clip-path="url(#p7064f035ba)">
     <use xlink:href="#C1_0_2d8e542472" x="217.945946" y="117.285321" style="fill: #0369a1; fill-opacity: 0.9; stroke: #0369a1; stroke-opacity: 0.9"/>
    </g>
    <g clip-path="url(#p7064f035ba)">
     <use xlink:href="#C1_0_2d8e542472" x="249.069565" y="278.326228" style="fill: #0369a1; fill-opacity: 0.9; stroke: #0369a1; stroke-opacity: 0.9"/>
    </g>
    <g clip-path="url(#p7064f035ba)">
     <use xlink:href="#C1_0_2d8e542472" x="124.575089" y="249.737358" style="fill: #0369a1; fill-opacity: 0.9; stroke: #0369a1; stroke-opacity: 0.9"/>
    </g>
    <g clip-path="url(#p7064f035ba)">
     <use xlink:href="#C1_0_2d8e542472" x="311.316803" y="249.737358" style="fill: #0369a1; fill-opacity: 0.9; stroke: #0369a1; stroke-opacity: 0.9"/>
    </g>
    <g clip-path="url(#p7064f035ba)">
     <use xlink:href="#C1_0_2d8e542472" x="124.575089" y="249.737358" style="fill: #0369a1; fill-opacity: 0.9; stroke: #0369a1; stroke-opacity: 0.9"/>
    </g>
    <g clip-path="url(#p7064f035ba)">
     <use xlink:href="#C1_0_2d8e542472" x="311.316803" y="163.97075" style="fill: #0369a1; fill-opacity: 0.9; stroke: #0369a1; stroke-opacity: 0.9"/>
    </g>
    <g clip-path="url(#p7064f035ba)">
     <use xlink:href="#C1_0_2d8e542472" x="311.316803" y="163.97075" style="fill: #0369a1; fill-opacity: 0.9; stroke: #0369a1; stroke-opacity: 0.9"/>
    </g>
    <g clip-path="url(#p7064f035ba)">
     <use xlink:href="#C1_0_2d8e542472" x="124.575089" y="163.97075" style="fill: #0369a1; fill-opacity: 0.9; stroke: #0369a1; stroke-opacity: 0.9"/>
    </g>
    <g clip-path="url(#p7064f035ba)">
     <use xlink:href="#C1_0_2d8e542472" x="186.822327" y="135.38188" style="fill: #0369a1; fill-opacity: 0.9; stroke: #0369a1; stroke-opacity: 0.9"/>
    </g>
    <g clip-path="url(#p7064f035ba)">
     <use xlink:href="#C1_0_2d8e542472" x="217.945946" y="296.422787" style="fill: #0369a1; fill-opacity: 0.9; stroke: #0369a1; stroke-opacity: 0.9"/>
    </g>
    <g clip-path="url(#p7064f035ba)">
     <use xlink:href="#C1_0_2d8e542472" x="280.193184" y="267.833917" style="fill: #0369a1; fill-opacity: 0.9; stroke: #0369a1; stroke-opacity: 0.9"/>
    </g>
    <g clip-path="url(#p7064f035ba)">
     <use xlink:href="#C1_0_2d8e542472" x="155.698708" y="239.245048" style="fill: #0369a1; fill-opacity: 0.9; stroke: #0369a1; stroke-opacity: 0.9"/>
    </g>
    <g clip-path="url(#p7064f035ba)">
     <use xlink:href="#C1_0_2d8e542472" x="217.945946" y="210.656178" style="fill: #0369a1; fill-opacity: 0.9; stroke: #0369a1; stroke-opacity: 0.9"/>
    </g>
   </g>
  </g>
 </g>
 <defs>
  <clipPath id="p7064f035ba">
   <rect x="7.2" y="7.2" width="410.4" height="410.4"/>
  </clipPath>
 </defs>
</svg>
