<?xml version="1.0" encoding="utf-8" standalone="no"?>
<!DOCTYPE svg PUBLIC "-//W3C//DTD SVG 1.1//EN"
  "http://www.w3.org/Graphics/SVG/1.1/DTD/svg11.dtd">
<svg xmlns:xlink="http://www.w3.org/1999/xlink" width="424.8pt" height="424.8pt" viewBox="0 0 424.8 424.8" xmlns="http://www.w3.org/2000/svg" version="1.1">
 <metadata>
  <rdf:RDF xmlns:dc="http://purl.org/dc/elements/1.1/" xmlns:cc="http://creativecommons.org/ns#" xmlns:rdf="http://www.w3.org/1999/02/22-rdf-syntax-ns#">
   <cc:Work>
    <dc:type rdf:resource="http://purl.org/dc/dcmitype/StillImage"/>
    <dc:date>2026-01-27T08:32:32.781068</dc:date>
    <dc:format>image/svg+xml</dc:format>
    <dc:creator>
     <cc:Agent>
      <dc:title>Matplotlib v3.10.8, https://matplotlib.org/</dc:title>
     </cc:Agent>
    </dc:creator>
   </cc:Work>
  </rdf:RDF>
 </metadata>
 <defs>
  <style type="text/css">*{stroke-linejoin: round; stroke-linecap: butt}</style>
 </defs>
 <g id="figure_1">
  <g id="patch_1">
   <path d="M 0 424.8 
L 424.8 424.8 
L 424.8 0 
L 0 0 
z
" style="fill: #ffffff"/>
  </g>
  <g id="patch_2">
   <path d="M 7.2 417.6 
L 417.6 417.6 
L 417.6 7.2 
L 7.2 7.2 
z
" style="fill: #ffffff"/>
  </g>
  <g id="axes_1">
   <g id="Path3DCollection_1">
    <defs>
     <path id="C0_0_2b8433887d" d="M 0 2.738613 
C 0.726289 2.738613 1.422928 2.450055 1.936492 1.936492 
C 2.450055 1.422928 2.738613 0.726289 2.738613 -0 
C 2.738613 -0.726289 2.450055 -1.422928 1.936492 -1.936492 
C 1.422928 -2.450055 0.726289 -2.738613 0 -2.738613 
C -0.726289 -2.738613 -1.422928 -2.450055 -1.936492 -1.936492 
C -2.450055 -1.422928 -2.738613 -0.726289 -2.738613 0 
C -2.738613 0.726289 -2.450055 1.422928 -1.936492 1.936492 
C -1.422928 2.450055 -0.726289 2.738613 0 2.738613 
z
"/>
    </defs>
    <g clip-path="url(#pb72bcc969e)">
     <use xlink:href="#C0_0_2b8433887d" x="206.983955" y="257.870874" style="fill: #0369a1; fill-opacity: 0.3; stroke: #0369a1; stroke-opacity: 0.3"/>
    </g>
    <g clip-path="url(#pb72bcc969e)">
     <use xlink:href="#C0_0_2b8433887d" x="247.894662" y="263.35187" style="fill: #0369a1; fill-opacity: 0.3; stroke: #0369a1; stroke-opacity: 0.3"/>
    </g>
   </g>
   <g id="Poly3DCollection_1">
    <path d="M 177.035239 272.845232 
L 206.983955 257.870874 
L 247.894662 263.35187 
L 258.856653 283.807223 
L 228.907937 298.781582 
L 187.99723 293.300586 
z
" clip-path="url(#pb72bcc969e)" style="fill: #0ea5e9; fill-opacity: 0.7; stroke: #0369a1; stroke-opacity: 0.7; stroke-width: 1.5"/>
    <path d="M 206.983955 114.926526 
L 247.894662 120.407522 
L 247.894662 263.35187 
L 206.983955 257.870874 
z
" clip-path="url(#pb72bcc969e)" style="fill: #0ea5e9; fill-opacity: 0.7; stroke: #0369a1; stroke-opacity: 0.7; stroke-width: 1.5"/>
    <path d="M 177.035239 129.900885 
L 206.983955 114.926526 
L 206.983955 257.870874 
L 177.035239 272.845232 
z
" clip-path="url(#pb72bcc969e)" style="fill: #0ea5e9; fill-opacity: 0.7; stroke: #0369a1; stroke-opacity: 0.7; stroke-width: 1.5"/>
    <path d="M 258.856653 140.862876 
L 258.856653 283.807223 
L 247.894662 263.35187 
L 247.894662 120.407522 
z
" clip-path="url(#pb72bcc969e)" style="fill: #0ea5e9; fill-opacity: 0.7; stroke: #0369a1; stroke-opacity: 0.7; stroke-width: 1.5"/>
    <path d="M 187.99723 150.356238 
L 177.035239 129.900885 
L 177.035239 272.845232 
L 187.99723 293.300586 
z
" clip-path="url(#pb72bcc969e)" style="fill: #0ea5e9; fill-opacity: 0.7; stroke: #0369a1; stroke-opacity: 0.7; stroke-width: 1.5"/>
    <path d="M 228.907937 298.781582 
L 258.856653 283.807223 
L 258.856653 140.862876 
L 228.907937 155.837234 
z
" clip-path="url(#pb72bcc969e)" style="fill: #0ea5e9; fill-opacity: 0.7; stroke: #0369a1; stroke-opacity: 0.7; stroke-width: 1.5"/>
    <path d="M 187.99723 150.356238 
L 187.99723 293.300586 
L 228.907937 298.781582 
L 228.907937 155.837234 
z
" clip-path="url(#pb72bcc969e)" style="fill: #0ea5e9; fill-opacity: 0.7; stroke: #0369a1; stroke-opacity: 0.7; stroke-width: 1.5"/>
    <path d="M 187.99723 150.356238 
L 228.907937 155.837234 
L 258.856653 140.862876 
L 247.894662 120.407522 
L 206.983955 114.926526 
L 177.035239 129.900885 
z
" clip-path="url(#pb72bcc969e)" style="fill: #0ea5e9; fill-opacity: 0.7; stroke: #0369a1; stroke-opacity: 0.7; stroke-width: 1.5"/>
   </g>
   <g id="Path3DCollection_2">
    <defs>
     <path id="C1_0_6270553c87" d="M 0 2.738613 
C 0.726289 2.738613 1.422928 2.450055 1.936492 1.936492 
C 2.450055 1.422928 2.738613 0.726289 2.738613 -0 
C 2.738613 -0.726289 2.450055 -1.422928 1.936492 -1.936492 
C 1.422928 -2.450055 0.726289 -2.738613 0 -2.738613 
C -0.726289 -2.738613 -1.422928 -2.450055 -1.936492 -1.936492 
C -2.450055 -1.422928 -2.738613 -0.726289 -2.738613 0 
C -2.738613 0.726289 -2.450055 1.422928 -1.936492 1.936492 
C -1.422928 2.450055 -0.726289 2.738613 0 2.738613 
z
"/>
    </defs>
    <g clip-path="url(#pb72bcc969e)">
     <use xlink:href="#C1_0_6270553c87" x="177.035239" y="272.845232" style="fill: #0369a1; fill-opacity: 0.9; stroke: #0369a1; stroke-opacity: 0.9"/>
    </g>
    <g clip-path="url(#pb72bcc969e)">
     <use xlink:href="#C1_0_6270553c87" x="258.856653" y="283.807223" style="fill: #0369a1; fill-opacity: 0.9; stroke: #0369a1; stroke-opacity: 0.9"/>
    </g>
    <g clip-path="url(#pb72bcc969e)">
     <use xlink:href="#C1_0_6270553c87" x="187.99723" y="293.300586" style="fill: #0369a1; fill-opacity: 0.9; stroke: #0369a1; stroke-opacity: 0.9"/>
    </g>
    <g clip-path="url(#pb72bcc969e)">
     <use xlink:href="#C1_0_6270553c87" x="228.907937" y="298.781582" style="fill: #0369a1; fill-opacity: 0.9; stroke: #0369a1; stroke-opacity: 0.9"/>
    </g>
    <g clip-path="url(#pb72bcc969e)">
     <use xlink:href="#C1_0_6270553c87" x="206.983955" y="114.926526" style="fill: #0369a1; fill-opacity: 0.9; stroke: #0369a1; stroke-opacity: 0.9"/>
    </g>
    <g clip-path="url(#pb72bcc969e)">
     <use xlink:href="#C1_0_6270553c87" x="247.894662" y="120.407522" style="fill: #0369a1; fill-opacity: 0.9; stroke: #0369a1; stroke-opacity: 0.9"/>
    </g>
    <g clip-path="url(#pb72bcc969e)">
     <use xlink:href="#C1_0_6270553c87" x="177.035239" y="129.900885" style="fill: #0369a1; fill-opacity: 0.9; stroke: #0369a1; stroke-opacity: 0.9"/>
    </g>
    <g clip-path="url(#pb72bcc969e)">
     <use xlink:href="#C1_0_6270553c87" x="258.856653" y="140.862876" style="fill: #0369a1; fill-opacity: 0.9; stroke: #0369a1; stroke-opacity: 0.9"/>
    </g>
    <g clip-path="url(#pb72bcc969e)">
     <use xlink:href="#C1_0_6270553c87" x="187.99723" y="150.356238" style="fill: #0369a1; fill-opacity: 0.9; stroke: #0369a1; stroke-opacity: 0.9"/>
    </g>
    <g clip-path="url(#pb72bcc969e)">
     <use xlink:href="#C1_0_6270553c87" x="228.907937" y="155.837234" style="fill: #0369a1; fill-opacity: 0.9; stroke: #0369a1; stroke-opacity: 0.9"/>
    </g>
   </g>
  </g>
 </g>
 <defs>
  <clipPath id="pb72bcc969e">
   <rect x="7.2" y="7.2" width="410.4" height="410.4"/>
  </clipPath>
 </defs>
</svg>
