<?xml version="1.0" encoding="utf-8" standalone="no"?>
<!DOCTYPE svg PUBLIC "-//W3C//DTD SVG 1.1//EN"
  "http://www.w3.org/Graphics/SVG/1.1/DTD/svg11.dtd">
<svg xmlns:xlink="http://www.w3.org/1999/xlink" width="568.8pt" height="568.8pt" viewBox="0 0 568.8 568.8" xmlns="http://www.w3.org/2000/svg" version="1.1">
 <metadata>
  <rdf:RDF xmlns:dc="http://purl.org/dc/elements/1.1/" xmlns:cc="http://creativecommons.org/ns#" xmlns:rdf="http://www.w3.org/1999/02/22-rdf-syntax-ns#">
   <cc:Work>
    <dc:type rdf:resource="http://purl.org/dc/dcmitype/StillImage"/>
    <dc:date>2026-02-17T11:54:28.779375</dc:date>
    <dc:format>image/svg+xml</dc:format>
    <dc:creator>
     <cc:Agent>
      <dc:title>Matplotlib v3.10.8, https://matplotlib.org/</dc:title>
     </cc:Agent>
    </dc:creator>
   </cc:Work>
  </rdf:RDF>
 </metadata>
 <defs>
  <style type="text/css">*{stroke-linejoin: round; stroke-linecap: butt}</style>
 </defs>
 <g id="figure_1">
  <g id="patch_1">
   <path d="M 0 568.8 
L 568.8 568.8 
L 568.8 0 
L 0 0 
L 0 568.8 
z
" style="fill: none; opacity: 0"/>
  </g>
  <g id="patch_2">
   <path d="M 7.2 561.6 
L 561.6 561.6 
L 561.6 7.2 
L 7.2 7.2 
L 7.2 561.6 
z
" style="fill: none; opacity: 0"/>
  </g>
  <g id="axes_1">
   <g id="Path3DCollection_1">
    <defs>
     <path id="C0_0_713bce9d48" d="M 0 2.738613 
C 0.726289 2.738613 1.422928 2.450055 1.936492 1.936492 
C 2.450055 1.422928 2.738613 0.726289 2.738613 -0 
C 2.738613 -0.726289 2.450055 -1.422928 1.936492 -1.936492 
C 1.422928 -2.450055 0.726289 -2.738613 0 -2.738613 
C -0.726289 -2.738613 -1.422928 -2.450055 -1.936492 -1.936492 
C -2.450055 -1.422928 -2.738613 -0.726289 -2.738613 0 
C -2.738613 0.726289 -2.450055 1.422928 -1.936492 1.936492 
C -1.422928 2.450055 -0.726289 2.738613 0 2.738613 
z
"/>
    </defs>
    <g clip-path="url(#peb71b3b3d7)">
     <use xlink:href="#C0_0_713bce9d48" x="292.994236" y="293.307431" style="fill: #455a64; fill-opacity: 0.3; stroke: #455a64; stroke-opacity: 0.3"/>
    </g>
    <g clip-path="url(#peb71b3b3d7)">
     <use xlink:href="#C0_0_713bce9d48" x="401.57238" y="293.307431" style="fill: #455a64; fill-opacity: 0.3; stroke: #455a64; stroke-opacity: 0.3"/>
    </g>
    <g clip-path="url(#peb71b3b3d7)">
     <use xlink:href="#C0_0_713bce9d48" x="182.211404" y="348.698847" style="fill: #455a64; fill-opacity: 0.3; stroke: #455a64; stroke-opacity: 0.3"/>
    </g>
   </g>
   <g id="Poly3DCollection_1">
    <path d="M 401.57238 150.828297 
L 401.57238 293.307431 
L 292.994236 293.307431 
L 292.994236 150.828297 
z
" clip-path="url(#peb71b3b3d7)" style="fill: #b0bec5; fill-opacity: 0.7; stroke: #455a64; stroke-opacity: 0.7; stroke-width: 1.5"/>
    <path d="M 401.57238 205.117369 
L 401.57238 347.596503 
L 401.57238 293.307431 
L 401.57238 150.828297 
z
" clip-path="url(#peb71b3b3d7)" style="fill: #b0bec5; fill-opacity: 0.7; stroke: #455a64; stroke-opacity: 0.7; stroke-width: 1.5"/>
    <path d="M 292.994236 293.307431 
L 182.211404 348.698847 
L 182.211404 206.219714 
L 292.994236 150.828297 
z
" clip-path="url(#peb71b3b3d7)" style="fill: #b0bec5; fill-opacity: 0.7; stroke: #455a64; stroke-opacity: 0.7; stroke-width: 1.5"/>
    <path d="M 401.57238 293.307431 
L 401.57238 347.596503 
L 290.789547 402.987919 
L 182.211404 402.987919 
L 182.211404 348.698847 
L 292.994236 293.307431 
z
" clip-path="url(#peb71b3b3d7)" style="fill: #b0bec5; fill-opacity: 0.7; stroke: #455a64; stroke-opacity: 0.7; stroke-width: 1.5"/>
    <path d="M 292.994236 150.828297 
L 182.211404 206.219714 
L 182.211404 260.508785 
L 290.789547 260.508785 
L 401.57238 205.117369 
L 401.57238 150.828297 
z
" clip-path="url(#peb71b3b3d7)" style="fill: #b0bec5; fill-opacity: 0.7; stroke: #455a64; stroke-opacity: 0.7; stroke-width: 1.5"/>
    <path d="M 290.789547 260.508785 
L 290.789547 402.987919 
L 401.57238 347.596503 
L 401.57238 205.117369 
z
" clip-path="url(#peb71b3b3d7)" style="fill: #b0bec5; fill-opacity: 0.7; stroke: #455a64; stroke-opacity: 0.7; stroke-width: 1.5"/>
    <path d="M 182.211404 206.219714 
L 182.211404 348.698847 
L 182.211404 402.987919 
L 182.211404 260.508785 
z
" clip-path="url(#peb71b3b3d7)" style="fill: #b0bec5; fill-opacity: 0.7; stroke: #455a64; stroke-opacity: 0.7; stroke-width: 1.5"/>
    <path d="M 182.211404 260.508785 
L 182.211404 402.987919 
L 290.789547 402.987919 
L 290.789547 260.508785 
z
" clip-path="url(#peb71b3b3d7)" style="fill: #b0bec5; fill-opacity: 0.7; stroke: #455a64; stroke-opacity: 0.7; stroke-width: 1.5"/>
   </g>
   <g id="Path3DCollection_2">
    <defs>
     <path id="C1_0_6f772dab8c" d="M 0 2.738613 
C 0.726289 2.738613 1.422928 2.450055 1.936492 1.936492 
C 2.450055 1.422928 2.738613 0.726289 2.738613 -0 
C 2.738613 -0.726289 2.450055 -1.422928 1.936492 -1.936492 
C 1.422928 -2.450055 0.726289 -2.738613 0 -2.738613 
C -0.726289 -2.738613 -1.422928 -2.450055 -1.936492 -1.936492 
C -2.450055 -1.422928 -2.738613 -0.726289 -2.738613 0 
C -2.738613 0.726289 -2.450055 1.422928 -1.936492 1.936492 
C -1.422928 2.450055 -0.726289 2.738613 0 2.738613 
z
"/>
    </defs>
    <g clip-path="url(#peb71b3b3d7)">
     <use xlink:href="#C1_0_6f772dab8c" x="292.994236" y="150.828297" style="fill: #455a64; fill-opacity: 0.9; stroke: #455a64; stroke-opacity: 0.9"/>
    </g>
    <g clip-path="url(#peb71b3b3d7)">
     <use xlink:href="#C1_0_6f772dab8c" x="401.57238" y="150.828297" style="fill: #455a64; fill-opacity: 0.9; stroke: #455a64; stroke-opacity: 0.9"/>
    </g>
    <g clip-path="url(#peb71b3b3d7)">
     <use xlink:href="#C1_0_6f772dab8c" x="401.57238" y="347.596503" style="fill: #455a64; fill-opacity: 0.9; stroke: #455a64; stroke-opacity: 0.9"/>
    </g>
    <g clip-path="url(#peb71b3b3d7)">
     <use xlink:href="#C1_0_6f772dab8c" x="401.57238" y="205.117369" style="fill: #455a64; fill-opacity: 0.9; stroke: #455a64; stroke-opacity: 0.9"/>
    </g>
    <g clip-path="url(#peb71b3b3d7)">
     <use xlink:href="#C1_0_6f772dab8c" x="182.211404" y="206.219714" style="fill: #455a64; fill-opacity: 0.9; stroke: #455a64; stroke-opacity: 0.9"/>
    </g>
    <g clip-path="url(#peb71b3b3d7)">
     <use xlink:href="#C1_0_6f772dab8c" x="290.789547" y="402.987919" style="fill: #455a64; fill-opacity: 0.9; stroke: #455a64; stroke-opacity: 0.9"/>
    </g>
    <g clip-path="url(#peb71b3b3d7)">
     <use xlink:href="#C1_0_6f772dab8c" x="182.211404" y="402.987919" style="fill: #455a64; fill-opacity: 0.9; stroke: #455a64; stroke-opacity: 0.9"/>
    </g>
    <g clip-path="url(#peb71b3b3d7)">
     <use xlink:href="#C1_0_6f772dab8c" x="290.789547" y="260.508785" style="fill: #455a64; fill-opacity: 0.9; stroke: #455a64; stroke-opacity: 0.9"/>
    </g>
    <g clip-path="url(#peb71b3b3d7)">
     <use xlink:href="#C1_0_6f772dab8c" x="182.211404" y="260.508785" style="fill: #455a64; fill-opacity: 0.9; stroke: #455a64; stroke-opacity: 0.9"/>
    </g>
   </g>
  </g>
 </g>
 <defs>
  <clipPath id="peb71b3b3d7">
   <rect x="7.2" y="7.2" width="554.4" height="554.4"/>
  </clipPath>
 </defs>
</svg>
