<?xml version="1.0" encoding="utf-8" standalone="no"?>
<!DOCTYPE svg PUBLIC "-//W3C//DTD SVG 1.1//EN"
  "http://www.w3.org/Graphics/SVG/1.1/DTD/svg11.dtd">
<svg xmlns:xlink="http://www.w3.org/1999/xlink" width="464.059457pt" height="457.92pt" viewBox="0 0 464.059457 457.92" xmlns="http://www.w3.org/2000/svg" version="1.1">
 <metadata>
  <rdf:RDF xmlns:dc="http://purl.org/dc/elements/1.1/" xmlns:cc="http://creativecommons.org/ns#" xmlns:rdf="http://www.w3.org/1999/02/22-rdf-syntax-ns#">
   <cc:Work>
    <dc:type rdf:resource="http://purl.org/dc/dcmitype/StillImage"/>
    <dc:date>2026-02-02T15:08:42.836233</dc:date>
    <dc:format>image/svg+xml</dc:format>
    <dc:creator>
     <cc:Agent>
      <dc:title>Matplotlib v3.10.8, https://matplotlib.org/</dc:title>
     </cc:Agent>
    </dc:creator>
   </cc:Work>
  </rdf:RDF>
 </metadata>
 <defs>
  <style type="text/css">*{stroke-linejoin: round; stroke-linecap: butt}</style>
 </defs>
 <g id="figure_1">
  <g id="patch_1">
   <path d="M 0 457.92 
L 464.059457 457.92 
L 464.059457 0 
L 0 0 
z
" style="fill: #ffffff"/>
  </g>
  <g id="patch_2">
   <path d="M 7.2 450.72 
L 450.72 450.72 
L 450.72 7.2 
L 7.2 7.2 
z
" style="fill: #ffffff"/>
  </g>
  <g id="pane3d_1">
   <g id="patch_3">
    <path d="M 33.141415 315.654611 
L 234.953514 214.748562 
L 234.953514 29.372313 
L 33.141415 130.278362 
" style="fill: #f2f2f2; opacity: 0.5; stroke: #f2f2f2; stroke-linejoin: miter"/>
   </g>
  </g>
  <g id="pane3d_2">
   <g id="patch_4">
    <path d="M 234.953514 214.748562 
L 436.765612 315.654611 
L 436.765612 130.278362 
L 234.953514 29.372313 
" style="fill: #e6e6e6; opacity: 0.5; stroke: #e6e6e6; stroke-linejoin: miter"/>
   </g>
  </g>
  <g id="pane3d_3">
   <g id="patch_5">
    <path d="M 33.141415 315.654611 
L 234.953514 416.56066 
L 436.765612 315.654611 
L 234.953514 214.748562 
" style="fill: #ececec; opacity: 0.5; stroke: #ececec; stroke-linejoin: miter"/>
   </g>
  </g>
  <g id="grid3d_1">
   <g id="Line3DCollection_1">
    <path d="M 58.031151 328.099479 
L 259.843249 227.19343 
L 259.843249 41.817181 
" style="fill: none; stroke: #b0b0b0; stroke-width: 0.8"/>
    <path d="M 84.01023 341.089018 
L 285.822328 240.182969 
L 285.822328 54.80672 
" style="fill: none; stroke: #b0b0b0; stroke-width: 0.8"/>
    <path d="M 109.989308 354.078557 
L 311.801406 253.172508 
L 311.801406 67.796259 
" style="fill: none; stroke: #b0b0b0; stroke-width: 0.8"/>
    <path d="M 135.968387 367.068097 
L 337.780485 266.162048 
L 337.780485 80.785799 
" style="fill: none; stroke: #b0b0b0; stroke-width: 0.8"/>
    <path d="M 161.947465 380.057636 
L 363.759563 279.151587 
L 363.759563 93.775338 
" style="fill: none; stroke: #b0b0b0; stroke-width: 0.8"/>
    <path d="M 187.926544 393.047175 
L 389.738642 292.141126 
L 389.738642 106.764877 
" style="fill: none; stroke: #b0b0b0; stroke-width: 0.8"/>
    <path d="M 213.905623 406.036715 
L 415.717721 305.130666 
L 415.717721 119.754417 
" style="fill: none; stroke: #b0b0b0; stroke-width: 0.8"/>
   </g>
  </g>
  <g id="grid3d_2">
   <g id="Line3DCollection_2">
    <path d="M 58.031151 117.833494 
L 58.031151 303.209743 
L 259.843249 404.115792 
" style="fill: none; stroke: #b0b0b0; stroke-width: 0.8"/>
    <path d="M 84.01023 104.843955 
L 84.01023 290.220204 
L 285.822328 391.126253 
" style="fill: none; stroke: #b0b0b0; stroke-width: 0.8"/>
    <path d="M 109.989308 91.854416 
L 109.989308 277.230665 
L 311.801406 378.136714 
" style="fill: none; stroke: #b0b0b0; stroke-width: 0.8"/>
    <path d="M 135.968387 78.864876 
L 135.968387 264.241125 
L 337.780485 365.147174 
" style="fill: none; stroke: #b0b0b0; stroke-width: 0.8"/>
    <path d="M 161.947465 65.875337 
L 161.947465 251.251586 
L 363.759563 352.157635 
" style="fill: none; stroke: #b0b0b0; stroke-width: 0.8"/>
    <path d="M 187.926544 52.885798 
L 187.926544 238.262047 
L 389.738642 339.168096 
" style="fill: none; stroke: #b0b0b0; stroke-width: 0.8"/>
    <path d="M 213.905623 39.896258 
L 213.905623 225.272507 
L 415.717721 326.178556 
" style="fill: none; stroke: #b0b0b0; stroke-width: 0.8"/>
   </g>
  </g>
  <g id="grid3d_3">
   <g id="Line3DCollection_3">
    <path d="M 436.765612 293.674169 
L 234.953514 192.76812 
L 33.141415 293.674169 
" style="fill: none; stroke: #b0b0b0; stroke-width: 0.8"/>
    <path d="M 436.765612 269.810862 
L 234.953514 168.904812 
L 33.141415 269.810862 
" style="fill: none; stroke: #b0b0b0; stroke-width: 0.8"/>
    <path d="M 436.765612 245.947554 
L 234.953514 145.041505 
L 33.141415 245.947554 
" style="fill: none; stroke: #b0b0b0; stroke-width: 0.8"/>
    <path d="M 436.765612 222.084247 
L 234.953514 121.178198 
L 33.141415 222.084247 
" style="fill: none; stroke: #b0b0b0; stroke-width: 0.8"/>
    <path d="M 436.765612 198.220939 
L 234.953514 97.31489 
L 33.141415 198.220939 
" style="fill: none; stroke: #b0b0b0; stroke-width: 0.8"/>
    <path d="M 436.765612 174.357632 
L 234.953514 73.451583 
L 33.141415 174.357632 
" style="fill: none; stroke: #b0b0b0; stroke-width: 0.8"/>
    <path d="M 436.765612 150.494324 
L 234.953514 49.588275 
L 33.141415 150.494324 
" style="fill: none; stroke: #b0b0b0; stroke-width: 0.8"/>
   </g>
  </g>
  <g id="axis3d_1">
   <g id="line2d_1">
    <path d="M 33.141415 315.654611 
L 234.953514 416.56066 
" style="fill: none; stroke: #000000; stroke-width: 0.8; stroke-linecap: square"/>
   </g>
   <g id="xtick_1">
    <g id="line2d_2">
     <path d="M 59.645648 327.29223 
L 54.802157 329.713976 
" style="fill: none; stroke: #000000; stroke-width: 0.8; stroke-linecap: square"/>
    </g>
   </g>
   <g id="xtick_2">
    <g id="line2d_3">
     <path d="M 85.624726 340.28177 
L 80.781236 342.703515 
" style="fill: none; stroke: #000000; stroke-width: 0.8; stroke-linecap: square"/>
    </g>
   </g>
   <g id="xtick_3">
    <g id="line2d_4">
     <path d="M 111.603805 353.271309 
L 106.760315 355.693054 
" style="fill: none; stroke: #000000; stroke-width: 0.8; stroke-linecap: square"/>
    </g>
   </g>
   <g id="xtick_4">
    <g id="line2d_5">
     <path d="M 137.582884 366.260848 
L 132.739393 368.682593 
" style="fill: none; stroke: #000000; stroke-width: 0.8; stroke-linecap: square"/>
    </g>
   </g>
   <g id="xtick_5">
    <g id="line2d_6">
     <path d="M 163.561962 379.250388 
L 158.718472 381.672133 
" style="fill: none; stroke: #000000; stroke-width: 0.8; stroke-linecap: square"/>
    </g>
   </g>
   <g id="xtick_6">
    <g id="line2d_7">
     <path d="M 189.541041 392.239927 
L 184.69755 394.661672 
" style="fill: none; stroke: #000000; stroke-width: 0.8; stroke-linecap: square"/>
    </g>
   </g>
   <g id="xtick_7">
    <g id="line2d_8">
     <path d="M 215.520119 405.229466 
L 210.676629 407.651211 
" style="fill: none; stroke: #000000; stroke-width: 0.8; stroke-linecap: square"/>
    </g>
   </g>
  </g>
  <g id="axis3d_2">
   <g id="line2d_9">
    <path d="M 436.765612 315.654611 
L 234.953514 416.56066 
" style="fill: none; stroke: #000000; stroke-width: 0.8; stroke-linecap: square"/>
   </g>
   <g id="xtick_8">
    <g id="line2d_10">
     <path d="M 258.228752 403.308544 
L 263.072243 405.730289 
" style="fill: none; stroke: #000000; stroke-width: 0.8; stroke-linecap: square"/>
    </g>
   </g>
   <g id="xtick_9">
    <g id="line2d_11">
     <path d="M 284.207831 390.319005 
L 289.051321 392.74075 
" style="fill: none; stroke: #000000; stroke-width: 0.8; stroke-linecap: square"/>
    </g>
   </g>
   <g id="xtick_10">
    <g id="line2d_12">
     <path d="M 310.186909 377.329465 
L 315.0304 379.75121 
" style="fill: none; stroke: #000000; stroke-width: 0.8; stroke-linecap: square"/>
    </g>
   </g>
   <g id="xtick_11">
    <g id="line2d_13">
     <path d="M 336.165988 364.339926 
L 341.009478 366.761671 
" style="fill: none; stroke: #000000; stroke-width: 0.8; stroke-linecap: square"/>
    </g>
   </g>
   <g id="xtick_12">
    <g id="line2d_14">
     <path d="M 362.145067 351.350387 
L 366.988557 353.772132 
" style="fill: none; stroke: #000000; stroke-width: 0.8; stroke-linecap: square"/>
    </g>
   </g>
   <g id="xtick_13">
    <g id="line2d_15">
     <path d="M 388.124145 338.360847 
L 392.967636 340.782593 
" style="fill: none; stroke: #000000; stroke-width: 0.8; stroke-linecap: square"/>
    </g>
   </g>
   <g id="xtick_14">
    <g id="line2d_16">
     <path d="M 414.103224 325.371308 
L 418.946714 327.793053 
" style="fill: none; stroke: #000000; stroke-width: 0.8; stroke-linecap: square"/>
    </g>
   </g>
  </g>
  <g id="axis3d_3">
   <g id="line2d_17">
    <path d="M 436.765612 315.654611 
L 436.765612 130.278362 
" style="fill: none; stroke: #000000; stroke-width: 0.8; stroke-linecap: square"/>
   </g>
   <g id="xtick_15">
    <g id="line2d_18">
     <path d="M 435.151115 292.866921 
L 439.994605 295.288666 
" style="fill: none; stroke: #000000; stroke-width: 0.8; stroke-linecap: square"/>
    </g>
   </g>
   <g id="xtick_16">
    <g id="line2d_19">
     <path d="M 435.151115 269.003613 
L 439.994605 271.425358 
" style="fill: none; stroke: #000000; stroke-width: 0.8; stroke-linecap: square"/>
    </g>
   </g>
   <g id="xtick_17">
    <g id="line2d_20">
     <path d="M 435.151115 245.140306 
L 439.994605 247.562051 
" style="fill: none; stroke: #000000; stroke-width: 0.8; stroke-linecap: square"/>
    </g>
   </g>
   <g id="xtick_18">
    <g id="line2d_21">
     <path d="M 435.151115 221.276998 
L 439.994605 223.698743 
" style="fill: none; stroke: #000000; stroke-width: 0.8; stroke-linecap: square"/>
    </g>
   </g>
   <g id="xtick_19">
    <g id="line2d_22">
     <path d="M 435.151115 197.413691 
L 439.994605 199.835436 
" style="fill: none; stroke: #000000; stroke-width: 0.8; stroke-linecap: square"/>
    </g>
   </g>
   <g id="xtick_20">
    <g id="line2d_23">
     <path d="M 435.151115 173.550383 
L 439.994605 175.972128 
" style="fill: none; stroke: #000000; stroke-width: 0.8; stroke-linecap: square"/>
    </g>
   </g>
   <g id="xtick_21">
    <g id="line2d_24">
     <path d="M 435.151115 149.687076 
L 439.994605 152.108821 
" style="fill: none; stroke: #000000; stroke-width: 0.8; stroke-linecap: square"/>
    </g>
   </g>
  </g>
  <g id="axes_1">
   <g id="Path3DCollection_1">
    <defs>
     <path id="C0_0_954ddb89a5" d="M 0 2.738613 
C 0.726289 2.738613 1.422928 2.450055 1.936492 1.936492 
C 2.450055 1.422928 2.738613 0.726289 2.738613 -0 
C 2.738613 -0.726289 2.450055 -1.422928 1.936492 -1.936492 
C 1.422928 -2.450055 0.726289 -2.738613 0 -2.738613 
C -0.726289 -2.738613 -1.422928 -2.450055 -1.936492 -1.936492 
C -2.450055 -1.422928 -2.738613 -0.726289 -2.738613 0 
C -2.738613 0.726289 -2.450055 1.422928 -1.936492 1.936492 
C -1.422928 2.450055 -0.726289 2.738613 0 2.738613 
z
"/>
    </defs>
    <g clip-path="url(#pc441031152)">
     <use xlink:href="#C0_0_954ddb89a5" x="194.7074" y="186.263402" style="fill: #bf360c; fill-opacity: 0.3; stroke: #bf360c; stroke-opacity: 0.3"/>
    </g>
    <g clip-path="url(#pc441031152)">
     <use xlink:href="#C0_0_954ddb89a5" x="282.883316" y="230.35136" style="fill: #bf360c; fill-opacity: 0.3; stroke: #bf360c; stroke-opacity: 0.3"/>
    </g>
   </g>
   <g id="text_1">
    <!-- a -->
    <g style="fill: #e53935" transform="translate(123.510059 260.187371) scale(0.14 -0.14)">
     <defs>
      <path id="DejaVuSans-Bold-61" d="M 2106 1575 
Q 1756 1575 1579 1456 
Q 1403 1338 1403 1106 
Q 1403 894 1545 773 
Q 1688 653 1941 653 
Q 2256 653 2472 879 
Q 2688 1106 2688 1447 
L 2688 1575 
L 2106 1575 
z
M 3816 1997 
L 3816 0 
L 2688 0 
L 2688 519 
Q 2463 200 2181 54 
Q 1900 -91 1497 -91 
Q 953 -91 614 226 
Q 275 544 275 1050 
Q 275 1666 698 1953 
Q 1122 2241 2028 2241 
L 2688 2241 
L 2688 2328 
Q 2688 2594 2478 2717 
Q 2269 2841 1825 2841 
Q 1466 2841 1156 2769 
Q 847 2697 581 2553 
L 581 3406 
Q 941 3494 1303 3539 
Q 1666 3584 2028 3584 
Q 2975 3584 3395 3211 
Q 3816 2838 3816 1997 
z
" transform="scale(0.015625)"/>
     </defs>
     <use xlink:href="#DejaVuSans-Bold-61"/>
    </g>
   </g>
   <g id="text_2">
    <!-- b -->
    <g style="fill: #43a047" transform="translate(123.510059 219.784708) scale(0.14 -0.14)">
     <defs>
      <path id="DejaVuSans-Bold-62" d="M 2400 722 
Q 2759 722 2948 984 
Q 3138 1247 3138 1747 
Q 3138 2247 2948 2509 
Q 2759 2772 2400 2772 
Q 2041 2772 1848 2508 
Q 1656 2244 1656 1747 
Q 1656 1250 1848 986 
Q 2041 722 2400 722 
z
M 1656 2988 
Q 1888 3294 2169 3439 
Q 2450 3584 2816 3584 
Q 3463 3584 3878 3070 
Q 4294 2556 4294 1747 
Q 4294 938 3878 423 
Q 3463 -91 2816 -91 
Q 2450 -91 2169 54 
Q 1888 200 1656 506 
L 1656 0 
L 538 0 
L 538 4863 
L 1656 4863 
L 1656 2988 
z
" transform="scale(0.015625)"/>
     </defs>
     <use xlink:href="#DejaVuSans-Bold-62"/>
    </g>
   </g>
   <g id="text_3">
    <!-- c -->
    <g style="fill: #1e88e5" transform="translate(83.107396 202.873823) scale(0.14 -0.14)">
     <defs>
      <path id="DejaVuSans-Bold-63" d="M 3366 3391 
L 3366 2478 
Q 3138 2634 2908 2709 
Q 2678 2784 2431 2784 
Q 1963 2784 1702 2511 
Q 1441 2238 1441 1747 
Q 1441 1256 1702 982 
Q 1963 709 2431 709 
Q 2694 709 2930 787 
Q 3166 866 3366 1019 
L 3366 103 
Q 3103 6 2833 -42 
Q 2563 -91 2291 -91 
Q 1344 -91 809 395 
Q 275 881 275 1747 
Q 275 2613 809 3098 
Q 1344 3584 2291 3584 
Q 2566 3584 2833 3536 
Q 3100 3488 3366 3391 
z
" transform="scale(0.015625)"/>
     </defs>
     <use xlink:href="#DejaVuSans-Bold-63"/>
    </g>
   </g>
   <g id="Line3DCollection_4">
    <path d="M 120.517269 221.281103 
L 83.107396 239.986039 
" clip-path="url(#pc441031152)" style="fill: none; stroke: #43a047; stroke-width: 2"/>
    <path d="M 120.517269 221.281103 
L 116.903753 223.977245 
" clip-path="url(#pc441031152)" style="fill: none; stroke: #43a047; stroke-width: 2"/>
    <path d="M 120.517269 221.281103 
L 116.903753 222.198477 
" clip-path="url(#pc441031152)" style="fill: none; stroke: #43a047; stroke-width: 2"/>
   </g>
   <g id="Line3DCollection_5">
    <path d="M 83.107396 205.622876 
L 83.107396 239.986039 
" clip-path="url(#pc441031152)" style="fill: none; stroke: #1e88e5; stroke-width: 2"/>
    <path d="M 83.107396 205.622876 
L 82.139157 208.457984 
" clip-path="url(#pc441031152)" style="fill: none; stroke: #1e88e5; stroke-width: 2"/>
    <path d="M 83.107396 205.622876 
L 84.075635 209.426222 
" clip-path="url(#pc441031152)" style="fill: none; stroke: #1e88e5; stroke-width: 2"/>
   </g>
   <g id="Line3DCollection_6">
    <path d="M 120.517269 258.690976 
L 83.107396 239.986039 
" clip-path="url(#pc441031152)" style="fill: none; stroke: #e53935; stroke-width: 2"/>
    <path d="M 120.517269 258.690976 
L 116.903753 257.773602 
" clip-path="url(#pc441031152)" style="fill: none; stroke: #e53935; stroke-width: 2"/>
    <path d="M 120.517269 258.690976 
L 116.903753 255.994834 
" clip-path="url(#pc441031152)" style="fill: none; stroke: #e53935; stroke-width: 2"/>
   </g>
   <g id="Poly3DCollection_1">
    <path d="M 282.883316 153.988777 
L 282.883316 230.35136 
L 194.7074 186.263402 
L 194.7074 109.900818 
z
" clip-path="url(#pc441031152)" style="fill: #ffab91; fill-opacity: 0.7; stroke: #bf360c; stroke-opacity: 0.7; stroke-width: 1.5"/>
    <path d="M 194.7074 186.263402 
L 194.7074 290.179717 
L 194.7074 213.817133 
L 194.7074 109.900818 
z
" clip-path="url(#pc441031152)" style="fill: #ffab91; fill-opacity: 0.7; stroke: #bf360c; stroke-opacity: 0.7; stroke-width: 1.5"/>
    <path d="M 282.883316 334.267675 
L 194.7074 290.179717 
L 194.7074 186.263402 
L 282.883316 230.35136 
z
" clip-path="url(#pc441031152)" style="fill: #ffab91; fill-opacity: 0.7; stroke: #bf360c; stroke-opacity: 0.7; stroke-width: 1.5"/>
    <path d="M 194.7074 109.900818 
L 194.7074 213.817133 
L 282.883316 257.905091 
L 282.883316 153.988777 
z
" clip-path="url(#pc441031152)" style="fill: #ffab91; fill-opacity: 0.7; stroke: #bf360c; stroke-opacity: 0.7; stroke-width: 1.5"/>
    <path d="M 282.883316 153.988777 
L 282.883316 257.905091 
L 282.883316 334.267675 
L 282.883316 230.35136 
z
" clip-path="url(#pc441031152)" style="fill: #ffab91; fill-opacity: 0.7; stroke: #bf360c; stroke-opacity: 0.7; stroke-width: 1.5"/>
    <path d="M 194.7074 213.817133 
L 194.7074 290.179717 
L 282.883316 334.267675 
L 282.883316 257.905091 
z
" clip-path="url(#pc441031152)" style="fill: #ffab91; fill-opacity: 0.7; stroke: #bf360c; stroke-opacity: 0.7; stroke-width: 1.5"/>
   </g>
   <g id="Path3DCollection_2">
    <defs>
     <path id="C1_0_f00976b887" d="M 0 2.738613 
C 0.726289 2.738613 1.422928 2.450055 1.936492 1.936492 
C 2.450055 1.422928 2.738613 0.726289 2.738613 -0 
C 2.738613 -0.726289 2.450055 -1.422928 1.936492 -1.936492 
C 1.422928 -2.450055 0.726289 -2.738613 0 -2.738613 
C -0.726289 -2.738613 -1.422928 -2.450055 -1.936492 -1.936492 
C -2.450055 -1.422928 -2.738613 -0.726289 -2.738613 0 
C -2.738613 0.726289 -2.450055 1.422928 -1.936492 1.936492 
C -1.422928 2.450055 -0.726289 2.738613 0 2.738613 
z
"/>
    </defs>
    <g clip-path="url(#pc441031152)">
     <use xlink:href="#C1_0_f00976b887" x="194.7074" y="109.900818" style="fill: #bf360c; fill-opacity: 0.9; stroke: #bf360c; stroke-opacity: 0.9"/>
    </g>
    <g clip-path="url(#pc441031152)">
     <use xlink:href="#C1_0_f00976b887" x="282.883316" y="153.988777" style="fill: #bf360c; fill-opacity: 0.9; stroke: #bf360c; stroke-opacity: 0.9"/>
    </g>
    <g clip-path="url(#pc441031152)">
     <use xlink:href="#C1_0_f00976b887" x="194.7074" y="290.179717" style="fill: #bf360c; fill-opacity: 0.9; stroke: #bf360c; stroke-opacity: 0.9"/>
    </g>
    <g clip-path="url(#pc441031152)">
     <use xlink:href="#C1_0_f00976b887" x="194.7074" y="213.817133" style="fill: #bf360c; fill-opacity: 0.9; stroke: #bf360c; stroke-opacity: 0.9"/>
    </g>
    <g clip-path="url(#pc441031152)">
     <use xlink:href="#C1_0_f00976b887" x="282.883316" y="334.267675" style="fill: #bf360c; fill-opacity: 0.9; stroke: #bf360c; stroke-opacity: 0.9"/>
    </g>
    <g clip-path="url(#pc441031152)">
     <use xlink:href="#C1_0_f00976b887" x="282.883316" y="257.905091" style="fill: #bf360c; fill-opacity: 0.9; stroke: #bf360c; stroke-opacity: 0.9"/>
    </g>
   </g>
  </g>
 </g>
 <defs>
  <clipPath id="pc441031152">
   <rect x="7.2" y="7.2" width="443.52" height="443.52"/>
  </clipPath>
 </defs>
</svg>
