<?xml version="1.0" encoding="utf-8" standalone="no"?>
<!DOCTYPE svg PUBLIC "-//W3C//DTD SVG 1.1//EN"
  "http://www.w3.org/Graphics/SVG/1.1/DTD/svg11.dtd">
<svg xmlns:xlink="http://www.w3.org/1999/xlink" width="424.8pt" height="424.8pt" viewBox="0 0 424.8 424.8" xmlns="http://www.w3.org/2000/svg" version="1.1">
 <metadata>
  <rdf:RDF xmlns:dc="http://purl.org/dc/elements/1.1/" xmlns:cc="http://creativecommons.org/ns#" xmlns:rdf="http://www.w3.org/1999/02/22-rdf-syntax-ns#">
   <cc:Work>
    <dc:type rdf:resource="http://purl.org/dc/dcmitype/StillImage"/>
    <dc:date>2026-01-27T08:32:33.016984</dc:date>
    <dc:format>image/svg+xml</dc:format>
    <dc:creator>
     <cc:Agent>
      <dc:title>Matplotlib v3.10.8, https://matplotlib.org/</dc:title>
     </cc:Agent>
    </dc:creator>
   </cc:Work>
  </rdf:RDF>
 </metadata>
 <defs>
  <style type="text/css">*{stroke-linejoin: round; stroke-linecap: butt}</style>
 </defs>
 <g id="figure_1">
  <g id="patch_1">
   <path d="M 0 424.8 
L 424.8 424.8 
L 424.8 0 
L 0 0 
z
" style="fill: #ffffff"/>
  </g>
  <g id="patch_2">
   <path d="M 7.2 417.6 
L 417.6 417.6 
L 417.6 7.2 
L 7.2 7.2 
z
" style="fill: #ffffff"/>
  </g>
  <g id="axes_1">
   <g id="Path3DCollection_1">
    <defs>
     <path id="C0_0_dddc4fc3c3" d="M 0 2.738613 
C 0.726289 2.738613 1.422928 2.450055 1.936492 1.936492 
C 2.450055 1.422928 2.738613 0.726289 2.738613 -0 
C 2.738613 -0.726289 2.450055 -1.422928 1.936492 -1.936492 
C 1.422928 -2.450055 0.726289 -2.738613 0 -2.738613 
C -0.726289 -2.738613 -1.422928 -2.450055 -1.936492 -1.936492 
C -2.450055 -1.422928 -2.738613 -0.726289 -2.738613 0 
C -2.738613 0.726289 -2.450055 1.422928 -1.936492 1.936492 
C -1.422928 2.450055 -0.726289 2.738613 0 2.738613 
z
"/>
    </defs>
    <g clip-path="url(#pc3f1c2cfa7)">
     <use xlink:href="#C0_0_dddc4fc3c3" x="228.167787" y="212.869132" style="fill: #0369a1; fill-opacity: 0.3; stroke: #0369a1; stroke-opacity: 0.3"/>
    </g>
    <g clip-path="url(#pc3f1c2cfa7)">
     <use xlink:href="#C0_0_dddc4fc3c3" x="285.533153" y="212.869132" style="fill: #0369a1; fill-opacity: 0.3; stroke: #0369a1; stroke-opacity: 0.3"/>
    </g>
    <g clip-path="url(#pc3f1c2cfa7)">
     <use xlink:href="#C0_0_dddc4fc3c3" x="305.976834" y="223.090972" style="fill: #0369a1; fill-opacity: 0.3; stroke: #0369a1; stroke-opacity: 0.3"/>
    </g>
    <g clip-path="url(#pc3f1c2cfa7)">
     <use xlink:href="#C0_0_dddc4fc3c3" x="129.915058" y="261.995496" style="fill: #0369a1; fill-opacity: 0.3; stroke: #0369a1; stroke-opacity: 0.3"/>
    </g>
   </g>
   <g id="Poly3DCollection_1">
    <path d="M 285.533153 112.808088 
L 285.533153 212.869132 
L 228.167787 212.869132 
L 228.167787 112.808088 
z
" clip-path="url(#pc3f1c2cfa7)" style="fill: #0ea5e9; fill-opacity: 0.7; stroke: #0369a1; stroke-opacity: 0.7; stroke-width: 1.5"/>
    <path d="M 305.976834 123.029929 
L 305.976834 223.090972 
L 285.533153 212.869132 
L 285.533153 112.808088 
z
" clip-path="url(#pc3f1c2cfa7)" style="fill: #0ea5e9; fill-opacity: 0.7; stroke: #0369a1; stroke-opacity: 0.7; stroke-width: 1.5"/>
    <path d="M 305.976834 151.712612 
L 305.976834 251.773655 
L 305.976834 223.090972 
L 305.976834 123.029929 
z
" clip-path="url(#pc3f1c2cfa7)" style="fill: #0ea5e9; fill-opacity: 0.7; stroke: #0369a1; stroke-opacity: 0.7; stroke-width: 1.5"/>
    <path d="M 228.167787 212.869132 
L 129.915058 261.995496 
L 129.915058 161.934453 
L 228.167787 112.808088 
z
" clip-path="url(#pc3f1c2cfa7)" style="fill: #0ea5e9; fill-opacity: 0.7; stroke: #0369a1; stroke-opacity: 0.7; stroke-width: 1.5"/>
    <path d="M 305.976834 223.090972 
L 305.976834 251.773655 
L 207.724105 300.90002 
L 150.358739 300.90002 
L 129.915058 290.678179 
L 129.915058 261.995496 
L 228.167787 212.869132 
L 285.533153 212.869132 
z
" clip-path="url(#pc3f1c2cfa7)" style="fill: #0ea5e9; fill-opacity: 0.7; stroke: #0369a1; stroke-opacity: 0.7; stroke-width: 1.5"/>
    <path d="M 228.167787 112.808088 
L 129.915058 161.934453 
L 129.915058 190.617136 
L 150.358739 200.838976 
L 207.724105 200.838976 
L 305.976834 151.712612 
L 305.976834 123.029929 
L 285.533153 112.808088 
z
" clip-path="url(#pc3f1c2cfa7)" style="fill: #0ea5e9; fill-opacity: 0.7; stroke: #0369a1; stroke-opacity: 0.7; stroke-width: 1.5"/>
    <path d="M 129.915058 161.934453 
L 129.915058 261.995496 
L 129.915058 290.678179 
L 129.915058 190.617136 
z
" clip-path="url(#pc3f1c2cfa7)" style="fill: #0ea5e9; fill-opacity: 0.7; stroke: #0369a1; stroke-opacity: 0.7; stroke-width: 1.5"/>
    <path d="M 305.976834 151.712612 
L 207.724105 200.838976 
L 207.724105 300.90002 
L 305.976834 251.773655 
z
" clip-path="url(#pc3f1c2cfa7)" style="fill: #0ea5e9; fill-opacity: 0.7; stroke: #0369a1; stroke-opacity: 0.7; stroke-width: 1.5"/>
    <path d="M 129.915058 190.617136 
L 129.915058 290.678179 
L 150.358739 300.90002 
L 150.358739 200.838976 
z
" clip-path="url(#pc3f1c2cfa7)" style="fill: #0ea5e9; fill-opacity: 0.7; stroke: #0369a1; stroke-opacity: 0.7; stroke-width: 1.5"/>
    <path d="M 150.358739 200.838976 
L 150.358739 300.90002 
L 207.724105 300.90002 
L 207.724105 200.838976 
z
" clip-path="url(#pc3f1c2cfa7)" style="fill: #0ea5e9; fill-opacity: 0.7; stroke: #0369a1; stroke-opacity: 0.7; stroke-width: 1.5"/>
   </g>
   <g id="Path3DCollection_2">
    <defs>
     <path id="C1_0_9482439d57" d="M 0 2.738613 
C 0.726289 2.738613 1.422928 2.450055 1.936492 1.936492 
C 2.450055 1.422928 2.738613 0.726289 2.738613 -0 
C 2.738613 -0.726289 2.450055 -1.422928 1.936492 -1.936492 
C 1.422928 -2.450055 0.726289 -2.738613 0 -2.738613 
C -0.726289 -2.738613 -1.422928 -2.450055 -1.936492 -1.936492 
C -2.450055 -1.422928 -2.738613 -0.726289 -2.738613 0 
C -2.738613 0.726289 -2.450055 1.422928 -1.936492 1.936492 
C -1.422928 2.450055 -0.726289 2.738613 0 2.738613 
z
"/>
    </defs>
    <g clip-path="url(#pc3f1c2cfa7)">
     <use xlink:href="#C1_0_9482439d57" x="228.167787" y="112.808088" style="fill: #0369a1; fill-opacity: 0.9; stroke: #0369a1; stroke-opacity: 0.9"/>
    </g>
    <g clip-path="url(#pc3f1c2cfa7)">
     <use xlink:href="#C1_0_9482439d57" x="285.533153" y="112.808088" style="fill: #0369a1; fill-opacity: 0.9; stroke: #0369a1; stroke-opacity: 0.9"/>
    </g>
    <g clip-path="url(#pc3f1c2cfa7)">
     <use xlink:href="#C1_0_9482439d57" x="305.976834" y="251.773655" style="fill: #0369a1; fill-opacity: 0.9; stroke: #0369a1; stroke-opacity: 0.9"/>
    </g>
    <g clip-path="url(#pc3f1c2cfa7)">
     <use xlink:href="#C1_0_9482439d57" x="305.976834" y="123.029929" style="fill: #0369a1; fill-opacity: 0.9; stroke: #0369a1; stroke-opacity: 0.9"/>
    </g>
    <g clip-path="url(#pc3f1c2cfa7)">
     <use xlink:href="#C1_0_9482439d57" x="305.976834" y="151.712612" style="fill: #0369a1; fill-opacity: 0.9; stroke: #0369a1; stroke-opacity: 0.9"/>
    </g>
    <g clip-path="url(#pc3f1c2cfa7)">
     <use xlink:href="#C1_0_9482439d57" x="129.915058" y="290.678179" style="fill: #0369a1; fill-opacity: 0.9; stroke: #0369a1; stroke-opacity: 0.9"/>
    </g>
    <g clip-path="url(#pc3f1c2cfa7)">
     <use xlink:href="#C1_0_9482439d57" x="129.915058" y="161.934453" style="fill: #0369a1; fill-opacity: 0.9; stroke: #0369a1; stroke-opacity: 0.9"/>
    </g>
    <g clip-path="url(#pc3f1c2cfa7)">
     <use xlink:href="#C1_0_9482439d57" x="207.724105" y="300.90002" style="fill: #0369a1; fill-opacity: 0.9; stroke: #0369a1; stroke-opacity: 0.9"/>
    </g>
    <g clip-path="url(#pc3f1c2cfa7)">
     <use xlink:href="#C1_0_9482439d57" x="150.358739" y="300.90002" style="fill: #0369a1; fill-opacity: 0.9; stroke: #0369a1; stroke-opacity: 0.9"/>
    </g>
    <g clip-path="url(#pc3f1c2cfa7)">
     <use xlink:href="#C1_0_9482439d57" x="129.915058" y="190.617136" style="fill: #0369a1; fill-opacity: 0.9; stroke: #0369a1; stroke-opacity: 0.9"/>
    </g>
    <g clip-path="url(#pc3f1c2cfa7)">
     <use xlink:href="#C1_0_9482439d57" x="207.724105" y="200.838976" style="fill: #0369a1; fill-opacity: 0.9; stroke: #0369a1; stroke-opacity: 0.9"/>
    </g>
    <g clip-path="url(#pc3f1c2cfa7)">
     <use xlink:href="#C1_0_9482439d57" x="150.358739" y="200.838976" style="fill: #0369a1; fill-opacity: 0.9; stroke: #0369a1; stroke-opacity: 0.9"/>
    </g>
   </g>
  </g>
 </g>
 <defs>
  <clipPath id="pc3f1c2cfa7">
   <rect x="7.2" y="7.2" width="410.4" height="410.4"/>
  </clipPath>
 </defs>
</svg>
