<?xml version="1.0" encoding="utf-8" standalone="no"?>
<!DOCTYPE svg PUBLIC "-//W3C//DTD SVG 1.1//EN"
  "http://www.w3.org/Graphics/SVG/1.1/DTD/svg11.dtd">
<svg xmlns:xlink="http://www.w3.org/1999/xlink" width="464.059457pt" height="457.92pt" viewBox="0 0 464.059457 457.92" xmlns="http://www.w3.org/2000/svg" version="1.1">
 <metadata>
  <rdf:RDF xmlns:dc="http://purl.org/dc/elements/1.1/" xmlns:cc="http://creativecommons.org/ns#" xmlns:rdf="http://www.w3.org/1999/02/22-rdf-syntax-ns#">
   <cc:Work>
    <dc:type rdf:resource="http://purl.org/dc/dcmitype/StillImage"/>
    <dc:date>2026-02-02T15:08:43.050567</dc:date>
    <dc:format>image/svg+xml</dc:format>
    <dc:creator>
     <cc:Agent>
      <dc:title>Matplotlib v3.10.8, https://matplotlib.org/</dc:title>
     </cc:Agent>
    </dc:creator>
   </cc:Work>
  </rdf:RDF>
 </metadata>
 <defs>
  <style type="text/css">*{stroke-linejoin: round; stroke-linecap: butt}</style>
 </defs>
 <g id="figure_1">
  <g id="patch_1">
   <path d="M 0 457.92 
L 464.059457 457.92 
L 464.059457 0 
L 0 0 
z
" style="fill: #ffffff"/>
  </g>
  <g id="patch_2">
   <path d="M 7.2 450.72 
L 450.72 450.72 
L 450.72 7.2 
L 7.2 7.2 
z
" style="fill: #ffffff"/>
  </g>
  <g id="pane3d_1">
   <g id="patch_3">
    <path d="M 33.141415 315.654611 
L 234.953514 214.748562 
L 234.953514 29.372313 
L 33.141415 130.278362 
" style="fill: #f2f2f2; opacity: 0.5; stroke: #f2f2f2; stroke-linejoin: miter"/>
   </g>
  </g>
  <g id="pane3d_2">
   <g id="patch_4">
    <path d="M 234.953514 214.748562 
L 436.765612 315.654611 
L 436.765612 130.278362 
L 234.953514 29.372313 
" style="fill: #e6e6e6; opacity: 0.5; stroke: #e6e6e6; stroke-linejoin: miter"/>
   </g>
  </g>
  <g id="pane3d_3">
   <g id="patch_5">
    <path d="M 33.141415 315.654611 
L 234.953514 416.56066 
L 436.765612 315.654611 
L 234.953514 214.748562 
" style="fill: #ececec; opacity: 0.5; stroke: #ececec; stroke-linejoin: miter"/>
   </g>
  </g>
  <g id="grid3d_1">
   <g id="Line3DCollection_1">
    <path d="M 39.922271 319.045039 
L 241.734369 218.13899 
L 241.734369 32.762741 
" style="fill: none; stroke: #b0b0b0; stroke-width: 0.8"/>
    <path d="M 63.9338 331.050803 
L 265.745898 230.144754 
L 265.745898 44.768505 
" style="fill: none; stroke: #b0b0b0; stroke-width: 0.8"/>
    <path d="M 87.945329 343.056568 
L 289.757427 242.150519 
L 289.757427 56.77427 
" style="fill: none; stroke: #b0b0b0; stroke-width: 0.8"/>
    <path d="M 111.956858 355.062332 
L 313.768956 254.156283 
L 313.768956 68.780034 
" style="fill: none; stroke: #b0b0b0; stroke-width: 0.8"/>
    <path d="M 135.968387 367.068097 
L 337.780485 266.162048 
L 337.780485 80.785799 
" style="fill: none; stroke: #b0b0b0; stroke-width: 0.8"/>
    <path d="M 159.979916 379.073861 
L 361.792014 278.167812 
L 361.792014 92.791563 
" style="fill: none; stroke: #b0b0b0; stroke-width: 0.8"/>
    <path d="M 183.991445 391.079626 
L 385.803543 290.173577 
L 385.803543 104.797328 
" style="fill: none; stroke: #b0b0b0; stroke-width: 0.8"/>
    <path d="M 208.002973 403.08539 
L 409.815072 302.179341 
L 409.815072 116.803092 
" style="fill: none; stroke: #b0b0b0; stroke-width: 0.8"/>
    <path d="M 232.014502 415.091154 
L 433.8266 314.185105 
L 433.8266 128.808856 
" style="fill: none; stroke: #b0b0b0; stroke-width: 0.8"/>
   </g>
  </g>
  <g id="grid3d_2">
   <g id="Line3DCollection_2">
    <path d="M 39.922271 126.887934 
L 39.922271 312.264183 
L 241.734369 413.170232 
" style="fill: none; stroke: #b0b0b0; stroke-width: 0.8"/>
    <path d="M 63.9338 114.88217 
L 63.9338 300.258419 
L 265.745898 401.164468 
" style="fill: none; stroke: #b0b0b0; stroke-width: 0.8"/>
    <path d="M 87.945329 102.876405 
L 87.945329 288.252654 
L 289.757427 389.158703 
" style="fill: none; stroke: #b0b0b0; stroke-width: 0.8"/>
    <path d="M 111.956858 90.870641 
L 111.956858 276.24689 
L 313.768956 377.152939 
" style="fill: none; stroke: #b0b0b0; stroke-width: 0.8"/>
    <path d="M 135.968387 78.864876 
L 135.968387 264.241125 
L 337.780485 365.147174 
" style="fill: none; stroke: #b0b0b0; stroke-width: 0.8"/>
    <path d="M 159.979916 66.859112 
L 159.979916 252.235361 
L 361.792014 353.14141 
" style="fill: none; stroke: #b0b0b0; stroke-width: 0.8"/>
    <path d="M 183.991445 54.853347 
L 183.991445 240.229596 
L 385.803543 341.135645 
" style="fill: none; stroke: #b0b0b0; stroke-width: 0.8"/>
    <path d="M 208.002973 42.847583 
L 208.002973 228.223832 
L 409.815072 329.129881 
" style="fill: none; stroke: #b0b0b0; stroke-width: 0.8"/>
    <path d="M 232.014502 30.841819 
L 232.014502 216.218068 
L 433.8266 317.124117 
" style="fill: none; stroke: #b0b0b0; stroke-width: 0.8"/>
   </g>
  </g>
  <g id="grid3d_3">
   <g id="Line3DCollection_3">
    <path d="M 436.765612 310.308237 
L 234.953514 209.402188 
L 33.141415 310.308237 
" style="fill: none; stroke: #b0b0b0; stroke-width: 0.8"/>
    <path d="M 436.765612 288.25224 
L 234.953514 187.346191 
L 33.141415 288.25224 
" style="fill: none; stroke: #b0b0b0; stroke-width: 0.8"/>
    <path d="M 436.765612 266.196242 
L 234.953514 165.290193 
L 33.141415 266.196242 
" style="fill: none; stroke: #b0b0b0; stroke-width: 0.8"/>
    <path d="M 436.765612 244.140244 
L 234.953514 143.234195 
L 33.141415 244.140244 
" style="fill: none; stroke: #b0b0b0; stroke-width: 0.8"/>
    <path d="M 436.765612 222.084247 
L 234.953514 121.178198 
L 33.141415 222.084247 
" style="fill: none; stroke: #b0b0b0; stroke-width: 0.8"/>
    <path d="M 436.765612 200.028249 
L 234.953514 99.1222 
L 33.141415 200.028249 
" style="fill: none; stroke: #b0b0b0; stroke-width: 0.8"/>
    <path d="M 436.765612 177.972251 
L 234.953514 77.066202 
L 33.141415 177.972251 
" style="fill: none; stroke: #b0b0b0; stroke-width: 0.8"/>
    <path d="M 436.765612 155.916254 
L 234.953514 55.010205 
L 33.141415 155.916254 
" style="fill: none; stroke: #b0b0b0; stroke-width: 0.8"/>
    <path d="M 436.765612 133.860256 
L 234.953514 32.954207 
L 33.141415 133.860256 
" style="fill: none; stroke: #b0b0b0; stroke-width: 0.8"/>
   </g>
  </g>
  <g id="axis3d_1">
   <g id="line2d_1">
    <path d="M 33.141415 315.654611 
L 234.953514 416.56066 
" style="fill: none; stroke: #000000; stroke-width: 0.8; stroke-linecap: square"/>
   </g>
   <g id="xtick_1">
    <g id="line2d_2">
     <path d="M 41.536768 318.23779 
L 36.693278 320.659536 
" style="fill: none; stroke: #000000; stroke-width: 0.8; stroke-linecap: square"/>
    </g>
   </g>
   <g id="xtick_2">
    <g id="line2d_3">
     <path d="M 65.548297 330.243555 
L 60.704807 332.6653 
" style="fill: none; stroke: #000000; stroke-width: 0.8; stroke-linecap: square"/>
    </g>
   </g>
   <g id="xtick_3">
    <g id="line2d_4">
     <path d="M 89.559826 342.249319 
L 84.716335 344.671065 
" style="fill: none; stroke: #000000; stroke-width: 0.8; stroke-linecap: square"/>
    </g>
   </g>
   <g id="xtick_4">
    <g id="line2d_5">
     <path d="M 113.571355 354.255084 
L 108.727864 356.676829 
" style="fill: none; stroke: #000000; stroke-width: 0.8; stroke-linecap: square"/>
    </g>
   </g>
   <g id="xtick_5">
    <g id="line2d_6">
     <path d="M 137.582884 366.260848 
L 132.739393 368.682593 
" style="fill: none; stroke: #000000; stroke-width: 0.8; stroke-linecap: square"/>
    </g>
   </g>
   <g id="xtick_6">
    <g id="line2d_7">
     <path d="M 161.594412 378.266613 
L 156.750922 380.688358 
" style="fill: none; stroke: #000000; stroke-width: 0.8; stroke-linecap: square"/>
    </g>
   </g>
   <g id="xtick_7">
    <g id="line2d_8">
     <path d="M 185.605941 390.272377 
L 180.762451 392.694122 
" style="fill: none; stroke: #000000; stroke-width: 0.8; stroke-linecap: square"/>
    </g>
   </g>
   <g id="xtick_8">
    <g id="line2d_9">
     <path d="M 209.61747 402.278142 
L 204.77398 404.699887 
" style="fill: none; stroke: #000000; stroke-width: 0.8; stroke-linecap: square"/>
    </g>
   </g>
   <g id="xtick_9">
    <g id="line2d_10">
     <path d="M 233.628999 414.283906 
L 228.785509 416.705651 
" style="fill: none; stroke: #000000; stroke-width: 0.8; stroke-linecap: square"/>
    </g>
   </g>
  </g>
  <g id="axis3d_2">
   <g id="line2d_11">
    <path d="M 436.765612 315.654611 
L 234.953514 416.56066 
" style="fill: none; stroke: #000000; stroke-width: 0.8; stroke-linecap: square"/>
   </g>
   <g id="xtick_10">
    <g id="line2d_12">
     <path d="M 240.119872 412.362984 
L 244.963363 414.784729 
" style="fill: none; stroke: #000000; stroke-width: 0.8; stroke-linecap: square"/>
    </g>
   </g>
   <g id="xtick_11">
    <g id="line2d_13">
     <path d="M 264.131401 400.357219 
L 268.974892 402.778964 
" style="fill: none; stroke: #000000; stroke-width: 0.8; stroke-linecap: square"/>
    </g>
   </g>
   <g id="xtick_12">
    <g id="line2d_14">
     <path d="M 288.14293 388.351455 
L 292.986421 390.7732 
" style="fill: none; stroke: #000000; stroke-width: 0.8; stroke-linecap: square"/>
    </g>
   </g>
   <g id="xtick_13">
    <g id="line2d_15">
     <path d="M 312.154459 376.34569 
L 316.99795 378.767436 
" style="fill: none; stroke: #000000; stroke-width: 0.8; stroke-linecap: square"/>
    </g>
   </g>
   <g id="xtick_14">
    <g id="line2d_16">
     <path d="M 336.165988 364.339926 
L 341.009478 366.761671 
" style="fill: none; stroke: #000000; stroke-width: 0.8; stroke-linecap: square"/>
    </g>
   </g>
   <g id="xtick_15">
    <g id="line2d_17">
     <path d="M 360.177517 352.334162 
L 365.021007 354.755907 
" style="fill: none; stroke: #000000; stroke-width: 0.8; stroke-linecap: square"/>
    </g>
   </g>
   <g id="xtick_16">
    <g id="line2d_18">
     <path d="M 384.189046 340.328397 
L 389.032536 342.750142 
" style="fill: none; stroke: #000000; stroke-width: 0.8; stroke-linecap: square"/>
    </g>
   </g>
   <g id="xtick_17">
    <g id="line2d_19">
     <path d="M 408.200575 328.322633 
L 413.044065 330.744378 
" style="fill: none; stroke: #000000; stroke-width: 0.8; stroke-linecap: square"/>
    </g>
   </g>
   <g id="xtick_18">
    <g id="line2d_20">
     <path d="M 432.212104 316.316868 
L 437.055594 318.738613 
" style="fill: none; stroke: #000000; stroke-width: 0.8; stroke-linecap: square"/>
    </g>
   </g>
  </g>
  <g id="axis3d_3">
   <g id="line2d_21">
    <path d="M 436.765612 315.654611 
L 436.765612 130.278362 
" style="fill: none; stroke: #000000; stroke-width: 0.8; stroke-linecap: square"/>
   </g>
   <g id="xtick_19">
    <g id="line2d_22">
     <path d="M 435.151115 309.500989 
L 439.994605 311.922734 
" style="fill: none; stroke: #000000; stroke-width: 0.8; stroke-linecap: square"/>
    </g>
   </g>
   <g id="xtick_20">
    <g id="line2d_23">
     <path d="M 435.151115 287.444991 
L 439.994605 289.866736 
" style="fill: none; stroke: #000000; stroke-width: 0.8; stroke-linecap: square"/>
    </g>
   </g>
   <g id="xtick_21">
    <g id="line2d_24">
     <path d="M 435.151115 265.388993 
L 439.994605 267.810739 
" style="fill: none; stroke: #000000; stroke-width: 0.8; stroke-linecap: square"/>
    </g>
   </g>
   <g id="xtick_22">
    <g id="line2d_25">
     <path d="M 435.151115 243.332996 
L 439.994605 245.754741 
" style="fill: none; stroke: #000000; stroke-width: 0.8; stroke-linecap: square"/>
    </g>
   </g>
   <g id="xtick_23">
    <g id="line2d_26">
     <path d="M 435.151115 221.276998 
L 439.994605 223.698743 
" style="fill: none; stroke: #000000; stroke-width: 0.8; stroke-linecap: square"/>
    </g>
   </g>
   <g id="xtick_24">
    <g id="line2d_27">
     <path d="M 435.151115 199.221001 
L 439.994605 201.642746 
" style="fill: none; stroke: #000000; stroke-width: 0.8; stroke-linecap: square"/>
    </g>
   </g>
   <g id="xtick_25">
    <g id="line2d_28">
     <path d="M 435.151115 177.165003 
L 439.994605 179.586748 
" style="fill: none; stroke: #000000; stroke-width: 0.8; stroke-linecap: square"/>
    </g>
   </g>
   <g id="xtick_26">
    <g id="line2d_29">
     <path d="M 435.151115 155.109005 
L 439.994605 157.53075 
" style="fill: none; stroke: #000000; stroke-width: 0.8; stroke-linecap: square"/>
    </g>
   </g>
   <g id="xtick_27">
    <g id="line2d_30">
     <path d="M 435.151115 133.053008 
L 439.994605 135.474753 
" style="fill: none; stroke: #000000; stroke-width: 0.8; stroke-linecap: square"/>
    </g>
   </g>
  </g>
  <g id="axes_1">
   <g id="Path3DCollection_1">
    <defs>
     <path id="C0_0_fae5941a00" d="M 0 2.738613 
C 0.726289 2.738613 1.422928 2.450055 1.936492 1.936492 
C 2.450055 1.422928 2.738613 0.726289 2.738613 -0 
C 2.738613 -0.726289 2.450055 -1.422928 1.936492 -1.936492 
C 1.422928 -2.450055 0.726289 -2.738613 0 -2.738613 
C -0.726289 -2.738613 -1.422928 -2.450055 -1.936492 -1.936492 
C -2.450055 -1.422928 -2.738613 -0.726289 -2.738613 0 
C -2.738613 0.726289 -2.450055 1.422928 -1.936492 1.936492 
C -1.422928 2.450055 -0.726289 2.738613 0 2.738613 
z
"/>
    </defs>
    <g clip-path="url(#p497f8c3df7)">
     <use xlink:href="#C0_0_fae5941a00" x="251.413018" y="229.509152" style="fill: #455a64; fill-opacity: 0.3; stroke: #455a64; stroke-opacity: 0.3"/>
    </g>
    <g clip-path="url(#p497f8c3df7)">
     <use xlink:href="#C0_0_fae5941a00" x="322.223814" y="229.509152" style="fill: #455a64; fill-opacity: 0.3; stroke: #455a64; stroke-opacity: 0.3"/>
    </g>
    <g clip-path="url(#p497f8c3df7)">
     <use xlink:href="#C0_0_fae5941a00" x="347.459134" y="242.126812" style="fill: #455a64; fill-opacity: 0.3; stroke: #455a64; stroke-opacity: 0.3"/>
    </g>
    <g clip-path="url(#p497f8c3df7)">
     <use xlink:href="#C0_0_fae5941a00" x="130.131583" y="290.14987" style="fill: #455a64; fill-opacity: 0.3; stroke: #455a64; stroke-opacity: 0.3"/>
    </g>
   </g>
   <g id="text_1">
    <!-- a -->
    <g style="fill: #e53935" transform="translate(133.720908 332.956255) scale(0.14 -0.14)">
     <defs>
      <path id="DejaVuSans-Bold-61" d="M 2106 1575 
Q 1756 1575 1579 1456 
Q 1403 1338 1403 1106 
Q 1403 894 1545 773 
Q 1688 653 1941 653 
Q 2256 653 2472 879 
Q 2688 1106 2688 1447 
L 2688 1575 
L 2106 1575 
z
M 3816 1997 
L 3816 0 
L 2688 0 
L 2688 519 
Q 2463 200 2181 54 
Q 1900 -91 1497 -91 
Q 953 -91 614 226 
Q 275 544 275 1050 
Q 275 1666 698 1953 
Q 1122 2241 2028 2241 
L 2688 2241 
L 2688 2328 
Q 2688 2594 2478 2717 
Q 2269 2841 1825 2841 
Q 1466 2841 1156 2769 
Q 847 2697 581 2553 
L 581 3406 
Q 941 3494 1303 3539 
Q 1666 3584 2028 3584 
Q 2975 3584 3395 3211 
Q 3816 2838 3816 1997 
z
" transform="scale(0.015625)"/>
     </defs>
     <use xlink:href="#DejaVuSans-Bold-61"/>
    </g>
   </g>
   <g id="text_2">
    <!-- b -->
    <g style="fill: #43a047" transform="translate(133.720908 286.277843) scale(0.14 -0.14)">
     <defs>
      <path id="DejaVuSans-Bold-62" d="M 2400 722 
Q 2759 722 2948 984 
Q 3138 1247 3138 1747 
Q 3138 2247 2948 2509 
Q 2759 2772 2400 2772 
Q 2041 2772 1848 2508 
Q 1656 2244 1656 1747 
Q 1656 1250 1848 986 
Q 2041 722 2400 722 
z
M 1656 2988 
Q 1888 3294 2169 3439 
Q 2450 3584 2816 3584 
Q 3463 3584 3878 3070 
Q 4294 2556 4294 1747 
Q 4294 938 3878 423 
Q 3463 -91 2816 -91 
Q 2450 -91 2169 54 
Q 1888 200 1656 506 
L 1656 0 
L 538 0 
L 538 4863 
L 1656 4863 
L 1656 2988 
z
" transform="scale(0.015625)"/>
     </defs>
     <use xlink:href="#DejaVuSans-Bold-62"/>
    </g>
   </g>
   <g id="text_3">
    <!-- c -->
    <g style="fill: #1e88e5" transform="translate(87.042496 266.740189) scale(0.14 -0.14)">
     <defs>
      <path id="DejaVuSans-Bold-63" d="M 3366 3391 
L 3366 2478 
Q 3138 2634 2908 2709 
Q 2678 2784 2431 2784 
Q 1963 2784 1702 2511 
Q 1441 2238 1441 1747 
Q 1441 1256 1702 982 
Q 1963 709 2431 709 
Q 2694 709 2930 787 
Q 3166 866 3366 1019 
L 3366 103 
Q 3103 6 2833 -42 
Q 2563 -91 2291 -91 
Q 1344 -91 809 395 
Q 275 881 275 1747 
Q 275 2613 809 3098 
Q 1344 3584 2291 3584 
Q 2566 3584 2833 3536 
Q 3100 3488 3366 3391 
z
" transform="scale(0.015625)"/>
     </defs>
     <use xlink:href="#DejaVuSans-Bold-63"/>
    </g>
   </g>
   <g id="Line3DCollection_4">
    <path d="M 130.263248 288.006673 
L 87.042496 309.617049 
" clip-path="url(#p497f8c3df7)" style="fill: none; stroke: #43a047; stroke-width: 2"/>
    <path d="M 130.263248 288.006673 
L 126.088443 291.121607 
" clip-path="url(#p497f8c3df7)" style="fill: none; stroke: #43a047; stroke-width: 2"/>
    <path d="M 130.263248 288.006673 
L 126.088443 289.066543 
" clip-path="url(#p497f8c3df7)" style="fill: none; stroke: #43a047; stroke-width: 2"/>
   </g>
   <g id="Line3DCollection_5">
    <path d="M 87.042496 269.916253 
L 87.042496 309.617049 
" clip-path="url(#p497f8c3df7)" style="fill: none; stroke: #1e88e5; stroke-width: 2"/>
    <path d="M 87.042496 269.916253 
L 85.92386 273.191738 
" clip-path="url(#p497f8c3df7)" style="fill: none; stroke: #1e88e5; stroke-width: 2"/>
    <path d="M 87.042496 269.916253 
L 88.161131 274.310373 
" clip-path="url(#p497f8c3df7)" style="fill: none; stroke: #1e88e5; stroke-width: 2"/>
   </g>
   <g id="Line3DCollection_6">
    <path d="M 130.263248 331.227425 
L 87.042496 309.617049 
" clip-path="url(#p497f8c3df7)" style="fill: none; stroke: #e53935; stroke-width: 2"/>
    <path d="M 130.263248 331.227425 
L 126.088443 330.167555 
" clip-path="url(#p497f8c3df7)" style="fill: none; stroke: #e53935; stroke-width: 2"/>
    <path d="M 130.263248 331.227425 
L 126.088443 328.11249 
" clip-path="url(#p497f8c3df7)" style="fill: none; stroke: #e53935; stroke-width: 2"/>
   </g>
   <g id="Poly3DCollection_1">
    <path d="M 322.223814 105.995565 
L 322.223814 229.509152 
L 251.413018 229.509152 
L 251.413018 105.995565 
z
" clip-path="url(#p497f8c3df7)" style="fill: #b0bec5; fill-opacity: 0.7; stroke: #455a64; stroke-opacity: 0.7; stroke-width: 1.5"/>
    <path d="M 347.459134 118.613225 
L 347.459134 242.126812 
L 322.223814 229.509152 
L 322.223814 105.995565 
z
" clip-path="url(#p497f8c3df7)" style="fill: #b0bec5; fill-opacity: 0.7; stroke: #455a64; stroke-opacity: 0.7; stroke-width: 1.5"/>
    <path d="M 251.413018 229.509152 
L 130.131583 290.14987 
L 130.131583 166.636283 
L 251.413018 105.995565 
z
" clip-path="url(#p497f8c3df7)" style="fill: #b0bec5; fill-opacity: 0.7; stroke: #455a64; stroke-opacity: 0.7; stroke-width: 1.5"/>
    <path d="M 347.459134 154.018623 
L 347.459134 277.53221 
L 347.459134 242.126812 
L 347.459134 118.613225 
z
" clip-path="url(#p497f8c3df7)" style="fill: #b0bec5; fill-opacity: 0.7; stroke: #455a64; stroke-opacity: 0.7; stroke-width: 1.5"/>
    <path d="M 347.459134 242.126812 
L 347.459134 277.53221 
L 226.177698 338.172928 
L 155.366902 338.172928 
L 130.131583 325.555268 
L 130.131583 290.14987 
L 251.413018 229.509152 
L 322.223814 229.509152 
z
" clip-path="url(#p497f8c3df7)" style="fill: #b0bec5; fill-opacity: 0.7; stroke: #455a64; stroke-opacity: 0.7; stroke-width: 1.5"/>
    <path d="M 251.413018 105.995565 
L 130.131583 166.636283 
L 130.131583 202.041681 
L 155.366902 214.659341 
L 226.177698 214.659341 
L 347.459134 154.018623 
L 347.459134 118.613225 
L 322.223814 105.995565 
z
" clip-path="url(#p497f8c3df7)" style="fill: #b0bec5; fill-opacity: 0.7; stroke: #455a64; stroke-opacity: 0.7; stroke-width: 1.5"/>
    <path d="M 130.131583 166.636283 
L 130.131583 290.14987 
L 130.131583 325.555268 
L 130.131583 202.041681 
z
" clip-path="url(#p497f8c3df7)" style="fill: #b0bec5; fill-opacity: 0.7; stroke: #455a64; stroke-opacity: 0.7; stroke-width: 1.5"/>
    <path d="M 347.459134 154.018623 
L 226.177698 214.659341 
L 226.177698 338.172928 
L 347.459134 277.53221 
z
" clip-path="url(#p497f8c3df7)" style="fill: #b0bec5; fill-opacity: 0.7; stroke: #455a64; stroke-opacity: 0.7; stroke-width: 1.5"/>
    <path d="M 130.131583 202.041681 
L 130.131583 325.555268 
L 155.366902 338.172928 
L 155.366902 214.659341 
z
" clip-path="url(#p497f8c3df7)" style="fill: #b0bec5; fill-opacity: 0.7; stroke: #455a64; stroke-opacity: 0.7; stroke-width: 1.5"/>
    <path d="M 155.366902 214.659341 
L 155.366902 338.172928 
L 226.177698 338.172928 
L 226.177698 214.659341 
z
" clip-path="url(#p497f8c3df7)" style="fill: #b0bec5; fill-opacity: 0.7; stroke: #455a64; stroke-opacity: 0.7; stroke-width: 1.5"/>
   </g>
   <g id="Path3DCollection_2">
    <defs>
     <path id="C1_0_4abd7f1655" d="M 0 2.738613 
C 0.726289 2.738613 1.422928 2.450055 1.936492 1.936492 
C 2.450055 1.422928 2.738613 0.726289 2.738613 -0 
C 2.738613 -0.726289 2.450055 -1.422928 1.936492 -1.936492 
C 1.422928 -2.450055 0.726289 -2.738613 0 -2.738613 
C -0.726289 -2.738613 -1.422928 -2.450055 -1.936492 -1.936492 
C -2.450055 -1.422928 -2.738613 -0.726289 -2.738613 0 
C -2.738613 0.726289 -2.450055 1.422928 -1.936492 1.936492 
C -1.422928 2.450055 -0.726289 2.738613 0 2.738613 
z
"/>
    </defs>
    <g clip-path="url(#p497f8c3df7)">
     <use xlink:href="#C1_0_4abd7f1655" x="251.413018" y="105.995565" style="fill: #455a64; fill-opacity: 0.9; stroke: #455a64; stroke-opacity: 0.9"/>
    </g>
    <g clip-path="url(#p497f8c3df7)">
     <use xlink:href="#C1_0_4abd7f1655" x="322.223814" y="105.995565" style="fill: #455a64; fill-opacity: 0.9; stroke: #455a64; stroke-opacity: 0.9"/>
    </g>
    <g clip-path="url(#p497f8c3df7)">
     <use xlink:href="#C1_0_4abd7f1655" x="347.459134" y="277.53221" style="fill: #455a64; fill-opacity: 0.9; stroke: #455a64; stroke-opacity: 0.9"/>
    </g>
    <g clip-path="url(#p497f8c3df7)">
     <use xlink:href="#C1_0_4abd7f1655" x="347.459134" y="118.613225" style="fill: #455a64; fill-opacity: 0.9; stroke: #455a64; stroke-opacity: 0.9"/>
    </g>
    <g clip-path="url(#p497f8c3df7)">
     <use xlink:href="#C1_0_4abd7f1655" x="347.459134" y="154.018623" style="fill: #455a64; fill-opacity: 0.9; stroke: #455a64; stroke-opacity: 0.9"/>
    </g>
    <g clip-path="url(#p497f8c3df7)">
     <use xlink:href="#C1_0_4abd7f1655" x="130.131583" y="325.555268" style="fill: #455a64; fill-opacity: 0.9; stroke: #455a64; stroke-opacity: 0.9"/>
    </g>
    <g clip-path="url(#p497f8c3df7)">
     <use xlink:href="#C1_0_4abd7f1655" x="130.131583" y="166.636283" style="fill: #455a64; fill-opacity: 0.9; stroke: #455a64; stroke-opacity: 0.9"/>
    </g>
    <g clip-path="url(#p497f8c3df7)">
     <use xlink:href="#C1_0_4abd7f1655" x="226.177698" y="338.172928" style="fill: #455a64; fill-opacity: 0.9; stroke: #455a64; stroke-opacity: 0.9"/>
    </g>
    <g clip-path="url(#p497f8c3df7)">
     <use xlink:href="#C1_0_4abd7f1655" x="155.366902" y="338.172928" style="fill: #455a64; fill-opacity: 0.9; stroke: #455a64; stroke-opacity: 0.9"/>
    </g>
    <g clip-path="url(#p497f8c3df7)">
     <use xlink:href="#C1_0_4abd7f1655" x="130.131583" y="202.041681" style="fill: #455a64; fill-opacity: 0.9; stroke: #455a64; stroke-opacity: 0.9"/>
    </g>
    <g clip-path="url(#p497f8c3df7)">
     <use xlink:href="#C1_0_4abd7f1655" x="226.177698" y="214.659341" style="fill: #455a64; fill-opacity: 0.9; stroke: #455a64; stroke-opacity: 0.9"/>
    </g>
    <g clip-path="url(#p497f8c3df7)">
     <use xlink:href="#C1_0_4abd7f1655" x="155.366902" y="214.659341" style="fill: #455a64; fill-opacity: 0.9; stroke: #455a64; stroke-opacity: 0.9"/>
    </g>
   </g>
  </g>
 </g>
 <defs>
  <clipPath id="p497f8c3df7">
   <rect x="7.2" y="7.2" width="443.52" height="443.52"/>
  </clipPath>
 </defs>
</svg>
