<?xml version="1.0" encoding="utf-8" standalone="no"?>
<!DOCTYPE svg PUBLIC "-//W3C//DTD SVG 1.1//EN"
  "http://www.w3.org/Graphics/SVG/1.1/DTD/svg11.dtd">
<svg xmlns:xlink="http://www.w3.org/1999/xlink" width="424.8pt" height="424.8pt" viewBox="0 0 424.8 424.8" xmlns="http://www.w3.org/2000/svg" version="1.1">
 <metadata>
  <rdf:RDF xmlns:dc="http://purl.org/dc/elements/1.1/" xmlns:cc="http://creativecommons.org/ns#" xmlns:rdf="http://www.w3.org/1999/02/22-rdf-syntax-ns#">
   <cc:Work>
    <dc:type rdf:resource="http://purl.org/dc/dcmitype/StillImage"/>
    <dc:date>2026-01-26T17:06:14.774006</dc:date>
    <dc:format>image/svg+xml</dc:format>
    <dc:creator>
     <cc:Agent>
      <dc:title>Matplotlib v3.10.8, https://matplotlib.org/</dc:title>
     </cc:Agent>
    </dc:creator>
   </cc:Work>
  </rdf:RDF>
 </metadata>
 <defs>
  <style type="text/css">*{stroke-linejoin: round; stroke-linecap: butt}</style>
 </defs>
 <g id="figure_1">
  <g id="patch_1">
   <path d="M 0 424.8 
L 424.8 424.8 
L 424.8 0 
L 0 0 
z
" style="fill: #ffffff"/>
  </g>
  <g id="patch_2">
   <path d="M 7.2 417.6 
L 417.6 417.6 
L 417.6 7.2 
L 7.2 7.2 
z
" style="fill: #ffffff"/>
  </g>
  <g id="axes_1">
   <g id="Path3DCollection_1">
    <defs>
     <path id="C0_0_5ceb0ad4e8" d="M 0 2.738613 
C 0.726289 2.738613 1.422928 2.450055 1.936492 1.936492 
C 2.450055 1.422928 2.738613 0.726289 2.738613 -0 
C 2.738613 -0.726289 2.450055 -1.422928 1.936492 -1.936492 
C 1.422928 -2.450055 0.726289 -2.738613 0 -2.738613 
C -0.726289 -2.738613 -1.422928 -2.450055 -1.936492 -1.936492 
C -2.450055 -1.422928 -2.738613 -0.726289 -2.738613 0 
C -2.738613 0.726289 -2.450055 1.422928 -1.936492 1.936492 
C -1.422928 2.450055 -0.726289 2.738613 0 2.738613 
z
"/>
    </defs>
    <g clip-path="url(#p62d3dc8bad)">
     <use xlink:href="#C0_0_5ceb0ad4e8" x="232.561934" y="251.052423" style="fill: #0369a1; fill-opacity: 0.3; stroke: #0369a1; stroke-opacity: 0.3"/>
    </g>
    <g clip-path="url(#p62d3dc8bad)">
     <use xlink:href="#C0_0_5ceb0ad4e8" x="178.014324" y="258.360417" style="fill: #0369a1; fill-opacity: 0.3; stroke: #0369a1; stroke-opacity: 0.3"/>
    </g>
    <g clip-path="url(#p62d3dc8bad)">
     <use xlink:href="#C0_0_5ceb0ad4e8" x="261.79391" y="265.668411" style="fill: #0369a1; fill-opacity: 0.3; stroke: #0369a1; stroke-opacity: 0.3"/>
    </g>
   </g>
   <g id="Poly3DCollection_1">
    <path d="M 167.314678 278.326228 
L 178.014324 258.360417 
L 232.561934 251.052423 
L 261.79391 265.668411 
L 268.577214 278.326228 
L 257.877568 298.292039 
L 203.329958 305.600033 
L 174.097982 290.984045 
z
" clip-path="url(#p62d3dc8bad)" style="fill: #0ea5e9; fill-opacity: 0.7; stroke: #0369a1; stroke-opacity: 0.7; stroke-width: 1.5"/>
    <path d="M 232.561934 108.108075 
L 232.561934 251.052423 
L 178.014324 258.360417 
L 178.014324 115.416069 
z
" clip-path="url(#p62d3dc8bad)" style="fill: #0ea5e9; fill-opacity: 0.7; stroke: #0369a1; stroke-opacity: 0.7; stroke-width: 1.5"/>
    <path d="M 261.79391 122.724063 
L 261.79391 265.668411 
L 232.561934 251.052423 
L 232.561934 108.108075 
z
" clip-path="url(#p62d3dc8bad)" style="fill: #0ea5e9; fill-opacity: 0.7; stroke: #0369a1; stroke-opacity: 0.7; stroke-width: 1.5"/>
    <path d="M 178.014324 115.416069 
L 178.014324 258.360417 
L 167.314678 278.326228 
L 167.314678 135.38188 
z
" clip-path="url(#p62d3dc8bad)" style="fill: #0ea5e9; fill-opacity: 0.7; stroke: #0369a1; stroke-opacity: 0.7; stroke-width: 1.5"/>
    <path d="M 268.577214 135.38188 
L 268.577214 278.326228 
L 261.79391 265.668411 
L 261.79391 122.724063 
z
" clip-path="url(#p62d3dc8bad)" style="fill: #0ea5e9; fill-opacity: 0.7; stroke: #0369a1; stroke-opacity: 0.7; stroke-width: 1.5"/>
    <path d="M 167.314678 278.326228 
L 174.097982 290.984045 
L 174.097982 148.039697 
L 167.314678 135.38188 
z
" clip-path="url(#p62d3dc8bad)" style="fill: #0ea5e9; fill-opacity: 0.7; stroke: #0369a1; stroke-opacity: 0.7; stroke-width: 1.5"/>
    <path d="M 257.877568 298.292039 
L 268.577214 278.326228 
L 268.577214 135.38188 
L 257.877568 155.347691 
z
" clip-path="url(#p62d3dc8bad)" style="fill: #0ea5e9; fill-opacity: 0.7; stroke: #0369a1; stroke-opacity: 0.7; stroke-width: 1.5"/>
    <path d="M 174.097982 290.984045 
L 203.329958 305.600033 
L 203.329958 162.655685 
L 174.097982 148.039697 
z
" clip-path="url(#p62d3dc8bad)" style="fill: #0ea5e9; fill-opacity: 0.7; stroke: #0369a1; stroke-opacity: 0.7; stroke-width: 1.5"/>
    <path d="M 203.329958 162.655685 
L 203.329958 305.600033 
L 257.877568 298.292039 
L 257.877568 155.347691 
z
" clip-path="url(#p62d3dc8bad)" style="fill: #0ea5e9; fill-opacity: 0.7; stroke: #0369a1; stroke-opacity: 0.7; stroke-width: 1.5"/>
    <path d="M 203.329958 162.655685 
L 257.877568 155.347691 
L 268.577214 135.38188 
L 261.79391 122.724063 
L 232.561934 108.108075 
L 178.014324 115.416069 
L 167.314678 135.38188 
L 174.097982 148.039697 
z
" clip-path="url(#p62d3dc8bad)" style="fill: #0ea5e9; fill-opacity: 0.7; stroke: #0369a1; stroke-opacity: 0.7; stroke-width: 1.5"/>
   </g>
   <g id="Path3DCollection_2">
    <defs>
     <path id="C1_0_b1d895b98d" d="M 0 2.738613 
C 0.726289 2.738613 1.422928 2.450055 1.936492 1.936492 
C 2.450055 1.422928 2.738613 0.726289 2.738613 -0 
C 2.738613 -0.726289 2.450055 -1.422928 1.936492 -1.936492 
C 1.422928 -2.450055 0.726289 -2.738613 0 -2.738613 
C -0.726289 -2.738613 -1.422928 -2.450055 -1.936492 -1.936492 
C -2.450055 -1.422928 -2.738613 -0.726289 -2.738613 0 
C -2.738613 0.726289 -2.450055 1.422928 -1.936492 1.936492 
C -1.422928 2.450055 -0.726289 2.738613 0 2.738613 
z
"/>
    </defs>
    <g clip-path="url(#p62d3dc8bad)">
     <use xlink:href="#C1_0_b1d895b98d" x="167.314678" y="278.326228" style="fill: #0369a1; fill-opacity: 0.9; stroke: #0369a1; stroke-opacity: 0.9"/>
    </g>
    <g clip-path="url(#p62d3dc8bad)">
     <use xlink:href="#C1_0_b1d895b98d" x="268.577214" y="278.326228" style="fill: #0369a1; fill-opacity: 0.9; stroke: #0369a1; stroke-opacity: 0.9"/>
    </g>
    <g clip-path="url(#p62d3dc8bad)">
     <use xlink:href="#C1_0_b1d895b98d" x="174.097982" y="290.984045" style="fill: #0369a1; fill-opacity: 0.9; stroke: #0369a1; stroke-opacity: 0.9"/>
    </g>
    <g clip-path="url(#p62d3dc8bad)">
     <use xlink:href="#C1_0_b1d895b98d" x="257.877568" y="298.292039" style="fill: #0369a1; fill-opacity: 0.9; stroke: #0369a1; stroke-opacity: 0.9"/>
    </g>
    <g clip-path="url(#p62d3dc8bad)">
     <use xlink:href="#C1_0_b1d895b98d" x="232.561934" y="108.108075" style="fill: #0369a1; fill-opacity: 0.9; stroke: #0369a1; stroke-opacity: 0.9"/>
    </g>
    <g clip-path="url(#p62d3dc8bad)">
     <use xlink:href="#C1_0_b1d895b98d" x="203.329958" y="305.600033" style="fill: #0369a1; fill-opacity: 0.9; stroke: #0369a1; stroke-opacity: 0.9"/>
    </g>
    <g clip-path="url(#p62d3dc8bad)">
     <use xlink:href="#C1_0_b1d895b98d" x="178.014324" y="115.416069" style="fill: #0369a1; fill-opacity: 0.9; stroke: #0369a1; stroke-opacity: 0.9"/>
    </g>
    <g clip-path="url(#p62d3dc8bad)">
     <use xlink:href="#C1_0_b1d895b98d" x="261.79391" y="122.724063" style="fill: #0369a1; fill-opacity: 0.9; stroke: #0369a1; stroke-opacity: 0.9"/>
    </g>
    <g clip-path="url(#p62d3dc8bad)">
     <use xlink:href="#C1_0_b1d895b98d" x="167.314678" y="135.38188" style="fill: #0369a1; fill-opacity: 0.9; stroke: #0369a1; stroke-opacity: 0.9"/>
    </g>
    <g clip-path="url(#p62d3dc8bad)">
     <use xlink:href="#C1_0_b1d895b98d" x="268.577214" y="135.38188" style="fill: #0369a1; fill-opacity: 0.9; stroke: #0369a1; stroke-opacity: 0.9"/>
    </g>
    <g clip-path="url(#p62d3dc8bad)">
     <use xlink:href="#C1_0_b1d895b98d" x="174.097982" y="148.039697" style="fill: #0369a1; fill-opacity: 0.9; stroke: #0369a1; stroke-opacity: 0.9"/>
    </g>
    <g clip-path="url(#p62d3dc8bad)">
     <use xlink:href="#C1_0_b1d895b98d" x="257.877568" y="155.347691" style="fill: #0369a1; fill-opacity: 0.9; stroke: #0369a1; stroke-opacity: 0.9"/>
    </g>
    <g clip-path="url(#p62d3dc8bad)">
     <use xlink:href="#C1_0_b1d895b98d" x="203.329958" y="162.655685" style="fill: #0369a1; fill-opacity: 0.9; stroke: #0369a1; stroke-opacity: 0.9"/>
    </g>
   </g>
  </g>
 </g>
 <defs>
  <clipPath id="p62d3dc8bad">
   <rect x="7.2" y="7.2" width="410.4" height="410.4"/>
  </clipPath>
 </defs>
</svg>
