<?xml version="1.0" encoding="utf-8" standalone="no"?>
<!DOCTYPE svg PUBLIC "-//W3C//DTD SVG 1.1//EN"
  "http://www.w3.org/Graphics/SVG/1.1/DTD/svg11.dtd">
<svg xmlns:xlink="http://www.w3.org/1999/xlink" width="424.8pt" height="424.8pt" viewBox="0 0 424.8 424.8" xmlns="http://www.w3.org/2000/svg" version="1.1">
 <metadata>
  <rdf:RDF xmlns:dc="http://purl.org/dc/elements/1.1/" xmlns:cc="http://creativecommons.org/ns#" xmlns:rdf="http://www.w3.org/1999/02/22-rdf-syntax-ns#">
   <cc:Work>
    <dc:type rdf:resource="http://purl.org/dc/dcmitype/StillImage"/>
    <dc:date>2026-01-27T08:32:33.207885</dc:date>
    <dc:format>image/svg+xml</dc:format>
    <dc:creator>
     <cc:Agent>
      <dc:title>Matplotlib v3.10.8, https://matplotlib.org/</dc:title>
     </cc:Agent>
    </dc:creator>
   </cc:Work>
  </rdf:RDF>
 </metadata>
 <defs>
  <style type="text/css">*{stroke-linejoin: round; stroke-linecap: butt}</style>
 </defs>
 <g id="figure_1">
  <g id="patch_1">
   <path d="M 0 424.8 
L 424.8 424.8 
L 424.8 0 
L 0 0 
z
" style="fill: #ffffff"/>
  </g>
  <g id="patch_2">
   <path d="M 7.2 417.6 
L 417.6 417.6 
L 417.6 7.2 
L 7.2 7.2 
z
" style="fill: #ffffff"/>
  </g>
  <g id="axes_1">
   <g id="Path3DCollection_1">
    <defs>
     <path id="C0_0_4e29f75161" d="M 0 2.738613 
C 0.726289 2.738613 1.422928 2.450055 1.936492 1.936492 
C 2.450055 1.422928 2.738613 0.726289 2.738613 -0 
C 2.738613 -0.726289 2.450055 -1.422928 1.936492 -1.936492 
C 1.422928 -2.450055 0.726289 -2.738613 0 -2.738613 
C -0.726289 -2.738613 -1.422928 -2.450055 -1.936492 -1.936492 
C -2.450055 -1.422928 -2.738613 -0.726289 -2.738613 0 
C -2.738613 0.726289 -2.450055 1.422928 -1.936492 1.936492 
C -1.422928 2.450055 -0.726289 2.738613 0 2.738613 
z
"/>
    </defs>
    <g clip-path="url(#p54029150da)">
     <use xlink:href="#C0_0_4e29f75161" x="226.394347" y="225.471373" style="fill: #0369a1; fill-opacity: 0.3; stroke: #0369a1; stroke-opacity: 0.3"/>
    </g>
    <g clip-path="url(#p54029150da)">
     <use xlink:href="#C0_0_4e29f75161" x="232.782997" y="228.665698" style="fill: #0369a1; fill-opacity: 0.3; stroke: #0369a1; stroke-opacity: 0.3"/>
    </g>
    <g clip-path="url(#p54029150da)">
     <use xlink:href="#C0_0_4e29f75161" x="135.521688" y="270.907702" style="fill: #0369a1; fill-opacity: 0.3; stroke: #0369a1; stroke-opacity: 0.3"/>
    </g>
    <g clip-path="url(#p54029150da)">
     <use xlink:href="#C0_0_4e29f75161" x="317.267006" y="270.907702" style="fill: #0369a1; fill-opacity: 0.3; stroke: #0369a1; stroke-opacity: 0.3"/>
    </g>
   </g>
   <g id="Poly3DCollection_1">
    <path d="M 232.782997 85.72135 
L 232.782997 228.665698 
L 226.394347 225.471373 
L 226.394347 82.527025 
z
" clip-path="url(#p54029150da)" style="fill: #0ea5e9; fill-opacity: 0.7; stroke: #0369a1; stroke-opacity: 0.7; stroke-width: 1.5"/>
    <path d="M 226.394347 225.471373 
L 129.133037 274.102028 
L 129.133037 131.15768 
L 226.394347 82.527025 
z
" clip-path="url(#p54029150da)" style="fill: #0ea5e9; fill-opacity: 0.7; stroke: #0369a1; stroke-opacity: 0.7; stroke-width: 1.5"/>
    <path d="M 232.782997 319.538357 
L 226.394347 322.732682 
L 129.133037 274.102028 
L 226.394347 225.471373 
L 232.782997 228.665698 
z
" clip-path="url(#p54029150da)" style="fill: #0ea5e9; fill-opacity: 0.7; stroke: #0369a1; stroke-opacity: 0.7; stroke-width: 1.5"/>
    <path d="M 317.267006 270.907702 
L 323.655656 274.102028 
L 226.394347 322.732682 
L 129.133037 274.102028 
L 135.521688 270.907702 
z
" clip-path="url(#p54029150da)" style="fill: #0ea5e9; fill-opacity: 0.7; stroke: #0369a1; stroke-opacity: 0.7; stroke-width: 1.5"/>
    <path d="M 135.521688 270.907702 
L 135.521688 127.963354 
L 317.267006 127.963354 
L 317.267006 270.907702 
z
" clip-path="url(#p54029150da)" style="fill: #0ea5e9; fill-opacity: 0.7; stroke: #0369a1; stroke-opacity: 0.7; stroke-width: 1.5"/>
    <path d="M 317.267006 270.907702 
L 317.267006 127.963354 
L 323.655656 131.15768 
L 323.655656 274.102028 
z
" clip-path="url(#p54029150da)" style="fill: #0ea5e9; fill-opacity: 0.7; stroke: #0369a1; stroke-opacity: 0.7; stroke-width: 1.5"/>
    <path d="M 129.133037 274.102028 
L 129.133037 131.15768 
L 135.521688 127.963354 
L 135.521688 270.907702 
z
" clip-path="url(#p54029150da)" style="fill: #0ea5e9; fill-opacity: 0.7; stroke: #0369a1; stroke-opacity: 0.7; stroke-width: 1.5"/>
    <path d="M 232.782997 176.594009 
L 232.782997 319.538357 
L 232.782997 228.665698 
L 232.782997 85.72135 
z
" clip-path="url(#p54029150da)" style="fill: #0ea5e9; fill-opacity: 0.7; stroke: #0369a1; stroke-opacity: 0.7; stroke-width: 1.5"/>
    <path d="M 232.782997 85.72135 
L 226.394347 82.527025 
L 129.133037 131.15768 
L 226.394347 179.788334 
L 232.782997 176.594009 
z
" clip-path="url(#p54029150da)" style="fill: #0ea5e9; fill-opacity: 0.7; stroke: #0369a1; stroke-opacity: 0.7; stroke-width: 1.5"/>
    <path d="M 226.394347 179.788334 
L 129.133037 131.15768 
L 129.133037 274.102028 
L 226.394347 322.732682 
z
" clip-path="url(#p54029150da)" style="fill: #0ea5e9; fill-opacity: 0.7; stroke: #0369a1; stroke-opacity: 0.7; stroke-width: 1.5"/>
    <path d="M 129.133037 274.102028 
L 226.394347 322.732682 
L 226.394347 179.788334 
L 129.133037 131.15768 
z
" clip-path="url(#p54029150da)" style="fill: #0ea5e9; fill-opacity: 0.7; stroke: #0369a1; stroke-opacity: 0.7; stroke-width: 1.5"/>
    <path d="M 323.655656 131.15768 
L 226.394347 179.788334 
L 226.394347 322.732682 
L 323.655656 274.102028 
z
" clip-path="url(#p54029150da)" style="fill: #0ea5e9; fill-opacity: 0.7; stroke: #0369a1; stroke-opacity: 0.7; stroke-width: 1.5"/>
    <path d="M 135.521688 127.963354 
L 129.133037 131.15768 
L 226.394347 179.788334 
L 323.655656 131.15768 
L 317.267006 127.963354 
z
" clip-path="url(#p54029150da)" style="fill: #0ea5e9; fill-opacity: 0.7; stroke: #0369a1; stroke-opacity: 0.7; stroke-width: 1.5"/>
    <path d="M 226.394347 179.788334 
L 226.394347 322.732682 
L 232.782997 319.538357 
L 232.782997 176.594009 
z
" clip-path="url(#p54029150da)" style="fill: #0ea5e9; fill-opacity: 0.7; stroke: #0369a1; stroke-opacity: 0.7; stroke-width: 1.5"/>
   </g>
   <g id="Path3DCollection_2">
    <defs>
     <path id="C1_0_9efae5022e" d="M 0 2.738613 
C 0.726289 2.738613 1.422928 2.450055 1.936492 1.936492 
C 2.450055 1.422928 2.738613 0.726289 2.738613 -0 
C 2.738613 -0.726289 2.450055 -1.422928 1.936492 -1.936492 
C 1.422928 -2.450055 0.726289 -2.738613 0 -2.738613 
C -0.726289 -2.738613 -1.422928 -2.450055 -1.936492 -1.936492 
C -2.450055 -1.422928 -2.738613 -0.726289 -2.738613 0 
C -2.738613 0.726289 -2.450055 1.422928 -1.936492 1.936492 
C -1.422928 2.450055 -0.726289 2.738613 0 2.738613 
z
"/>
    </defs>
    <g clip-path="url(#p54029150da)">
     <use xlink:href="#C1_0_9efae5022e" x="226.394347" y="82.527025" style="fill: #0369a1; fill-opacity: 0.9; stroke: #0369a1; stroke-opacity: 0.9"/>
    </g>
    <g clip-path="url(#p54029150da)">
     <use xlink:href="#C1_0_9efae5022e" x="129.133037" y="274.102028" style="fill: #0369a1; fill-opacity: 0.9; stroke: #0369a1; stroke-opacity: 0.9"/>
    </g>
    <g clip-path="url(#p54029150da)">
     <use xlink:href="#C1_0_9efae5022e" x="323.655656" y="274.102028" style="fill: #0369a1; fill-opacity: 0.9; stroke: #0369a1; stroke-opacity: 0.9"/>
    </g>
    <g clip-path="url(#p54029150da)">
     <use xlink:href="#C1_0_9efae5022e" x="129.133037" y="274.102028" style="fill: #0369a1; fill-opacity: 0.9; stroke: #0369a1; stroke-opacity: 0.9"/>
    </g>
    <g clip-path="url(#p54029150da)">
     <use xlink:href="#C1_0_9efae5022e" x="232.782997" y="85.72135" style="fill: #0369a1; fill-opacity: 0.9; stroke: #0369a1; stroke-opacity: 0.9"/>
    </g>
    <g clip-path="url(#p54029150da)">
     <use xlink:href="#C1_0_9efae5022e" x="135.521688" y="127.963354" style="fill: #0369a1; fill-opacity: 0.9; stroke: #0369a1; stroke-opacity: 0.9"/>
    </g>
    <g clip-path="url(#p54029150da)">
     <use xlink:href="#C1_0_9efae5022e" x="317.267006" y="127.963354" style="fill: #0369a1; fill-opacity: 0.9; stroke: #0369a1; stroke-opacity: 0.9"/>
    </g>
    <g clip-path="url(#p54029150da)">
     <use xlink:href="#C1_0_9efae5022e" x="232.782997" y="319.538357" style="fill: #0369a1; fill-opacity: 0.9; stroke: #0369a1; stroke-opacity: 0.9"/>
    </g>
    <g clip-path="url(#p54029150da)">
     <use xlink:href="#C1_0_9efae5022e" x="129.133037" y="131.15768" style="fill: #0369a1; fill-opacity: 0.9; stroke: #0369a1; stroke-opacity: 0.9"/>
    </g>
    <g clip-path="url(#p54029150da)">
     <use xlink:href="#C1_0_9efae5022e" x="323.655656" y="131.15768" style="fill: #0369a1; fill-opacity: 0.9; stroke: #0369a1; stroke-opacity: 0.9"/>
    </g>
    <g clip-path="url(#p54029150da)">
     <use xlink:href="#C1_0_9efae5022e" x="129.133037" y="131.15768" style="fill: #0369a1; fill-opacity: 0.9; stroke: #0369a1; stroke-opacity: 0.9"/>
    </g>
    <g clip-path="url(#p54029150da)">
     <use xlink:href="#C1_0_9efae5022e" x="226.394347" y="322.732682" style="fill: #0369a1; fill-opacity: 0.9; stroke: #0369a1; stroke-opacity: 0.9"/>
    </g>
    <g clip-path="url(#p54029150da)">
     <use xlink:href="#C1_0_9efae5022e" x="226.394347" y="322.732682" style="fill: #0369a1; fill-opacity: 0.9; stroke: #0369a1; stroke-opacity: 0.9"/>
    </g>
    <g clip-path="url(#p54029150da)">
     <use xlink:href="#C1_0_9efae5022e" x="232.782997" y="176.594009" style="fill: #0369a1; fill-opacity: 0.9; stroke: #0369a1; stroke-opacity: 0.9"/>
    </g>
    <g clip-path="url(#p54029150da)">
     <use xlink:href="#C1_0_9efae5022e" x="226.394347" y="179.788334" style="fill: #0369a1; fill-opacity: 0.9; stroke: #0369a1; stroke-opacity: 0.9"/>
    </g>
    <g clip-path="url(#p54029150da)">
     <use xlink:href="#C1_0_9efae5022e" x="226.394347" y="179.788334" style="fill: #0369a1; fill-opacity: 0.9; stroke: #0369a1; stroke-opacity: 0.9"/>
    </g>
   </g>
  </g>
 </g>
 <defs>
  <clipPath id="p54029150da">
   <rect x="7.2" y="7.2" width="410.4" height="410.4"/>
  </clipPath>
 </defs>
</svg>
