<?xml version="1.0" encoding="utf-8" standalone="no"?>
<!DOCTYPE svg PUBLIC "-//W3C//DTD SVG 1.1//EN"
  "http://www.w3.org/Graphics/SVG/1.1/DTD/svg11.dtd">
<svg xmlns:xlink="http://www.w3.org/1999/xlink" width="424.8pt" height="424.8pt" viewBox="0 0 424.8 424.8" xmlns="http://www.w3.org/2000/svg" version="1.1">
 <metadata>
  <rdf:RDF xmlns:dc="http://purl.org/dc/elements/1.1/" xmlns:cc="http://creativecommons.org/ns#" xmlns:rdf="http://www.w3.org/1999/02/22-rdf-syntax-ns#">
   <cc:Work>
    <dc:type rdf:resource="http://purl.org/dc/dcmitype/StillImage"/>
    <dc:date>2026-01-26T17:06:14.998239</dc:date>
    <dc:format>image/svg+xml</dc:format>
    <dc:creator>
     <cc:Agent>
      <dc:title>Matplotlib v3.10.8, https://matplotlib.org/</dc:title>
     </cc:Agent>
    </dc:creator>
   </cc:Work>
  </rdf:RDF>
 </metadata>
 <defs>
  <style type="text/css">*{stroke-linejoin: round; stroke-linecap: butt}</style>
 </defs>
 <g id="figure_1">
  <g id="patch_1">
   <path d="M 0 424.8 
L 424.8 424.8 
L 424.8 0 
L 0 0 
z
" style="fill: #ffffff"/>
  </g>
  <g id="patch_2">
   <path d="M 7.2 417.6 
L 417.6 417.6 
L 417.6 7.2 
L 7.2 7.2 
z
" style="fill: #ffffff"/>
  </g>
  <g id="axes_1">
   <g id="Path3DCollection_1">
    <defs>
     <path id="C0_0_6d4ef4c74a" d="M 0 2.738613 
C 0.726289 2.738613 1.422928 2.450055 1.936492 1.936492 
C 2.450055 1.422928 2.738613 0.726289 2.738613 -0 
C 2.738613 -0.726289 2.450055 -1.422928 1.936492 -1.936492 
C 1.422928 -2.450055 0.726289 -2.738613 0 -2.738613 
C -0.726289 -2.738613 -1.422928 -2.450055 -1.936492 -1.936492 
C -2.450055 -1.422928 -2.738613 -0.726289 -2.738613 0 
C -2.738613 0.726289 -2.450055 1.422928 -1.936492 1.936492 
C -1.422928 2.450055 -0.726289 2.738613 0 2.738613 
z
"/>
    </defs>
    <g clip-path="url(#p03cc931a11)">
     <use xlink:href="#C0_0_6d4ef4c74a" x="217.945946" y="202.629472" style="fill: #0369a1; fill-opacity: 0.3; stroke: #0369a1; stroke-opacity: 0.3"/>
    </g>
    <g clip-path="url(#p03cc931a11)">
     <use xlink:href="#C0_0_6d4ef4c74a" x="256.85047" y="148.497268" style="fill: #0369a1; fill-opacity: 0.3; stroke: #0369a1; stroke-opacity: 0.3"/>
    </g>
    <g clip-path="url(#p03cc931a11)">
     <use xlink:href="#C0_0_6d4ef4c74a" x="140.136898" y="203.685617" style="fill: #0369a1; fill-opacity: 0.3; stroke: #0369a1; stroke-opacity: 0.3"/>
    </g>
    <g clip-path="url(#p03cc931a11)">
     <use xlink:href="#C0_0_6d4ef4c74a" x="256.85047" y="258.873966" style="fill: #0369a1; fill-opacity: 0.3; stroke: #0369a1; stroke-opacity: 0.3"/>
    </g>
   </g>
   <g id="Poly3DCollection_1">
    <path d="M 140.136898 203.685617 
L 140.136898 132.213443 
L 217.945946 107.33324 
L 256.85047 148.497268 
L 217.945946 202.629472 
z
" clip-path="url(#p03cc931a11)" style="fill: #0ea5e9; fill-opacity: 0.7; stroke: #0369a1; stroke-opacity: 0.7; stroke-width: 1.5"/>
    <path d="M 217.945946 202.629472 
L 256.85047 148.497268 
L 334.659517 187.401792 
L 321.691343 254.50217 
L 256.85047 258.873966 
z
" clip-path="url(#p03cc931a11)" style="fill: #0ea5e9; fill-opacity: 0.7; stroke: #0369a1; stroke-opacity: 0.7; stroke-width: 1.5"/>
    <path d="M 217.945946 202.629472 
L 256.85047 258.873966 
L 179.041422 297.77849 
L 114.200549 254.50217 
L 140.136898 203.685617 
z
" clip-path="url(#p03cc931a11)" style="fill: #0ea5e9; fill-opacity: 0.7; stroke: #0369a1; stroke-opacity: 0.7; stroke-width: 1.5"/>
    <path d="M 256.85047 148.497268 
L 217.945946 107.33324 
L 256.85047 115.929618 
L 321.691343 159.205938 
L 334.659517 187.401792 
z
" clip-path="url(#p03cc931a11)" style="fill: #0ea5e9; fill-opacity: 0.7; stroke: #0369a1; stroke-opacity: 0.7; stroke-width: 1.5"/>
    <path d="M 140.136898 203.685617 
L 114.200549 254.50217 
L 101.232375 226.306316 
L 114.200549 159.205938 
L 140.136898 132.213443 
z
" clip-path="url(#p03cc931a11)" style="fill: #0ea5e9; fill-opacity: 0.7; stroke: #0369a1; stroke-opacity: 0.7; stroke-width: 1.5"/>
    <path d="M 321.691343 254.50217 
L 295.754993 281.494665 
L 217.945946 306.374868 
L 179.041422 297.77849 
L 256.85047 258.873966 
z
" clip-path="url(#p03cc931a11)" style="fill: #0ea5e9; fill-opacity: 0.7; stroke: #0369a1; stroke-opacity: 0.7; stroke-width: 1.5"/>
    <path d="M 114.200549 159.205938 
L 179.041422 154.834142 
L 256.85047 115.929618 
L 217.945946 107.33324 
L 140.136898 132.213443 
z
" clip-path="url(#p03cc931a11)" style="fill: #0ea5e9; fill-opacity: 0.7; stroke: #0369a1; stroke-opacity: 0.7; stroke-width: 1.5"/>
    <path d="M 334.659517 187.401792 
L 321.691343 159.205938 
L 295.754993 210.022491 
L 295.754993 281.494665 
L 321.691343 254.50217 
z
" clip-path="url(#p03cc931a11)" style="fill: #0ea5e9; fill-opacity: 0.7; stroke: #0369a1; stroke-opacity: 0.7; stroke-width: 1.5"/>
    <path d="M 179.041422 297.77849 
L 217.945946 306.374868 
L 179.041422 265.21084 
L 101.232375 226.306316 
L 114.200549 254.50217 
z
" clip-path="url(#p03cc931a11)" style="fill: #0ea5e9; fill-opacity: 0.7; stroke: #0369a1; stroke-opacity: 0.7; stroke-width: 1.5"/>
    <path d="M 256.85047 115.929618 
L 179.041422 154.834142 
L 217.945946 211.078636 
L 295.754993 210.022491 
L 321.691343 159.205938 
z
" clip-path="url(#p03cc931a11)" style="fill: #0ea5e9; fill-opacity: 0.7; stroke: #0369a1; stroke-opacity: 0.7; stroke-width: 1.5"/>
    <path d="M 114.200549 159.205938 
L 101.232375 226.306316 
L 179.041422 265.21084 
L 217.945946 211.078636 
L 179.041422 154.834142 
z
" clip-path="url(#p03cc931a11)" style="fill: #0ea5e9; fill-opacity: 0.7; stroke: #0369a1; stroke-opacity: 0.7; stroke-width: 1.5"/>
    <path d="M 295.754993 210.022491 
L 217.945946 211.078636 
L 179.041422 265.21084 
L 217.945946 306.374868 
L 295.754993 281.494665 
z
" clip-path="url(#p03cc931a11)" style="fill: #0ea5e9; fill-opacity: 0.7; stroke: #0369a1; stroke-opacity: 0.7; stroke-width: 1.5"/>
   </g>
   <g id="Path3DCollection_2">
    <defs>
     <path id="C1_0_361c336b66" d="M 0 2.738613 
C 0.726289 2.738613 1.422928 2.450055 1.936492 1.936492 
C 2.450055 1.422928 2.738613 0.726289 2.738613 -0 
C 2.738613 -0.726289 2.450055 -1.422928 1.936492 -1.936492 
C 1.422928 -2.450055 0.726289 -2.738613 0 -2.738613 
C -0.726289 -2.738613 -1.422928 -2.450055 -1.936492 -1.936492 
C -2.450055 -1.422928 -2.738613 -0.726289 -2.738613 0 
C -2.738613 0.726289 -2.450055 1.422928 -1.936492 1.936492 
C -1.422928 2.450055 -0.726289 2.738613 0 2.738613 
z
"/>
    </defs>
    <g clip-path="url(#p03cc931a11)">
     <use xlink:href="#C1_0_361c336b66" x="217.945946" y="107.33324" style="fill: #0369a1; fill-opacity: 0.9; stroke: #0369a1; stroke-opacity: 0.9"/>
    </g>
    <g clip-path="url(#p03cc931a11)">
     <use xlink:href="#C1_0_361c336b66" x="140.136898" y="132.213443" style="fill: #0369a1; fill-opacity: 0.9; stroke: #0369a1; stroke-opacity: 0.9"/>
    </g>
    <g clip-path="url(#p03cc931a11)">
     <use xlink:href="#C1_0_361c336b66" x="334.659517" y="187.401792" style="fill: #0369a1; fill-opacity: 0.9; stroke: #0369a1; stroke-opacity: 0.9"/>
    </g>
    <g clip-path="url(#p03cc931a11)">
     <use xlink:href="#C1_0_361c336b66" x="321.691343" y="254.50217" style="fill: #0369a1; fill-opacity: 0.9; stroke: #0369a1; stroke-opacity: 0.9"/>
    </g>
    <g clip-path="url(#p03cc931a11)">
     <use xlink:href="#C1_0_361c336b66" x="114.200549" y="254.50217" style="fill: #0369a1; fill-opacity: 0.9; stroke: #0369a1; stroke-opacity: 0.9"/>
    </g>
    <g clip-path="url(#p03cc931a11)">
     <use xlink:href="#C1_0_361c336b66" x="179.041422" y="297.77849" style="fill: #0369a1; fill-opacity: 0.9; stroke: #0369a1; stroke-opacity: 0.9"/>
    </g>
    <g clip-path="url(#p03cc931a11)">
     <use xlink:href="#C1_0_361c336b66" x="256.85047" y="115.929618" style="fill: #0369a1; fill-opacity: 0.9; stroke: #0369a1; stroke-opacity: 0.9"/>
    </g>
    <g clip-path="url(#p03cc931a11)">
     <use xlink:href="#C1_0_361c336b66" x="114.200549" y="159.205938" style="fill: #0369a1; fill-opacity: 0.9; stroke: #0369a1; stroke-opacity: 0.9"/>
    </g>
    <g clip-path="url(#p03cc931a11)">
     <use xlink:href="#C1_0_361c336b66" x="321.691343" y="159.205938" style="fill: #0369a1; fill-opacity: 0.9; stroke: #0369a1; stroke-opacity: 0.9"/>
    </g>
    <g clip-path="url(#p03cc931a11)">
     <use xlink:href="#C1_0_361c336b66" x="101.232375" y="226.306316" style="fill: #0369a1; fill-opacity: 0.9; stroke: #0369a1; stroke-opacity: 0.9"/>
    </g>
    <g clip-path="url(#p03cc931a11)">
     <use xlink:href="#C1_0_361c336b66" x="295.754993" y="281.494665" style="fill: #0369a1; fill-opacity: 0.9; stroke: #0369a1; stroke-opacity: 0.9"/>
    </g>
    <g clip-path="url(#p03cc931a11)">
     <use xlink:href="#C1_0_361c336b66" x="217.945946" y="306.374868" style="fill: #0369a1; fill-opacity: 0.9; stroke: #0369a1; stroke-opacity: 0.9"/>
    </g>
    <g clip-path="url(#p03cc931a11)">
     <use xlink:href="#C1_0_361c336b66" x="179.041422" y="154.834142" style="fill: #0369a1; fill-opacity: 0.9; stroke: #0369a1; stroke-opacity: 0.9"/>
    </g>
    <g clip-path="url(#p03cc931a11)">
     <use xlink:href="#C1_0_361c336b66" x="295.754993" y="210.022491" style="fill: #0369a1; fill-opacity: 0.9; stroke: #0369a1; stroke-opacity: 0.9"/>
    </g>
    <g clip-path="url(#p03cc931a11)">
     <use xlink:href="#C1_0_361c336b66" x="179.041422" y="265.21084" style="fill: #0369a1; fill-opacity: 0.9; stroke: #0369a1; stroke-opacity: 0.9"/>
    </g>
    <g clip-path="url(#p03cc931a11)">
     <use xlink:href="#C1_0_361c336b66" x="217.945946" y="211.078636" style="fill: #0369a1; fill-opacity: 0.9; stroke: #0369a1; stroke-opacity: 0.9"/>
    </g>
   </g>
  </g>
 </g>
 <defs>
  <clipPath id="p03cc931a11">
   <rect x="7.2" y="7.2" width="410.4" height="410.4"/>
  </clipPath>
 </defs>
</svg>
