<?xml version="1.0" encoding="utf-8" standalone="no"?>
<!DOCTYPE svg PUBLIC "-//W3C//DTD SVG 1.1//EN"
  "http://www.w3.org/Graphics/SVG/1.1/DTD/svg11.dtd">
<svg xmlns:xlink="http://www.w3.org/1999/xlink" width="424.8pt" height="424.8pt" viewBox="0 0 424.8 424.8" xmlns="http://www.w3.org/2000/svg" version="1.1">
 <metadata>
  <rdf:RDF xmlns:dc="http://purl.org/dc/elements/1.1/" xmlns:cc="http://creativecommons.org/ns#" xmlns:rdf="http://www.w3.org/1999/02/22-rdf-syntax-ns#">
   <cc:Work>
    <dc:type rdf:resource="http://purl.org/dc/dcmitype/StillImage"/>
    <dc:date>2026-01-26T17:14:39.824115</dc:date>
    <dc:format>image/svg+xml</dc:format>
    <dc:creator>
     <cc:Agent>
      <dc:title>Matplotlib v3.10.8, https://matplotlib.org/</dc:title>
     </cc:Agent>
    </dc:creator>
   </cc:Work>
  </rdf:RDF>
 </metadata>
 <defs>
  <style type="text/css">*{stroke-linejoin: round; stroke-linecap: butt}</style>
 </defs>
 <g id="figure_1">
  <g id="patch_1">
   <path d="M 0 424.8 
L 424.8 424.8 
L 424.8 0 
L 0 0 
z
" style="fill: #ffffff"/>
  </g>
  <g id="patch_2">
   <path d="M 7.2 417.6 
L 417.6 417.6 
L 417.6 7.2 
L 7.2 7.2 
z
" style="fill: #ffffff"/>
  </g>
  <g id="axes_1">
   <g id="Path3DCollection_1">
    <defs>
     <path id="C0_0_a39bd8adb7" d="M 0 2.738613 
C 0.726289 2.738613 1.422928 2.450055 1.936492 1.936492 
C 2.450055 1.422928 2.738613 0.726289 2.738613 -0 
C 2.738613 -0.726289 2.450055 -1.422928 1.936492 -1.936492 
C 1.422928 -2.450055 0.726289 -2.738613 0 -2.738613 
C -0.726289 -2.738613 -1.422928 -2.450055 -1.936492 -1.936492 
C -2.450055 -1.422928 -2.738613 -0.726289 -2.738613 0 
C -2.738613 0.726289 -2.450055 1.422928 -1.936492 1.936492 
C -1.422928 2.450055 -0.726289 2.738613 0 2.738613 
z
"/>
    </defs>
    <g clip-path="url(#pfb62053888)">
     <use xlink:href="#C0_0_a39bd8adb7" x="163.150719" y="181.883888" style="fill: #0369a1; fill-opacity: 0.3; stroke: #0369a1; stroke-opacity: 0.3"/>
    </g>
    <g clip-path="url(#pfb62053888)">
     <use xlink:href="#C0_0_a39bd8adb7" x="160.897162" y="191.744492" style="fill: #0369a1; fill-opacity: 0.3; stroke: #0369a1; stroke-opacity: 0.3"/>
    </g>
    <g clip-path="url(#pfb62053888)">
     <use xlink:href="#C0_0_a39bd8adb7" x="206.743273" y="164.782877" style="fill: #0369a1; fill-opacity: 0.3; stroke: #0369a1; stroke-opacity: 0.3"/>
    </g>
    <g clip-path="url(#pfb62053888)">
     <use xlink:href="#C0_0_a39bd8adb7" x="213.889646" y="165.073882" style="fill: #0369a1; fill-opacity: 0.3; stroke: #0369a1; stroke-opacity: 0.3"/>
    </g>
    <g clip-path="url(#pfb62053888)">
     <use xlink:href="#C0_0_a39bd8adb7" x="278.191634" y="200.507057" style="fill: #0369a1; fill-opacity: 0.3; stroke: #0369a1; stroke-opacity: 0.3"/>
    </g>
    <g clip-path="url(#pfb62053888)">
     <use xlink:href="#C0_0_a39bd8adb7" x="278.191634" y="197.224876" style="fill: #0369a1; fill-opacity: 0.3; stroke: #0369a1; stroke-opacity: 0.3"/>
    </g>
    <g clip-path="url(#pfb62053888)">
     <use xlink:href="#C0_0_a39bd8adb7" x="256.56967" y="239.580746" style="fill: #0369a1; fill-opacity: 0.3; stroke: #0369a1; stroke-opacity: 0.3"/>
    </g>
    <g clip-path="url(#pfb62053888)">
     <use xlink:href="#C0_0_a39bd8adb7" x="283.441797" y="217.910897" style="fill: #0369a1; fill-opacity: 0.3; stroke: #0369a1; stroke-opacity: 0.3"/>
    </g>
   </g>
   <g id="Poly3DCollection_1">
    <path d="M 150.837057 210.516903 
L 163.150719 181.883888 
L 160.897162 191.744492 
z
" clip-path="url(#pfb62053888)" style="fill: #0ea5e9; fill-opacity: 0.7; stroke: #0369a1; stroke-opacity: 0.7; stroke-width: 1.5"/>
    <path d="M 154.190426 185.583961 
L 163.150719 181.883888 
L 150.837057 210.516903 
z
" clip-path="url(#pfb62053888)" style="fill: #0ea5e9; fill-opacity: 0.7; stroke: #0369a1; stroke-opacity: 0.7; stroke-width: 1.5"/>
    <path d="M 206.743273 164.782877 
L 278.191634 200.507057 
L 283.441797 217.910897 
L 256.56967 239.580746 
L 160.897162 191.744492 
L 163.150719 181.883888 
z
" clip-path="url(#pfb62053888)" style="fill: #0ea5e9; fill-opacity: 0.7; stroke: #0369a1; stroke-opacity: 0.7; stroke-width: 1.5"/>
    <path d="M 213.889646 165.073882 
L 278.191634 197.224876 
L 278.191634 200.507057 
L 206.743273 164.782877 
z
" clip-path="url(#pfb62053888)" style="fill: #0ea5e9; fill-opacity: 0.7; stroke: #0369a1; stroke-opacity: 0.7; stroke-width: 1.5"/>
    <path d="M 206.743273 164.782877 
L 230.559393 156.75405 
L 235.323642 157.848111 
L 213.889646 165.073882 
z
" clip-path="url(#pfb62053888)" style="fill: #0ea5e9; fill-opacity: 0.7; stroke: #0369a1; stroke-opacity: 0.7; stroke-width: 1.5"/>
    <path d="M 163.150719 181.883888 
L 154.190426 185.583961 
L 186.081262 174.833008 
L 221.267653 160.800299 
L 230.559393 156.75405 
L 206.743273 164.782877 
z
" clip-path="url(#pfb62053888)" style="fill: #0ea5e9; fill-opacity: 0.7; stroke: #0369a1; stroke-opacity: 0.7; stroke-width: 1.5"/>
    <path d="M 261.937222 187.835622 
L 283.441797 199.414911 
L 278.191634 197.224876 
L 213.889646 165.073882 
z
" clip-path="url(#pfb62053888)" style="fill: #0ea5e9; fill-opacity: 0.7; stroke: #0369a1; stroke-opacity: 0.7; stroke-width: 1.5"/>
    <path d="M 248.494032 234.998596 
L 261.937222 187.835622 
L 213.889646 165.073882 
L 206.743273 164.782877 
L 163.150719 181.883888 
L 150.837057 210.516903 
L 150.837057 245.361161 
L 195.423173 266.483092 
z
" clip-path="url(#pfb62053888)" style="fill: #0ea5e9; fill-opacity: 0.7; stroke: #0369a1; stroke-opacity: 0.7; stroke-width: 1.5"/>
    <path d="M 195.423173 266.483092 
L 150.837057 245.361161 
L 150.837057 210.516903 
L 163.150719 181.883888 
L 206.743273 164.782877 
L 213.889646 165.073882 
L 261.937222 187.835622 
L 248.494032 234.998596 
z
" clip-path="url(#pfb62053888)" style="fill: #0ea5e9; fill-opacity: 0.7; stroke: #0369a1; stroke-opacity: 0.7; stroke-width: 1.5"/>
    <path d="M 213.889646 165.073882 
L 235.323642 157.848111 
L 248.115491 166.965627 
L 261.937222 187.835622 
z
" clip-path="url(#pfb62053888)" style="fill: #0ea5e9; fill-opacity: 0.7; stroke: #0369a1; stroke-opacity: 0.7; stroke-width: 1.5"/>
    <path d="M 150.837057 210.516903 
L 160.897162 191.744492 
L 256.56967 239.580746 
L 233.944612 281.799679 
L 225.876057 282.88066 
L 150.837057 245.361161 
z
" clip-path="url(#pfb62053888)" style="fill: #0ea5e9; fill-opacity: 0.7; stroke: #0369a1; stroke-opacity: 0.7; stroke-width: 1.5"/>
    <path d="M 283.441797 199.414911 
L 289.824614 220.573404 
L 283.441797 217.910897 
L 278.191634 200.507057 
L 278.191634 197.224876 
z
" clip-path="url(#pfb62053888)" style="fill: #0ea5e9; fill-opacity: 0.7; stroke: #0369a1; stroke-opacity: 0.7; stroke-width: 1.5"/>
    <path d="M 150.837057 245.361161 
L 175.850057 236.928845 
L 178.539576 230.906903 
L 186.081262 174.833008 
L 154.190426 185.583961 
L 150.837057 210.516903 
z
" clip-path="url(#pfb62053888)" style="fill: #0ea5e9; fill-opacity: 0.7; stroke: #0369a1; stroke-opacity: 0.7; stroke-width: 1.5"/>
    <path d="M 235.323642 157.848111 
L 230.559393 156.75405 
L 221.267653 160.800299 
L 236.819178 171.884802 
L 248.115491 166.965627 
z
" clip-path="url(#pfb62053888)" style="fill: #0ea5e9; fill-opacity: 0.7; stroke: #0369a1; stroke-opacity: 0.7; stroke-width: 1.5"/>
    <path d="M 274.5698 249.039276 
L 233.944612 281.799679 
L 256.56967 239.580746 
L 283.441797 217.910897 
L 289.824614 220.573404 
z
" clip-path="url(#pfb62053888)" style="fill: #0ea5e9; fill-opacity: 0.7; stroke: #0369a1; stroke-opacity: 0.7; stroke-width: 1.5"/>
    <path d="M 274.5698 249.039276 
L 289.824614 220.573404 
L 283.441797 199.414911 
L 261.937222 187.835622 
L 248.494032 234.998596 
z
" clip-path="url(#pfb62053888)" style="fill: #0ea5e9; fill-opacity: 0.7; stroke: #0369a1; stroke-opacity: 0.7; stroke-width: 1.5"/>
    <path d="M 195.423173 266.483092 
L 150.837057 245.361161 
L 225.876057 282.88066 
z
" clip-path="url(#pfb62053888)" style="fill: #0ea5e9; fill-opacity: 0.7; stroke: #0369a1; stroke-opacity: 0.7; stroke-width: 1.5"/>
    <path d="M 248.494032 234.998596 
L 261.937222 187.835622 
L 248.115491 166.965627 
L 236.819178 171.884802 
L 231.73424 209.692302 
z
" clip-path="url(#pfb62053888)" style="fill: #0ea5e9; fill-opacity: 0.7; stroke: #0369a1; stroke-opacity: 0.7; stroke-width: 1.5"/>
    <path d="M 236.819178 171.884802 
L 221.267653 160.800299 
L 186.081262 174.833008 
L 178.539576 230.906903 
L 231.73424 209.692302 
z
" clip-path="url(#pfb62053888)" style="fill: #0ea5e9; fill-opacity: 0.7; stroke: #0369a1; stroke-opacity: 0.7; stroke-width: 1.5"/>
    <path d="M 175.850057 236.928845 
L 150.837057 245.361161 
L 195.423173 266.483092 
z
" clip-path="url(#pfb62053888)" style="fill: #0ea5e9; fill-opacity: 0.7; stroke: #0369a1; stroke-opacity: 0.7; stroke-width: 1.5"/>
    <path d="M 195.423173 266.483092 
L 225.876057 282.88066 
L 233.944612 281.799679 
L 274.5698 249.039276 
L 248.494032 234.998596 
z
" clip-path="url(#pfb62053888)" style="fill: #0ea5e9; fill-opacity: 0.7; stroke: #0369a1; stroke-opacity: 0.7; stroke-width: 1.5"/>
    <path d="M 248.494032 234.998596 
L 231.73424 209.692302 
L 178.539576 230.906903 
L 175.850057 236.928845 
L 195.423173 266.483092 
z
" clip-path="url(#pfb62053888)" style="fill: #0ea5e9; fill-opacity: 0.7; stroke: #0369a1; stroke-opacity: 0.7; stroke-width: 1.5"/>
   </g>
   <g id="Path3DCollection_2">
    <defs>
     <path id="C1_0_4d0904eba8" d="M 0 2.738613 
C 0.726289 2.738613 1.422928 2.450055 1.936492 1.936492 
C 2.450055 1.422928 2.738613 0.726289 2.738613 -0 
C 2.738613 -0.726289 2.450055 -1.422928 1.936492 -1.936492 
C 1.422928 -2.450055 0.726289 -2.738613 0 -2.738613 
C -0.726289 -2.738613 -1.422928 -2.450055 -1.936492 -1.936492 
C -2.450055 -1.422928 -2.738613 -0.726289 -2.738613 0 
C -2.738613 0.726289 -2.450055 1.422928 -1.936492 1.936492 
C -1.422928 2.450055 -0.726289 2.738613 0 2.738613 
z
"/>
    </defs>
    <g clip-path="url(#pfb62053888)">
     <use xlink:href="#C1_0_4d0904eba8" x="163.150719" y="181.883888" style="fill: #0369a1; fill-opacity: 0.9; stroke: #0369a1; stroke-opacity: 0.9"/>
    </g>
    <g clip-path="url(#pfb62053888)">
     <use xlink:href="#C1_0_4d0904eba8" x="154.190426" y="185.583961" style="fill: #0369a1; fill-opacity: 0.9; stroke: #0369a1; stroke-opacity: 0.9"/>
    </g>
    <g clip-path="url(#pfb62053888)">
     <use xlink:href="#C1_0_4d0904eba8" x="206.743273" y="164.782877" style="fill: #0369a1; fill-opacity: 0.9; stroke: #0369a1; stroke-opacity: 0.9"/>
    </g>
    <g clip-path="url(#pfb62053888)">
     <use xlink:href="#C1_0_4d0904eba8" x="213.889646" y="165.073882" style="fill: #0369a1; fill-opacity: 0.9; stroke: #0369a1; stroke-opacity: 0.9"/>
    </g>
    <g clip-path="url(#pfb62053888)">
     <use xlink:href="#C1_0_4d0904eba8" x="150.837057" y="210.516903" style="fill: #0369a1; fill-opacity: 0.9; stroke: #0369a1; stroke-opacity: 0.9"/>
    </g>
    <g clip-path="url(#pfb62053888)">
     <use xlink:href="#C1_0_4d0904eba8" x="150.837057" y="210.516903" style="fill: #0369a1; fill-opacity: 0.9; stroke: #0369a1; stroke-opacity: 0.9"/>
    </g>
    <g clip-path="url(#pfb62053888)">
     <use xlink:href="#C1_0_4d0904eba8" x="150.837057" y="245.361161" style="fill: #0369a1; fill-opacity: 0.9; stroke: #0369a1; stroke-opacity: 0.9"/>
    </g>
    <g clip-path="url(#pfb62053888)">
     <use xlink:href="#C1_0_4d0904eba8" x="150.837057" y="245.361161" style="fill: #0369a1; fill-opacity: 0.9; stroke: #0369a1; stroke-opacity: 0.9"/>
    </g>
    <g clip-path="url(#pfb62053888)">
     <use xlink:href="#C1_0_4d0904eba8" x="283.441797" y="199.414911" style="fill: #0369a1; fill-opacity: 0.9; stroke: #0369a1; stroke-opacity: 0.9"/>
    </g>
    <g clip-path="url(#pfb62053888)">
     <use xlink:href="#C1_0_4d0904eba8" x="235.323642" y="157.848111" style="fill: #0369a1; fill-opacity: 0.9; stroke: #0369a1; stroke-opacity: 0.9"/>
    </g>
    <g clip-path="url(#pfb62053888)">
     <use xlink:href="#C1_0_4d0904eba8" x="230.559393" y="156.75405" style="fill: #0369a1; fill-opacity: 0.9; stroke: #0369a1; stroke-opacity: 0.9"/>
    </g>
    <g clip-path="url(#pfb62053888)">
     <use xlink:href="#C1_0_4d0904eba8" x="261.937222" y="187.835622" style="fill: #0369a1; fill-opacity: 0.9; stroke: #0369a1; stroke-opacity: 0.9"/>
    </g>
    <g clip-path="url(#pfb62053888)">
     <use xlink:href="#C1_0_4d0904eba8" x="261.937222" y="187.835622" style="fill: #0369a1; fill-opacity: 0.9; stroke: #0369a1; stroke-opacity: 0.9"/>
    </g>
    <g clip-path="url(#pfb62053888)">
     <use xlink:href="#C1_0_4d0904eba8" x="289.824614" y="220.573404" style="fill: #0369a1; fill-opacity: 0.9; stroke: #0369a1; stroke-opacity: 0.9"/>
    </g>
    <g clip-path="url(#pfb62053888)">
     <use xlink:href="#C1_0_4d0904eba8" x="248.115491" y="166.965627" style="fill: #0369a1; fill-opacity: 0.9; stroke: #0369a1; stroke-opacity: 0.9"/>
    </g>
    <g clip-path="url(#pfb62053888)">
     <use xlink:href="#C1_0_4d0904eba8" x="221.267653" y="160.800299" style="fill: #0369a1; fill-opacity: 0.9; stroke: #0369a1; stroke-opacity: 0.9"/>
    </g>
    <g clip-path="url(#pfb62053888)">
     <use xlink:href="#C1_0_4d0904eba8" x="186.081262" y="174.833008" style="fill: #0369a1; fill-opacity: 0.9; stroke: #0369a1; stroke-opacity: 0.9"/>
    </g>
    <g clip-path="url(#pfb62053888)">
     <use xlink:href="#C1_0_4d0904eba8" x="236.819178" y="171.884802" style="fill: #0369a1; fill-opacity: 0.9; stroke: #0369a1; stroke-opacity: 0.9"/>
    </g>
    <g clip-path="url(#pfb62053888)">
     <use xlink:href="#C1_0_4d0904eba8" x="233.944612" y="281.799679" style="fill: #0369a1; fill-opacity: 0.9; stroke: #0369a1; stroke-opacity: 0.9"/>
    </g>
    <g clip-path="url(#pfb62053888)">
     <use xlink:href="#C1_0_4d0904eba8" x="225.876057" y="282.88066" style="fill: #0369a1; fill-opacity: 0.9; stroke: #0369a1; stroke-opacity: 0.9"/>
    </g>
    <g clip-path="url(#pfb62053888)">
     <use xlink:href="#C1_0_4d0904eba8" x="274.5698" y="249.039276" style="fill: #0369a1; fill-opacity: 0.9; stroke: #0369a1; stroke-opacity: 0.9"/>
    </g>
    <g clip-path="url(#pfb62053888)">
     <use xlink:href="#C1_0_4d0904eba8" x="195.423173" y="266.483092" style="fill: #0369a1; fill-opacity: 0.9; stroke: #0369a1; stroke-opacity: 0.9"/>
    </g>
    <g clip-path="url(#pfb62053888)">
     <use xlink:href="#C1_0_4d0904eba8" x="195.423173" y="266.483092" style="fill: #0369a1; fill-opacity: 0.9; stroke: #0369a1; stroke-opacity: 0.9"/>
    </g>
    <g clip-path="url(#pfb62053888)">
     <use xlink:href="#C1_0_4d0904eba8" x="248.494032" y="234.998596" style="fill: #0369a1; fill-opacity: 0.9; stroke: #0369a1; stroke-opacity: 0.9"/>
    </g>
    <g clip-path="url(#pfb62053888)">
     <use xlink:href="#C1_0_4d0904eba8" x="248.494032" y="234.998596" style="fill: #0369a1; fill-opacity: 0.9; stroke: #0369a1; stroke-opacity: 0.9"/>
    </g>
    <g clip-path="url(#pfb62053888)">
     <use xlink:href="#C1_0_4d0904eba8" x="175.850057" y="236.928845" style="fill: #0369a1; fill-opacity: 0.9; stroke: #0369a1; stroke-opacity: 0.9"/>
    </g>
    <g clip-path="url(#pfb62053888)">
     <use xlink:href="#C1_0_4d0904eba8" x="231.73424" y="209.692302" style="fill: #0369a1; fill-opacity: 0.9; stroke: #0369a1; stroke-opacity: 0.9"/>
    </g>
    <g clip-path="url(#pfb62053888)">
     <use xlink:href="#C1_0_4d0904eba8" x="178.539576" y="230.906903" style="fill: #0369a1; fill-opacity: 0.9; stroke: #0369a1; stroke-opacity: 0.9"/>
    </g>
   </g>
  </g>
 </g>
 <defs>
  <clipPath id="pfb62053888">
   <rect x="7.2" y="7.2" width="410.4" height="410.4"/>
  </clipPath>
 </defs>
</svg>
