<?xml version="1.0" encoding="utf-8" standalone="no"?>
<!DOCTYPE svg PUBLIC "-//W3C//DTD SVG 1.1//EN"
  "http://www.w3.org/Graphics/SVG/1.1/DTD/svg11.dtd">
<svg xmlns:xlink="http://www.w3.org/1999/xlink" width="424.8pt" height="424.8pt" viewBox="0 0 424.8 424.8" xmlns="http://www.w3.org/2000/svg" version="1.1">
 <metadata>
  <rdf:RDF xmlns:dc="http://purl.org/dc/elements/1.1/" xmlns:cc="http://creativecommons.org/ns#" xmlns:rdf="http://www.w3.org/1999/02/22-rdf-syntax-ns#">
   <cc:Work>
    <dc:type rdf:resource="http://purl.org/dc/dcmitype/StillImage"/>
    <dc:date>2026-01-27T08:32:33.521840</dc:date>
    <dc:format>image/svg+xml</dc:format>
    <dc:creator>
     <cc:Agent>
      <dc:title>Matplotlib v3.10.8, https://matplotlib.org/</dc:title>
     </cc:Agent>
    </dc:creator>
   </cc:Work>
  </rdf:RDF>
 </metadata>
 <defs>
  <style type="text/css">*{stroke-linejoin: round; stroke-linecap: butt}</style>
 </defs>
 <g id="figure_1">
  <g id="patch_1">
   <path d="M 0 424.8 
L 424.8 424.8 
L 424.8 0 
L 0 0 
z
" style="fill: #ffffff"/>
  </g>
  <g id="patch_2">
   <path d="M 7.2 417.6 
L 417.6 417.6 
L 417.6 7.2 
L 7.2 7.2 
z
" style="fill: #ffffff"/>
  </g>
  <g id="axes_1">
   <g id="Path3DCollection_1">
    <defs>
     <path id="C0_0_1075514813" d="M 0 2.738613 
C 0.726289 2.738613 1.422928 2.450055 1.936492 1.936492 
C 2.450055 1.422928 2.738613 0.726289 2.738613 -0 
C 2.738613 -0.726289 2.450055 -1.422928 1.936492 -1.936492 
C 1.422928 -2.450055 0.726289 -2.738613 0 -2.738613 
C -0.726289 -2.738613 -1.422928 -2.450055 -1.936492 -1.936492 
C -2.450055 -1.422928 -2.738613 -0.726289 -2.738613 0 
C -2.738613 0.726289 -2.450055 1.422928 -1.936492 1.936492 
C -1.422928 2.450055 -0.726289 2.738613 0 2.738613 
z
"/>
    </defs>
    <g clip-path="url(#p90f83a01b4)">
     <use xlink:href="#C0_0_1075514813" x="226.557515" y="240.645667" style="fill: #0369a1; fill-opacity: 0.3; stroke: #0369a1; stroke-opacity: 0.3"/>
    </g>
    <g clip-path="url(#p90f83a01b4)">
     <use xlink:href="#C0_0_1075514813" x="238.321137" y="257.333055" style="fill: #0369a1; fill-opacity: 0.3; stroke: #0369a1; stroke-opacity: 0.3"/>
    </g>
    <g clip-path="url(#p90f83a01b4)">
     <use xlink:href="#C0_0_1075514813" x="194.418701" y="244.951452" style="fill: #0369a1; fill-opacity: 0.3; stroke: #0369a1; stroke-opacity: 0.3"/>
    </g>
    <g clip-path="url(#p90f83a01b4)">
     <use xlink:href="#C0_0_1075514813" x="226.557515" y="140.923627" style="fill: #0369a1; fill-opacity: 0.3; stroke: #0369a1; stroke-opacity: 0.3"/>
    </g>
   </g>
   <g id="Poly3DCollection_1">
    <path d="M 190.112917 263.791732 
L 194.418701 244.951452 
L 226.557515 240.645667 
L 238.321137 257.333055 
L 217.945946 278.326228 
z
" clip-path="url(#p90f83a01b4)" style="fill: #0ea5e9; fill-opacity: 0.7; stroke: #0369a1; stroke-opacity: 0.7; stroke-width: 1.5"/>
    <path d="M 217.945946 278.326228 
L 238.321137 257.333055 
L 250.08476 252.409289 
L 241.47319 268.478696 
L 225.403784 281.437166 
z
" clip-path="url(#p90f83a01b4)" style="fill: #0ea5e9; fill-opacity: 0.7; stroke: #0369a1; stroke-opacity: 0.7; stroke-width: 1.5"/>
    <path d="M 226.557515 140.923627 
L 250.08476 152.68725 
L 250.08476 252.409289 
L 238.321137 257.333055 
L 226.557515 240.645667 
z
" clip-path="url(#p90f83a01b4)" style="fill: #0ea5e9; fill-opacity: 0.7; stroke: #0369a1; stroke-opacity: 0.7; stroke-width: 1.5"/>
    <path d="M 225.403784 281.437166 
L 209.334377 272.784481 
L 185.807132 261.020859 
L 190.112917 263.791732 
L 217.945946 278.326228 
z
" clip-path="url(#p90f83a01b4)" style="fill: #0ea5e9; fill-opacity: 0.7; stroke: #0369a1; stroke-opacity: 0.7; stroke-width: 1.5"/>
    <path d="M 210.488108 132.270943 
L 226.557515 140.923627 
L 226.557515 240.645667 
L 194.418701 244.951452 
L 194.418701 145.229412 
z
" clip-path="url(#p90f83a01b4)" style="fill: #0ea5e9; fill-opacity: 0.7; stroke: #0369a1; stroke-opacity: 0.7; stroke-width: 1.5"/>
    <path d="M 194.418701 244.951452 
L 190.112917 263.791732 
L 185.807132 261.020859 
L 185.807132 161.298819 
L 194.418701 145.229412 
z
" clip-path="url(#p90f83a01b4)" style="fill: #0ea5e9; fill-opacity: 0.7; stroke: #0369a1; stroke-opacity: 0.7; stroke-width: 1.5"/>
    <path d="M 241.47319 168.756656 
L 241.47319 268.478696 
L 250.08476 252.409289 
L 250.08476 152.68725 
L 245.778975 149.916376 
z
" clip-path="url(#p90f83a01b4)" style="fill: #0ea5e9; fill-opacity: 0.7; stroke: #0369a1; stroke-opacity: 0.7; stroke-width: 1.5"/>
    <path d="M 241.47319 168.756656 
L 209.334377 173.062441 
L 209.334377 272.784481 
L 225.403784 281.437166 
L 241.47319 268.478696 
z
" clip-path="url(#p90f83a01b4)" style="fill: #0ea5e9; fill-opacity: 0.7; stroke: #0369a1; stroke-opacity: 0.7; stroke-width: 1.5"/>
    <path d="M 217.945946 135.38188 
L 245.778975 149.916376 
L 250.08476 152.68725 
L 226.557515 140.923627 
L 210.488108 132.270943 
z
" clip-path="url(#p90f83a01b4)" style="fill: #0ea5e9; fill-opacity: 0.7; stroke: #0369a1; stroke-opacity: 0.7; stroke-width: 1.5"/>
    <path d="M 197.570755 156.375053 
L 185.807132 161.298819 
L 185.807132 261.020859 
L 209.334377 272.784481 
L 209.334377 173.062441 
z
" clip-path="url(#p90f83a01b4)" style="fill: #0ea5e9; fill-opacity: 0.7; stroke: #0369a1; stroke-opacity: 0.7; stroke-width: 1.5"/>
    <path d="M 210.488108 132.270943 
L 194.418701 145.229412 
L 185.807132 161.298819 
L 197.570755 156.375053 
L 217.945946 135.38188 
z
" clip-path="url(#p90f83a01b4)" style="fill: #0ea5e9; fill-opacity: 0.7; stroke: #0369a1; stroke-opacity: 0.7; stroke-width: 1.5"/>
    <path d="M 217.945946 135.38188 
L 197.570755 156.375053 
L 209.334377 173.062441 
L 241.47319 168.756656 
L 245.778975 149.916376 
z
" clip-path="url(#p90f83a01b4)" style="fill: #0ea5e9; fill-opacity: 0.7; stroke: #0369a1; stroke-opacity: 0.7; stroke-width: 1.5"/>
   </g>
   <g id="Path3DCollection_2">
    <defs>
     <path id="C1_0_136fc537e5" d="M 0 2.738613 
C 0.726289 2.738613 1.422928 2.450055 1.936492 1.936492 
C 2.450055 1.422928 2.738613 0.726289 2.738613 -0 
C 2.738613 -0.726289 2.450055 -1.422928 1.936492 -1.936492 
C 1.422928 -2.450055 0.726289 -2.738613 0 -2.738613 
C -0.726289 -2.738613 -1.422928 -2.450055 -1.936492 -1.936492 
C -2.450055 -1.422928 -2.738613 -0.726289 -2.738613 0 
C -2.738613 0.726289 -2.450055 1.422928 -1.936492 1.936492 
C -1.422928 2.450055 -0.726289 2.738613 0 2.738613 
z
"/>
    </defs>
    <g clip-path="url(#p90f83a01b4)">
     <use xlink:href="#C1_0_136fc537e5" x="190.112917" y="263.791732" style="fill: #0369a1; fill-opacity: 0.9; stroke: #0369a1; stroke-opacity: 0.9"/>
    </g>
    <g clip-path="url(#p90f83a01b4)">
     <use xlink:href="#C1_0_136fc537e5" x="217.945946" y="278.326228" style="fill: #0369a1; fill-opacity: 0.9; stroke: #0369a1; stroke-opacity: 0.9"/>
    </g>
    <g clip-path="url(#p90f83a01b4)">
     <use xlink:href="#C1_0_136fc537e5" x="250.08476" y="252.409289" style="fill: #0369a1; fill-opacity: 0.9; stroke: #0369a1; stroke-opacity: 0.9"/>
    </g>
    <g clip-path="url(#p90f83a01b4)">
     <use xlink:href="#C1_0_136fc537e5" x="185.807132" y="261.020859" style="fill: #0369a1; fill-opacity: 0.9; stroke: #0369a1; stroke-opacity: 0.9"/>
    </g>
    <g clip-path="url(#p90f83a01b4)">
     <use xlink:href="#C1_0_136fc537e5" x="225.403784" y="281.437166" style="fill: #0369a1; fill-opacity: 0.9; stroke: #0369a1; stroke-opacity: 0.9"/>
    </g>
    <g clip-path="url(#p90f83a01b4)">
     <use xlink:href="#C1_0_136fc537e5" x="241.47319" y="268.478696" style="fill: #0369a1; fill-opacity: 0.9; stroke: #0369a1; stroke-opacity: 0.9"/>
    </g>
    <g clip-path="url(#p90f83a01b4)">
     <use xlink:href="#C1_0_136fc537e5" x="209.334377" y="272.784481" style="fill: #0369a1; fill-opacity: 0.9; stroke: #0369a1; stroke-opacity: 0.9"/>
    </g>
    <g clip-path="url(#p90f83a01b4)">
     <use xlink:href="#C1_0_136fc537e5" x="194.418701" y="145.229412" style="fill: #0369a1; fill-opacity: 0.9; stroke: #0369a1; stroke-opacity: 0.9"/>
    </g>
    <g clip-path="url(#p90f83a01b4)">
     <use xlink:href="#C1_0_136fc537e5" x="210.488108" y="132.270943" style="fill: #0369a1; fill-opacity: 0.9; stroke: #0369a1; stroke-opacity: 0.9"/>
    </g>
    <g clip-path="url(#p90f83a01b4)">
     <use xlink:href="#C1_0_136fc537e5" x="250.08476" y="152.68725" style="fill: #0369a1; fill-opacity: 0.9; stroke: #0369a1; stroke-opacity: 0.9"/>
    </g>
    <g clip-path="url(#p90f83a01b4)">
     <use xlink:href="#C1_0_136fc537e5" x="185.807132" y="161.298819" style="fill: #0369a1; fill-opacity: 0.9; stroke: #0369a1; stroke-opacity: 0.9"/>
    </g>
    <g clip-path="url(#p90f83a01b4)">
     <use xlink:href="#C1_0_136fc537e5" x="217.945946" y="135.38188" style="fill: #0369a1; fill-opacity: 0.9; stroke: #0369a1; stroke-opacity: 0.9"/>
    </g>
    <g clip-path="url(#p90f83a01b4)">
     <use xlink:href="#C1_0_136fc537e5" x="245.778975" y="149.916376" style="fill: #0369a1; fill-opacity: 0.9; stroke: #0369a1; stroke-opacity: 0.9"/>
    </g>
    <g clip-path="url(#p90f83a01b4)">
     <use xlink:href="#C1_0_136fc537e5" x="241.47319" y="168.756656" style="fill: #0369a1; fill-opacity: 0.9; stroke: #0369a1; stroke-opacity: 0.9"/>
    </g>
    <g clip-path="url(#p90f83a01b4)">
     <use xlink:href="#C1_0_136fc537e5" x="197.570755" y="156.375053" style="fill: #0369a1; fill-opacity: 0.9; stroke: #0369a1; stroke-opacity: 0.9"/>
    </g>
    <g clip-path="url(#p90f83a01b4)">
     <use xlink:href="#C1_0_136fc537e5" x="209.334377" y="173.062441" style="fill: #0369a1; fill-opacity: 0.9; stroke: #0369a1; stroke-opacity: 0.9"/>
    </g>
   </g>
  </g>
 </g>
 <defs>
  <clipPath id="p90f83a01b4">
   <rect x="7.2" y="7.2" width="410.4" height="410.4"/>
  </clipPath>
 </defs>
</svg>
