<?xml version="1.0" encoding="utf-8" standalone="no"?>
<!DOCTYPE svg PUBLIC "-//W3C//DTD SVG 1.1//EN"
  "http://www.w3.org/Graphics/SVG/1.1/DTD/svg11.dtd">
<svg xmlns:xlink="http://www.w3.org/1999/xlink" width="424.8pt" height="424.8pt" viewBox="0 0 424.8 424.8" xmlns="http://www.w3.org/2000/svg" version="1.1">
 <metadata>
  <rdf:RDF xmlns:dc="http://purl.org/dc/elements/1.1/" xmlns:cc="http://creativecommons.org/ns#" xmlns:rdf="http://www.w3.org/1999/02/22-rdf-syntax-ns#">
   <cc:Work>
    <dc:type rdf:resource="http://purl.org/dc/dcmitype/StillImage"/>
    <dc:date>2026-01-26T17:06:15.159105</dc:date>
    <dc:format>image/svg+xml</dc:format>
    <dc:creator>
     <cc:Agent>
      <dc:title>Matplotlib v3.10.8, https://matplotlib.org/</dc:title>
     </cc:Agent>
    </dc:creator>
   </cc:Work>
  </rdf:RDF>
 </metadata>
 <defs>
  <style type="text/css">*{stroke-linejoin: round; stroke-linecap: butt}</style>
 </defs>
 <g id="figure_1">
  <g id="patch_1">
   <path d="M 0 424.8 
L 424.8 424.8 
L 424.8 0 
L 0 0 
z
" style="fill: #ffffff"/>
  </g>
  <g id="patch_2">
   <path d="M 7.2 417.6 
L 417.6 417.6 
L 417.6 7.2 
L 7.2 7.2 
z
" style="fill: #ffffff"/>
  </g>
  <g id="axes_1">
   <g id="Path3DCollection_1">
    <defs>
     <path id="m06f1158fbf" d="M 0 2.738613 
C 0.726289 2.738613 1.422928 2.450055 1.936492 1.936492 
C 2.450055 1.422928 2.738613 0.726289 2.738613 0 
C 2.738613 -0.726289 2.450055 -1.422928 1.936492 -1.936492 
C 1.422928 -2.450055 0.726289 -2.738613 0 -2.738613 
C -0.726289 -2.738613 -1.422928 -2.450055 -1.936492 -1.936492 
C -2.450055 -1.422928 -2.738613 -0.726289 -2.738613 0 
C -2.738613 0.726289 -2.450055 1.422928 -1.936492 1.936492 
C -1.422928 2.450055 -0.726289 2.738613 0 2.738613 
z
" style="stroke: #0369a1; stroke-opacity: 0.3"/>
    </defs>
    <g clip-path="url(#pbf4222c5d5)">
     <use xlink:href="#m06f1158fbf" x="235.058736" y="236.985236" style="fill: #0369a1; fill-opacity: 0.3; stroke: #0369a1; stroke-opacity: 0.3"/>
    </g>
   </g>
   <g id="Poly3DCollection_1">
    <path d="M 166.273182 145.704898 
L 274.772094 199.954355 
L 274.772094 220.982848 
L 166.273182 166.733391 
z
" clip-path="url(#pbf4222c5d5)" style="fill: #0ea5e9; fill-opacity: 0.7; stroke: #0369a1; stroke-opacity: 0.7; stroke-width: 1.5"/>
    <path d="M 166.273182 166.733391 
L 184.704216 211.807975 
L 203.135249 235.518946 
L 203.135249 212.478286 
L 169.745095 150.17141 
L 166.273182 145.704898 
z
" clip-path="url(#pbf4222c5d5)" style="fill: #0ea5e9; fill-opacity: 0.7; stroke: #0369a1; stroke-opacity: 0.7; stroke-width: 1.5"/>
    <path d="M 166.273182 166.733391 
L 274.772094 220.982848 
L 235.058736 236.985236 
L 184.704216 211.807975 
z
" clip-path="url(#pbf4222c5d5)" style="fill: #0ea5e9; fill-opacity: 0.7; stroke: #0369a1; stroke-opacity: 0.7; stroke-width: 1.5"/>
    <path d="M 222.87436 192.948262 
L 274.772094 199.954355 
L 166.273182 145.704898 
L 169.745095 150.17141 
z
" clip-path="url(#pbf4222c5d5)" style="fill: #0ea5e9; fill-opacity: 0.7; stroke: #0369a1; stroke-opacity: 0.7; stroke-width: 1.5"/>
    <path d="M 184.704216 211.807975 
L 235.058736 236.985236 
L 253.48977 260.696206 
L 203.135249 235.518946 
z
" clip-path="url(#pbf4222c5d5)" style="fill: #0ea5e9; fill-opacity: 0.7; stroke: #0369a1; stroke-opacity: 0.7; stroke-width: 1.5"/>
    <path d="M 169.745095 150.17141 
L 203.135249 212.478286 
L 225.574298 215.453178 
L 222.87436 192.948262 
z
" clip-path="url(#pbf4222c5d5)" style="fill: #0ea5e9; fill-opacity: 0.7; stroke: #0369a1; stroke-opacity: 0.7; stroke-width: 1.5"/>
    <path d="M 274.772094 220.982848 
L 253.48977 260.696206 
L 235.058736 236.985236 
z
" clip-path="url(#pbf4222c5d5)" style="fill: #0ea5e9; fill-opacity: 0.7; stroke: #0369a1; stroke-opacity: 0.7; stroke-width: 1.5"/>
    <path d="M 274.772094 199.954355 
L 253.48977 239.667713 
L 253.48977 260.696206 
L 274.772094 220.982848 
z
" clip-path="url(#pbf4222c5d5)" style="fill: #0ea5e9; fill-opacity: 0.7; stroke: #0369a1; stroke-opacity: 0.7; stroke-width: 1.5"/>
    <path d="M 222.87436 192.948262 
L 225.574298 215.453178 
L 253.48977 239.667713 
L 274.772094 199.954355 
z
" clip-path="url(#pbf4222c5d5)" style="fill: #0ea5e9; fill-opacity: 0.7; stroke: #0369a1; stroke-opacity: 0.7; stroke-width: 1.5"/>
    <path d="M 203.135249 212.478286 
L 203.135249 235.518946 
L 253.48977 260.696206 
L 253.48977 239.667713 
L 225.574298 215.453178 
z
" clip-path="url(#pbf4222c5d5)" style="fill: #0ea5e9; fill-opacity: 0.7; stroke: #0369a1; stroke-opacity: 0.7; stroke-width: 1.5"/>
   </g>
   <g id="Path3DCollection_2">
    <defs>
     <path id="C0_0_59a923ed1b" d="M 0 2.738613 
C 0.726289 2.738613 1.422928 2.450055 1.936492 1.936492 
C 2.450055 1.422928 2.738613 0.726289 2.738613 -0 
C 2.738613 -0.726289 2.450055 -1.422928 1.936492 -1.936492 
C 1.422928 -2.450055 0.726289 -2.738613 0 -2.738613 
C -0.726289 -2.738613 -1.422928 -2.450055 -1.936492 -1.936492 
C -2.450055 -1.422928 -2.738613 -0.726289 -2.738613 0 
C -2.738613 0.726289 -2.450055 1.422928 -1.936492 1.936492 
C -1.422928 2.450055 -0.726289 2.738613 0 2.738613 
z
"/>
    </defs>
    <g clip-path="url(#pbf4222c5d5)">
     <use xlink:href="#C0_0_59a923ed1b" x="166.273182" y="166.733391" style="fill: #0369a1; fill-opacity: 0.9; stroke: #0369a1; stroke-opacity: 0.9"/>
    </g>
    <g clip-path="url(#pbf4222c5d5)">
     <use xlink:href="#C0_0_59a923ed1b" x="166.273182" y="145.704898" style="fill: #0369a1; fill-opacity: 0.9; stroke: #0369a1; stroke-opacity: 0.9"/>
    </g>
    <g clip-path="url(#pbf4222c5d5)">
     <use xlink:href="#C0_0_59a923ed1b" x="169.745095" y="150.17141" style="fill: #0369a1; fill-opacity: 0.9; stroke: #0369a1; stroke-opacity: 0.9"/>
    </g>
    <g clip-path="url(#pbf4222c5d5)">
     <use xlink:href="#C0_0_59a923ed1b" x="184.704216" y="211.807975" style="fill: #0369a1; fill-opacity: 0.9; stroke: #0369a1; stroke-opacity: 0.9"/>
    </g>
    <g clip-path="url(#pbf4222c5d5)">
     <use xlink:href="#C0_0_59a923ed1b" x="274.772094" y="220.982848" style="fill: #0369a1; fill-opacity: 0.9; stroke: #0369a1; stroke-opacity: 0.9"/>
    </g>
    <g clip-path="url(#pbf4222c5d5)">
     <use xlink:href="#C0_0_59a923ed1b" x="274.772094" y="199.954355" style="fill: #0369a1; fill-opacity: 0.9; stroke: #0369a1; stroke-opacity: 0.9"/>
    </g>
    <g clip-path="url(#pbf4222c5d5)">
     <use xlink:href="#C0_0_59a923ed1b" x="203.135249" y="235.518946" style="fill: #0369a1; fill-opacity: 0.9; stroke: #0369a1; stroke-opacity: 0.9"/>
    </g>
    <g clip-path="url(#pbf4222c5d5)">
     <use xlink:href="#C0_0_59a923ed1b" x="222.87436" y="192.948262" style="fill: #0369a1; fill-opacity: 0.9; stroke: #0369a1; stroke-opacity: 0.9"/>
    </g>
    <g clip-path="url(#pbf4222c5d5)">
     <use xlink:href="#C0_0_59a923ed1b" x="203.135249" y="212.478286" style="fill: #0369a1; fill-opacity: 0.9; stroke: #0369a1; stroke-opacity: 0.9"/>
    </g>
    <g clip-path="url(#pbf4222c5d5)">
     <use xlink:href="#C0_0_59a923ed1b" x="225.574298" y="215.453178" style="fill: #0369a1; fill-opacity: 0.9; stroke: #0369a1; stroke-opacity: 0.9"/>
    </g>
    <g clip-path="url(#pbf4222c5d5)">
     <use xlink:href="#C0_0_59a923ed1b" x="253.48977" y="260.696206" style="fill: #0369a1; fill-opacity: 0.9; stroke: #0369a1; stroke-opacity: 0.9"/>
    </g>
    <g clip-path="url(#pbf4222c5d5)">
     <use xlink:href="#C0_0_59a923ed1b" x="253.48977" y="239.667713" style="fill: #0369a1; fill-opacity: 0.9; stroke: #0369a1; stroke-opacity: 0.9"/>
    </g>
   </g>
  </g>
 </g>
 <defs>
  <clipPath id="pbf4222c5d5">
   <rect x="7.2" y="7.2" width="410.4" height="410.4"/>
  </clipPath>
 </defs>
</svg>
