<?xml version="1.0" encoding="utf-8" standalone="no"?>
<!DOCTYPE svg PUBLIC "-//W3C//DTD SVG 1.1//EN"
  "http://www.w3.org/Graphics/SVG/1.1/DTD/svg11.dtd">
<svg xmlns:xlink="http://www.w3.org/1999/xlink" width="464.059457pt" height="457.92pt" viewBox="0 0 464.059457 457.92" xmlns="http://www.w3.org/2000/svg" version="1.1">
 <metadata>
  <rdf:RDF xmlns:dc="http://purl.org/dc/elements/1.1/" xmlns:cc="http://creativecommons.org/ns#" xmlns:rdf="http://www.w3.org/1999/02/22-rdf-syntax-ns#">
   <cc:Work>
    <dc:type rdf:resource="http://purl.org/dc/dcmitype/StillImage"/>
    <dc:date>2026-02-02T15:08:43.958607</dc:date>
    <dc:format>image/svg+xml</dc:format>
    <dc:creator>
     <cc:Agent>
      <dc:title>Matplotlib v3.10.8, https://matplotlib.org/</dc:title>
     </cc:Agent>
    </dc:creator>
   </cc:Work>
  </rdf:RDF>
 </metadata>
 <defs>
  <style type="text/css">*{stroke-linejoin: round; stroke-linecap: butt}</style>
 </defs>
 <g id="figure_1">
  <g id="patch_1">
   <path d="M 0 457.92 
L 464.059457 457.92 
L 464.059457 0 
L 0 0 
z
" style="fill: #ffffff"/>
  </g>
  <g id="patch_2">
   <path d="M 7.2 450.72 
L 450.72 450.72 
L 450.72 7.2 
L 7.2 7.2 
z
" style="fill: #ffffff"/>
  </g>
  <g id="pane3d_1">
   <g id="patch_3">
    <path d="M 33.141415 315.654611 
L 234.953514 214.748562 
L 234.953514 29.372313 
L 33.141415 130.278362 
" style="fill: #f2f2f2; opacity: 0.5; stroke: #f2f2f2; stroke-linejoin: miter"/>
   </g>
  </g>
  <g id="pane3d_2">
   <g id="patch_4">
    <path d="M 234.953514 214.748562 
L 436.765612 315.654611 
L 436.765612 130.278362 
L 234.953514 29.372313 
" style="fill: #e6e6e6; opacity: 0.5; stroke: #e6e6e6; stroke-linejoin: miter"/>
   </g>
  </g>
  <g id="pane3d_3">
   <g id="patch_5">
    <path d="M 33.141415 315.654611 
L 234.953514 416.56066 
L 436.765612 315.654611 
L 234.953514 214.748562 
" style="fill: #ececec; opacity: 0.5; stroke: #ececec; stroke-linejoin: miter"/>
   </g>
  </g>
  <g id="grid3d_1">
   <g id="Line3DCollection_1">
    <path d="M 59.030663 328.599235 
L 260.842761 227.693186 
L 260.842761 42.316936 
" style="fill: none; stroke: #b0b0b0; stroke-width: 0.8"/>
    <path d="M 96.421188 347.294497 
L 298.233286 246.388448 
L 298.233286 61.012199 
" style="fill: none; stroke: #b0b0b0; stroke-width: 0.8"/>
    <path d="M 133.811714 365.98976 
L 335.623812 265.083711 
L 335.623812 79.707462 
" style="fill: none; stroke: #b0b0b0; stroke-width: 0.8"/>
    <path d="M 171.20224 384.685023 
L 373.014338 283.778974 
L 373.014338 98.402725 
" style="fill: none; stroke: #b0b0b0; stroke-width: 0.8"/>
    <path d="M 208.592766 403.380286 
L 410.404864 302.474237 
L 410.404864 117.097988 
" style="fill: none; stroke: #b0b0b0; stroke-width: 0.8"/>
   </g>
  </g>
  <g id="grid3d_2">
   <g id="Line3DCollection_2">
    <path d="M 49.472386 122.112877 
L 49.472386 307.489126 
L 251.284484 408.395175 
" style="fill: none; stroke: #b0b0b0; stroke-width: 0.8"/>
    <path d="M 86.862912 103.417614 
L 86.862912 288.793863 
L 288.67501 389.699912 
" style="fill: none; stroke: #b0b0b0; stroke-width: 0.8"/>
    <path d="M 124.253438 84.722351 
L 124.253438 270.0986 
L 326.065536 371.004649 
" style="fill: none; stroke: #b0b0b0; stroke-width: 0.8"/>
    <path d="M 161.643964 66.027088 
L 161.643964 251.403337 
L 363.456062 352.309386 
" style="fill: none; stroke: #b0b0b0; stroke-width: 0.8"/>
    <path d="M 199.03449 47.331825 
L 199.03449 232.708074 
L 400.846588 333.614123 
" style="fill: none; stroke: #b0b0b0; stroke-width: 0.8"/>
   </g>
  </g>
  <g id="grid3d_3">
   <g id="Line3DCollection_3">
    <path d="M 436.765612 309.282277 
L 234.953514 208.376228 
L 33.141415 309.282277 
" style="fill: none; stroke: #b0b0b0; stroke-width: 0.8"/>
    <path d="M 436.765612 274.936886 
L 234.953514 174.030837 
L 33.141415 274.936886 
" style="fill: none; stroke: #b0b0b0; stroke-width: 0.8"/>
    <path d="M 436.765612 240.591495 
L 234.953514 139.685446 
L 33.141415 240.591495 
" style="fill: none; stroke: #b0b0b0; stroke-width: 0.8"/>
    <path d="M 436.765612 206.246104 
L 234.953514 105.340055 
L 33.141415 206.246104 
" style="fill: none; stroke: #b0b0b0; stroke-width: 0.8"/>
    <path d="M 436.765612 171.900713 
L 234.953514 70.994664 
L 33.141415 171.900713 
" style="fill: none; stroke: #b0b0b0; stroke-width: 0.8"/>
    <path d="M 436.765612 137.555322 
L 234.953514 36.649273 
L 33.141415 137.555322 
" style="fill: none; stroke: #b0b0b0; stroke-width: 0.8"/>
   </g>
  </g>
  <g id="axis3d_1">
   <g id="line2d_1">
    <path d="M 33.141415 315.654611 
L 234.953514 416.56066 
" style="fill: none; stroke: #000000; stroke-width: 0.8; stroke-linecap: square"/>
   </g>
   <g id="xtick_1">
    <g id="line2d_2">
     <path d="M 60.645159 327.791986 
L 55.801669 330.213731 
" style="fill: none; stroke: #000000; stroke-width: 0.8; stroke-linecap: square"/>
    </g>
   </g>
   <g id="xtick_2">
    <g id="line2d_3">
     <path d="M 98.035685 346.487249 
L 93.192195 348.908994 
" style="fill: none; stroke: #000000; stroke-width: 0.8; stroke-linecap: square"/>
    </g>
   </g>
   <g id="xtick_3">
    <g id="line2d_4">
     <path d="M 135.426211 365.182512 
L 130.582721 367.604257 
" style="fill: none; stroke: #000000; stroke-width: 0.8; stroke-linecap: square"/>
    </g>
   </g>
   <g id="xtick_4">
    <g id="line2d_5">
     <path d="M 172.816737 383.877775 
L 167.973247 386.29952 
" style="fill: none; stroke: #000000; stroke-width: 0.8; stroke-linecap: square"/>
    </g>
   </g>
   <g id="xtick_5">
    <g id="line2d_6">
     <path d="M 210.207263 402.573038 
L 205.363773 404.994783 
" style="fill: none; stroke: #000000; stroke-width: 0.8; stroke-linecap: square"/>
    </g>
   </g>
  </g>
  <g id="axis3d_2">
   <g id="line2d_7">
    <path d="M 436.765612 315.654611 
L 234.953514 416.56066 
" style="fill: none; stroke: #000000; stroke-width: 0.8; stroke-linecap: square"/>
   </g>
   <g id="xtick_6">
    <g id="line2d_8">
     <path d="M 249.669987 407.587926 
L 254.513478 410.009672 
" style="fill: none; stroke: #000000; stroke-width: 0.8; stroke-linecap: square"/>
    </g>
   </g>
   <g id="xtick_7">
    <g id="line2d_9">
     <path d="M 287.060513 388.892663 
L 291.904004 391.314409 
" style="fill: none; stroke: #000000; stroke-width: 0.8; stroke-linecap: square"/>
    </g>
   </g>
   <g id="xtick_8">
    <g id="line2d_10">
     <path d="M 324.451039 370.1974 
L 329.294529 372.619146 
" style="fill: none; stroke: #000000; stroke-width: 0.8; stroke-linecap: square"/>
    </g>
   </g>
   <g id="xtick_9">
    <g id="line2d_11">
     <path d="M 361.841565 351.502138 
L 366.685055 353.923883 
" style="fill: none; stroke: #000000; stroke-width: 0.8; stroke-linecap: square"/>
    </g>
   </g>
   <g id="xtick_10">
    <g id="line2d_12">
     <path d="M 399.232091 332.806875 
L 404.075581 335.22862 
" style="fill: none; stroke: #000000; stroke-width: 0.8; stroke-linecap: square"/>
    </g>
   </g>
  </g>
  <g id="axis3d_3">
   <g id="line2d_13">
    <path d="M 436.765612 315.654611 
L 436.765612 130.278362 
" style="fill: none; stroke: #000000; stroke-width: 0.8; stroke-linecap: square"/>
   </g>
   <g id="xtick_11">
    <g id="line2d_14">
     <path d="M 435.151115 308.475029 
L 439.994605 310.896774 
" style="fill: none; stroke: #000000; stroke-width: 0.8; stroke-linecap: square"/>
    </g>
   </g>
   <g id="xtick_12">
    <g id="line2d_15">
     <path d="M 435.151115 274.129638 
L 439.994605 276.551383 
" style="fill: none; stroke: #000000; stroke-width: 0.8; stroke-linecap: square"/>
    </g>
   </g>
   <g id="xtick_13">
    <g id="line2d_16">
     <path d="M 435.151115 239.784247 
L 439.994605 242.205992 
" style="fill: none; stroke: #000000; stroke-width: 0.8; stroke-linecap: square"/>
    </g>
   </g>
   <g id="xtick_14">
    <g id="line2d_17">
     <path d="M 435.151115 205.438856 
L 439.994605 207.860601 
" style="fill: none; stroke: #000000; stroke-width: 0.8; stroke-linecap: square"/>
    </g>
   </g>
   <g id="xtick_15">
    <g id="line2d_18">
     <path d="M 435.151115 171.093464 
L 439.994605 173.51521 
" style="fill: none; stroke: #000000; stroke-width: 0.8; stroke-linecap: square"/>
    </g>
   </g>
   <g id="xtick_16">
    <g id="line2d_19">
     <path d="M 435.151115 136.748073 
L 439.994605 139.169819 
" style="fill: none; stroke: #000000; stroke-width: 0.8; stroke-linecap: square"/>
    </g>
   </g>
  </g>
  <g id="axes_1">
   <g id="Line3DCollection_4">
    <path d="M 184.828437 310.146621 
L 149.909492 327.606093 
" clip-path="url(#p825f2a2261)" style="fill: none; stroke: #43a047; stroke-width: 2"/>
    <path d="M 184.828437 310.146621 
L 181.455526 312.663241 
" clip-path="url(#p825f2a2261)" style="fill: none; stroke: #43a047; stroke-width: 2"/>
    <path d="M 184.828437 310.146621 
L 181.455526 311.002912 
" clip-path="url(#p825f2a2261)" style="fill: none; stroke: #43a047; stroke-width: 2"/>
   </g>
   <g id="text_1">
    <!-- a -->
    <g style="fill: #e53935" transform="translate(187.621952 346.462323) scale(0.14 -0.14)">
     <defs>
      <path id="DejaVuSans-Bold-61" d="M 2106 1575 
Q 1756 1575 1579 1456 
Q 1403 1338 1403 1106 
Q 1403 894 1545 773 
Q 1688 653 1941 653 
Q 2256 653 2472 879 
Q 2688 1106 2688 1447 
L 2688 1575 
L 2106 1575 
z
M 3816 1997 
L 3816 0 
L 2688 0 
L 2688 519 
Q 2463 200 2181 54 
Q 1900 -91 1497 -91 
Q 953 -91 614 226 
Q 275 544 275 1050 
Q 275 1666 698 1953 
Q 1122 2241 2028 2241 
L 2688 2241 
L 2688 2328 
Q 2688 2594 2478 2717 
Q 2269 2841 1825 2841 
Q 1466 2841 1156 2769 
Q 847 2697 581 2553 
L 581 3406 
Q 941 3494 1303 3539 
Q 1666 3584 2028 3584 
Q 2975 3584 3395 3211 
Q 3816 2838 3816 1997 
z
" transform="scale(0.015625)"/>
     </defs>
     <use xlink:href="#DejaVuSans-Bold-61"/>
    </g>
   </g>
   <g id="text_2">
    <!-- b -->
    <g style="fill: #43a047" transform="translate(187.621952 308.749864) scale(0.14 -0.14)">
     <defs>
      <path id="DejaVuSans-Bold-62" d="M 2400 722 
Q 2759 722 2948 984 
Q 3138 1247 3138 1747 
Q 3138 2247 2948 2509 
Q 2759 2772 2400 2772 
Q 2041 2772 1848 2508 
Q 1656 2244 1656 1747 
Q 1656 1250 1848 986 
Q 2041 722 2400 722 
z
M 1656 2988 
Q 1888 3294 2169 3439 
Q 2450 3584 2816 3584 
Q 3463 3584 3878 3070 
Q 4294 2556 4294 1747 
Q 4294 938 3878 423 
Q 3463 -91 2816 -91 
Q 2450 -91 2169 54 
Q 1888 200 1656 506 
L 1656 0 
L 538 0 
L 538 4863 
L 1656 4863 
L 1656 2988 
z
" transform="scale(0.015625)"/>
     </defs>
     <use xlink:href="#DejaVuSans-Bold-62"/>
    </g>
   </g>
   <g id="text_3">
    <!-- c -->
    <g style="fill: #1e88e5" transform="translate(149.909492 292.964987) scale(0.14 -0.14)">
     <defs>
      <path id="DejaVuSans-Bold-63" d="M 3366 3391 
L 3366 2478 
Q 3138 2634 2908 2709 
Q 2678 2784 2431 2784 
Q 1963 2784 1702 2511 
Q 1441 2238 1441 1747 
Q 1441 1256 1702 982 
Q 1963 709 2431 709 
Q 2694 709 2930 787 
Q 3166 866 3366 1019 
L 3366 103 
Q 3103 6 2833 -42 
Q 2563 -91 2291 -91 
Q 1344 -91 809 395 
Q 275 881 275 1747 
Q 275 2613 809 3098 
Q 1344 3584 2291 3584 
Q 2566 3584 2833 3536 
Q 3100 3488 3366 3391 
z
" transform="scale(0.015625)"/>
     </defs>
     <use xlink:href="#DejaVuSans-Bold-63"/>
    </g>
   </g>
   <g id="Line3DCollection_5">
    <path d="M 149.909492 295.530995 
L 149.909492 327.606093 
" clip-path="url(#p825f2a2261)" style="fill: none; stroke: #1e88e5; stroke-width: 2"/>
    <path d="M 149.909492 295.530995 
L 149.005724 298.177327 
" clip-path="url(#p825f2a2261)" style="fill: none; stroke: #1e88e5; stroke-width: 2"/>
    <path d="M 149.909492 295.530995 
L 150.813261 299.081096 
" clip-path="url(#p825f2a2261)" style="fill: none; stroke: #1e88e5; stroke-width: 2"/>
   </g>
   <g id="Line3DCollection_6">
    <path d="M 184.828437 345.065565 
L 149.909492 327.606093 
" clip-path="url(#p825f2a2261)" style="fill: none; stroke: #e53935; stroke-width: 2"/>
    <path d="M 184.828437 345.065565 
L 181.455526 344.209275 
" clip-path="url(#p825f2a2261)" style="fill: none; stroke: #e53935; stroke-width: 2"/>
    <path d="M 184.828437 345.065565 
L 181.455526 342.548945 
" clip-path="url(#p825f2a2261)" style="fill: none; stroke: #e53935; stroke-width: 2"/>
   </g>
   <g id="Path3DCollection_1">
    <defs>
     <path id="C0_0_42d6ec005f" d="M 0 2.738613 
C 0.726289 2.738613 1.422928 2.450055 1.936492 1.936492 
C 2.450055 1.422928 2.738613 0.726289 2.738613 -0 
C 2.738613 -0.726289 2.450055 -1.422928 1.936492 -1.936492 
C 1.422928 -2.450055 0.726289 -2.738613 0 -2.738613 
C -0.726289 -2.738613 -1.422928 -2.450055 -1.936492 -1.936492 
C -2.450055 -1.422928 -2.738613 -0.726289 -2.738613 0 
C -2.738613 0.726289 -2.450055 1.422928 -1.936492 1.936492 
C -1.422928 2.450055 -0.726289 2.738613 0 2.738613 
z
"/>
    </defs>
    <g clip-path="url(#p825f2a2261)">
     <use xlink:href="#C0_0_42d6ec005f" x="281.009525" y="268.07993" style="fill: #ef6c00; fill-opacity: 0.3; stroke: #ef6c00; stroke-opacity: 0.3"/>
    </g>
    <g clip-path="url(#p825f2a2261)">
     <use xlink:href="#C0_0_42d6ec005f" x="270.21581" y="242.853752" style="fill: #ef6c00; fill-opacity: 0.3; stroke: #ef6c00; stroke-opacity: 0.3"/>
    </g>
    <g clip-path="url(#p825f2a2261)">
     <use xlink:href="#C0_0_42d6ec005f" x="240.726832" y="246.804526" style="fill: #ef6c00; fill-opacity: 0.3; stroke: #ef6c00; stroke-opacity: 0.3"/>
    </g>
    <g clip-path="url(#p825f2a2261)">
     <use xlink:href="#C0_0_42d6ec005f" x="261.992735" y="182.426851" style="fill: #ef6c00; fill-opacity: 0.3; stroke: #ef6c00; stroke-opacity: 0.3"/>
    </g>
    <g clip-path="url(#p825f2a2261)">
     <use xlink:href="#C0_0_42d6ec005f" x="284.327119" y="173.56437" style="fill: #ef6c00; fill-opacity: 0.3; stroke: #ef6c00; stroke-opacity: 0.3"/>
    </g>
    <g clip-path="url(#p825f2a2261)">
     <use xlink:href="#C0_0_42d6ec005f" x="239.979878" y="201.19246" style="fill: #ef6c00; fill-opacity: 0.3; stroke: #ef6c00; stroke-opacity: 0.3"/>
    </g>
    <g clip-path="url(#p825f2a2261)">
     <use xlink:href="#C0_0_42d6ec005f" x="201.319909" y="158.798962" style="fill: #ef6c00; fill-opacity: 0.3; stroke: #ef6c00; stroke-opacity: 0.3"/>
    </g>
    <g clip-path="url(#p825f2a2261)">
     <use xlink:href="#C0_0_42d6ec005f" x="228.422444" y="151.793347" style="fill: #ef6c00; fill-opacity: 0.3; stroke: #ef6c00; stroke-opacity: 0.3"/>
    </g>
   </g>
   <g id="Poly3DCollection_1">
    <path d="M 240.726832 246.804526 
L 270.21581 242.853752 
L 281.009525 268.07993 
L 262.314263 297.256882 
L 236.776058 274.006091 
z
" clip-path="url(#p825f2a2261)" style="fill: #ffcc80; fill-opacity: 0.7; stroke: #ef6c00; stroke-opacity: 0.7; stroke-width: 1.5"/>
    <path d="M 262.314263 297.256882 
L 281.009525 268.07993 
L 291.803241 253.647467 
L 283.901693 268.391956 
L 269.157204 290.196664 
z
" clip-path="url(#p825f2a2261)" style="fill: #ffcc80; fill-opacity: 0.7; stroke: #ef6c00; stroke-opacity: 0.7; stroke-width: 1.5"/>
    <path d="M 270.21581 242.853752 
L 240.726832 246.804526 
L 240.726832 201.365585 
L 270.21581 170.327455 
z
" clip-path="url(#p825f2a2261)" style="fill: #ffcc80; fill-opacity: 0.7; stroke: #ef6c00; stroke-opacity: 0.7; stroke-width: 1.5"/>
    <path d="M 269.157204 290.196664 
L 254.412715 272.34273 
L 232.825285 261.549015 
L 236.776058 274.006091 
L 262.314263 297.256882 
z
" clip-path="url(#p825f2a2261)" style="fill: #ffcc80; fill-opacity: 0.7; stroke: #ef6c00; stroke-opacity: 0.7; stroke-width: 1.5"/>
    <path d="M 270.21581 170.327455 
L 291.803241 161.291849 
L 291.803241 253.647467 
L 281.009525 268.07993 
L 270.21581 242.853752 
z
" clip-path="url(#p825f2a2261)" style="fill: #ffcc80; fill-opacity: 0.7; stroke: #ef6c00; stroke-opacity: 0.7; stroke-width: 1.5"/>
    <path d="M 232.825285 223.368109 
L 240.726832 201.365585 
L 240.726832 246.804526 
L 236.776058 274.006091 
L 232.825285 261.549015 
z
" clip-path="url(#p825f2a2261)" style="fill: #ffcc80; fill-opacity: 0.7; stroke: #ef6c00; stroke-opacity: 0.7; stroke-width: 1.5"/>
    <path d="M 254.412715 214.332503 
L 232.825285 223.368109 
L 232.825285 261.549015 
L 254.412715 272.34273 
z
" clip-path="url(#p825f2a2261)" style="fill: #ffcc80; fill-opacity: 0.7; stroke: #ef6c00; stroke-opacity: 0.7; stroke-width: 1.5"/>
    <path d="M 283.901693 183.294374 
L 283.901693 268.391956 
L 291.803241 253.647467 
L 291.803241 161.291849 
z
" clip-path="url(#p825f2a2261)" style="fill: #ffcc80; fill-opacity: 0.7; stroke: #ef6c00; stroke-opacity: 0.7; stroke-width: 1.5"/>
    <path d="M 254.412715 272.34273 
L 269.157204 290.196664 
L 283.901693 268.391956 
L 283.901693 183.294374 
L 254.412715 214.332503 
z
" clip-path="url(#p825f2a2261)" style="fill: #ffcc80; fill-opacity: 0.7; stroke: #ef6c00; stroke-opacity: 0.7; stroke-width: 1.5"/>
    <path d="M 232.825285 223.368109 
L 254.412715 214.332503 
L 283.901693 183.294374 
L 291.803241 161.291849 
L 270.21581 170.327455 
L 240.726832 201.365585 
z
" clip-path="url(#p825f2a2261)" style="fill: #ffcc80; fill-opacity: 0.7; stroke: #ef6c00; stroke-opacity: 0.7; stroke-width: 1.5"/>
    <path d="M 240.301406 211.095588 
L 239.979878 201.19246 
L 261.992735 182.426851 
L 284.327119 173.56437 
L 284.648647 183.467498 
L 262.63579 202.233107 
z
" clip-path="url(#p825f2a2261)" style="fill: #ffcc80; fill-opacity: 0.7; stroke: #ef6c00; stroke-opacity: 0.7; stroke-width: 1.5"/>
    <path d="M 228.422444 151.793347 
L 284.327119 173.56437 
L 261.992735 182.426851 
L 201.319909 158.798962 
z
" clip-path="url(#p825f2a2261)" style="fill: #ffcc80; fill-opacity: 0.7; stroke: #ef6c00; stroke-opacity: 0.7; stroke-width: 1.5"/>
    <path d="M 183.800066 165.645239 
L 201.319909 158.798962 
L 261.992735 182.426851 
L 239.979878 201.19246 
L 192.333882 182.637624 
z
" clip-path="url(#p825f2a2261)" style="fill: #ffcc80; fill-opacity: 0.7; stroke: #ef6c00; stroke-opacity: 0.7; stroke-width: 1.5"/>
    <path d="M 239.979878 201.19246 
L 240.301406 211.095588 
L 210.450391 199.470673 
L 192.333882 182.637624 
z
" clip-path="url(#p825f2a2261)" style="fill: #ffcc80; fill-opacity: 0.7; stroke: #ef6c00; stroke-opacity: 0.7; stroke-width: 1.5"/>
    <path d="M 246.538953 168.626395 
L 284.648647 183.467498 
L 284.327119 173.56437 
L 228.422444 151.793347 
L 224.453869 155.136818 
z
" clip-path="url(#p825f2a2261)" style="fill: #ffcc80; fill-opacity: 0.7; stroke: #ef6c00; stroke-opacity: 0.7; stroke-width: 1.5"/>
    <path d="M 246.538953 168.626395 
L 237.552926 192.465058 
L 262.63579 202.233107 
L 284.648647 183.467498 
z
" clip-path="url(#p825f2a2261)" style="fill: #ffcc80; fill-opacity: 0.7; stroke: #ef6c00; stroke-opacity: 0.7; stroke-width: 1.5"/>
    <path d="M 210.450391 199.470673 
L 240.301406 211.095588 
L 262.63579 202.233107 
L 237.552926 192.465058 
L 210.974829 190.894812 
z
" clip-path="url(#p825f2a2261)" style="fill: #ffcc80; fill-opacity: 0.7; stroke: #ef6c00; stroke-opacity: 0.7; stroke-width: 1.5"/>
    <path d="M 224.453869 155.136818 
L 228.422444 151.793347 
L 201.319909 158.798962 
L 183.800066 165.645239 
L 193.382758 165.485903 
z
" clip-path="url(#p825f2a2261)" style="fill: #ffcc80; fill-opacity: 0.7; stroke: #ef6c00; stroke-opacity: 0.7; stroke-width: 1.5"/>
    <path d="M 193.382758 165.485903 
L 183.800066 165.645239 
L 192.333882 182.637624 
L 210.450391 199.470673 
L 210.974829 190.894812 
z
" clip-path="url(#p825f2a2261)" style="fill: #ffcc80; fill-opacity: 0.7; stroke: #ef6c00; stroke-opacity: 0.7; stroke-width: 1.5"/>
    <path d="M 210.974829 190.894812 
L 237.552926 192.465058 
L 246.538953 168.626395 
L 224.453869 155.136818 
L 193.382758 165.485903 
z
" clip-path="url(#p825f2a2261)" style="fill: #ffcc80; fill-opacity: 0.7; stroke: #ef6c00; stroke-opacity: 0.7; stroke-width: 1.5"/>
   </g>
   <g id="Path3DCollection_2">
    <defs>
     <path id="C1_0_7a49998cb5" d="M 0 2.738613 
C 0.726289 2.738613 1.422928 2.450055 1.936492 1.936492 
C 2.450055 1.422928 2.738613 0.726289 2.738613 -0 
C 2.738613 -0.726289 2.450055 -1.422928 1.936492 -1.936492 
C 1.422928 -2.450055 0.726289 -2.738613 0 -2.738613 
C -0.726289 -2.738613 -1.422928 -2.450055 -1.936492 -1.936492 
C -2.450055 -1.422928 -2.738613 -0.726289 -2.738613 0 
C -2.738613 0.726289 -2.450055 1.422928 -1.936492 1.936492 
C -1.422928 2.450055 -0.726289 2.738613 0 2.738613 
z
"/>
    </defs>
    <g clip-path="url(#p825f2a2261)">
     <use xlink:href="#C1_0_7a49998cb5" x="262.314263" y="297.256882" style="fill: #ef6c00; fill-opacity: 0.9; stroke: #ef6c00; stroke-opacity: 0.9"/>
    </g>
    <g clip-path="url(#p825f2a2261)">
     <use xlink:href="#C1_0_7a49998cb5" x="236.776058" y="274.006091" style="fill: #ef6c00; fill-opacity: 0.9; stroke: #ef6c00; stroke-opacity: 0.9"/>
    </g>
    <g clip-path="url(#p825f2a2261)">
     <use xlink:href="#C1_0_7a49998cb5" x="291.803241" y="253.647467" style="fill: #ef6c00; fill-opacity: 0.9; stroke: #ef6c00; stroke-opacity: 0.9"/>
    </g>
    <g clip-path="url(#p825f2a2261)">
     <use xlink:href="#C1_0_7a49998cb5" x="232.825285" y="261.549015" style="fill: #ef6c00; fill-opacity: 0.9; stroke: #ef6c00; stroke-opacity: 0.9"/>
    </g>
    <g clip-path="url(#p825f2a2261)">
     <use xlink:href="#C1_0_7a49998cb5" x="240.726832" y="201.365585" style="fill: #ef6c00; fill-opacity: 0.9; stroke: #ef6c00; stroke-opacity: 0.9"/>
    </g>
    <g clip-path="url(#p825f2a2261)">
     <use xlink:href="#C1_0_7a49998cb5" x="269.157204" y="290.196664" style="fill: #ef6c00; fill-opacity: 0.9; stroke: #ef6c00; stroke-opacity: 0.9"/>
    </g>
    <g clip-path="url(#p825f2a2261)">
     <use xlink:href="#C1_0_7a49998cb5" x="270.21581" y="170.327455" style="fill: #ef6c00; fill-opacity: 0.9; stroke: #ef6c00; stroke-opacity: 0.9"/>
    </g>
    <g clip-path="url(#p825f2a2261)">
     <use xlink:href="#C1_0_7a49998cb5" x="283.901693" y="268.391956" style="fill: #ef6c00; fill-opacity: 0.9; stroke: #ef6c00; stroke-opacity: 0.9"/>
    </g>
    <g clip-path="url(#p825f2a2261)">
     <use xlink:href="#C1_0_7a49998cb5" x="254.412715" y="272.34273" style="fill: #ef6c00; fill-opacity: 0.9; stroke: #ef6c00; stroke-opacity: 0.9"/>
    </g>
    <g clip-path="url(#p825f2a2261)">
     <use xlink:href="#C1_0_7a49998cb5" x="232.825285" y="223.368109" style="fill: #ef6c00; fill-opacity: 0.9; stroke: #ef6c00; stroke-opacity: 0.9"/>
    </g>
    <g clip-path="url(#p825f2a2261)">
     <use xlink:href="#C1_0_7a49998cb5" x="291.803241" y="161.291849" style="fill: #ef6c00; fill-opacity: 0.9; stroke: #ef6c00; stroke-opacity: 0.9"/>
    </g>
    <g clip-path="url(#p825f2a2261)">
     <use xlink:href="#C1_0_7a49998cb5" x="284.648647" y="183.467498" style="fill: #ef6c00; fill-opacity: 0.9; stroke: #ef6c00; stroke-opacity: 0.9"/>
    </g>
    <g clip-path="url(#p825f2a2261)">
     <use xlink:href="#C1_0_7a49998cb5" x="254.412715" y="214.332503" style="fill: #ef6c00; fill-opacity: 0.9; stroke: #ef6c00; stroke-opacity: 0.9"/>
    </g>
    <g clip-path="url(#p825f2a2261)">
     <use xlink:href="#C1_0_7a49998cb5" x="283.901693" y="183.294374" style="fill: #ef6c00; fill-opacity: 0.9; stroke: #ef6c00; stroke-opacity: 0.9"/>
    </g>
    <g clip-path="url(#p825f2a2261)">
     <use xlink:href="#C1_0_7a49998cb5" x="240.301406" y="211.095588" style="fill: #ef6c00; fill-opacity: 0.9; stroke: #ef6c00; stroke-opacity: 0.9"/>
    </g>
    <g clip-path="url(#p825f2a2261)">
     <use xlink:href="#C1_0_7a49998cb5" x="262.63579" y="202.233107" style="fill: #ef6c00; fill-opacity: 0.9; stroke: #ef6c00; stroke-opacity: 0.9"/>
    </g>
    <g clip-path="url(#p825f2a2261)">
     <use xlink:href="#C1_0_7a49998cb5" x="192.333882" y="182.637624" style="fill: #ef6c00; fill-opacity: 0.9; stroke: #ef6c00; stroke-opacity: 0.9"/>
    </g>
    <g clip-path="url(#p825f2a2261)">
     <use xlink:href="#C1_0_7a49998cb5" x="246.538953" y="168.626395" style="fill: #ef6c00; fill-opacity: 0.9; stroke: #ef6c00; stroke-opacity: 0.9"/>
    </g>
    <g clip-path="url(#p825f2a2261)">
     <use xlink:href="#C1_0_7a49998cb5" x="210.450391" y="199.470673" style="fill: #ef6c00; fill-opacity: 0.9; stroke: #ef6c00; stroke-opacity: 0.9"/>
    </g>
    <g clip-path="url(#p825f2a2261)">
     <use xlink:href="#C1_0_7a49998cb5" x="183.800066" y="165.645239" style="fill: #ef6c00; fill-opacity: 0.9; stroke: #ef6c00; stroke-opacity: 0.9"/>
    </g>
    <g clip-path="url(#p825f2a2261)">
     <use xlink:href="#C1_0_7a49998cb5" x="237.552926" y="192.465058" style="fill: #ef6c00; fill-opacity: 0.9; stroke: #ef6c00; stroke-opacity: 0.9"/>
    </g>
    <g clip-path="url(#p825f2a2261)">
     <use xlink:href="#C1_0_7a49998cb5" x="224.453869" y="155.136818" style="fill: #ef6c00; fill-opacity: 0.9; stroke: #ef6c00; stroke-opacity: 0.9"/>
    </g>
    <g clip-path="url(#p825f2a2261)">
     <use xlink:href="#C1_0_7a49998cb5" x="210.974829" y="190.894812" style="fill: #ef6c00; fill-opacity: 0.9; stroke: #ef6c00; stroke-opacity: 0.9"/>
    </g>
    <g clip-path="url(#p825f2a2261)">
     <use xlink:href="#C1_0_7a49998cb5" x="193.382758" y="165.485903" style="fill: #ef6c00; fill-opacity: 0.9; stroke: #ef6c00; stroke-opacity: 0.9"/>
    </g>
   </g>
  </g>
 </g>
 <defs>
  <clipPath id="p825f2a2261">
   <rect x="7.2" y="7.2" width="443.52" height="443.52"/>
  </clipPath>
 </defs>
</svg>
