<?xml version="1.0" encoding="utf-8" standalone="no"?>
<!DOCTYPE svg PUBLIC "-//W3C//DTD SVG 1.1//EN"
  "http://www.w3.org/Graphics/SVG/1.1/DTD/svg11.dtd">
<svg xmlns:xlink="http://www.w3.org/1999/xlink" width="424.8pt" height="424.8pt" viewBox="0 0 424.8 424.8" xmlns="http://www.w3.org/2000/svg" version="1.1">
 <metadata>
  <rdf:RDF xmlns:dc="http://purl.org/dc/elements/1.1/" xmlns:cc="http://creativecommons.org/ns#" xmlns:rdf="http://www.w3.org/1999/02/22-rdf-syntax-ns#">
   <cc:Work>
    <dc:type rdf:resource="http://purl.org/dc/dcmitype/StillImage"/>
    <dc:date>2026-01-26T17:14:39.725721</dc:date>
    <dc:format>image/svg+xml</dc:format>
    <dc:creator>
     <cc:Agent>
      <dc:title>Matplotlib v3.10.8, https://matplotlib.org/</dc:title>
     </cc:Agent>
    </dc:creator>
   </cc:Work>
  </rdf:RDF>
 </metadata>
 <defs>
  <style type="text/css">*{stroke-linejoin: round; stroke-linecap: butt}</style>
 </defs>
 <g id="figure_1">
  <g id="patch_1">
   <path d="M 0 424.8 
L 424.8 424.8 
L 424.8 0 
L 0 0 
z
" style="fill: #ffffff"/>
  </g>
  <g id="patch_2">
   <path d="M 7.2 417.6 
L 417.6 417.6 
L 417.6 7.2 
L 7.2 7.2 
z
" style="fill: #ffffff"/>
  </g>
  <g id="axes_1">
   <g id="Path3DCollection_1">
    <defs>
     <path id="C0_0_b5ed8dd662" d="M 0 2.738613 
C 0.726289 2.738613 1.422928 2.450055 1.936492 1.936492 
C 2.450055 1.422928 2.738613 0.726289 2.738613 -0 
C 2.738613 -0.726289 2.450055 -1.422928 1.936492 -1.936492 
C 1.422928 -2.450055 0.726289 -2.738613 0 -2.738613 
C -0.726289 -2.738613 -1.422928 -2.450055 -1.936492 -1.936492 
C -2.450055 -1.422928 -2.738613 -0.726289 -2.738613 0 
C -2.738613 0.726289 -2.450055 1.422928 -1.936492 1.936492 
C -1.422928 2.450055 -0.726289 2.738613 0 2.738613 
z
"/>
    </defs>
    <g clip-path="url(#pe6ba846d00)">
     <use xlink:href="#C0_0_b5ed8dd662" x="197.0808" y="148.217459" style="fill: #0369a1; fill-opacity: 0.3; stroke: #0369a1; stroke-opacity: 0.3"/>
    </g>
    <g clip-path="url(#pe6ba846d00)">
     <use xlink:href="#C0_0_b5ed8dd662" x="206.812495" y="180.477192" style="fill: #0369a1; fill-opacity: 0.3; stroke: #0369a1; stroke-opacity: 0.3"/>
    </g>
    <g clip-path="url(#pe6ba846d00)">
     <use xlink:href="#C0_0_b5ed8dd662" x="182.383253" y="181.135315" style="fill: #0369a1; fill-opacity: 0.3; stroke: #0369a1; stroke-opacity: 0.3"/>
    </g>
    <g clip-path="url(#pe6ba846d00)">
     <use xlink:href="#C0_0_b5ed8dd662" x="178.384113" y="186.80833" style="fill: #0369a1; fill-opacity: 0.3; stroke: #0369a1; stroke-opacity: 0.3"/>
    </g>
    <g clip-path="url(#pe6ba846d00)">
     <use xlink:href="#C0_0_b5ed8dd662" x="174.384972" y="185.134455" style="fill: #0369a1; fill-opacity: 0.3; stroke: #0369a1; stroke-opacity: 0.3"/>
    </g>
    <g clip-path="url(#pe6ba846d00)">
     <use xlink:href="#C0_0_b5ed8dd662" x="181.608943" y="200.918816" style="fill: #0369a1; fill-opacity: 0.3; stroke: #0369a1; stroke-opacity: 0.3"/>
    </g>
    <g clip-path="url(#pe6ba846d00)">
     <use xlink:href="#C0_0_b5ed8dd662" x="270.582087" y="212.361988" style="fill: #0369a1; fill-opacity: 0.3; stroke: #0369a1; stroke-opacity: 0.3"/>
    </g>
    <g clip-path="url(#pe6ba846d00)">
     <use xlink:href="#C0_0_b5ed8dd662" x="271.233638" y="212.926248" style="fill: #0369a1; fill-opacity: 0.3; stroke: #0369a1; stroke-opacity: 0.3"/>
    </g>
    <g clip-path="url(#pe6ba846d00)">
     <use xlink:href="#C0_0_b5ed8dd662" x="174.963648" y="213.319105" style="fill: #0369a1; fill-opacity: 0.3; stroke: #0369a1; stroke-opacity: 0.3"/>
    </g>
    <g clip-path="url(#pe6ba846d00)">
     <use xlink:href="#C0_0_b5ed8dd662" x="291.550975" y="195.452546" style="fill: #0369a1; fill-opacity: 0.3; stroke: #0369a1; stroke-opacity: 0.3"/>
    </g>
   </g>
   <g id="Poly3DCollection_1">
    <path d="M 270.582087 212.361988 
L 206.812495 180.477192 
L 197.0808 148.217459 
L 291.550975 195.452546 
z
" clip-path="url(#pe6ba846d00)" style="fill: #0ea5e9; fill-opacity: 0.7; stroke: #0369a1; stroke-opacity: 0.7; stroke-width: 1.5"/>
    <path d="M 174.384972 185.134455 
L 182.383253 181.135315 
L 178.384113 186.80833 
z
" clip-path="url(#pe6ba846d00)" style="fill: #0ea5e9; fill-opacity: 0.7; stroke: #0369a1; stroke-opacity: 0.7; stroke-width: 1.5"/>
    <path d="M 181.608943 200.918816 
L 178.384113 186.80833 
L 182.383253 181.135315 
L 245.084292 148.392634 
L 286.58393 191.150959 
L 271.233638 212.926248 
z
" clip-path="url(#pe6ba846d00)" style="fill: #0ea5e9; fill-opacity: 0.7; stroke: #0369a1; stroke-opacity: 0.7; stroke-width: 1.5"/>
    <path d="M 299.362935 198.711201 
L 291.550975 195.452546 
L 197.0808 148.217459 
L 188.664583 143.685688 
L 202.302258 149.374462 
L 278.394046 187.420356 
z
" clip-path="url(#pe6ba846d00)" style="fill: #0ea5e9; fill-opacity: 0.7; stroke: #0369a1; stroke-opacity: 0.7; stroke-width: 1.5"/>
    <path d="M 154.398164 219.222837 
L 153.452258 209.392781 
L 188.664583 143.685688 
L 197.0808 148.217459 
L 206.812495 180.477192 
L 178.960968 232.44885 
z
" clip-path="url(#pe6ba846d00)" style="fill: #0ea5e9; fill-opacity: 0.7; stroke: #0369a1; stroke-opacity: 0.7; stroke-width: 1.5"/>
    <path d="M 182.383253 181.135315 
L 174.384972 185.134455 
L 154.398164 194.485271 
L 178.960968 181.259258 
L 242.730559 149.374462 
L 245.084292 148.392634 
z
" clip-path="url(#pe6ba846d00)" style="fill: #0ea5e9; fill-opacity: 0.7; stroke: #0369a1; stroke-opacity: 0.7; stroke-width: 1.5"/>
    <path d="M 181.608943 200.918816 
L 174.963648 213.319105 
L 153.452258 204.315327 
L 154.398164 194.485271 
L 174.384972 185.134455 
L 178.384113 186.80833 
z
" clip-path="url(#pe6ba846d00)" style="fill: #0ea5e9; fill-opacity: 0.7; stroke: #0369a1; stroke-opacity: 0.7; stroke-width: 1.5"/>
    <path d="M 174.963648 200.389003 
L 202.302258 149.374462 
L 188.664583 143.685688 
L 153.452258 209.392781 
z
" clip-path="url(#pe6ba846d00)" style="fill: #0ea5e9; fill-opacity: 0.7; stroke: #0369a1; stroke-opacity: 0.7; stroke-width: 1.5"/>
    <path d="M 286.58393 191.150959 
L 299.362935 214.996907 
L 278.394046 226.287752 
L 271.233638 212.926248 
z
" clip-path="url(#pe6ba846d00)" style="fill: #0ea5e9; fill-opacity: 0.7; stroke: #0369a1; stroke-opacity: 0.7; stroke-width: 1.5"/>
    <path d="M 242.730559 264.333646 
L 178.960968 232.44885 
L 206.812495 180.477192 
L 270.582087 212.361988 
z
" clip-path="url(#pe6ba846d00)" style="fill: #0ea5e9; fill-opacity: 0.7; stroke: #0369a1; stroke-opacity: 0.7; stroke-width: 1.5"/>
    <path d="M 271.233638 212.926248 
L 278.394046 226.287752 
L 202.302258 264.333646 
L 174.963648 213.319105 
L 181.608943 200.918816 
z
" clip-path="url(#pe6ba846d00)" style="fill: #0ea5e9; fill-opacity: 0.7; stroke: #0369a1; stroke-opacity: 0.7; stroke-width: 1.5"/>
    <path d="M 299.362935 214.996907 
L 286.58393 191.150959 
L 245.084292 148.392634 
L 242.730559 149.374462 
L 270.582087 201.34612 
L 291.550975 218.255562 
z
" clip-path="url(#pe6ba846d00)" style="fill: #0ea5e9; fill-opacity: 0.7; stroke: #0369a1; stroke-opacity: 0.7; stroke-width: 1.5"/>
    <path d="M 245.084292 265.315474 
L 242.730559 264.333646 
L 270.582087 212.361988 
L 291.550975 195.452546 
L 299.362935 198.711201 
L 286.58393 222.557149 
z
" clip-path="url(#pe6ba846d00)" style="fill: #0ea5e9; fill-opacity: 0.7; stroke: #0369a1; stroke-opacity: 0.7; stroke-width: 1.5"/>
    <path d="M 271.233638 200.78186 
L 278.394046 187.420356 
L 202.302258 149.374462 
L 174.963648 200.389003 
L 181.608943 212.789292 
z
" clip-path="url(#pe6ba846d00)" style="fill: #0ea5e9; fill-opacity: 0.7; stroke: #0369a1; stroke-opacity: 0.7; stroke-width: 1.5"/>
    <path d="M 242.730559 149.374462 
L 178.960968 181.259258 
L 206.812495 233.230916 
L 270.582087 201.34612 
z
" clip-path="url(#pe6ba846d00)" style="fill: #0ea5e9; fill-opacity: 0.7; stroke: #0369a1; stroke-opacity: 0.7; stroke-width: 1.5"/>
    <path d="M 286.58393 222.557149 
L 299.362935 198.711201 
L 278.394046 187.420356 
L 271.233638 200.78186 
z
" clip-path="url(#pe6ba846d00)" style="fill: #0ea5e9; fill-opacity: 0.7; stroke: #0369a1; stroke-opacity: 0.7; stroke-width: 1.5"/>
    <path d="M 174.963648 213.319105 
L 202.302258 264.333646 
L 188.664583 270.02242 
L 153.452258 204.315327 
z
" clip-path="url(#pe6ba846d00)" style="fill: #0ea5e9; fill-opacity: 0.7; stroke: #0369a1; stroke-opacity: 0.7; stroke-width: 1.5"/>
    <path d="M 174.384972 228.573653 
L 178.384113 226.899778 
L 181.608943 212.789292 
L 174.963648 200.389003 
L 153.452258 209.392781 
L 154.398164 219.222837 
z
" clip-path="url(#pe6ba846d00)" style="fill: #0ea5e9; fill-opacity: 0.7; stroke: #0369a1; stroke-opacity: 0.7; stroke-width: 1.5"/>
    <path d="M 182.383253 232.572793 
L 174.384972 228.573653 
L 154.398164 219.222837 
L 178.960968 232.44885 
L 242.730559 264.333646 
L 245.084292 265.315474 
z
" clip-path="url(#pe6ba846d00)" style="fill: #0ea5e9; fill-opacity: 0.7; stroke: #0369a1; stroke-opacity: 0.7; stroke-width: 1.5"/>
    <path d="M 188.664583 270.02242 
L 197.0808 265.490649 
L 206.812495 233.230916 
L 178.960968 181.259258 
L 154.398164 194.485271 
L 153.452258 204.315327 
z
" clip-path="url(#pe6ba846d00)" style="fill: #0ea5e9; fill-opacity: 0.7; stroke: #0369a1; stroke-opacity: 0.7; stroke-width: 1.5"/>
    <path d="M 299.362935 214.996907 
L 291.550975 218.255562 
L 197.0808 265.490649 
L 188.664583 270.02242 
L 202.302258 264.333646 
L 278.394046 226.287752 
z
" clip-path="url(#pe6ba846d00)" style="fill: #0ea5e9; fill-opacity: 0.7; stroke: #0369a1; stroke-opacity: 0.7; stroke-width: 1.5"/>
    <path d="M 245.084292 265.315474 
L 286.58393 222.557149 
L 271.233638 200.78186 
L 181.608943 212.789292 
L 178.384113 226.899778 
L 182.383253 232.572793 
z
" clip-path="url(#pe6ba846d00)" style="fill: #0ea5e9; fill-opacity: 0.7; stroke: #0369a1; stroke-opacity: 0.7; stroke-width: 1.5"/>
    <path d="M 178.384113 226.899778 
L 174.384972 228.573653 
L 182.383253 232.572793 
z
" clip-path="url(#pe6ba846d00)" style="fill: #0ea5e9; fill-opacity: 0.7; stroke: #0369a1; stroke-opacity: 0.7; stroke-width: 1.5"/>
    <path d="M 270.582087 201.34612 
L 206.812495 233.230916 
L 197.0808 265.490649 
L 291.550975 218.255562 
z
" clip-path="url(#pe6ba846d00)" style="fill: #0ea5e9; fill-opacity: 0.7; stroke: #0369a1; stroke-opacity: 0.7; stroke-width: 1.5"/>
   </g>
   <g id="Path3DCollection_2">
    <defs>
     <path id="C1_0_cb3b9b3fc3" d="M 0 2.738613 
C 0.726289 2.738613 1.422928 2.450055 1.936492 1.936492 
C 2.450055 1.422928 2.738613 0.726289 2.738613 -0 
C 2.738613 -0.726289 2.450055 -1.422928 1.936492 -1.936492 
C 1.422928 -2.450055 0.726289 -2.738613 0 -2.738613 
C -0.726289 -2.738613 -1.422928 -2.450055 -1.936492 -1.936492 
C -2.450055 -1.422928 -2.738613 -0.726289 -2.738613 0 
C -2.738613 0.726289 -2.450055 1.422928 -1.936492 1.936492 
C -1.422928 2.450055 -0.726289 2.738613 0 2.738613 
z
"/>
    </defs>
    <g clip-path="url(#pe6ba846d00)">
     <use xlink:href="#C1_0_cb3b9b3fc3" x="188.664583" y="143.685688" style="fill: #0369a1; fill-opacity: 0.9; stroke: #0369a1; stroke-opacity: 0.9"/>
    </g>
    <g clip-path="url(#pe6ba846d00)">
     <use xlink:href="#C1_0_cb3b9b3fc3" x="245.084292" y="148.392634" style="fill: #0369a1; fill-opacity: 0.9; stroke: #0369a1; stroke-opacity: 0.9"/>
    </g>
    <g clip-path="url(#pe6ba846d00)">
     <use xlink:href="#C1_0_cb3b9b3fc3" x="202.302258" y="149.374462" style="fill: #0369a1; fill-opacity: 0.9; stroke: #0369a1; stroke-opacity: 0.9"/>
    </g>
    <g clip-path="url(#pe6ba846d00)">
     <use xlink:href="#C1_0_cb3b9b3fc3" x="242.730559" y="149.374462" style="fill: #0369a1; fill-opacity: 0.9; stroke: #0369a1; stroke-opacity: 0.9"/>
    </g>
    <g clip-path="url(#pe6ba846d00)">
     <use xlink:href="#C1_0_cb3b9b3fc3" x="286.58393" y="191.150959" style="fill: #0369a1; fill-opacity: 0.9; stroke: #0369a1; stroke-opacity: 0.9"/>
    </g>
    <g clip-path="url(#pe6ba846d00)">
     <use xlink:href="#C1_0_cb3b9b3fc3" x="154.398164" y="194.485271" style="fill: #0369a1; fill-opacity: 0.9; stroke: #0369a1; stroke-opacity: 0.9"/>
    </g>
    <g clip-path="url(#pe6ba846d00)">
     <use xlink:href="#C1_0_cb3b9b3fc3" x="278.394046" y="226.287752" style="fill: #0369a1; fill-opacity: 0.9; stroke: #0369a1; stroke-opacity: 0.9"/>
    </g>
    <g clip-path="url(#pe6ba846d00)">
     <use xlink:href="#C1_0_cb3b9b3fc3" x="153.452258" y="204.315327" style="fill: #0369a1; fill-opacity: 0.9; stroke: #0369a1; stroke-opacity: 0.9"/>
    </g>
    <g clip-path="url(#pe6ba846d00)">
     <use xlink:href="#C1_0_cb3b9b3fc3" x="178.960968" y="232.44885" style="fill: #0369a1; fill-opacity: 0.9; stroke: #0369a1; stroke-opacity: 0.9"/>
    </g>
    <g clip-path="url(#pe6ba846d00)">
     <use xlink:href="#C1_0_cb3b9b3fc3" x="299.362935" y="198.711201" style="fill: #0369a1; fill-opacity: 0.9; stroke: #0369a1; stroke-opacity: 0.9"/>
    </g>
    <g clip-path="url(#pe6ba846d00)">
     <use xlink:href="#C1_0_cb3b9b3fc3" x="299.362935" y="214.996907" style="fill: #0369a1; fill-opacity: 0.9; stroke: #0369a1; stroke-opacity: 0.9"/>
    </g>
    <g clip-path="url(#pe6ba846d00)">
     <use xlink:href="#C1_0_cb3b9b3fc3" x="178.960968" y="181.259258" style="fill: #0369a1; fill-opacity: 0.9; stroke: #0369a1; stroke-opacity: 0.9"/>
    </g>
    <g clip-path="url(#pe6ba846d00)">
     <use xlink:href="#C1_0_cb3b9b3fc3" x="153.452258" y="209.392781" style="fill: #0369a1; fill-opacity: 0.9; stroke: #0369a1; stroke-opacity: 0.9"/>
    </g>
    <g clip-path="url(#pe6ba846d00)">
     <use xlink:href="#C1_0_cb3b9b3fc3" x="278.394046" y="187.420356" style="fill: #0369a1; fill-opacity: 0.9; stroke: #0369a1; stroke-opacity: 0.9"/>
    </g>
    <g clip-path="url(#pe6ba846d00)">
     <use xlink:href="#C1_0_cb3b9b3fc3" x="154.398164" y="219.222837" style="fill: #0369a1; fill-opacity: 0.9; stroke: #0369a1; stroke-opacity: 0.9"/>
    </g>
    <g clip-path="url(#pe6ba846d00)">
     <use xlink:href="#C1_0_cb3b9b3fc3" x="291.550975" y="218.255562" style="fill: #0369a1; fill-opacity: 0.9; stroke: #0369a1; stroke-opacity: 0.9"/>
    </g>
    <g clip-path="url(#pe6ba846d00)">
     <use xlink:href="#C1_0_cb3b9b3fc3" x="174.963648" y="200.389003" style="fill: #0369a1; fill-opacity: 0.9; stroke: #0369a1; stroke-opacity: 0.9"/>
    </g>
    <g clip-path="url(#pe6ba846d00)">
     <use xlink:href="#C1_0_cb3b9b3fc3" x="271.233638" y="200.78186" style="fill: #0369a1; fill-opacity: 0.9; stroke: #0369a1; stroke-opacity: 0.9"/>
    </g>
    <g clip-path="url(#pe6ba846d00)">
     <use xlink:href="#C1_0_cb3b9b3fc3" x="270.582087" y="201.34612" style="fill: #0369a1; fill-opacity: 0.9; stroke: #0369a1; stroke-opacity: 0.9"/>
    </g>
    <g clip-path="url(#pe6ba846d00)">
     <use xlink:href="#C1_0_cb3b9b3fc3" x="286.58393" y="222.557149" style="fill: #0369a1; fill-opacity: 0.9; stroke: #0369a1; stroke-opacity: 0.9"/>
    </g>
    <g clip-path="url(#pe6ba846d00)">
     <use xlink:href="#C1_0_cb3b9b3fc3" x="242.730559" y="264.333646" style="fill: #0369a1; fill-opacity: 0.9; stroke: #0369a1; stroke-opacity: 0.9"/>
    </g>
    <g clip-path="url(#pe6ba846d00)">
     <use xlink:href="#C1_0_cb3b9b3fc3" x="202.302258" y="264.333646" style="fill: #0369a1; fill-opacity: 0.9; stroke: #0369a1; stroke-opacity: 0.9"/>
    </g>
    <g clip-path="url(#pe6ba846d00)">
     <use xlink:href="#C1_0_cb3b9b3fc3" x="181.608943" y="212.789292" style="fill: #0369a1; fill-opacity: 0.9; stroke: #0369a1; stroke-opacity: 0.9"/>
    </g>
    <g clip-path="url(#pe6ba846d00)">
     <use xlink:href="#C1_0_cb3b9b3fc3" x="174.384972" y="228.573653" style="fill: #0369a1; fill-opacity: 0.9; stroke: #0369a1; stroke-opacity: 0.9"/>
    </g>
    <g clip-path="url(#pe6ba846d00)">
     <use xlink:href="#C1_0_cb3b9b3fc3" x="178.384113" y="226.899778" style="fill: #0369a1; fill-opacity: 0.9; stroke: #0369a1; stroke-opacity: 0.9"/>
    </g>
    <g clip-path="url(#pe6ba846d00)">
     <use xlink:href="#C1_0_cb3b9b3fc3" x="182.383253" y="232.572793" style="fill: #0369a1; fill-opacity: 0.9; stroke: #0369a1; stroke-opacity: 0.9"/>
    </g>
    <g clip-path="url(#pe6ba846d00)">
     <use xlink:href="#C1_0_cb3b9b3fc3" x="245.084292" y="265.315474" style="fill: #0369a1; fill-opacity: 0.9; stroke: #0369a1; stroke-opacity: 0.9"/>
    </g>
    <g clip-path="url(#pe6ba846d00)">
     <use xlink:href="#C1_0_cb3b9b3fc3" x="206.812495" y="233.230916" style="fill: #0369a1; fill-opacity: 0.9; stroke: #0369a1; stroke-opacity: 0.9"/>
    </g>
    <g clip-path="url(#pe6ba846d00)">
     <use xlink:href="#C1_0_cb3b9b3fc3" x="188.664583" y="270.02242" style="fill: #0369a1; fill-opacity: 0.9; stroke: #0369a1; stroke-opacity: 0.9"/>
    </g>
    <g clip-path="url(#pe6ba846d00)">
     <use xlink:href="#C1_0_cb3b9b3fc3" x="197.0808" y="265.490649" style="fill: #0369a1; fill-opacity: 0.9; stroke: #0369a1; stroke-opacity: 0.9"/>
    </g>
   </g>
  </g>
 </g>
 <defs>
  <clipPath id="pe6ba846d00">
   <rect x="7.2" y="7.2" width="410.4" height="410.4"/>
  </clipPath>
 </defs>
</svg>
