<?xml version="1.0" encoding="utf-8" standalone="no"?>
<!DOCTYPE svg PUBLIC "-//W3C//DTD SVG 1.1//EN"
  "http://www.w3.org/Graphics/SVG/1.1/DTD/svg11.dtd">
<svg xmlns:xlink="http://www.w3.org/1999/xlink" width="464.059457pt" height="457.92pt" viewBox="0 0 464.059457 457.92" xmlns="http://www.w3.org/2000/svg" version="1.1">
 <metadata>
  <rdf:RDF xmlns:dc="http://purl.org/dc/elements/1.1/" xmlns:cc="http://creativecommons.org/ns#" xmlns:rdf="http://www.w3.org/1999/02/22-rdf-syntax-ns#">
   <cc:Work>
    <dc:type rdf:resource="http://purl.org/dc/dcmitype/StillImage"/>
    <dc:date>2026-02-02T15:08:44.075706</dc:date>
    <dc:format>image/svg+xml</dc:format>
    <dc:creator>
     <cc:Agent>
      <dc:title>Matplotlib v3.10.8, https://matplotlib.org/</dc:title>
     </cc:Agent>
    </dc:creator>
   </cc:Work>
  </rdf:RDF>
 </metadata>
 <defs>
  <style type="text/css">*{stroke-linejoin: round; stroke-linecap: butt}</style>
 </defs>
 <g id="figure_1">
  <g id="patch_1">
   <path d="M 0 457.92 
L 464.059457 457.92 
L 464.059457 0 
L 0 0 
z
" style="fill: #ffffff"/>
  </g>
  <g id="patch_2">
   <path d="M 7.2 450.72 
L 450.72 450.72 
L 450.72 7.2 
L 7.2 7.2 
z
" style="fill: #ffffff"/>
  </g>
  <g id="pane3d_1">
   <g id="patch_3">
    <path d="M 33.141415 315.654611 
L 234.953514 214.748562 
L 234.953514 29.372313 
L 33.141415 130.278362 
" style="fill: #f2f2f2; opacity: 0.5; stroke: #f2f2f2; stroke-linejoin: miter"/>
   </g>
  </g>
  <g id="pane3d_2">
   <g id="patch_4">
    <path d="M 234.953514 214.748562 
L 436.765612 315.654611 
L 436.765612 130.278362 
L 234.953514 29.372313 
" style="fill: #e6e6e6; opacity: 0.5; stroke: #e6e6e6; stroke-linejoin: miter"/>
   </g>
  </g>
  <g id="pane3d_3">
   <g id="patch_5">
    <path d="M 33.141415 315.654611 
L 234.953514 416.56066 
L 436.765612 315.654611 
L 234.953514 214.748562 
" style="fill: #ececec; opacity: 0.5; stroke: #ececec; stroke-linejoin: miter"/>
   </g>
  </g>
  <g id="grid3d_1">
   <g id="Line3DCollection_1">
    <path d="M 40.738177 319.452992 
L 242.550275 218.546943 
L 242.550275 33.170694 
" style="fill: none; stroke: #b0b0b0; stroke-width: 0.8"/>
    <path d="M 72.48792 335.327863 
L 274.300018 234.421814 
L 274.300018 49.045565 
" style="fill: none; stroke: #b0b0b0; stroke-width: 0.8"/>
    <path d="M 104.237663 351.202735 
L 306.049761 250.296686 
L 306.049761 64.920437 
" style="fill: none; stroke: #b0b0b0; stroke-width: 0.8"/>
    <path d="M 135.987406 367.077606 
L 337.799504 266.171557 
L 337.799504 80.795308 
" style="fill: none; stroke: #b0b0b0; stroke-width: 0.8"/>
    <path d="M 167.737149 382.952478 
L 369.549247 282.046429 
L 369.549247 96.67018 
" style="fill: none; stroke: #b0b0b0; stroke-width: 0.8"/>
    <path d="M 199.486892 398.827349 
L 401.29899 297.9213 
L 401.29899 112.545051 
" style="fill: none; stroke: #b0b0b0; stroke-width: 0.8"/>
    <path d="M 231.236635 414.702221 
L 433.048733 313.796172 
L 433.048733 128.419923 
" style="fill: none; stroke: #b0b0b0; stroke-width: 0.8"/>
   </g>
  </g>
  <g id="grid3d_2">
   <g id="Line3DCollection_2">
    <path d="M 40.738177 126.479981 
L 40.738177 311.85623 
L 242.550275 412.762279 
" style="fill: none; stroke: #b0b0b0; stroke-width: 0.8"/>
    <path d="M 72.48792 110.60511 
L 72.48792 295.981359 
L 274.300018 396.887408 
" style="fill: none; stroke: #b0b0b0; stroke-width: 0.8"/>
    <path d="M 104.237663 94.730238 
L 104.237663 280.106487 
L 306.049761 381.012536 
" style="fill: none; stroke: #b0b0b0; stroke-width: 0.8"/>
    <path d="M 135.987406 78.855367 
L 135.987406 264.231616 
L 337.799504 365.137665 
" style="fill: none; stroke: #b0b0b0; stroke-width: 0.8"/>
    <path d="M 167.737149 62.980495 
L 167.737149 248.356744 
L 369.549247 349.262793 
" style="fill: none; stroke: #b0b0b0; stroke-width: 0.8"/>
    <path d="M 199.486892 47.105624 
L 199.486892 232.481873 
L 401.29899 333.387922 
" style="fill: none; stroke: #b0b0b0; stroke-width: 0.8"/>
    <path d="M 231.236635 31.230752 
L 231.236635 216.607001 
L 433.048733 317.51305 
" style="fill: none; stroke: #b0b0b0; stroke-width: 0.8"/>
   </g>
  </g>
  <g id="grid3d_3">
   <g id="Line3DCollection_3">
    <path d="M 436.765612 309.567515 
L 234.953514 208.661466 
L 33.141415 309.567515 
" style="fill: none; stroke: #b0b0b0; stroke-width: 0.8"/>
    <path d="M 436.765612 280.403514 
L 234.953514 179.497465 
L 33.141415 280.403514 
" style="fill: none; stroke: #b0b0b0; stroke-width: 0.8"/>
    <path d="M 436.765612 251.239513 
L 234.953514 150.333464 
L 33.141415 251.239513 
" style="fill: none; stroke: #b0b0b0; stroke-width: 0.8"/>
    <path d="M 436.765612 222.075512 
L 234.953514 121.169463 
L 33.141415 222.075512 
" style="fill: none; stroke: #b0b0b0; stroke-width: 0.8"/>
    <path d="M 436.765612 192.91151 
L 234.953514 92.005461 
L 33.141415 192.91151 
" style="fill: none; stroke: #b0b0b0; stroke-width: 0.8"/>
    <path d="M 436.765612 163.747509 
L 234.953514 62.84146 
L 33.141415 163.747509 
" style="fill: none; stroke: #b0b0b0; stroke-width: 0.8"/>
    <path d="M 436.765612 134.583508 
L 234.953514 33.677459 
L 33.141415 134.583508 
" style="fill: none; stroke: #b0b0b0; stroke-width: 0.8"/>
   </g>
  </g>
  <g id="axis3d_1">
   <g id="line2d_1">
    <path d="M 33.141415 315.654611 
L 234.953514 416.56066 
" style="fill: none; stroke: #000000; stroke-width: 0.8; stroke-linecap: square"/>
   </g>
   <g id="xtick_1">
    <g id="line2d_2">
     <path d="M 42.352673 318.645743 
L 37.509183 321.067488 
" style="fill: none; stroke: #000000; stroke-width: 0.8; stroke-linecap: square"/>
    </g>
   </g>
   <g id="xtick_2">
    <g id="line2d_3">
     <path d="M 74.102417 334.520615 
L 69.258926 336.94236 
" style="fill: none; stroke: #000000; stroke-width: 0.8; stroke-linecap: square"/>
    </g>
   </g>
   <g id="xtick_3">
    <g id="line2d_4">
     <path d="M 105.85216 350.395486 
L 101.008669 352.817231 
" style="fill: none; stroke: #000000; stroke-width: 0.8; stroke-linecap: square"/>
    </g>
   </g>
   <g id="xtick_4">
    <g id="line2d_5">
     <path d="M 137.601903 366.270358 
L 132.758412 368.692103 
" style="fill: none; stroke: #000000; stroke-width: 0.8; stroke-linecap: square"/>
    </g>
   </g>
   <g id="xtick_5">
    <g id="line2d_6">
     <path d="M 169.351646 382.145229 
L 164.508155 384.566974 
" style="fill: none; stroke: #000000; stroke-width: 0.8; stroke-linecap: square"/>
    </g>
   </g>
   <g id="xtick_6">
    <g id="line2d_7">
     <path d="M 201.101389 398.020101 
L 196.257898 400.441846 
" style="fill: none; stroke: #000000; stroke-width: 0.8; stroke-linecap: square"/>
    </g>
   </g>
   <g id="xtick_7">
    <g id="line2d_8">
     <path d="M 232.851132 413.894972 
L 228.007641 416.316718 
" style="fill: none; stroke: #000000; stroke-width: 0.8; stroke-linecap: square"/>
    </g>
   </g>
  </g>
  <g id="axis3d_2">
   <g id="line2d_9">
    <path d="M 436.765612 315.654611 
L 234.953514 416.56066 
" style="fill: none; stroke: #000000; stroke-width: 0.8; stroke-linecap: square"/>
   </g>
   <g id="xtick_8">
    <g id="line2d_10">
     <path d="M 240.935778 411.955031 
L 245.779268 414.376776 
" style="fill: none; stroke: #000000; stroke-width: 0.8; stroke-linecap: square"/>
    </g>
   </g>
   <g id="xtick_9">
    <g id="line2d_11">
     <path d="M 272.685521 396.080159 
L 277.529011 398.501905 
" style="fill: none; stroke: #000000; stroke-width: 0.8; stroke-linecap: square"/>
    </g>
   </g>
   <g id="xtick_10">
    <g id="line2d_12">
     <path d="M 304.435264 380.205288 
L 309.278754 382.627033 
" style="fill: none; stroke: #000000; stroke-width: 0.8; stroke-linecap: square"/>
    </g>
   </g>
   <g id="xtick_11">
    <g id="line2d_13">
     <path d="M 336.185007 364.330416 
L 341.028497 366.752162 
" style="fill: none; stroke: #000000; stroke-width: 0.8; stroke-linecap: square"/>
    </g>
   </g>
   <g id="xtick_12">
    <g id="line2d_14">
     <path d="M 367.93475 348.455545 
L 372.77824 350.87729 
" style="fill: none; stroke: #000000; stroke-width: 0.8; stroke-linecap: square"/>
    </g>
   </g>
   <g id="xtick_13">
    <g id="line2d_15">
     <path d="M 399.684493 332.580673 
L 404.527984 335.002419 
" style="fill: none; stroke: #000000; stroke-width: 0.8; stroke-linecap: square"/>
    </g>
   </g>
   <g id="xtick_14">
    <g id="line2d_16">
     <path d="M 431.434236 316.705802 
L 436.277727 319.127547 
" style="fill: none; stroke: #000000; stroke-width: 0.8; stroke-linecap: square"/>
    </g>
   </g>
  </g>
  <g id="axis3d_3">
   <g id="line2d_17">
    <path d="M 436.765612 315.654611 
L 436.765612 130.278362 
" style="fill: none; stroke: #000000; stroke-width: 0.8; stroke-linecap: square"/>
   </g>
   <g id="xtick_15">
    <g id="line2d_18">
     <path d="M 435.151115 308.760267 
L 439.994605 311.182012 
" style="fill: none; stroke: #000000; stroke-width: 0.8; stroke-linecap: square"/>
    </g>
   </g>
   <g id="xtick_16">
    <g id="line2d_19">
     <path d="M 435.151115 279.596266 
L 439.994605 282.018011 
" style="fill: none; stroke: #000000; stroke-width: 0.8; stroke-linecap: square"/>
    </g>
   </g>
   <g id="xtick_17">
    <g id="line2d_20">
     <path d="M 435.151115 250.432264 
L 439.994605 252.85401 
" style="fill: none; stroke: #000000; stroke-width: 0.8; stroke-linecap: square"/>
    </g>
   </g>
   <g id="xtick_18">
    <g id="line2d_21">
     <path d="M 435.151115 221.268263 
L 439.994605 223.690008 
" style="fill: none; stroke: #000000; stroke-width: 0.8; stroke-linecap: square"/>
    </g>
   </g>
   <g id="xtick_19">
    <g id="line2d_22">
     <path d="M 435.151115 192.104262 
L 439.994605 194.526007 
" style="fill: none; stroke: #000000; stroke-width: 0.8; stroke-linecap: square"/>
    </g>
   </g>
   <g id="xtick_20">
    <g id="line2d_23">
     <path d="M 435.151115 162.940261 
L 439.994605 165.362006 
" style="fill: none; stroke: #000000; stroke-width: 0.8; stroke-linecap: square"/>
    </g>
   </g>
   <g id="xtick_21">
    <g id="line2d_24">
     <path d="M 435.151115 133.776259 
L 439.994605 136.198005 
" style="fill: none; stroke: #000000; stroke-width: 0.8; stroke-linecap: square"/>
    </g>
   </g>
  </g>
  <g id="axes_1">
   <g id="Line3DCollection_4">
    <path d="M 229.33113 295.495485 
L 194.412185 312.954957 
" clip-path="url(#p349277967a)" style="fill: none; stroke: #43a047; stroke-width: 2"/>
    <path d="M 229.33113 295.495485 
L 225.958219 298.012105 
" clip-path="url(#p349277967a)" style="fill: none; stroke: #43a047; stroke-width: 2"/>
    <path d="M 229.33113 295.495485 
L 225.958219 296.351776 
" clip-path="url(#p349277967a)" style="fill: none; stroke: #43a047; stroke-width: 2"/>
   </g>
   <g id="text_1">
    <!-- a -->
    <g style="fill: #e53935" transform="translate(232.124645 331.811187) scale(0.14 -0.14)">
     <defs>
      <path id="DejaVuSans-Bold-61" d="M 2106 1575 
Q 1756 1575 1579 1456 
Q 1403 1338 1403 1106 
Q 1403 894 1545 773 
Q 1688 653 1941 653 
Q 2256 653 2472 879 
Q 2688 1106 2688 1447 
L 2688 1575 
L 2106 1575 
z
M 3816 1997 
L 3816 0 
L 2688 0 
L 2688 519 
Q 2463 200 2181 54 
Q 1900 -91 1497 -91 
Q 953 -91 614 226 
Q 275 544 275 1050 
Q 275 1666 698 1953 
Q 1122 2241 2028 2241 
L 2688 2241 
L 2688 2328 
Q 2688 2594 2478 2717 
Q 2269 2841 1825 2841 
Q 1466 2841 1156 2769 
Q 847 2697 581 2553 
L 581 3406 
Q 941 3494 1303 3539 
Q 1666 3584 2028 3584 
Q 2975 3584 3395 3211 
Q 3816 2838 3816 1997 
z
" transform="scale(0.015625)"/>
     </defs>
     <use xlink:href="#DejaVuSans-Bold-61"/>
    </g>
   </g>
   <g id="text_2">
    <!-- b -->
    <g style="fill: #43a047" transform="translate(232.124645 294.098727) scale(0.14 -0.14)">
     <defs>
      <path id="DejaVuSans-Bold-62" d="M 2400 722 
Q 2759 722 2948 984 
Q 3138 1247 3138 1747 
Q 3138 2247 2948 2509 
Q 2759 2772 2400 2772 
Q 2041 2772 1848 2508 
Q 1656 2244 1656 1747 
Q 1656 1250 1848 986 
Q 2041 722 2400 722 
z
M 1656 2988 
Q 1888 3294 2169 3439 
Q 2450 3584 2816 3584 
Q 3463 3584 3878 3070 
Q 4294 2556 4294 1747 
Q 4294 938 3878 423 
Q 3463 -91 2816 -91 
Q 2450 -91 2169 54 
Q 1888 200 1656 506 
L 1656 0 
L 538 0 
L 538 4863 
L 1656 4863 
L 1656 2988 
z
" transform="scale(0.015625)"/>
     </defs>
     <use xlink:href="#DejaVuSans-Bold-62"/>
    </g>
   </g>
   <g id="text_3">
    <!-- c -->
    <g style="fill: #1e88e5" transform="translate(194.412185 278.313851) scale(0.14 -0.14)">
     <defs>
      <path id="DejaVuSans-Bold-63" d="M 3366 3391 
L 3366 2478 
Q 3138 2634 2908 2709 
Q 2678 2784 2431 2784 
Q 1963 2784 1702 2511 
Q 1441 2238 1441 1747 
Q 1441 1256 1702 982 
Q 1963 709 2431 709 
Q 2694 709 2930 787 
Q 3166 866 3366 1019 
L 3366 103 
Q 3103 6 2833 -42 
Q 2563 -91 2291 -91 
Q 1344 -91 809 395 
Q 275 881 275 1747 
Q 275 2613 809 3098 
Q 1344 3584 2291 3584 
Q 2566 3584 2833 3536 
Q 3100 3488 3366 3391 
z
" transform="scale(0.015625)"/>
     </defs>
     <use xlink:href="#DejaVuSans-Bold-63"/>
    </g>
   </g>
   <g id="Line3DCollection_5">
    <path d="M 194.412185 280.879859 
L 194.412185 312.954957 
" clip-path="url(#p349277967a)" style="fill: none; stroke: #1e88e5; stroke-width: 2"/>
    <path d="M 194.412185 280.879859 
L 193.508417 283.526191 
" clip-path="url(#p349277967a)" style="fill: none; stroke: #1e88e5; stroke-width: 2"/>
    <path d="M 194.412185 280.879859 
L 195.315954 284.42996 
" clip-path="url(#p349277967a)" style="fill: none; stroke: #1e88e5; stroke-width: 2"/>
   </g>
   <g id="Line3DCollection_6">
    <path d="M 229.33113 330.414429 
L 194.412185 312.954957 
" clip-path="url(#p349277967a)" style="fill: none; stroke: #e53935; stroke-width: 2"/>
    <path d="M 229.33113 330.414429 
L 225.958219 329.558138 
" clip-path="url(#p349277967a)" style="fill: none; stroke: #e53935; stroke-width: 2"/>
    <path d="M 229.33113 330.414429 
L 225.958219 327.897809 
" clip-path="url(#p349277967a)" style="fill: none; stroke: #e53935; stroke-width: 2"/>
   </g>
   <g id="Path3DCollection_1">
    <defs>
     <path id="C0_0_7324a45e40" d="M 0 2.738613 
C 0.726289 2.738613 1.422928 2.450055 1.936492 1.936492 
C 2.450055 1.422928 2.738613 0.726289 2.738613 -0 
C 2.738613 -0.726289 2.450055 -1.422928 1.936492 -1.936492 
C 1.422928 -2.450055 0.726289 -2.738613 0 -2.738613 
C -0.726289 -2.738613 -1.422928 -2.450055 -1.936492 -1.936492 
C -2.450055 -1.422928 -2.738613 -0.726289 -2.738613 0 
C -2.738613 0.726289 -2.450055 1.422928 -1.936492 1.936492 
C -1.422928 2.450055 -0.726289 2.738613 0 2.738613 
z
"/>
    </defs>
    <g clip-path="url(#p349277967a)">
     <use xlink:href="#C0_0_7324a45e40" x="222.958525" y="286.397727" style="fill: #ef6c00; fill-opacity: 0.3; stroke: #ef6c00; stroke-opacity: 0.3"/>
    </g>
    <g clip-path="url(#p349277967a)">
     <use xlink:href="#C0_0_7324a45e40" x="254.708268" y="286.397727" style="fill: #ef6c00; fill-opacity: 0.3; stroke: #ef6c00; stroke-opacity: 0.3"/>
    </g>
    <g clip-path="url(#p349277967a)">
     <use xlink:href="#C0_0_7324a45e40" x="232.123886" y="264.977203" style="fill: #ef6c00; fill-opacity: 0.3; stroke: #ef6c00; stroke-opacity: 0.3"/>
    </g>
    <g clip-path="url(#p349277967a)">
     <use xlink:href="#C0_0_7324a45e40" x="245.542906" y="264.977203" style="fill: #ef6c00; fill-opacity: 0.3; stroke: #ef6c00; stroke-opacity: 0.3"/>
    </g>
    <g clip-path="url(#p349277967a)">
     <use xlink:href="#C0_0_7324a45e40" x="257.164119" y="268.331958" style="fill: #ef6c00; fill-opacity: 0.3; stroke: #ef6c00; stroke-opacity: 0.3"/>
    </g>
    <g clip-path="url(#p349277967a)">
     <use xlink:href="#C0_0_7324a45e40" x="220.502674" y="268.331958" style="fill: #ef6c00; fill-opacity: 0.3; stroke: #ef6c00; stroke-opacity: 0.3"/>
    </g>
    <g clip-path="url(#p349277967a)">
     <use xlink:href="#C0_0_7324a45e40" x="232.123886" y="154.133588" style="fill: #ef6c00; fill-opacity: 0.3; stroke: #ef6c00; stroke-opacity: 0.3"/>
    </g>
    <g clip-path="url(#p349277967a)">
     <use xlink:href="#C0_0_7324a45e40" x="245.542906" y="154.133588" style="fill: #ef6c00; fill-opacity: 0.3; stroke: #ef6c00; stroke-opacity: 0.3"/>
    </g>
    <g clip-path="url(#p349277967a)">
     <use xlink:href="#C0_0_7324a45e40" x="257.164119" y="157.488343" style="fill: #ef6c00; fill-opacity: 0.3; stroke: #ef6c00; stroke-opacity: 0.3"/>
    </g>
    <g clip-path="url(#p349277967a)">
     <use xlink:href="#C0_0_7324a45e40" x="220.502674" y="157.488343" style="fill: #ef6c00; fill-opacity: 0.3; stroke: #ef6c00; stroke-opacity: 0.3"/>
    </g>
    <g clip-path="url(#p349277967a)">
     <use xlink:href="#C0_0_7324a45e40" x="244.644002" y="138.973121" style="fill: #ef6c00; fill-opacity: 0.3; stroke: #ef6c00; stroke-opacity: 0.3"/>
    </g>
    <g clip-path="url(#p349277967a)">
     <use xlink:href="#C0_0_7324a45e40" x="233.02279" y="138.973121" style="fill: #ef6c00; fill-opacity: 0.3; stroke: #ef6c00; stroke-opacity: 0.3"/>
    </g>
   </g>
   <g id="Poly3DCollection_1">
    <path d="M 220.502674 268.331958 
L 245.542906 264.977203 
L 254.708268 286.397727 
L 238.833396 311.173007 
L 217.147918 291.42986 
z
" clip-path="url(#p349277967a)" style="fill: #ffcc80; fill-opacity: 0.7; stroke: #ef6c00; stroke-opacity: 0.7; stroke-width: 1.5"/>
    <path d="M 260.518874 291.42986 
L 238.833396 311.173007 
L 222.958525 286.397727 
L 232.123886 264.977203 
L 257.164119 268.331958 
z
" clip-path="url(#p349277967a)" style="fill: #ffcc80; fill-opacity: 0.7; stroke: #ef6c00; stroke-opacity: 0.7; stroke-width: 1.5"/>
    <path d="M 233.02279 305.177902 
L 220.502674 286.66268 
L 213.793163 274.142564 
L 222.958525 286.397727 
L 238.833396 311.173007 
z
" clip-path="url(#p349277967a)" style="fill: #ffcc80; fill-opacity: 0.7; stroke: #ef6c00; stroke-opacity: 0.7; stroke-width: 1.5"/>
    <path d="M 238.833396 311.173007 
L 254.708268 286.397727 
L 263.873629 274.142564 
L 257.164119 286.66268 
L 244.644002 305.177902 
z
" clip-path="url(#p349277967a)" style="fill: #ffcc80; fill-opacity: 0.7; stroke: #ef6c00; stroke-opacity: 0.7; stroke-width: 1.5"/>
    <path d="M 244.644002 305.177902 
L 232.123886 290.017436 
L 213.793163 280.852074 
L 217.147918 291.42986 
L 238.833396 311.173007 
z
" clip-path="url(#p349277967a)" style="fill: #ffcc80; fill-opacity: 0.7; stroke: #ef6c00; stroke-opacity: 0.7; stroke-width: 1.5"/>
    <path d="M 245.542906 290.017436 
L 233.02279 305.177902 
L 238.833396 311.173007 
L 260.518874 291.42986 
L 263.873629 280.852074 
z
" clip-path="url(#p349277967a)" style="fill: #ffcc80; fill-opacity: 0.7; stroke: #ef6c00; stroke-opacity: 0.7; stroke-width: 1.5"/>
    <path d="M 232.123886 264.977203 
L 222.958525 286.397727 
L 213.793163 274.142564 
L 213.793163 163.298949 
L 232.123886 154.133588 
z
" clip-path="url(#p349277967a)" style="fill: #ffcc80; fill-opacity: 0.7; stroke: #ef6c00; stroke-opacity: 0.7; stroke-width: 1.5"/>
    <path d="M 245.542906 154.133588 
L 263.873629 163.298949 
L 263.873629 274.142564 
L 254.708268 286.397727 
L 245.542906 264.977203 
z
" clip-path="url(#p349277967a)" style="fill: #ffcc80; fill-opacity: 0.7; stroke: #ef6c00; stroke-opacity: 0.7; stroke-width: 1.5"/>
    <path d="M 213.793163 170.008459 
L 220.502674 157.488343 
L 220.502674 268.331958 
L 217.147918 291.42986 
L 213.793163 280.852074 
z
" clip-path="url(#p349277967a)" style="fill: #ffcc80; fill-opacity: 0.7; stroke: #ef6c00; stroke-opacity: 0.7; stroke-width: 1.5"/>
    <path d="M 257.164119 157.488343 
L 263.873629 170.008459 
L 263.873629 280.852074 
L 260.518874 291.42986 
L 257.164119 268.331958 
z
" clip-path="url(#p349277967a)" style="fill: #ffcc80; fill-opacity: 0.7; stroke: #ef6c00; stroke-opacity: 0.7; stroke-width: 1.5"/>
    <path d="M 257.164119 268.331958 
L 232.123886 264.977203 
L 232.123886 154.133588 
L 244.644002 138.973121 
L 257.164119 157.488343 
z
" clip-path="url(#p349277967a)" style="fill: #ffcc80; fill-opacity: 0.7; stroke: #ef6c00; stroke-opacity: 0.7; stroke-width: 1.5"/>
    <path d="M 245.542906 154.133588 
L 245.542906 264.977203 
L 220.502674 268.331958 
L 220.502674 157.488343 
L 233.02279 138.973121 
z
" clip-path="url(#p349277967a)" style="fill: #ffcc80; fill-opacity: 0.7; stroke: #ef6c00; stroke-opacity: 0.7; stroke-width: 1.5"/>
    <path d="M 232.123886 290.017436 
L 244.644002 305.177902 
L 257.164119 286.66268 
L 257.164119 175.819065 
L 232.123886 179.17382 
z
" clip-path="url(#p349277967a)" style="fill: #ffcc80; fill-opacity: 0.7; stroke: #ef6c00; stroke-opacity: 0.7; stroke-width: 1.5"/>
    <path d="M 245.542906 179.17382 
L 220.502674 175.819065 
L 220.502674 286.66268 
L 233.02279 305.177902 
L 245.542906 290.017436 
z
" clip-path="url(#p349277967a)" style="fill: #ffcc80; fill-opacity: 0.7; stroke: #ef6c00; stroke-opacity: 0.7; stroke-width: 1.5"/>
    <path d="M 257.164119 175.819065 
L 257.164119 286.66268 
L 263.873629 274.142564 
L 263.873629 163.298949 
L 260.518874 152.721163 
z
" clip-path="url(#p349277967a)" style="fill: #ffcc80; fill-opacity: 0.7; stroke: #ef6c00; stroke-opacity: 0.7; stroke-width: 1.5"/>
    <path d="M 217.147918 152.721163 
L 213.793163 163.298949 
L 213.793163 274.142564 
L 220.502674 286.66268 
L 220.502674 175.819065 
z
" clip-path="url(#p349277967a)" style="fill: #ffcc80; fill-opacity: 0.7; stroke: #ef6c00; stroke-opacity: 0.7; stroke-width: 1.5"/>
    <path d="M 222.958525 157.753296 
L 213.793163 170.008459 
L 213.793163 280.852074 
L 232.123886 290.017436 
L 232.123886 179.17382 
z
" clip-path="url(#p349277967a)" style="fill: #ffcc80; fill-opacity: 0.7; stroke: #ef6c00; stroke-opacity: 0.7; stroke-width: 1.5"/>
    <path d="M 254.708268 157.753296 
L 245.542906 179.17382 
L 245.542906 290.017436 
L 263.873629 280.852074 
L 263.873629 170.008459 
z
" clip-path="url(#p349277967a)" style="fill: #ffcc80; fill-opacity: 0.7; stroke: #ef6c00; stroke-opacity: 0.7; stroke-width: 1.5"/>
    <path d="M 238.833396 132.978016 
L 260.518874 152.721163 
L 263.873629 163.298949 
L 245.542906 154.133588 
L 233.02279 138.973121 
z
" clip-path="url(#p349277967a)" style="fill: #ffcc80; fill-opacity: 0.7; stroke: #ef6c00; stroke-opacity: 0.7; stroke-width: 1.5"/>
    <path d="M 244.644002 138.973121 
L 232.123886 154.133588 
L 213.793163 163.298949 
L 217.147918 152.721163 
L 238.833396 132.978016 
z
" clip-path="url(#p349277967a)" style="fill: #ffcc80; fill-opacity: 0.7; stroke: #ef6c00; stroke-opacity: 0.7; stroke-width: 1.5"/>
    <path d="M 238.833396 132.978016 
L 233.02279 138.973121 
L 220.502674 157.488343 
L 213.793163 170.008459 
L 222.958525 157.753296 
z
" clip-path="url(#p349277967a)" style="fill: #ffcc80; fill-opacity: 0.7; stroke: #ef6c00; stroke-opacity: 0.7; stroke-width: 1.5"/>
    <path d="M 263.873629 170.008459 
L 257.164119 157.488343 
L 244.644002 138.973121 
L 238.833396 132.978016 
L 254.708268 157.753296 
z
" clip-path="url(#p349277967a)" style="fill: #ffcc80; fill-opacity: 0.7; stroke: #ef6c00; stroke-opacity: 0.7; stroke-width: 1.5"/>
    <path d="M 222.958525 157.753296 
L 232.123886 179.17382 
L 257.164119 175.819065 
L 260.518874 152.721163 
L 238.833396 132.978016 
z
" clip-path="url(#p349277967a)" style="fill: #ffcc80; fill-opacity: 0.7; stroke: #ef6c00; stroke-opacity: 0.7; stroke-width: 1.5"/>
    <path d="M 254.708268 157.753296 
L 238.833396 132.978016 
L 217.147918 152.721163 
L 220.502674 175.819065 
L 245.542906 179.17382 
z
" clip-path="url(#p349277967a)" style="fill: #ffcc80; fill-opacity: 0.7; stroke: #ef6c00; stroke-opacity: 0.7; stroke-width: 1.5"/>
   </g>
   <g id="Path3DCollection_2">
    <defs>
     <path id="C1_0_242363362e" d="M 0 2.738613 
C 0.726289 2.738613 1.422928 2.450055 1.936492 1.936492 
C 2.450055 1.422928 2.738613 0.726289 2.738613 -0 
C 2.738613 -0.726289 2.450055 -1.422928 1.936492 -1.936492 
C 1.422928 -2.450055 0.726289 -2.738613 0 -2.738613 
C -0.726289 -2.738613 -1.422928 -2.450055 -1.936492 -1.936492 
C -2.450055 -1.422928 -2.738613 -0.726289 -2.738613 0 
C -2.738613 0.726289 -2.450055 1.422928 -1.936492 1.936492 
C -1.422928 2.450055 -0.726289 2.738613 0 2.738613 
z
"/>
    </defs>
    <g clip-path="url(#p349277967a)">
     <use xlink:href="#C1_0_242363362e" x="238.833396" y="311.173007" style="fill: #ef6c00; fill-opacity: 0.9; stroke: #ef6c00; stroke-opacity: 0.9"/>
    </g>
    <g clip-path="url(#p349277967a)">
     <use xlink:href="#C1_0_242363362e" x="238.833396" y="311.173007" style="fill: #ef6c00; fill-opacity: 0.9; stroke: #ef6c00; stroke-opacity: 0.9"/>
    </g>
    <g clip-path="url(#p349277967a)">
     <use xlink:href="#C1_0_242363362e" x="260.518874" y="291.42986" style="fill: #ef6c00; fill-opacity: 0.9; stroke: #ef6c00; stroke-opacity: 0.9"/>
    </g>
    <g clip-path="url(#p349277967a)">
     <use xlink:href="#C1_0_242363362e" x="217.147918" y="291.42986" style="fill: #ef6c00; fill-opacity: 0.9; stroke: #ef6c00; stroke-opacity: 0.9"/>
    </g>
    <g clip-path="url(#p349277967a)">
     <use xlink:href="#C1_0_242363362e" x="263.873629" y="274.142564" style="fill: #ef6c00; fill-opacity: 0.9; stroke: #ef6c00; stroke-opacity: 0.9"/>
    </g>
    <g clip-path="url(#p349277967a)">
     <use xlink:href="#C1_0_242363362e" x="213.793163" y="274.142564" style="fill: #ef6c00; fill-opacity: 0.9; stroke: #ef6c00; stroke-opacity: 0.9"/>
    </g>
    <g clip-path="url(#p349277967a)">
     <use xlink:href="#C1_0_242363362e" x="213.793163" y="280.852074" style="fill: #ef6c00; fill-opacity: 0.9; stroke: #ef6c00; stroke-opacity: 0.9"/>
    </g>
    <g clip-path="url(#p349277967a)">
     <use xlink:href="#C1_0_242363362e" x="263.873629" y="280.852074" style="fill: #ef6c00; fill-opacity: 0.9; stroke: #ef6c00; stroke-opacity: 0.9"/>
    </g>
    <g clip-path="url(#p349277967a)">
     <use xlink:href="#C1_0_242363362e" x="233.02279" y="305.177902" style="fill: #ef6c00; fill-opacity: 0.9; stroke: #ef6c00; stroke-opacity: 0.9"/>
    </g>
    <g clip-path="url(#p349277967a)">
     <use xlink:href="#C1_0_242363362e" x="244.644002" y="305.177902" style="fill: #ef6c00; fill-opacity: 0.9; stroke: #ef6c00; stroke-opacity: 0.9"/>
    </g>
    <g clip-path="url(#p349277967a)">
     <use xlink:href="#C1_0_242363362e" x="220.502674" y="286.66268" style="fill: #ef6c00; fill-opacity: 0.9; stroke: #ef6c00; stroke-opacity: 0.9"/>
    </g>
    <g clip-path="url(#p349277967a)">
     <use xlink:href="#C1_0_242363362e" x="257.164119" y="286.66268" style="fill: #ef6c00; fill-opacity: 0.9; stroke: #ef6c00; stroke-opacity: 0.9"/>
    </g>
    <g clip-path="url(#p349277967a)">
     <use xlink:href="#C1_0_242363362e" x="245.542906" y="290.017436" style="fill: #ef6c00; fill-opacity: 0.9; stroke: #ef6c00; stroke-opacity: 0.9"/>
    </g>
    <g clip-path="url(#p349277967a)">
     <use xlink:href="#C1_0_242363362e" x="232.123886" y="290.017436" style="fill: #ef6c00; fill-opacity: 0.9; stroke: #ef6c00; stroke-opacity: 0.9"/>
    </g>
    <g clip-path="url(#p349277967a)">
     <use xlink:href="#C1_0_242363362e" x="213.793163" y="163.298949" style="fill: #ef6c00; fill-opacity: 0.9; stroke: #ef6c00; stroke-opacity: 0.9"/>
    </g>
    <g clip-path="url(#p349277967a)">
     <use xlink:href="#C1_0_242363362e" x="263.873629" y="163.298949" style="fill: #ef6c00; fill-opacity: 0.9; stroke: #ef6c00; stroke-opacity: 0.9"/>
    </g>
    <g clip-path="url(#p349277967a)">
     <use xlink:href="#C1_0_242363362e" x="213.793163" y="170.008459" style="fill: #ef6c00; fill-opacity: 0.9; stroke: #ef6c00; stroke-opacity: 0.9"/>
    </g>
    <g clip-path="url(#p349277967a)">
     <use xlink:href="#C1_0_242363362e" x="263.873629" y="170.008459" style="fill: #ef6c00; fill-opacity: 0.9; stroke: #ef6c00; stroke-opacity: 0.9"/>
    </g>
    <g clip-path="url(#p349277967a)">
     <use xlink:href="#C1_0_242363362e" x="217.147918" y="152.721163" style="fill: #ef6c00; fill-opacity: 0.9; stroke: #ef6c00; stroke-opacity: 0.9"/>
    </g>
    <g clip-path="url(#p349277967a)">
     <use xlink:href="#C1_0_242363362e" x="260.518874" y="152.721163" style="fill: #ef6c00; fill-opacity: 0.9; stroke: #ef6c00; stroke-opacity: 0.9"/>
    </g>
    <g clip-path="url(#p349277967a)">
     <use xlink:href="#C1_0_242363362e" x="257.164119" y="175.819065" style="fill: #ef6c00; fill-opacity: 0.9; stroke: #ef6c00; stroke-opacity: 0.9"/>
    </g>
    <g clip-path="url(#p349277967a)">
     <use xlink:href="#C1_0_242363362e" x="220.502674" y="175.819065" style="fill: #ef6c00; fill-opacity: 0.9; stroke: #ef6c00; stroke-opacity: 0.9"/>
    </g>
    <g clip-path="url(#p349277967a)">
     <use xlink:href="#C1_0_242363362e" x="238.833396" y="132.978016" style="fill: #ef6c00; fill-opacity: 0.9; stroke: #ef6c00; stroke-opacity: 0.9"/>
    </g>
    <g clip-path="url(#p349277967a)">
     <use xlink:href="#C1_0_242363362e" x="238.833396" y="132.978016" style="fill: #ef6c00; fill-opacity: 0.9; stroke: #ef6c00; stroke-opacity: 0.9"/>
    </g>
    <g clip-path="url(#p349277967a)">
     <use xlink:href="#C1_0_242363362e" x="245.542906" y="179.17382" style="fill: #ef6c00; fill-opacity: 0.9; stroke: #ef6c00; stroke-opacity: 0.9"/>
    </g>
    <g clip-path="url(#p349277967a)">
     <use xlink:href="#C1_0_242363362e" x="232.123886" y="179.17382" style="fill: #ef6c00; fill-opacity: 0.9; stroke: #ef6c00; stroke-opacity: 0.9"/>
    </g>
    <g clip-path="url(#p349277967a)">
     <use xlink:href="#C1_0_242363362e" x="254.708268" y="157.753296" style="fill: #ef6c00; fill-opacity: 0.9; stroke: #ef6c00; stroke-opacity: 0.9"/>
    </g>
    <g clip-path="url(#p349277967a)">
     <use xlink:href="#C1_0_242363362e" x="222.958525" y="157.753296" style="fill: #ef6c00; fill-opacity: 0.9; stroke: #ef6c00; stroke-opacity: 0.9"/>
    </g>
   </g>
  </g>
 </g>
 <defs>
  <clipPath id="p349277967a">
   <rect x="7.2" y="7.2" width="443.52" height="443.52"/>
  </clipPath>
 </defs>
</svg>
