<?xml version="1.0" encoding="utf-8" standalone="no"?>
<!DOCTYPE svg PUBLIC "-//W3C//DTD SVG 1.1//EN"
  "http://www.w3.org/Graphics/SVG/1.1/DTD/svg11.dtd">
<svg xmlns:xlink="http://www.w3.org/1999/xlink" width="424.8pt" height="424.8pt" viewBox="0 0 424.8 424.8" xmlns="http://www.w3.org/2000/svg" version="1.1">
 <metadata>
  <rdf:RDF xmlns:dc="http://purl.org/dc/elements/1.1/" xmlns:cc="http://creativecommons.org/ns#" xmlns:rdf="http://www.w3.org/1999/02/22-rdf-syntax-ns#">
   <cc:Work>
    <dc:type rdf:resource="http://purl.org/dc/dcmitype/StillImage"/>
    <dc:date>2026-01-27T08:32:33.463057</dc:date>
    <dc:format>image/svg+xml</dc:format>
    <dc:creator>
     <cc:Agent>
      <dc:title>Matplotlib v3.10.8, https://matplotlib.org/</dc:title>
     </cc:Agent>
    </dc:creator>
   </cc:Work>
  </rdf:RDF>
 </metadata>
 <defs>
  <style type="text/css">*{stroke-linejoin: round; stroke-linecap: butt}</style>
 </defs>
 <g id="figure_1">
  <g id="patch_1">
   <path d="M 0 424.8 
L 424.8 424.8 
L 424.8 0 
L 0 0 
z
" style="fill: #ffffff"/>
  </g>
  <g id="patch_2">
   <path d="M 7.2 417.6 
L 417.6 417.6 
L 417.6 7.2 
L 7.2 7.2 
z
" style="fill: #ffffff"/>
  </g>
  <g id="axes_1">
   <g id="Path3DCollection_1">
    <defs>
     <path id="C0_0_21960a3abd" d="M 0 2.738613 
C 0.726289 2.738613 1.422928 2.450055 1.936492 1.936492 
C 2.450055 1.422928 2.738613 0.726289 2.738613 -0 
C 2.738613 -0.726289 2.450055 -1.422928 1.936492 -1.936492 
C 1.422928 -2.450055 0.726289 -2.738613 0 -2.738613 
C -0.726289 -2.738613 -1.422928 -2.450055 -1.936492 -1.936492 
C -2.450055 -1.422928 -2.738613 -0.726289 -2.738613 0 
C -2.738613 0.726289 -2.450055 1.422928 -1.936492 1.936492 
C -1.422928 2.450055 -0.726289 2.738613 0 2.738613 
z
"/>
    </defs>
    <g clip-path="url(#p63a529c791)">
     <use xlink:href="#C0_0_21960a3abd" x="246.568107" y="254.964682" style="fill: #0369a1; fill-opacity: 0.3; stroke: #0369a1; stroke-opacity: 0.3"/>
    </g>
    <g clip-path="url(#p63a529c791)">
     <use xlink:href="#C0_0_21960a3abd" x="237.925742" y="234.766462" style="fill: #0369a1; fill-opacity: 0.3; stroke: #0369a1; stroke-opacity: 0.3"/>
    </g>
    <g clip-path="url(#p63a529c791)">
     <use xlink:href="#C0_0_21960a3abd" x="214.314362" y="237.929787" style="fill: #0369a1; fill-opacity: 0.3; stroke: #0369a1; stroke-opacity: 0.3"/>
    </g>
    <g clip-path="url(#p63a529c791)">
     <use xlink:href="#C0_0_21960a3abd" x="214.314362" y="201.547512" style="fill: #0369a1; fill-opacity: 0.3; stroke: #0369a1; stroke-opacity: 0.3"/>
    </g>
    <g clip-path="url(#p63a529c791)">
     <use xlink:href="#C0_0_21960a3abd" x="187.909026" y="189.420088" style="fill: #0369a1; fill-opacity: 0.3; stroke: #0369a1; stroke-opacity: 0.3"/>
    </g>
    <g clip-path="url(#p63a529c791)">
     <use xlink:href="#C0_0_21960a3abd" x="237.925742" y="176.69575" style="fill: #0369a1; fill-opacity: 0.3; stroke: #0369a1; stroke-opacity: 0.3"/>
    </g>
    <g clip-path="url(#p63a529c791)">
     <use xlink:href="#C0_0_21960a3abd" x="195.779486" y="157.338846" style="fill: #0369a1; fill-opacity: 0.3; stroke: #0369a1; stroke-opacity: 0.3"/>
    </g>
   </g>
   <g id="Poly3DCollection_1">
    <path d="M 214.314362 237.929787 
L 237.925742 234.766462 
L 246.568107 254.964682 
L 231.599091 278.326228 
L 211.151037 259.70967 
z
" clip-path="url(#p63a529c791)" style="fill: #0ea5e9; fill-opacity: 0.7; stroke: #0369a1; stroke-opacity: 0.7; stroke-width: 1.5"/>
    <path d="M 231.599091 278.326228 
L 246.568107 254.964682 
L 255.210471 243.408827 
L 248.883821 255.214517 
L 237.078131 272.673217 
z
" clip-path="url(#p63a529c791)" style="fill: #0ea5e9; fill-opacity: 0.7; stroke: #0369a1; stroke-opacity: 0.7; stroke-width: 1.5"/>
    <path d="M 237.925742 234.766462 
L 214.314362 237.929787 
L 214.314362 201.547512 
L 237.925742 176.69575 
z
" clip-path="url(#p63a529c791)" style="fill: #0ea5e9; fill-opacity: 0.7; stroke: #0369a1; stroke-opacity: 0.7; stroke-width: 1.5"/>
    <path d="M 237.078131 272.673217 
L 225.272441 258.377842 
L 207.987711 249.735477 
L 211.151037 259.70967 
L 231.599091 278.326228 
z
" clip-path="url(#p63a529c791)" style="fill: #0ea5e9; fill-opacity: 0.7; stroke: #0369a1; stroke-opacity: 0.7; stroke-width: 1.5"/>
    <path d="M 237.925742 176.69575 
L 255.210471 169.461077 
L 255.210471 243.408827 
L 246.568107 254.964682 
L 237.925742 234.766462 
z
" clip-path="url(#p63a529c791)" style="fill: #0ea5e9; fill-opacity: 0.7; stroke: #0369a1; stroke-opacity: 0.7; stroke-width: 1.5"/>
    <path d="M 207.987711 219.164602 
L 214.314362 201.547512 
L 214.314362 237.929787 
L 211.151037 259.70967 
L 207.987711 249.735477 
z
" clip-path="url(#p63a529c791)" style="fill: #0ea5e9; fill-opacity: 0.7; stroke: #0369a1; stroke-opacity: 0.7; stroke-width: 1.5"/>
    <path d="M 237.925742 176.69575 
L 214.314362 201.547512 
L 187.909026 189.420088 
L 195.779486 157.338846 
z
" clip-path="url(#p63a529c791)" style="fill: #0ea5e9; fill-opacity: 0.7; stroke: #0369a1; stroke-opacity: 0.7; stroke-width: 1.5"/>
    <path d="M 185.800142 208.97431 
L 175.331431 193.904853 
L 187.909026 189.420088 
L 214.314362 201.547512 
L 207.987711 219.164602 
z
" clip-path="url(#p63a529c791)" style="fill: #0ea5e9; fill-opacity: 0.7; stroke: #0369a1; stroke-opacity: 0.7; stroke-width: 1.5"/>
    <path d="M 225.272441 211.929928 
L 207.987711 219.164602 
L 207.987711 249.735477 
L 225.272441 258.377842 
z
" clip-path="url(#p63a529c791)" style="fill: #0ea5e9; fill-opacity: 0.7; stroke: #0369a1; stroke-opacity: 0.7; stroke-width: 1.5"/>
    <path d="M 248.883821 187.078166 
L 248.883821 255.214517 
L 255.210471 243.408827 
L 255.210471 169.461077 
z
" clip-path="url(#p63a529c791)" style="fill: #0ea5e9; fill-opacity: 0.7; stroke: #0369a1; stroke-opacity: 0.7; stroke-width: 1.5"/>
    <path d="M 225.272441 258.377842 
L 237.078131 272.673217 
L 248.883821 255.214517 
L 248.883821 187.078166 
L 225.272441 211.929928 
z
" clip-path="url(#p63a529c791)" style="fill: #0ea5e9; fill-opacity: 0.7; stroke: #0369a1; stroke-opacity: 0.7; stroke-width: 1.5"/>
    <path d="M 175.331431 193.904853 
L 170.624296 166.308376 
L 187.137121 145.78299 
L 195.779486 157.338846 
L 187.909026 189.420088 
z
" clip-path="url(#p63a529c791)" style="fill: #0ea5e9; fill-opacity: 0.7; stroke: #0369a1; stroke-opacity: 0.7; stroke-width: 1.5"/>
    <path d="M 207.987711 219.164602 
L 225.272441 211.929928 
L 248.883821 187.078166 
L 255.210471 169.461077 
L 237.925742 176.69575 
L 214.314362 201.547512 
z
" clip-path="url(#p63a529c791)" style="fill: #0ea5e9; fill-opacity: 0.7; stroke: #0369a1; stroke-opacity: 0.7; stroke-width: 1.5"/>
    <path d="M 214.314362 201.547512 
L 237.925742 176.69575 
L 255.210471 169.461077 
L 248.883821 187.078166 
L 225.272441 211.929928 
L 207.987711 219.164602 
z
" clip-path="url(#p63a529c791)" style="fill: #0ea5e9; fill-opacity: 0.7; stroke: #0369a1; stroke-opacity: 0.7; stroke-width: 1.5"/>
    <path d="M 195.779486 157.338846 
L 187.137121 145.78299 
L 201.541062 144.811827 
L 255.210471 169.461077 
L 237.925742 176.69575 
z
" clip-path="url(#p63a529c791)" style="fill: #0ea5e9; fill-opacity: 0.7; stroke: #0369a1; stroke-opacity: 0.7; stroke-width: 1.5"/>
    <path d="M 191.561719 196.447291 
L 185.800142 208.97431 
L 207.987711 219.164602 
L 225.272441 211.929928 
z
" clip-path="url(#p63a529c791)" style="fill: #0ea5e9; fill-opacity: 0.7; stroke: #0369a1; stroke-opacity: 0.7; stroke-width: 1.5"/>
    <path d="M 170.624296 166.308376 
L 175.331431 193.904853 
L 185.800142 208.97431 
L 191.561719 196.447291 
L 183.973796 175.114324 
z
" clip-path="url(#p63a529c791)" style="fill: #0ea5e9; fill-opacity: 0.7; stroke: #0369a1; stroke-opacity: 0.7; stroke-width: 1.5"/>
    <path d="M 255.210471 169.461077 
L 201.541062 144.811827 
L 199.432179 164.366049 
L 248.883821 187.078166 
z
" clip-path="url(#p63a529c791)" style="fill: #0ea5e9; fill-opacity: 0.7; stroke: #0369a1; stroke-opacity: 0.7; stroke-width: 1.5"/>
    <path d="M 183.973796 175.114324 
L 199.432179 164.366049 
L 201.541062 144.811827 
L 187.137121 145.78299 
L 170.624296 166.308376 
z
" clip-path="url(#p63a529c791)" style="fill: #0ea5e9; fill-opacity: 0.7; stroke: #0369a1; stroke-opacity: 0.7; stroke-width: 1.5"/>
    <path d="M 225.272441 211.929928 
L 248.883821 187.078166 
L 199.432179 164.366049 
L 183.973796 175.114324 
L 191.561719 196.447291 
z
" clip-path="url(#p63a529c791)" style="fill: #0ea5e9; fill-opacity: 0.7; stroke: #0369a1; stroke-opacity: 0.7; stroke-width: 1.5"/>
   </g>
   <g id="Path3DCollection_2">
    <defs>
     <path id="C1_0_faa053b68e" d="M 0 2.738613 
C 0.726289 2.738613 1.422928 2.450055 1.936492 1.936492 
C 2.450055 1.422928 2.738613 0.726289 2.738613 -0 
C 2.738613 -0.726289 2.450055 -1.422928 1.936492 -1.936492 
C 1.422928 -2.450055 0.726289 -2.738613 0 -2.738613 
C -0.726289 -2.738613 -1.422928 -2.450055 -1.936492 -1.936492 
C -2.450055 -1.422928 -2.738613 -0.726289 -2.738613 0 
C -2.738613 0.726289 -2.450055 1.422928 -1.936492 1.936492 
C -1.422928 2.450055 -0.726289 2.738613 0 2.738613 
z
"/>
    </defs>
    <g clip-path="url(#p63a529c791)">
     <use xlink:href="#C1_0_faa053b68e" x="231.599091" y="278.326228" style="fill: #0369a1; fill-opacity: 0.9; stroke: #0369a1; stroke-opacity: 0.9"/>
    </g>
    <g clip-path="url(#p63a529c791)">
     <use xlink:href="#C1_0_faa053b68e" x="211.151037" y="259.70967" style="fill: #0369a1; fill-opacity: 0.9; stroke: #0369a1; stroke-opacity: 0.9"/>
    </g>
    <g clip-path="url(#p63a529c791)">
     <use xlink:href="#C1_0_faa053b68e" x="255.210471" y="243.408827" style="fill: #0369a1; fill-opacity: 0.9; stroke: #0369a1; stroke-opacity: 0.9"/>
    </g>
    <g clip-path="url(#p63a529c791)">
     <use xlink:href="#C1_0_faa053b68e" x="207.987711" y="249.735477" style="fill: #0369a1; fill-opacity: 0.9; stroke: #0369a1; stroke-opacity: 0.9"/>
    </g>
    <g clip-path="url(#p63a529c791)">
     <use xlink:href="#C1_0_faa053b68e" x="214.314362" y="201.547512" style="fill: #0369a1; fill-opacity: 0.9; stroke: #0369a1; stroke-opacity: 0.9"/>
    </g>
    <g clip-path="url(#p63a529c791)">
     <use xlink:href="#C1_0_faa053b68e" x="237.078131" y="272.673217" style="fill: #0369a1; fill-opacity: 0.9; stroke: #0369a1; stroke-opacity: 0.9"/>
    </g>
    <g clip-path="url(#p63a529c791)">
     <use xlink:href="#C1_0_faa053b68e" x="237.925742" y="176.69575" style="fill: #0369a1; fill-opacity: 0.9; stroke: #0369a1; stroke-opacity: 0.9"/>
    </g>
    <g clip-path="url(#p63a529c791)">
     <use xlink:href="#C1_0_faa053b68e" x="248.883821" y="255.214517" style="fill: #0369a1; fill-opacity: 0.9; stroke: #0369a1; stroke-opacity: 0.9"/>
    </g>
    <g clip-path="url(#p63a529c791)">
     <use xlink:href="#C1_0_faa053b68e" x="225.272441" y="258.377842" style="fill: #0369a1; fill-opacity: 0.9; stroke: #0369a1; stroke-opacity: 0.9"/>
    </g>
    <g clip-path="url(#p63a529c791)">
     <use xlink:href="#C1_0_faa053b68e" x="207.987711" y="219.164602" style="fill: #0369a1; fill-opacity: 0.9; stroke: #0369a1; stroke-opacity: 0.9"/>
    </g>
    <g clip-path="url(#p63a529c791)">
     <use xlink:href="#C1_0_faa053b68e" x="207.987711" y="219.164602" style="fill: #0369a1; fill-opacity: 0.9; stroke: #0369a1; stroke-opacity: 0.9"/>
    </g>
    <g clip-path="url(#p63a529c791)">
     <use xlink:href="#C1_0_faa053b68e" x="175.331431" y="193.904853" style="fill: #0369a1; fill-opacity: 0.9; stroke: #0369a1; stroke-opacity: 0.9"/>
    </g>
    <g clip-path="url(#p63a529c791)">
     <use xlink:href="#C1_0_faa053b68e" x="185.800142" y="208.97431" style="fill: #0369a1; fill-opacity: 0.9; stroke: #0369a1; stroke-opacity: 0.9"/>
    </g>
    <g clip-path="url(#p63a529c791)">
     <use xlink:href="#C1_0_faa053b68e" x="255.210471" y="169.461077" style="fill: #0369a1; fill-opacity: 0.9; stroke: #0369a1; stroke-opacity: 0.9"/>
    </g>
    <g clip-path="url(#p63a529c791)">
     <use xlink:href="#C1_0_faa053b68e" x="255.210471" y="169.461077" style="fill: #0369a1; fill-opacity: 0.9; stroke: #0369a1; stroke-opacity: 0.9"/>
    </g>
    <g clip-path="url(#p63a529c791)">
     <use xlink:href="#C1_0_faa053b68e" x="187.137121" y="145.78299" style="fill: #0369a1; fill-opacity: 0.9; stroke: #0369a1; stroke-opacity: 0.9"/>
    </g>
    <g clip-path="url(#p63a529c791)">
     <use xlink:href="#C1_0_faa053b68e" x="170.624296" y="166.308376" style="fill: #0369a1; fill-opacity: 0.9; stroke: #0369a1; stroke-opacity: 0.9"/>
    </g>
    <g clip-path="url(#p63a529c791)">
     <use xlink:href="#C1_0_faa053b68e" x="225.272441" y="211.929928" style="fill: #0369a1; fill-opacity: 0.9; stroke: #0369a1; stroke-opacity: 0.9"/>
    </g>
    <g clip-path="url(#p63a529c791)">
     <use xlink:href="#C1_0_faa053b68e" x="225.272441" y="211.929928" style="fill: #0369a1; fill-opacity: 0.9; stroke: #0369a1; stroke-opacity: 0.9"/>
    </g>
    <g clip-path="url(#p63a529c791)">
     <use xlink:href="#C1_0_faa053b68e" x="201.541062" y="144.811827" style="fill: #0369a1; fill-opacity: 0.9; stroke: #0369a1; stroke-opacity: 0.9"/>
    </g>
    <g clip-path="url(#p63a529c791)">
     <use xlink:href="#C1_0_faa053b68e" x="248.883821" y="187.078166" style="fill: #0369a1; fill-opacity: 0.9; stroke: #0369a1; stroke-opacity: 0.9"/>
    </g>
    <g clip-path="url(#p63a529c791)">
     <use xlink:href="#C1_0_faa053b68e" x="248.883821" y="187.078166" style="fill: #0369a1; fill-opacity: 0.9; stroke: #0369a1; stroke-opacity: 0.9"/>
    </g>
    <g clip-path="url(#p63a529c791)">
     <use xlink:href="#C1_0_faa053b68e" x="191.561719" y="196.447291" style="fill: #0369a1; fill-opacity: 0.9; stroke: #0369a1; stroke-opacity: 0.9"/>
    </g>
    <g clip-path="url(#p63a529c791)">
     <use xlink:href="#C1_0_faa053b68e" x="183.973796" y="175.114324" style="fill: #0369a1; fill-opacity: 0.9; stroke: #0369a1; stroke-opacity: 0.9"/>
    </g>
    <g clip-path="url(#p63a529c791)">
     <use xlink:href="#C1_0_faa053b68e" x="199.432179" y="164.366049" style="fill: #0369a1; fill-opacity: 0.9; stroke: #0369a1; stroke-opacity: 0.9"/>
    </g>
   </g>
  </g>
 </g>
 <defs>
  <clipPath id="p63a529c791">
   <rect x="7.2" y="7.2" width="410.4" height="410.4"/>
  </clipPath>
 </defs>
</svg>
