<?xml version="1.0" encoding="utf-8" standalone="no"?>
<!DOCTYPE svg PUBLIC "-//W3C//DTD SVG 1.1//EN"
  "http://www.w3.org/Graphics/SVG/1.1/DTD/svg11.dtd">
<svg xmlns:xlink="http://www.w3.org/1999/xlink" width="424.8pt" height="424.8pt" viewBox="0 0 424.8 424.8" xmlns="http://www.w3.org/2000/svg" version="1.1">
 <metadata>
  <rdf:RDF xmlns:dc="http://purl.org/dc/elements/1.1/" xmlns:cc="http://creativecommons.org/ns#" xmlns:rdf="http://www.w3.org/1999/02/22-rdf-syntax-ns#">
   <cc:Work>
    <dc:type rdf:resource="http://purl.org/dc/dcmitype/StillImage"/>
    <dc:date>2026-01-26T17:14:39.903340</dc:date>
    <dc:format>image/svg+xml</dc:format>
    <dc:creator>
     <cc:Agent>
      <dc:title>Matplotlib v3.10.8, https://matplotlib.org/</dc:title>
     </cc:Agent>
    </dc:creator>
   </cc:Work>
  </rdf:RDF>
 </metadata>
 <defs>
  <style type="text/css">*{stroke-linejoin: round; stroke-linecap: butt}</style>
 </defs>
 <g id="figure_1">
  <g id="patch_1">
   <path d="M 0 424.8 
L 424.8 424.8 
L 424.8 0 
L 0 0 
z
" style="fill: #ffffff"/>
  </g>
  <g id="patch_2">
   <path d="M 7.2 417.6 
L 417.6 417.6 
L 417.6 7.2 
L 7.2 7.2 
z
" style="fill: #ffffff"/>
  </g>
  <g id="axes_1">
   <g id="Path3DCollection_1">
    <defs>
     <path id="C0_0_df5d2209db" d="M 0 2.738613 
C 0.726289 2.738613 1.422928 2.450055 1.936492 1.936492 
C 2.450055 1.422928 2.738613 0.726289 2.738613 -0 
C 2.738613 -0.726289 2.450055 -1.422928 1.936492 -1.936492 
C 1.422928 -2.450055 0.726289 -2.738613 0 -2.738613 
C -0.726289 -2.738613 -1.422928 -2.450055 -1.936492 -1.936492 
C -2.450055 -1.422928 -2.738613 -0.726289 -2.738613 0 
C -2.738613 0.726289 -2.450055 1.422928 -1.936492 1.936492 
C -1.422928 2.450055 -0.726289 2.738613 0 2.738613 
z
"/>
    </defs>
    <g clip-path="url(#pe5ff0b09fd)">
     <use xlink:href="#C0_0_df5d2209db" x="226.591396" y="192.902533" style="fill: #0369a1; fill-opacity: 0.3; stroke: #0369a1; stroke-opacity: 0.3"/>
    </g>
    <g clip-path="url(#pe5ff0b09fd)">
     <use xlink:href="#C0_0_df5d2209db" x="148.554679" y="132.108879" style="fill: #0369a1; fill-opacity: 0.3; stroke: #0369a1; stroke-opacity: 0.3"/>
    </g>
    <g clip-path="url(#pe5ff0b09fd)">
     <use xlink:href="#C0_0_df5d2209db" x="258.954915" y="188.38719" style="fill: #0369a1; fill-opacity: 0.3; stroke: #0369a1; stroke-opacity: 0.3"/>
    </g>
    <g clip-path="url(#pe5ff0b09fd)">
     <use xlink:href="#C0_0_df5d2209db" x="258.954915" y="184.31195" style="fill: #0369a1; fill-opacity: 0.3; stroke: #0369a1; stroke-opacity: 0.3"/>
    </g>
    <g clip-path="url(#pe5ff0b09fd)">
     <use xlink:href="#C0_0_df5d2209db" x="226.591396" y="250.883542" style="fill: #0369a1; fill-opacity: 0.3; stroke: #0369a1; stroke-opacity: 0.3"/>
    </g>
   </g>
   <g id="Poly3DCollection_1">
    <path d="M 148.554679 132.108879 
L 258.954915 184.31195 
L 258.954915 188.38719 
L 226.591396 192.902533 
z
" clip-path="url(#pe5ff0b09fd)" style="fill: #0ea5e9; fill-opacity: 0.7; stroke: #0369a1; stroke-opacity: 0.7; stroke-width: 1.5"/>
    <path d="M 226.591396 192.902533 
L 226.591396 250.883542 
L 166.149137 223.123663 
L 140.136898 136.317769 
L 140.136898 128.242767 
L 148.554679 132.108879 
z
" clip-path="url(#pe5ff0b09fd)" style="fill: #0ea5e9; fill-opacity: 0.7; stroke: #0369a1; stroke-opacity: 0.7; stroke-width: 1.5"/>
    <path d="M 209.300496 162.824566 
L 269.742754 190.584446 
L 258.954915 184.31195 
L 148.554679 132.108879 
L 140.136898 128.242767 
z
" clip-path="url(#pe5ff0b09fd)" style="fill: #0ea5e9; fill-opacity: 0.7; stroke: #0369a1; stroke-opacity: 0.7; stroke-width: 1.5"/>
    <path d="M 295.754993 277.390339 
L 258.954915 188.38719 
L 258.954915 184.31195 
L 269.742754 190.584446 
z
" clip-path="url(#pe5ff0b09fd)" style="fill: #0ea5e9; fill-opacity: 0.7; stroke: #0369a1; stroke-opacity: 0.7; stroke-width: 1.5"/>
    <path d="M 226.591396 250.883542 
L 226.591396 192.902533 
L 258.954915 188.38719 
L 295.754993 277.390339 
L 295.754993 285.465341 
z
" clip-path="url(#pe5ff0b09fd)" style="fill: #0ea5e9; fill-opacity: 0.7; stroke: #0369a1; stroke-opacity: 0.7; stroke-width: 1.5"/>
    <path d="M 140.136898 128.242767 
L 140.136898 136.317769 
L 176.936977 225.320918 
L 209.300496 220.805575 
L 209.300496 162.824566 
z
" clip-path="url(#pe5ff0b09fd)" style="fill: #0ea5e9; fill-opacity: 0.7; stroke: #0369a1; stroke-opacity: 0.7; stroke-width: 1.5"/>
    <path d="M 166.149137 223.123663 
L 176.936977 229.396159 
L 176.936977 225.320918 
L 140.136898 136.317769 
z
" clip-path="url(#pe5ff0b09fd)" style="fill: #0ea5e9; fill-opacity: 0.7; stroke: #0369a1; stroke-opacity: 0.7; stroke-width: 1.5"/>
    <path d="M 295.754993 285.465341 
L 287.337213 281.599229 
L 176.936977 229.396159 
L 166.149137 223.123663 
L 226.591396 250.883542 
z
" clip-path="url(#pe5ff0b09fd)" style="fill: #0ea5e9; fill-opacity: 0.7; stroke: #0369a1; stroke-opacity: 0.7; stroke-width: 1.5"/>
    <path d="M 209.300496 162.824566 
L 209.300496 220.805575 
L 287.337213 281.599229 
L 295.754993 285.465341 
L 295.754993 277.390339 
L 269.742754 190.584446 
z
" clip-path="url(#pe5ff0b09fd)" style="fill: #0ea5e9; fill-opacity: 0.7; stroke: #0369a1; stroke-opacity: 0.7; stroke-width: 1.5"/>
    <path d="M 209.300496 220.805575 
L 176.936977 225.320918 
L 176.936977 229.396159 
L 287.337213 281.599229 
z
" clip-path="url(#pe5ff0b09fd)" style="fill: #0ea5e9; fill-opacity: 0.7; stroke: #0369a1; stroke-opacity: 0.7; stroke-width: 1.5"/>
   </g>
   <g id="Path3DCollection_2">
    <defs>
     <path id="C1_0_504587416b" d="M 0 2.738613 
C 0.726289 2.738613 1.422928 2.450055 1.936492 1.936492 
C 2.450055 1.422928 2.738613 0.726289 2.738613 -0 
C 2.738613 -0.726289 2.450055 -1.422928 1.936492 -1.936492 
C 1.422928 -2.450055 0.726289 -2.738613 0 -2.738613 
C -0.726289 -2.738613 -1.422928 -2.450055 -1.936492 -1.936492 
C -2.450055 -1.422928 -2.738613 -0.726289 -2.738613 0 
C -2.738613 0.726289 -2.450055 1.422928 -1.936492 1.936492 
C -1.422928 2.450055 -0.726289 2.738613 0 2.738613 
z
"/>
    </defs>
    <g clip-path="url(#pe5ff0b09fd)">
     <use xlink:href="#C1_0_504587416b" x="140.136898" y="128.242767" style="fill: #0369a1; fill-opacity: 0.9; stroke: #0369a1; stroke-opacity: 0.9"/>
    </g>
    <g clip-path="url(#pe5ff0b09fd)">
     <use xlink:href="#C1_0_504587416b" x="140.136898" y="136.317769" style="fill: #0369a1; fill-opacity: 0.9; stroke: #0369a1; stroke-opacity: 0.9"/>
    </g>
    <g clip-path="url(#pe5ff0b09fd)">
     <use xlink:href="#C1_0_504587416b" x="269.742754" y="190.584446" style="fill: #0369a1; fill-opacity: 0.9; stroke: #0369a1; stroke-opacity: 0.9"/>
    </g>
    <g clip-path="url(#pe5ff0b09fd)">
     <use xlink:href="#C1_0_504587416b" x="166.149137" y="223.123663" style="fill: #0369a1; fill-opacity: 0.9; stroke: #0369a1; stroke-opacity: 0.9"/>
    </g>
    <g clip-path="url(#pe5ff0b09fd)">
     <use xlink:href="#C1_0_504587416b" x="209.300496" y="162.824566" style="fill: #0369a1; fill-opacity: 0.9; stroke: #0369a1; stroke-opacity: 0.9"/>
    </g>
    <g clip-path="url(#pe5ff0b09fd)">
     <use xlink:href="#C1_0_504587416b" x="176.936977" y="229.396159" style="fill: #0369a1; fill-opacity: 0.9; stroke: #0369a1; stroke-opacity: 0.9"/>
    </g>
    <g clip-path="url(#pe5ff0b09fd)">
     <use xlink:href="#C1_0_504587416b" x="176.936977" y="225.320918" style="fill: #0369a1; fill-opacity: 0.9; stroke: #0369a1; stroke-opacity: 0.9"/>
    </g>
    <g clip-path="url(#pe5ff0b09fd)">
     <use xlink:href="#C1_0_504587416b" x="295.754993" y="277.390339" style="fill: #0369a1; fill-opacity: 0.9; stroke: #0369a1; stroke-opacity: 0.9"/>
    </g>
    <g clip-path="url(#pe5ff0b09fd)">
     <use xlink:href="#C1_0_504587416b" x="295.754993" y="285.465341" style="fill: #0369a1; fill-opacity: 0.9; stroke: #0369a1; stroke-opacity: 0.9"/>
    </g>
    <g clip-path="url(#pe5ff0b09fd)">
     <use xlink:href="#C1_0_504587416b" x="287.337213" y="281.599229" style="fill: #0369a1; fill-opacity: 0.9; stroke: #0369a1; stroke-opacity: 0.9"/>
    </g>
    <g clip-path="url(#pe5ff0b09fd)">
     <use xlink:href="#C1_0_504587416b" x="209.300496" y="220.805575" style="fill: #0369a1; fill-opacity: 0.9; stroke: #0369a1; stroke-opacity: 0.9"/>
    </g>
   </g>
  </g>
 </g>
 <defs>
  <clipPath id="pe5ff0b09fd">
   <rect x="7.2" y="7.2" width="410.4" height="410.4"/>
  </clipPath>
 </defs>
</svg>
