<?xml version="1.0" encoding="utf-8" standalone="no"?>
<!DOCTYPE svg PUBLIC "-//W3C//DTD SVG 1.1//EN"
  "http://www.w3.org/Graphics/SVG/1.1/DTD/svg11.dtd">
<svg xmlns:xlink="http://www.w3.org/1999/xlink" width="424.8pt" height="424.8pt" viewBox="0 0 424.8 424.8" xmlns="http://www.w3.org/2000/svg" version="1.1">
 <metadata>
  <rdf:RDF xmlns:dc="http://purl.org/dc/elements/1.1/" xmlns:cc="http://creativecommons.org/ns#" xmlns:rdf="http://www.w3.org/1999/02/22-rdf-syntax-ns#">
   <cc:Work>
    <dc:type rdf:resource="http://purl.org/dc/dcmitype/StillImage"/>
    <dc:date>2026-01-26T17:06:15.288728</dc:date>
    <dc:format>image/svg+xml</dc:format>
    <dc:creator>
     <cc:Agent>
      <dc:title>Matplotlib v3.10.8, https://matplotlib.org/</dc:title>
     </cc:Agent>
    </dc:creator>
   </cc:Work>
  </rdf:RDF>
 </metadata>
 <defs>
  <style type="text/css">*{stroke-linejoin: round; stroke-linecap: butt}</style>
 </defs>
 <g id="figure_1">
  <g id="patch_1">
   <path d="M 0 424.8 
L 424.8 424.8 
L 424.8 0 
L 0 0 
z
" style="fill: #ffffff"/>
  </g>
  <g id="patch_2">
   <path d="M 7.2 417.6 
L 417.6 417.6 
L 417.6 7.2 
L 7.2 7.2 
z
" style="fill: #ffffff"/>
  </g>
  <g id="axes_1">
   <g id="Path3DCollection_1">
    <defs>
     <path id="C0_0_c058501ef4" d="M 0 2.738613 
C 0.726289 2.738613 1.422928 2.450055 1.936492 1.936492 
C 2.450055 1.422928 2.738613 0.726289 2.738613 -0 
C 2.738613 -0.726289 2.450055 -1.422928 1.936492 -1.936492 
C 1.422928 -2.450055 0.726289 -2.738613 0 -2.738613 
C -0.726289 -2.738613 -1.422928 -2.450055 -1.936492 -1.936492 
C -2.450055 -1.422928 -2.738613 -0.726289 -2.738613 0 
C -2.738613 0.726289 -2.450055 1.422928 -1.936492 1.936492 
C -1.422928 2.450055 -0.726289 2.738613 0 2.738613 
z
"/>
    </defs>
    <g clip-path="url(#p25b6f08dc1)">
     <use xlink:href="#C0_0_c058501ef4" x="239.869928" y="237.415521" style="fill: #0369a1; fill-opacity: 0.3; stroke: #0369a1; stroke-opacity: 0.3"/>
    </g>
    <g clip-path="url(#p25b6f08dc1)">
     <use xlink:href="#C0_0_c058501ef4" x="158.048513" y="248.377512" style="fill: #0369a1; fill-opacity: 0.3; stroke: #0369a1; stroke-opacity: 0.3"/>
    </g>
    <g clip-path="url(#p25b6f08dc1)">
     <use xlink:href="#C0_0_c058501ef4" x="283.717892" y="259.339503" style="fill: #0369a1; fill-opacity: 0.3; stroke: #0369a1; stroke-opacity: 0.3"/>
    </g>
   </g>
   <g id="Poly3DCollection_1">
    <path d="M 239.869928 94.471173 
L 239.869928 237.415521 
L 158.048513 248.377512 
L 158.048513 105.433164 
z
" clip-path="url(#p25b6f08dc1)" style="fill: #0ea5e9; fill-opacity: 0.7; stroke: #0369a1; stroke-opacity: 0.7; stroke-width: 1.5"/>
    <path d="M 283.717892 116.395155 
L 283.717892 259.339503 
L 239.869928 237.415521 
L 239.869928 94.471173 
z
" clip-path="url(#p25b6f08dc1)" style="fill: #0ea5e9; fill-opacity: 0.7; stroke: #0369a1; stroke-opacity: 0.7; stroke-width: 1.5"/>
    <path d="M 141.999045 278.326228 
L 158.048513 248.377512 
L 239.869928 237.415521 
L 283.717892 259.339503 
L 293.892847 278.326228 
L 277.843379 308.274944 
L 196.021964 319.236935 
L 152.174 297.312953 
z
" clip-path="url(#p25b6f08dc1)" style="fill: #0ea5e9; fill-opacity: 0.7; stroke: #0369a1; stroke-opacity: 0.7; stroke-width: 1.5"/>
    <path d="M 158.048513 105.433164 
L 158.048513 248.377512 
L 141.999045 278.326228 
L 141.999045 135.38188 
z
" clip-path="url(#p25b6f08dc1)" style="fill: #0ea5e9; fill-opacity: 0.7; stroke: #0369a1; stroke-opacity: 0.7; stroke-width: 1.5"/>
    <path d="M 293.892847 135.38188 
L 293.892847 278.326228 
L 283.717892 259.339503 
L 283.717892 116.395155 
z
" clip-path="url(#p25b6f08dc1)" style="fill: #0ea5e9; fill-opacity: 0.7; stroke: #0369a1; stroke-opacity: 0.7; stroke-width: 1.5"/>
    <path d="M 141.999045 278.326228 
L 152.174 297.312953 
L 152.174 154.368605 
L 141.999045 135.38188 
z
" clip-path="url(#p25b6f08dc1)" style="fill: #0ea5e9; fill-opacity: 0.7; stroke: #0369a1; stroke-opacity: 0.7; stroke-width: 1.5"/>
    <path d="M 277.843379 308.274944 
L 293.892847 278.326228 
L 293.892847 135.38188 
L 277.843379 165.330596 
z
" clip-path="url(#p25b6f08dc1)" style="fill: #0ea5e9; fill-opacity: 0.7; stroke: #0369a1; stroke-opacity: 0.7; stroke-width: 1.5"/>
    <path d="M 196.021964 176.292587 
L 277.843379 165.330596 
L 293.892847 135.38188 
L 283.717892 116.395155 
L 239.869928 94.471173 
L 158.048513 105.433164 
L 141.999045 135.38188 
L 152.174 154.368605 
z
" clip-path="url(#p25b6f08dc1)" style="fill: #0ea5e9; fill-opacity: 0.7; stroke: #0369a1; stroke-opacity: 0.7; stroke-width: 1.5"/>
    <path d="M 152.174 297.312953 
L 196.021964 319.236935 
L 196.021964 176.292587 
L 152.174 154.368605 
z
" clip-path="url(#p25b6f08dc1)" style="fill: #0ea5e9; fill-opacity: 0.7; stroke: #0369a1; stroke-opacity: 0.7; stroke-width: 1.5"/>
    <path d="M 196.021964 176.292587 
L 196.021964 319.236935 
L 277.843379 308.274944 
L 277.843379 165.330596 
z
" clip-path="url(#p25b6f08dc1)" style="fill: #0ea5e9; fill-opacity: 0.7; stroke: #0369a1; stroke-opacity: 0.7; stroke-width: 1.5"/>
   </g>
   <g id="Path3DCollection_2">
    <defs>
     <path id="C1_0_3ccc04601d" d="M 0 2.738613 
C 0.726289 2.738613 1.422928 2.450055 1.936492 1.936492 
C 2.450055 1.422928 2.738613 0.726289 2.738613 -0 
C 2.738613 -0.726289 2.450055 -1.422928 1.936492 -1.936492 
C 1.422928 -2.450055 0.726289 -2.738613 0 -2.738613 
C -0.726289 -2.738613 -1.422928 -2.450055 -1.936492 -1.936492 
C -2.450055 -1.422928 -2.738613 -0.726289 -2.738613 0 
C -2.738613 0.726289 -2.450055 1.422928 -1.936492 1.936492 
C -1.422928 2.450055 -0.726289 2.738613 0 2.738613 
z
"/>
    </defs>
    <g clip-path="url(#p25b6f08dc1)">
     <use xlink:href="#C1_0_3ccc04601d" x="141.999045" y="278.326228" style="fill: #0369a1; fill-opacity: 0.9; stroke: #0369a1; stroke-opacity: 0.9"/>
    </g>
    <g clip-path="url(#p25b6f08dc1)">
     <use xlink:href="#C1_0_3ccc04601d" x="293.892847" y="278.326228" style="fill: #0369a1; fill-opacity: 0.9; stroke: #0369a1; stroke-opacity: 0.9"/>
    </g>
    <g clip-path="url(#p25b6f08dc1)">
     <use xlink:href="#C1_0_3ccc04601d" x="239.869928" y="94.471173" style="fill: #0369a1; fill-opacity: 0.9; stroke: #0369a1; stroke-opacity: 0.9"/>
    </g>
    <g clip-path="url(#p25b6f08dc1)">
     <use xlink:href="#C1_0_3ccc04601d" x="158.048513" y="105.433164" style="fill: #0369a1; fill-opacity: 0.9; stroke: #0369a1; stroke-opacity: 0.9"/>
    </g>
    <g clip-path="url(#p25b6f08dc1)">
     <use xlink:href="#C1_0_3ccc04601d" x="152.174" y="297.312953" style="fill: #0369a1; fill-opacity: 0.9; stroke: #0369a1; stroke-opacity: 0.9"/>
    </g>
    <g clip-path="url(#p25b6f08dc1)">
     <use xlink:href="#C1_0_3ccc04601d" x="283.717892" y="116.395155" style="fill: #0369a1; fill-opacity: 0.9; stroke: #0369a1; stroke-opacity: 0.9"/>
    </g>
    <g clip-path="url(#p25b6f08dc1)">
     <use xlink:href="#C1_0_3ccc04601d" x="277.843379" y="308.274944" style="fill: #0369a1; fill-opacity: 0.9; stroke: #0369a1; stroke-opacity: 0.9"/>
    </g>
    <g clip-path="url(#p25b6f08dc1)">
     <use xlink:href="#C1_0_3ccc04601d" x="196.021964" y="319.236935" style="fill: #0369a1; fill-opacity: 0.9; stroke: #0369a1; stroke-opacity: 0.9"/>
    </g>
    <g clip-path="url(#p25b6f08dc1)">
     <use xlink:href="#C1_0_3ccc04601d" x="141.999045" y="135.38188" style="fill: #0369a1; fill-opacity: 0.9; stroke: #0369a1; stroke-opacity: 0.9"/>
    </g>
    <g clip-path="url(#p25b6f08dc1)">
     <use xlink:href="#C1_0_3ccc04601d" x="293.892847" y="135.38188" style="fill: #0369a1; fill-opacity: 0.9; stroke: #0369a1; stroke-opacity: 0.9"/>
    </g>
    <g clip-path="url(#p25b6f08dc1)">
     <use xlink:href="#C1_0_3ccc04601d" x="152.174" y="154.368605" style="fill: #0369a1; fill-opacity: 0.9; stroke: #0369a1; stroke-opacity: 0.9"/>
    </g>
    <g clip-path="url(#p25b6f08dc1)">
     <use xlink:href="#C1_0_3ccc04601d" x="277.843379" y="165.330596" style="fill: #0369a1; fill-opacity: 0.9; stroke: #0369a1; stroke-opacity: 0.9"/>
    </g>
    <g clip-path="url(#p25b6f08dc1)">
     <use xlink:href="#C1_0_3ccc04601d" x="196.021964" y="176.292587" style="fill: #0369a1; fill-opacity: 0.9; stroke: #0369a1; stroke-opacity: 0.9"/>
    </g>
   </g>
  </g>
 </g>
 <defs>
  <clipPath id="p25b6f08dc1">
   <rect x="7.2" y="7.2" width="410.4" height="410.4"/>
  </clipPath>
 </defs>
</svg>
