<?xml version="1.0" encoding="utf-8" standalone="no"?>
<!DOCTYPE svg PUBLIC "-//W3C//DTD SVG 1.1//EN"
  "http://www.w3.org/Graphics/SVG/1.1/DTD/svg11.dtd">
<svg xmlns:xlink="http://www.w3.org/1999/xlink" width="464.059457pt" height="457.92pt" viewBox="0 0 464.059457 457.92" xmlns="http://www.w3.org/2000/svg" version="1.1">
 <metadata>
  <rdf:RDF xmlns:dc="http://purl.org/dc/elements/1.1/" xmlns:cc="http://creativecommons.org/ns#" xmlns:rdf="http://www.w3.org/1999/02/22-rdf-syntax-ns#">
   <cc:Work>
    <dc:type rdf:resource="http://purl.org/dc/dcmitype/StillImage"/>
    <dc:date>2026-02-02T15:08:44.362120</dc:date>
    <dc:format>image/svg+xml</dc:format>
    <dc:creator>
     <cc:Agent>
      <dc:title>Matplotlib v3.10.8, https://matplotlib.org/</dc:title>
     </cc:Agent>
    </dc:creator>
   </cc:Work>
  </rdf:RDF>
 </metadata>
 <defs>
  <style type="text/css">*{stroke-linejoin: round; stroke-linecap: butt}</style>
 </defs>
 <g id="figure_1">
  <g id="patch_1">
   <path d="M 0 457.92 
L 464.059457 457.92 
L 464.059457 0 
L 0 0 
z
" style="fill: #ffffff"/>
  </g>
  <g id="patch_2">
   <path d="M 7.2 450.72 
L 450.72 450.72 
L 450.72 7.2 
L 7.2 7.2 
z
" style="fill: #ffffff"/>
  </g>
  <g id="pane3d_1">
   <g id="patch_3">
    <path d="M 33.141415 315.654611 
L 234.953514 214.748562 
L 234.953514 29.372313 
L 33.141415 130.278362 
" style="fill: #f2f2f2; opacity: 0.5; stroke: #f2f2f2; stroke-linejoin: miter"/>
   </g>
  </g>
  <g id="pane3d_2">
   <g id="patch_4">
    <path d="M 234.953514 214.748562 
L 436.765612 315.654611 
L 436.765612 130.278362 
L 234.953514 29.372313 
" style="fill: #e6e6e6; opacity: 0.5; stroke: #e6e6e6; stroke-linejoin: miter"/>
   </g>
  </g>
  <g id="pane3d_3">
   <g id="patch_5">
    <path d="M 33.141415 315.654611 
L 234.953514 416.56066 
L 436.765612 315.654611 
L 234.953514 214.748562 
" style="fill: #ececec; opacity: 0.5; stroke: #ececec; stroke-linejoin: miter"/>
   </g>
  </g>
  <g id="grid3d_1">
   <g id="Line3DCollection_1">
    <path d="M 49.21423 323.691018 
L 251.026328 222.784969 
L 251.026328 37.40872 
" style="fill: none; stroke: #b0b0b0; stroke-width: 0.8"/>
    <path d="M 70.902769 334.535288 
L 272.714867 233.629239 
L 272.714867 48.25299 
" style="fill: none; stroke: #b0b0b0; stroke-width: 0.8"/>
    <path d="M 92.591308 345.379557 
L 294.403406 244.473508 
L 294.403406 59.097259 
" style="fill: none; stroke: #b0b0b0; stroke-width: 0.8"/>
    <path d="M 114.279848 356.223827 
L 316.091946 255.317778 
L 316.091946 69.941529 
" style="fill: none; stroke: #b0b0b0; stroke-width: 0.8"/>
    <path d="M 135.968387 367.068097 
L 337.780485 266.162048 
L 337.780485 80.785799 
" style="fill: none; stroke: #b0b0b0; stroke-width: 0.8"/>
    <path d="M 157.656926 377.912366 
L 359.469024 277.006317 
L 359.469024 91.630068 
" style="fill: none; stroke: #b0b0b0; stroke-width: 0.8"/>
    <path d="M 179.345465 388.756636 
L 381.157563 287.850587 
L 381.157563 102.474338 
" style="fill: none; stroke: #b0b0b0; stroke-width: 0.8"/>
    <path d="M 201.034005 399.600906 
L 402.846103 298.694857 
L 402.846103 113.318608 
" style="fill: none; stroke: #b0b0b0; stroke-width: 0.8"/>
    <path d="M 222.722544 410.445175 
L 424.534642 309.539126 
L 424.534642 124.162877 
" style="fill: none; stroke: #b0b0b0; stroke-width: 0.8"/>
   </g>
  </g>
  <g id="grid3d_2">
   <g id="Line3DCollection_2">
    <path d="M 49.21423 122.241955 
L 49.21423 307.618204 
L 251.026328 408.524253 
" style="fill: none; stroke: #b0b0b0; stroke-width: 0.8"/>
    <path d="M 70.902769 111.397685 
L 70.902769 296.773934 
L 272.714867 397.679983 
" style="fill: none; stroke: #b0b0b0; stroke-width: 0.8"/>
    <path d="M 92.591308 100.553416 
L 92.591308 285.929665 
L 294.403406 386.835714 
" style="fill: none; stroke: #b0b0b0; stroke-width: 0.8"/>
    <path d="M 114.279848 89.709146 
L 114.279848 275.085395 
L 316.091946 375.991444 
" style="fill: none; stroke: #b0b0b0; stroke-width: 0.8"/>
    <path d="M 135.968387 78.864876 
L 135.968387 264.241125 
L 337.780485 365.147174 
" style="fill: none; stroke: #b0b0b0; stroke-width: 0.8"/>
    <path d="M 157.656926 68.020607 
L 157.656926 253.396856 
L 359.469024 354.302905 
" style="fill: none; stroke: #b0b0b0; stroke-width: 0.8"/>
    <path d="M 179.345465 57.176337 
L 179.345465 242.552586 
L 381.157563 343.458635 
" style="fill: none; stroke: #b0b0b0; stroke-width: 0.8"/>
    <path d="M 201.034005 46.332067 
L 201.034005 231.708316 
L 402.846103 332.614365 
" style="fill: none; stroke: #b0b0b0; stroke-width: 0.8"/>
    <path d="M 222.722544 35.487798 
L 222.722544 220.864047 
L 424.534642 321.770096 
" style="fill: none; stroke: #b0b0b0; stroke-width: 0.8"/>
   </g>
  </g>
  <g id="grid3d_3">
   <g id="Line3DCollection_3">
    <path d="M 436.765612 301.773028 
L 234.953514 200.866979 
L 33.141415 301.773028 
" style="fill: none; stroke: #b0b0b0; stroke-width: 0.8"/>
    <path d="M 436.765612 281.850833 
L 234.953514 180.944784 
L 33.141415 281.850833 
" style="fill: none; stroke: #b0b0b0; stroke-width: 0.8"/>
    <path d="M 436.765612 261.928637 
L 234.953514 161.022588 
L 33.141415 261.928637 
" style="fill: none; stroke: #b0b0b0; stroke-width: 0.8"/>
    <path d="M 436.765612 242.006442 
L 234.953514 141.100393 
L 33.141415 242.006442 
" style="fill: none; stroke: #b0b0b0; stroke-width: 0.8"/>
    <path d="M 436.765612 222.084247 
L 234.953514 121.178198 
L 33.141415 222.084247 
" style="fill: none; stroke: #b0b0b0; stroke-width: 0.8"/>
    <path d="M 436.765612 202.162051 
L 234.953514 101.256002 
L 33.141415 202.162051 
" style="fill: none; stroke: #b0b0b0; stroke-width: 0.8"/>
    <path d="M 436.765612 182.239856 
L 234.953514 81.333807 
L 33.141415 182.239856 
" style="fill: none; stroke: #b0b0b0; stroke-width: 0.8"/>
    <path d="M 436.765612 162.31766 
L 234.953514 61.411611 
L 33.141415 162.31766 
" style="fill: none; stroke: #b0b0b0; stroke-width: 0.8"/>
    <path d="M 436.765612 142.395465 
L 234.953514 41.489416 
L 33.141415 142.395465 
" style="fill: none; stroke: #b0b0b0; stroke-width: 0.8"/>
   </g>
  </g>
  <g id="axis3d_1">
   <g id="line2d_1">
    <path d="M 33.141415 315.654611 
L 234.953514 416.56066 
" style="fill: none; stroke: #000000; stroke-width: 0.8; stroke-linecap: square"/>
   </g>
   <g id="xtick_1">
    <g id="line2d_2">
     <path d="M 50.828727 322.88377 
L 45.985236 325.305515 
" style="fill: none; stroke: #000000; stroke-width: 0.8; stroke-linecap: square"/>
    </g>
   </g>
   <g id="xtick_2">
    <g id="line2d_3">
     <path d="M 72.517266 333.728039 
L 67.673775 336.149785 
" style="fill: none; stroke: #000000; stroke-width: 0.8; stroke-linecap: square"/>
    </g>
   </g>
   <g id="xtick_3">
    <g id="line2d_4">
     <path d="M 94.205805 344.572309 
L 89.362315 346.994054 
" style="fill: none; stroke: #000000; stroke-width: 0.8; stroke-linecap: square"/>
    </g>
   </g>
   <g id="xtick_4">
    <g id="line2d_5">
     <path d="M 115.894344 355.416579 
L 111.050854 357.838324 
" style="fill: none; stroke: #000000; stroke-width: 0.8; stroke-linecap: square"/>
    </g>
   </g>
   <g id="xtick_5">
    <g id="line2d_6">
     <path d="M 137.582884 366.260848 
L 132.739393 368.682593 
" style="fill: none; stroke: #000000; stroke-width: 0.8; stroke-linecap: square"/>
    </g>
   </g>
   <g id="xtick_6">
    <g id="line2d_7">
     <path d="M 159.271423 377.105118 
L 154.427933 379.526863 
" style="fill: none; stroke: #000000; stroke-width: 0.8; stroke-linecap: square"/>
    </g>
   </g>
   <g id="xtick_7">
    <g id="line2d_8">
     <path d="M 180.959962 387.949388 
L 176.116472 390.371133 
" style="fill: none; stroke: #000000; stroke-width: 0.8; stroke-linecap: square"/>
    </g>
   </g>
   <g id="xtick_8">
    <g id="line2d_9">
     <path d="M 202.648501 398.793657 
L 197.805011 401.215402 
" style="fill: none; stroke: #000000; stroke-width: 0.8; stroke-linecap: square"/>
    </g>
   </g>
   <g id="xtick_9">
    <g id="line2d_10">
     <path d="M 224.337041 409.637927 
L 219.49355 412.059672 
" style="fill: none; stroke: #000000; stroke-width: 0.8; stroke-linecap: square"/>
    </g>
   </g>
  </g>
  <g id="axis3d_2">
   <g id="line2d_11">
    <path d="M 436.765612 315.654611 
L 234.953514 416.56066 
" style="fill: none; stroke: #000000; stroke-width: 0.8; stroke-linecap: square"/>
   </g>
   <g id="xtick_10">
    <g id="line2d_12">
     <path d="M 249.411831 407.717004 
L 254.255321 410.13875 
" style="fill: none; stroke: #000000; stroke-width: 0.8; stroke-linecap: square"/>
    </g>
   </g>
   <g id="xtick_11">
    <g id="line2d_13">
     <path d="M 271.10037 396.872735 
L 275.943861 399.29448 
" style="fill: none; stroke: #000000; stroke-width: 0.8; stroke-linecap: square"/>
    </g>
   </g>
   <g id="xtick_12">
    <g id="line2d_14">
     <path d="M 292.78891 386.028465 
L 297.6324 388.45021 
" style="fill: none; stroke: #000000; stroke-width: 0.8; stroke-linecap: square"/>
    </g>
   </g>
   <g id="xtick_13">
    <g id="line2d_15">
     <path d="M 314.477449 375.184196 
L 319.320939 377.605941 
" style="fill: none; stroke: #000000; stroke-width: 0.8; stroke-linecap: square"/>
    </g>
   </g>
   <g id="xtick_14">
    <g id="line2d_16">
     <path d="M 336.165988 364.339926 
L 341.009478 366.761671 
" style="fill: none; stroke: #000000; stroke-width: 0.8; stroke-linecap: square"/>
    </g>
   </g>
   <g id="xtick_15">
    <g id="line2d_17">
     <path d="M 357.854527 353.495656 
L 362.698018 355.917402 
" style="fill: none; stroke: #000000; stroke-width: 0.8; stroke-linecap: square"/>
    </g>
   </g>
   <g id="xtick_16">
    <g id="line2d_18">
     <path d="M 379.543067 342.651387 
L 384.386557 345.073132 
" style="fill: none; stroke: #000000; stroke-width: 0.8; stroke-linecap: square"/>
    </g>
   </g>
   <g id="xtick_17">
    <g id="line2d_19">
     <path d="M 401.231606 331.807117 
L 406.075096 334.228862 
" style="fill: none; stroke: #000000; stroke-width: 0.8; stroke-linecap: square"/>
    </g>
   </g>
   <g id="xtick_18">
    <g id="line2d_20">
     <path d="M 422.920145 320.962847 
L 427.763635 323.384593 
" style="fill: none; stroke: #000000; stroke-width: 0.8; stroke-linecap: square"/>
    </g>
   </g>
  </g>
  <g id="axis3d_3">
   <g id="line2d_21">
    <path d="M 436.765612 315.654611 
L 436.765612 130.278362 
" style="fill: none; stroke: #000000; stroke-width: 0.8; stroke-linecap: square"/>
   </g>
   <g id="xtick_19">
    <g id="line2d_22">
     <path d="M 435.151115 300.96578 
L 439.994605 303.387525 
" style="fill: none; stroke: #000000; stroke-width: 0.8; stroke-linecap: square"/>
    </g>
   </g>
   <g id="xtick_20">
    <g id="line2d_23">
     <path d="M 435.151115 281.043584 
L 439.994605 283.46533 
" style="fill: none; stroke: #000000; stroke-width: 0.8; stroke-linecap: square"/>
    </g>
   </g>
   <g id="xtick_21">
    <g id="line2d_24">
     <path d="M 435.151115 261.121389 
L 439.994605 263.543134 
" style="fill: none; stroke: #000000; stroke-width: 0.8; stroke-linecap: square"/>
    </g>
   </g>
   <g id="xtick_22">
    <g id="line2d_25">
     <path d="M 435.151115 241.199194 
L 439.994605 243.620939 
" style="fill: none; stroke: #000000; stroke-width: 0.8; stroke-linecap: square"/>
    </g>
   </g>
   <g id="xtick_23">
    <g id="line2d_26">
     <path d="M 435.151115 221.276998 
L 439.994605 223.698743 
" style="fill: none; stroke: #000000; stroke-width: 0.8; stroke-linecap: square"/>
    </g>
   </g>
   <g id="xtick_24">
    <g id="line2d_27">
     <path d="M 435.151115 201.354803 
L 439.994605 203.776548 
" style="fill: none; stroke: #000000; stroke-width: 0.8; stroke-linecap: square"/>
    </g>
   </g>
   <g id="xtick_25">
    <g id="line2d_28">
     <path d="M 435.151115 181.432607 
L 439.994605 183.854353 
" style="fill: none; stroke: #000000; stroke-width: 0.8; stroke-linecap: square"/>
    </g>
   </g>
   <g id="xtick_26">
    <g id="line2d_29">
     <path d="M 435.151115 161.510412 
L 439.994605 163.932157 
" style="fill: none; stroke: #000000; stroke-width: 0.8; stroke-linecap: square"/>
    </g>
   </g>
   <g id="xtick_27">
    <g id="line2d_30">
     <path d="M 435.151115 141.588216 
L 439.994605 144.009962 
" style="fill: none; stroke: #000000; stroke-width: 0.8; stroke-linecap: square"/>
    </g>
   </g>
  </g>
  <g id="axes_1">
   <g id="Line3DCollection_4">
    <path d="M 134.940492 199.794834 
L 100.363891 217.083135 
" clip-path="url(#p93ea3ae416)" style="fill: none; stroke: #43a047; stroke-width: 2"/>
    <path d="M 134.940492 199.794834 
L 131.600649 202.286781 
" clip-path="url(#p93ea3ae416)" style="fill: none; stroke: #43a047; stroke-width: 2"/>
    <path d="M 134.940492 199.794834 
L 131.600649 200.64273 
" clip-path="url(#p93ea3ae416)" style="fill: none; stroke: #43a047; stroke-width: 2"/>
   </g>
   <g id="text_1">
    <!-- a -->
    <g style="fill: #e53935" transform="translate(137.70662 235.754499) scale(0.14 -0.14)">
     <defs>
      <path id="DejaVuSans-Bold-61" d="M 2106 1575 
Q 1756 1575 1579 1456 
Q 1403 1338 1403 1106 
Q 1403 894 1545 773 
Q 1688 653 1941 653 
Q 2256 653 2472 879 
Q 2688 1106 2688 1447 
L 2688 1575 
L 2106 1575 
z
M 3816 1997 
L 3816 0 
L 2688 0 
L 2688 519 
Q 2463 200 2181 54 
Q 1900 -91 1497 -91 
Q 953 -91 614 226 
Q 275 544 275 1050 
Q 275 1666 698 1953 
Q 1122 2241 2028 2241 
L 2688 2241 
L 2688 2328 
Q 2688 2594 2478 2717 
Q 2269 2841 1825 2841 
Q 1466 2841 1156 2769 
Q 847 2697 581 2553 
L 581 3406 
Q 941 3494 1303 3539 
Q 1666 3584 2028 3584 
Q 2975 3584 3395 3211 
Q 3816 2838 3816 1997 
z
" transform="scale(0.015625)"/>
     </defs>
     <use xlink:href="#DejaVuSans-Bold-61"/>
    </g>
   </g>
   <g id="text_2">
    <!-- b -->
    <g style="fill: #43a047" transform="translate(137.70662 198.41177) scale(0.14 -0.14)">
     <defs>
      <path id="DejaVuSans-Bold-62" d="M 2400 722 
Q 2759 722 2948 984 
Q 3138 1247 3138 1747 
Q 3138 2247 2948 2509 
Q 2759 2772 2400 2772 
Q 2041 2772 1848 2508 
Q 1656 2244 1656 1747 
Q 1656 1250 1848 986 
Q 2041 722 2400 722 
z
M 1656 2988 
Q 1888 3294 2169 3439 
Q 2450 3584 2816 3584 
Q 3463 3584 3878 3070 
Q 4294 2556 4294 1747 
Q 4294 938 3878 423 
Q 3463 -91 2816 -91 
Q 2450 -91 2169 54 
Q 1888 200 1656 506 
L 1656 0 
L 538 0 
L 538 4863 
L 1656 4863 
L 1656 2988 
z
" transform="scale(0.015625)"/>
     </defs>
     <use xlink:href="#DejaVuSans-Bold-62"/>
    </g>
   </g>
   <g id="text_3">
    <!-- c -->
    <g style="fill: #1e88e5" transform="translate(100.363891 182.781647) scale(0.14 -0.14)">
     <defs>
      <path id="DejaVuSans-Bold-63" d="M 3366 3391 
L 3366 2478 
Q 3138 2634 2908 2709 
Q 2678 2784 2431 2784 
Q 1963 2784 1702 2511 
Q 1441 2238 1441 1747 
Q 1441 1256 1702 982 
Q 1963 709 2431 709 
Q 2694 709 2930 787 
Q 3166 866 3366 1019 
L 3366 103 
Q 3103 6 2833 -42 
Q 2563 -91 2291 -91 
Q 1344 -91 809 395 
Q 275 881 275 1747 
Q 275 2613 809 3098 
Q 1344 3584 2291 3584 
Q 2566 3584 2833 3536 
Q 3100 3488 3366 3391 
z
" transform="scale(0.015625)"/>
     </defs>
     <use xlink:href="#DejaVuSans-Bold-63"/>
    </g>
   </g>
   <g id="Line3DCollection_5">
    <path d="M 100.363891 185.322498 
L 100.363891 217.083135 
" clip-path="url(#p93ea3ae416)" style="fill: none; stroke: #1e88e5; stroke-width: 2"/>
    <path d="M 100.363891 185.322498 
L 99.468982 187.942886 
" clip-path="url(#p93ea3ae416)" style="fill: none; stroke: #1e88e5; stroke-width: 2"/>
    <path d="M 100.363891 185.322498 
L 101.258799 188.837794 
" clip-path="url(#p93ea3ae416)" style="fill: none; stroke: #1e88e5; stroke-width: 2"/>
   </g>
   <g id="Line3DCollection_6">
    <path d="M 134.940492 234.371435 
L 100.363891 217.083135 
" clip-path="url(#p93ea3ae416)" style="fill: none; stroke: #e53935; stroke-width: 2"/>
    <path d="M 134.940492 234.371435 
L 131.600649 233.523539 
" clip-path="url(#p93ea3ae416)" style="fill: none; stroke: #e53935; stroke-width: 2"/>
    <path d="M 134.940492 234.371435 
L 131.600649 231.879488 
" clip-path="url(#p93ea3ae416)" style="fill: none; stroke: #e53935; stroke-width: 2"/>
   </g>
   <g id="Path3DCollection_1">
    <defs>
     <path id="C0_0_73ad7ed764" d="M 0 2.738613 
C 0.726289 2.738613 1.422928 2.450055 1.936492 1.936492 
C 2.450055 1.422928 2.738613 0.726289 2.738613 -0 
C 2.738613 -0.726289 2.450055 -1.422928 1.936492 -1.936492 
C 1.422928 -2.450055 0.726289 -2.738613 0 -2.738613 
C -0.726289 -2.738613 -1.422928 -2.450055 -1.936492 -1.936492 
C -2.450055 -1.422928 -2.738613 -0.726289 -2.738613 0 
C -2.738613 0.726289 -2.450055 1.422928 -1.936492 1.936492 
C -1.422928 2.450055 -0.726289 2.738613 0 2.738613 
z
"/>
    </defs>
    <g clip-path="url(#p93ea3ae416)">
     <use xlink:href="#C0_0_73ad7ed764" x="177.450905" y="180.616992" style="fill: #bf360c; fill-opacity: 0.3; stroke: #bf360c; stroke-opacity: 0.3"/>
    </g>
    <g clip-path="url(#p93ea3ae416)">
     <use xlink:href="#C0_0_73ad7ed764" x="300.139811" y="241.961445" style="fill: #bf360c; fill-opacity: 0.3; stroke: #bf360c; stroke-opacity: 0.3"/>
    </g>
   </g>
   <g id="Poly3DCollection_1">
    <path d="M 300.139811 241.961445 
L 177.450905 180.616992 
L 177.450905 132.803723 
L 300.139811 194.148176 
z
" clip-path="url(#p93ea3ae416)" style="fill: #ffab91; fill-opacity: 0.7; stroke: #bf360c; stroke-opacity: 0.7; stroke-width: 1.5"/>
    <path d="M 177.450905 132.803723 
L 177.450905 180.616992 
L 177.450905 250.020318 
L 177.450905 202.207049 
z
" clip-path="url(#p93ea3ae416)" style="fill: #ffab91; fill-opacity: 0.7; stroke: #bf360c; stroke-opacity: 0.7; stroke-width: 1.5"/>
    <path d="M 300.139811 311.36477 
L 177.450905 250.020318 
L 177.450905 180.616992 
L 300.139811 241.961445 
z
" clip-path="url(#p93ea3ae416)" style="fill: #ffab91; fill-opacity: 0.7; stroke: #bf360c; stroke-opacity: 0.7; stroke-width: 1.5"/>
    <path d="M 177.450905 132.803723 
L 177.450905 202.207049 
L 300.139811 263.551501 
L 300.139811 194.148176 
z
" clip-path="url(#p93ea3ae416)" style="fill: #ffab91; fill-opacity: 0.7; stroke: #bf360c; stroke-opacity: 0.7; stroke-width: 1.5"/>
    <path d="M 300.139811 263.551501 
L 300.139811 311.36477 
L 300.139811 241.961445 
L 300.139811 194.148176 
z
" clip-path="url(#p93ea3ae416)" style="fill: #ffab91; fill-opacity: 0.7; stroke: #bf360c; stroke-opacity: 0.7; stroke-width: 1.5"/>
    <path d="M 300.139811 263.551501 
L 177.450905 202.207049 
L 177.450905 250.020318 
L 300.139811 311.36477 
z
" clip-path="url(#p93ea3ae416)" style="fill: #ffab91; fill-opacity: 0.7; stroke: #bf360c; stroke-opacity: 0.7; stroke-width: 1.5"/>
   </g>
   <g id="Path3DCollection_2">
    <defs>
     <path id="C1_0_20eb67cc64" d="M 0 2.738613 
C 0.726289 2.738613 1.422928 2.450055 1.936492 1.936492 
C 2.450055 1.422928 2.738613 0.726289 2.738613 -0 
C 2.738613 -0.726289 2.450055 -1.422928 1.936492 -1.936492 
C 1.422928 -2.450055 0.726289 -2.738613 0 -2.738613 
C -0.726289 -2.738613 -1.422928 -2.450055 -1.936492 -1.936492 
C -2.450055 -1.422928 -2.738613 -0.726289 -2.738613 0 
C -2.738613 0.726289 -2.450055 1.422928 -1.936492 1.936492 
C -1.422928 2.450055 -0.726289 2.738613 0 2.738613 
z
"/>
    </defs>
    <g clip-path="url(#p93ea3ae416)">
     <use xlink:href="#C1_0_20eb67cc64" x="177.450905" y="132.803723" style="fill: #bf360c; fill-opacity: 0.9; stroke: #bf360c; stroke-opacity: 0.9"/>
    </g>
    <g clip-path="url(#p93ea3ae416)">
     <use xlink:href="#C1_0_20eb67cc64" x="177.450905" y="250.020318" style="fill: #bf360c; fill-opacity: 0.9; stroke: #bf360c; stroke-opacity: 0.9"/>
    </g>
    <g clip-path="url(#p93ea3ae416)">
     <use xlink:href="#C1_0_20eb67cc64" x="300.139811" y="194.148176" style="fill: #bf360c; fill-opacity: 0.9; stroke: #bf360c; stroke-opacity: 0.9"/>
    </g>
    <g clip-path="url(#p93ea3ae416)">
     <use xlink:href="#C1_0_20eb67cc64" x="177.450905" y="202.207049" style="fill: #bf360c; fill-opacity: 0.9; stroke: #bf360c; stroke-opacity: 0.9"/>
    </g>
    <g clip-path="url(#p93ea3ae416)">
     <use xlink:href="#C1_0_20eb67cc64" x="300.139811" y="311.36477" style="fill: #bf360c; fill-opacity: 0.9; stroke: #bf360c; stroke-opacity: 0.9"/>
    </g>
    <g clip-path="url(#p93ea3ae416)">
     <use xlink:href="#C1_0_20eb67cc64" x="300.139811" y="263.551501" style="fill: #bf360c; fill-opacity: 0.9; stroke: #bf360c; stroke-opacity: 0.9"/>
    </g>
   </g>
  </g>
 </g>
 <defs>
  <clipPath id="p93ea3ae416">
   <rect x="7.2" y="7.2" width="443.52" height="443.52"/>
  </clipPath>
 </defs>
</svg>
