<?xml version="1.0" encoding="utf-8" standalone="no"?>
<!DOCTYPE svg PUBLIC "-//W3C//DTD SVG 1.1//EN"
  "http://www.w3.org/Graphics/SVG/1.1/DTD/svg11.dtd">
<svg xmlns:xlink="http://www.w3.org/1999/xlink" width="424.8pt" height="424.8pt" viewBox="0 0 424.8 424.8" xmlns="http://www.w3.org/2000/svg" version="1.1">
 <metadata>
  <rdf:RDF xmlns:dc="http://purl.org/dc/elements/1.1/" xmlns:cc="http://creativecommons.org/ns#" xmlns:rdf="http://www.w3.org/1999/02/22-rdf-syntax-ns#">
   <cc:Work>
    <dc:type rdf:resource="http://purl.org/dc/dcmitype/StillImage"/>
    <dc:date>2026-01-27T08:32:33.749506</dc:date>
    <dc:format>image/svg+xml</dc:format>
    <dc:creator>
     <cc:Agent>
      <dc:title>Matplotlib v3.10.8, https://matplotlib.org/</dc:title>
     </cc:Agent>
    </dc:creator>
   </cc:Work>
  </rdf:RDF>
 </metadata>
 <defs>
  <style type="text/css">*{stroke-linejoin: round; stroke-linecap: butt}</style>
 </defs>
 <g id="figure_1">
  <g id="patch_1">
   <path d="M 0 424.8 
L 424.8 424.8 
L 424.8 0 
L 0 0 
z
" style="fill: #ffffff"/>
  </g>
  <g id="patch_2">
   <path d="M 7.2 417.6 
L 417.6 417.6 
L 417.6 7.2 
L 7.2 7.2 
z
" style="fill: #ffffff"/>
  </g>
  <g id="axes_1">
   <g id="Path3DCollection_1">
    <defs>
     <path id="C0_0_215f1e2115" d="M 0 2.738613 
C 0.726289 2.738613 1.422928 2.450055 1.936492 1.936492 
C 2.450055 1.422928 2.738613 0.726289 2.738613 -0 
C 2.738613 -0.726289 2.450055 -1.422928 1.936492 -1.936492 
C 1.422928 -2.450055 0.726289 -2.738613 0 -2.738613 
C -0.726289 -2.738613 -1.422928 -2.450055 -1.936492 -1.936492 
C -2.450055 -1.422928 -2.738613 -0.726289 -2.738613 0 
C -2.738613 0.726289 -2.450055 1.422928 -1.936492 1.936492 
C -1.422928 2.450055 -0.726289 2.738613 0 2.738613 
z
"/>
    </defs>
    <g clip-path="url(#p4210a63990)">
     <use xlink:href="#C0_0_215f1e2115" x="203.148649" y="212.122749" style="fill: #0369a1; fill-opacity: 0.3; stroke: #0369a1; stroke-opacity: 0.3"/>
    </g>
    <g clip-path="url(#p4210a63990)">
     <use xlink:href="#C0_0_215f1e2115" x="225.596457" y="181.945005" style="fill: #0369a1; fill-opacity: 0.3; stroke: #0369a1; stroke-opacity: 0.3"/>
    </g>
    <g clip-path="url(#p4210a63990)">
     <use xlink:href="#C0_0_215f1e2115" x="241.939977" y="172.713583" style="fill: #0369a1; fill-opacity: 0.3; stroke: #0369a1; stroke-opacity: 0.3"/>
    </g>
    <g clip-path="url(#p4210a63990)">
     <use xlink:href="#C0_0_215f1e2115" x="180.700841" y="187.959877" style="fill: #0369a1; fill-opacity: 0.3; stroke: #0369a1; stroke-opacity: 0.3"/>
    </g>
    <g clip-path="url(#p4210a63990)">
     <use xlink:href="#C0_0_215f1e2115" x="168.736554" y="182.520982" style="fill: #0369a1; fill-opacity: 0.3; stroke: #0369a1; stroke-opacity: 0.3"/>
    </g>
   </g>
   <g id="Poly3DCollection_1">
    <path d="M 203.148649 212.122749 
L 180.700841 187.959877 
L 225.596457 181.945005 
z
" clip-path="url(#p4210a63990)" style="fill: #0ea5e9; fill-opacity: 0.7; stroke: #0369a1; stroke-opacity: 0.7; stroke-width: 1.5"/>
    <path d="M 203.148649 212.122749 
L 225.596457 181.945005 
L 241.939977 172.713583 
L 274.805849 189.14652 
L 279.185082 208.739317 
L 273.17021 247.13353 
L 217.945946 278.326228 
z
" clip-path="url(#p4210a63990)" style="fill: #0ea5e9; fill-opacity: 0.7; stroke: #0369a1; stroke-opacity: 0.7; stroke-width: 1.5"/>
    <path d="M 241.939977 172.713583 
L 258.372913 153.759743 
L 274.805849 189.14652 
z
" clip-path="url(#p4210a63990)" style="fill: #0ea5e9; fill-opacity: 0.7; stroke: #0369a1; stroke-opacity: 0.7; stroke-width: 1.5"/>
    <path d="M 162.721682 166.574578 
L 217.945946 135.38188 
L 258.372913 153.759743 
L 241.939977 172.713583 
L 225.596457 181.945005 
L 180.700841 187.959877 
L 168.736554 182.520982 
z
" clip-path="url(#p4210a63990)" style="fill: #0ea5e9; fill-opacity: 0.7; stroke: #0369a1; stroke-opacity: 0.7; stroke-width: 1.5"/>
    <path d="M 217.945946 278.326228 
L 177.518979 259.948365 
L 161.086043 224.561589 
L 156.70681 204.968791 
L 168.736554 182.520982 
L 180.700841 187.959877 
L 203.148649 212.122749 
z
" clip-path="url(#p4210a63990)" style="fill: #0ea5e9; fill-opacity: 0.7; stroke: #0369a1; stroke-opacity: 0.7; stroke-width: 1.5"/>
    <path d="M 156.70681 204.968791 
L 162.721682 166.574578 
L 168.736554 182.520982 
z
" clip-path="url(#p4210a63990)" style="fill: #0ea5e9; fill-opacity: 0.7; stroke: #0369a1; stroke-opacity: 0.7; stroke-width: 1.5"/>
    <path d="M 279.185082 208.739317 
L 267.155338 231.187126 
L 273.17021 247.13353 
z
" clip-path="url(#p4210a63990)" style="fill: #0ea5e9; fill-opacity: 0.7; stroke: #0369a1; stroke-opacity: 0.7; stroke-width: 1.5"/>
    <path d="M 255.191051 225.748231 
L 267.155338 231.187126 
L 279.185082 208.739317 
L 274.805849 189.14652 
L 258.372913 153.759743 
L 217.945946 135.38188 
L 232.743243 201.585359 
z
" clip-path="url(#p4210a63990)" style="fill: #0ea5e9; fill-opacity: 0.7; stroke: #0369a1; stroke-opacity: 0.7; stroke-width: 1.5"/>
    <path d="M 273.17021 247.13353 
L 267.155338 231.187126 
L 255.191051 225.748231 
L 210.295435 231.763103 
L 193.951915 240.994525 
L 177.518979 259.948365 
L 217.945946 278.326228 
z
" clip-path="url(#p4210a63990)" style="fill: #0ea5e9; fill-opacity: 0.7; stroke: #0369a1; stroke-opacity: 0.7; stroke-width: 1.5"/>
    <path d="M 193.951915 240.994525 
L 161.086043 224.561589 
L 177.518979 259.948365 
z
" clip-path="url(#p4210a63990)" style="fill: #0ea5e9; fill-opacity: 0.7; stroke: #0369a1; stroke-opacity: 0.7; stroke-width: 1.5"/>
    <path d="M 217.945946 135.38188 
L 162.721682 166.574578 
L 156.70681 204.968791 
L 161.086043 224.561589 
L 193.951915 240.994525 
L 210.295435 231.763103 
L 232.743243 201.585359 
z
" clip-path="url(#p4210a63990)" style="fill: #0ea5e9; fill-opacity: 0.7; stroke: #0369a1; stroke-opacity: 0.7; stroke-width: 1.5"/>
    <path d="M 255.191051 225.748231 
L 232.743243 201.585359 
L 210.295435 231.763103 
z
" clip-path="url(#p4210a63990)" style="fill: #0ea5e9; fill-opacity: 0.7; stroke: #0369a1; stroke-opacity: 0.7; stroke-width: 1.5"/>
   </g>
   <g id="Path3DCollection_2">
    <defs>
     <path id="C1_0_09155fe312" d="M 0 2.738613 
C 0.726289 2.738613 1.422928 2.450055 1.936492 1.936492 
C 2.450055 1.422928 2.738613 0.726289 2.738613 -0 
C 2.738613 -0.726289 2.450055 -1.422928 1.936492 -1.936492 
C 1.422928 -2.450055 0.726289 -2.738613 0 -2.738613 
C -0.726289 -2.738613 -1.422928 -2.450055 -1.936492 -1.936492 
C -2.450055 -1.422928 -2.738613 -0.726289 -2.738613 0 
C -2.738613 0.726289 -2.450055 1.422928 -1.936492 1.936492 
C -1.422928 2.450055 -0.726289 2.738613 0 2.738613 
z
"/>
    </defs>
    <g clip-path="url(#p4210a63990)">
     <use xlink:href="#C1_0_09155fe312" x="217.945946" y="278.326228" style="fill: #0369a1; fill-opacity: 0.9; stroke: #0369a1; stroke-opacity: 0.9"/>
    </g>
    <g clip-path="url(#p4210a63990)">
     <use xlink:href="#C1_0_09155fe312" x="274.805849" y="189.14652" style="fill: #0369a1; fill-opacity: 0.9; stroke: #0369a1; stroke-opacity: 0.9"/>
    </g>
    <g clip-path="url(#p4210a63990)">
     <use xlink:href="#C1_0_09155fe312" x="258.372913" y="153.759743" style="fill: #0369a1; fill-opacity: 0.9; stroke: #0369a1; stroke-opacity: 0.9"/>
    </g>
    <g clip-path="url(#p4210a63990)">
     <use xlink:href="#C1_0_09155fe312" x="279.185082" y="208.739317" style="fill: #0369a1; fill-opacity: 0.9; stroke: #0369a1; stroke-opacity: 0.9"/>
    </g>
    <g clip-path="url(#p4210a63990)">
     <use xlink:href="#C1_0_09155fe312" x="273.17021" y="247.13353" style="fill: #0369a1; fill-opacity: 0.9; stroke: #0369a1; stroke-opacity: 0.9"/>
    </g>
    <g clip-path="url(#p4210a63990)">
     <use xlink:href="#C1_0_09155fe312" x="162.721682" y="166.574578" style="fill: #0369a1; fill-opacity: 0.9; stroke: #0369a1; stroke-opacity: 0.9"/>
    </g>
    <g clip-path="url(#p4210a63990)">
     <use xlink:href="#C1_0_09155fe312" x="156.70681" y="204.968791" style="fill: #0369a1; fill-opacity: 0.9; stroke: #0369a1; stroke-opacity: 0.9"/>
    </g>
    <g clip-path="url(#p4210a63990)">
     <use xlink:href="#C1_0_09155fe312" x="177.518979" y="259.948365" style="fill: #0369a1; fill-opacity: 0.9; stroke: #0369a1; stroke-opacity: 0.9"/>
    </g>
    <g clip-path="url(#p4210a63990)">
     <use xlink:href="#C1_0_09155fe312" x="161.086043" y="224.561589" style="fill: #0369a1; fill-opacity: 0.9; stroke: #0369a1; stroke-opacity: 0.9"/>
    </g>
    <g clip-path="url(#p4210a63990)">
     <use xlink:href="#C1_0_09155fe312" x="267.155338" y="231.187126" style="fill: #0369a1; fill-opacity: 0.9; stroke: #0369a1; stroke-opacity: 0.9"/>
    </g>
    <g clip-path="url(#p4210a63990)">
     <use xlink:href="#C1_0_09155fe312" x="217.945946" y="135.38188" style="fill: #0369a1; fill-opacity: 0.9; stroke: #0369a1; stroke-opacity: 0.9"/>
    </g>
    <g clip-path="url(#p4210a63990)">
     <use xlink:href="#C1_0_09155fe312" x="255.191051" y="225.748231" style="fill: #0369a1; fill-opacity: 0.9; stroke: #0369a1; stroke-opacity: 0.9"/>
    </g>
    <g clip-path="url(#p4210a63990)">
     <use xlink:href="#C1_0_09155fe312" x="193.951915" y="240.994525" style="fill: #0369a1; fill-opacity: 0.9; stroke: #0369a1; stroke-opacity: 0.9"/>
    </g>
    <g clip-path="url(#p4210a63990)">
     <use xlink:href="#C1_0_09155fe312" x="210.295435" y="231.763103" style="fill: #0369a1; fill-opacity: 0.9; stroke: #0369a1; stroke-opacity: 0.9"/>
    </g>
    <g clip-path="url(#p4210a63990)">
     <use xlink:href="#C1_0_09155fe312" x="232.743243" y="201.585359" style="fill: #0369a1; fill-opacity: 0.9; stroke: #0369a1; stroke-opacity: 0.9"/>
    </g>
   </g>
  </g>
 </g>
 <defs>
  <clipPath id="p4210a63990">
   <rect x="7.2" y="7.2" width="410.4" height="410.4"/>
  </clipPath>
 </defs>
</svg>
