<?xml version="1.0" encoding="utf-8" standalone="no"?>
<!DOCTYPE svg PUBLIC "-//W3C//DTD SVG 1.1//EN"
  "http://www.w3.org/Graphics/SVG/1.1/DTD/svg11.dtd">
<svg xmlns:xlink="http://www.w3.org/1999/xlink" width="424.8pt" height="424.8pt" viewBox="0 0 424.8 424.8" xmlns="http://www.w3.org/2000/svg" version="1.1">
 <metadata>
  <rdf:RDF xmlns:dc="http://purl.org/dc/elements/1.1/" xmlns:cc="http://creativecommons.org/ns#" xmlns:rdf="http://www.w3.org/1999/02/22-rdf-syntax-ns#">
   <cc:Work>
    <dc:type rdf:resource="http://purl.org/dc/dcmitype/StillImage"/>
    <dc:date>2026-01-27T08:32:33.940300</dc:date>
    <dc:format>image/svg+xml</dc:format>
    <dc:creator>
     <cc:Agent>
      <dc:title>Matplotlib v3.10.8, https://matplotlib.org/</dc:title>
     </cc:Agent>
    </dc:creator>
   </cc:Work>
  </rdf:RDF>
 </metadata>
 <defs>
  <style type="text/css">*{stroke-linejoin: round; stroke-linecap: butt}</style>
 </defs>
 <g id="figure_1">
  <g id="patch_1">
   <path d="M 0 424.8 
L 424.8 424.8 
L 424.8 0 
L 0 0 
z
" style="fill: #ffffff"/>
  </g>
  <g id="patch_2">
   <path d="M 7.2 417.6 
L 417.6 417.6 
L 417.6 7.2 
L 7.2 7.2 
z
" style="fill: #ffffff"/>
  </g>
  <g id="axes_1">
   <g id="Path3DCollection_1">
    <defs>
     <path id="C0_0_dc375f8de3" d="M 0 2.738613 
C 0.726289 2.738613 1.422928 2.450055 1.936492 1.936492 
C 2.450055 1.422928 2.738613 0.726289 2.738613 -0 
C 2.738613 -0.726289 2.450055 -1.422928 1.936492 -1.936492 
C 1.422928 -2.450055 0.726289 -2.738613 0 -2.738613 
C -0.726289 -2.738613 -1.422928 -2.450055 -1.936492 -1.936492 
C -2.450055 -1.422928 -2.738613 -0.726289 -2.738613 0 
C -2.738613 0.726289 -2.450055 1.422928 -1.936492 1.936492 
C -1.422928 2.450055 -0.726289 2.738613 0 2.738613 
z
"/>
    </defs>
    <g clip-path="url(#pc2f98d1016)">
     <use xlink:href="#C0_0_dc375f8de3" x="267.460794" y="179.792312" style="fill: #0369a1; fill-opacity: 0.3; stroke: #0369a1; stroke-opacity: 0.3"/>
    </g>
    <g clip-path="url(#pc2f98d1016)">
     <use xlink:href="#C0_0_dc375f8de3" x="196.725297" y="163.548636" style="fill: #0369a1; fill-opacity: 0.3; stroke: #0369a1; stroke-opacity: 0.3"/>
    </g>
    <g clip-path="url(#pc2f98d1016)">
     <use xlink:href="#C0_0_dc375f8de3" x="196.725297" y="163.548636" style="fill: #0369a1; fill-opacity: 0.3; stroke: #0369a1; stroke-opacity: 0.3"/>
    </g>
    <g clip-path="url(#pc2f98d1016)">
     <use xlink:href="#C0_0_dc375f8de3" x="249.77692" y="238.805476" style="fill: #0369a1; fill-opacity: 0.3; stroke: #0369a1; stroke-opacity: 0.3"/>
    </g>
    <g clip-path="url(#pc2f98d1016)">
     <use xlink:href="#C0_0_dc375f8de3" x="249.77692" y="238.805476" style="fill: #0369a1; fill-opacity: 0.3; stroke: #0369a1; stroke-opacity: 0.3"/>
    </g>
   </g>
   <g id="Poly3DCollection_1">
    <path d="M 249.77692 238.805476 
L 196.725297 163.548636 
L 267.460794 179.792312 
z
" clip-path="url(#pc2f98d1016)" style="fill: #0ea5e9; fill-opacity: 0.7; stroke: #0369a1; stroke-opacity: 0.7; stroke-width: 1.5"/>
    <path d="M 196.725297 114.817609 
L 196.725297 163.548636 
L 143.673673 141.34342 
z
" clip-path="url(#pc2f98d1016)" style="fill: #0ea5e9; fill-opacity: 0.7; stroke: #0369a1; stroke-opacity: 0.7; stroke-width: 1.5"/>
    <path d="M 196.725297 163.548636 
L 196.725297 114.817609 
L 302.828543 167.869232 
L 302.828543 265.331287 
L 249.77692 238.805476 
z
" clip-path="url(#pc2f98d1016)" style="fill: #0ea5e9; fill-opacity: 0.7; stroke: #0369a1; stroke-opacity: 0.7; stroke-width: 1.5"/>
    <path d="M 302.828543 265.331287 
L 249.77692 291.857099 
L 249.77692 238.805476 
z
" clip-path="url(#pc2f98d1016)" style="fill: #0ea5e9; fill-opacity: 0.7; stroke: #0369a1; stroke-opacity: 0.7; stroke-width: 1.5"/>
    <path d="M 143.673673 141.34342 
L 161.357548 135.38188 
L 302.828543 167.869232 
L 267.460794 179.792312 
L 196.725297 163.548636 
z
" clip-path="url(#pc2f98d1016)" style="fill: #0ea5e9; fill-opacity: 0.7; stroke: #0369a1; stroke-opacity: 0.7; stroke-width: 1.5"/>
    <path d="M 249.77692 238.805476 
L 267.460794 179.792312 
L 302.828543 167.869232 
L 267.460794 285.895559 
L 249.77692 291.857099 
z
" clip-path="url(#pc2f98d1016)" style="fill: #0ea5e9; fill-opacity: 0.7; stroke: #0369a1; stroke-opacity: 0.7; stroke-width: 1.5"/>
    <path d="M 143.673673 141.34342 
L 196.725297 163.548636 
L 249.77692 238.805476 
L 249.77692 291.857099 
L 196.725297 269.651883 
L 143.673673 194.395044 
z
" clip-path="url(#pc2f98d1016)" style="fill: #0ea5e9; fill-opacity: 0.7; stroke: #0369a1; stroke-opacity: 0.7; stroke-width: 1.5"/>
    <path d="M 249.77692 291.857099 
L 196.725297 269.651883 
L 143.673673 194.395044 
L 143.673673 141.34342 
L 196.725297 163.548636 
L 249.77692 238.805476 
z
" clip-path="url(#pc2f98d1016)" style="fill: #0ea5e9; fill-opacity: 0.7; stroke: #0369a1; stroke-opacity: 0.7; stroke-width: 1.5"/>
    <path d="M 143.673673 194.395044 
L 196.725297 220.920855 
L 302.828543 167.869232 
L 196.725297 114.817609 
L 143.673673 141.34342 
z
" clip-path="url(#pc2f98d1016)" style="fill: #0ea5e9; fill-opacity: 0.7; stroke: #0369a1; stroke-opacity: 0.7; stroke-width: 1.5"/>
    <path d="M 161.357548 135.38188 
L 143.673673 141.34342 
L 143.673673 194.395044 
z
" clip-path="url(#pc2f98d1016)" style="fill: #0ea5e9; fill-opacity: 0.7; stroke: #0369a1; stroke-opacity: 0.7; stroke-width: 1.5"/>
    <path d="M 249.77692 291.857099 
L 302.828543 265.331287 
L 302.828543 167.869232 
L 196.725297 220.920855 
L 196.725297 269.651883 
z
" clip-path="url(#pc2f98d1016)" style="fill: #0ea5e9; fill-opacity: 0.7; stroke: #0369a1; stroke-opacity: 0.7; stroke-width: 1.5"/>
    <path d="M 267.460794 285.895559 
L 196.725297 269.651883 
L 249.77692 291.857099 
z
" clip-path="url(#pc2f98d1016)" style="fill: #0ea5e9; fill-opacity: 0.7; stroke: #0369a1; stroke-opacity: 0.7; stroke-width: 1.5"/>
    <path d="M 196.725297 269.651883 
L 267.460794 285.895559 
L 302.828543 167.869232 
L 161.357548 135.38188 
L 143.673673 194.395044 
z
" clip-path="url(#pc2f98d1016)" style="fill: #0ea5e9; fill-opacity: 0.7; stroke: #0369a1; stroke-opacity: 0.7; stroke-width: 1.5"/>
    <path d="M 143.673673 194.395044 
L 196.725297 269.651883 
L 196.725297 220.920855 
z
" clip-path="url(#pc2f98d1016)" style="fill: #0ea5e9; fill-opacity: 0.7; stroke: #0369a1; stroke-opacity: 0.7; stroke-width: 1.5"/>
   </g>
   <g id="Path3DCollection_2">
    <defs>
     <path id="C1_0_4056b479cf" d="M 0 2.738613 
C 0.726289 2.738613 1.422928 2.450055 1.936492 1.936492 
C 2.450055 1.422928 2.738613 0.726289 2.738613 -0 
C 2.738613 -0.726289 2.450055 -1.422928 1.936492 -1.936492 
C 1.422928 -2.450055 0.726289 -2.738613 0 -2.738613 
C -0.726289 -2.738613 -1.422928 -2.450055 -1.936492 -1.936492 
C -2.450055 -1.422928 -2.738613 -0.726289 -2.738613 0 
C -2.738613 0.726289 -2.450055 1.422928 -1.936492 1.936492 
C -1.422928 2.450055 -0.726289 2.738613 0 2.738613 
z
"/>
    </defs>
    <g clip-path="url(#pc2f98d1016)">
     <use xlink:href="#C1_0_4056b479cf" x="196.725297" y="114.817609" style="fill: #0369a1; fill-opacity: 0.9; stroke: #0369a1; stroke-opacity: 0.9"/>
    </g>
    <g clip-path="url(#pc2f98d1016)">
     <use xlink:href="#C1_0_4056b479cf" x="302.828543" y="265.331287" style="fill: #0369a1; fill-opacity: 0.9; stroke: #0369a1; stroke-opacity: 0.9"/>
    </g>
    <g clip-path="url(#pc2f98d1016)">
     <use xlink:href="#C1_0_4056b479cf" x="143.673673" y="141.34342" style="fill: #0369a1; fill-opacity: 0.9; stroke: #0369a1; stroke-opacity: 0.9"/>
    </g>
    <g clip-path="url(#pc2f98d1016)">
     <use xlink:href="#C1_0_4056b479cf" x="143.673673" y="141.34342" style="fill: #0369a1; fill-opacity: 0.9; stroke: #0369a1; stroke-opacity: 0.9"/>
    </g>
    <g clip-path="url(#pc2f98d1016)">
     <use xlink:href="#C1_0_4056b479cf" x="249.77692" y="291.857099" style="fill: #0369a1; fill-opacity: 0.9; stroke: #0369a1; stroke-opacity: 0.9"/>
    </g>
    <g clip-path="url(#pc2f98d1016)">
     <use xlink:href="#C1_0_4056b479cf" x="249.77692" y="291.857099" style="fill: #0369a1; fill-opacity: 0.9; stroke: #0369a1; stroke-opacity: 0.9"/>
    </g>
    <g clip-path="url(#pc2f98d1016)">
     <use xlink:href="#C1_0_4056b479cf" x="302.828543" y="167.869232" style="fill: #0369a1; fill-opacity: 0.9; stroke: #0369a1; stroke-opacity: 0.9"/>
    </g>
    <g clip-path="url(#pc2f98d1016)">
     <use xlink:href="#C1_0_4056b479cf" x="302.828543" y="167.869232" style="fill: #0369a1; fill-opacity: 0.9; stroke: #0369a1; stroke-opacity: 0.9"/>
    </g>
    <g clip-path="url(#pc2f98d1016)">
     <use xlink:href="#C1_0_4056b479cf" x="161.357548" y="135.38188" style="fill: #0369a1; fill-opacity: 0.9; stroke: #0369a1; stroke-opacity: 0.9"/>
    </g>
    <g clip-path="url(#pc2f98d1016)">
     <use xlink:href="#C1_0_4056b479cf" x="143.673673" y="194.395044" style="fill: #0369a1; fill-opacity: 0.9; stroke: #0369a1; stroke-opacity: 0.9"/>
    </g>
    <g clip-path="url(#pc2f98d1016)">
     <use xlink:href="#C1_0_4056b479cf" x="143.673673" y="194.395044" style="fill: #0369a1; fill-opacity: 0.9; stroke: #0369a1; stroke-opacity: 0.9"/>
    </g>
    <g clip-path="url(#pc2f98d1016)">
     <use xlink:href="#C1_0_4056b479cf" x="267.460794" y="285.895559" style="fill: #0369a1; fill-opacity: 0.9; stroke: #0369a1; stroke-opacity: 0.9"/>
    </g>
    <g clip-path="url(#pc2f98d1016)">
     <use xlink:href="#C1_0_4056b479cf" x="196.725297" y="269.651883" style="fill: #0369a1; fill-opacity: 0.9; stroke: #0369a1; stroke-opacity: 0.9"/>
    </g>
    <g clip-path="url(#pc2f98d1016)">
     <use xlink:href="#C1_0_4056b479cf" x="196.725297" y="269.651883" style="fill: #0369a1; fill-opacity: 0.9; stroke: #0369a1; stroke-opacity: 0.9"/>
    </g>
    <g clip-path="url(#pc2f98d1016)">
     <use xlink:href="#C1_0_4056b479cf" x="196.725297" y="220.920855" style="fill: #0369a1; fill-opacity: 0.9; stroke: #0369a1; stroke-opacity: 0.9"/>
    </g>
   </g>
  </g>
 </g>
 <defs>
  <clipPath id="pc2f98d1016">
   <rect x="7.2" y="7.2" width="410.4" height="410.4"/>
  </clipPath>
 </defs>
</svg>
