<?xml version="1.0" encoding="utf-8" standalone="no"?>
<!DOCTYPE svg PUBLIC "-//W3C//DTD SVG 1.1//EN"
  "http://www.w3.org/Graphics/SVG/1.1/DTD/svg11.dtd">
<svg xmlns:xlink="http://www.w3.org/1999/xlink" width="568.8pt" height="568.8pt" viewBox="0 0 568.8 568.8" xmlns="http://www.w3.org/2000/svg" version="1.1">
 <metadata>
  <rdf:RDF xmlns:dc="http://purl.org/dc/elements/1.1/" xmlns:cc="http://creativecommons.org/ns#" xmlns:rdf="http://www.w3.org/1999/02/22-rdf-syntax-ns#">
   <cc:Work>
    <dc:type rdf:resource="http://purl.org/dc/dcmitype/StillImage"/>
    <dc:date>2026-02-17T11:54:31.057247</dc:date>
    <dc:format>image/svg+xml</dc:format>
    <dc:creator>
     <cc:Agent>
      <dc:title>Matplotlib v3.10.8, https://matplotlib.org/</dc:title>
     </cc:Agent>
    </dc:creator>
   </cc:Work>
  </rdf:RDF>
 </metadata>
 <defs>
  <style type="text/css">*{stroke-linejoin: round; stroke-linecap: butt}</style>
 </defs>
 <g id="figure_1">
  <g id="patch_1">
   <path d="M 0 568.8 
L 568.8 568.8 
L 568.8 0 
L 0 0 
L 0 568.8 
z
" style="fill: none; opacity: 0"/>
  </g>
  <g id="patch_2">
   <path d="M 7.2 561.6 
L 561.6 561.6 
L 561.6 7.2 
L 7.2 7.2 
L 7.2 561.6 
z
" style="fill: none; opacity: 0"/>
  </g>
  <g id="axes_1">
   <g id="Path3DCollection_1">
    <defs>
     <path id="m596a9c408a" d="M 0 2.738613 
C 0.726289 2.738613 1.422928 2.450055 1.936492 1.936492 
C 2.450055 1.422928 2.738613 0.726289 2.738613 0 
C 2.738613 -0.726289 2.450055 -1.422928 1.936492 -1.936492 
C 1.422928 -2.450055 0.726289 -2.738613 0 -2.738613 
C -0.726289 -2.738613 -1.422928 -2.450055 -1.936492 -1.936492 
C -2.450055 -1.422928 -2.738613 -0.726289 -2.738613 0 
C -2.738613 0.726289 -2.450055 1.422928 -1.936492 1.936492 
C -1.422928 2.450055 -0.726289 2.738613 0 2.738613 
z
" style="stroke: #455a64; stroke-opacity: 0.3"/>
    </defs>
    <g clip-path="url(#p99d471f0f3)">
     <use xlink:href="#m596a9c408a" x="304.078613" y="359.375988" style="fill: #455a64; fill-opacity: 0.3; stroke: #455a64; stroke-opacity: 0.3"/>
    </g>
   </g>
   <g id="Poly3DCollection_1">
    <path d="M 328.452055 371.562709 
L 279.705171 395.936151 
L 255.331729 383.74943 
L 304.078613 359.375988 
z
" clip-path="url(#p99d471f0f3)" style="fill: #b0bec5; fill-opacity: 0.7; stroke: #455a64; stroke-opacity: 0.7; stroke-width: 1.5"/>
    <path d="M 328.452055 170.066786 
L 328.452055 371.562709 
L 304.078613 359.375988 
L 304.078613 157.880065 
z
" clip-path="url(#p99d471f0f3)" style="fill: #b0bec5; fill-opacity: 0.7; stroke: #455a64; stroke-opacity: 0.7; stroke-width: 1.5"/>
    <path d="M 304.078613 157.880065 
L 304.078613 359.375988 
L 255.331729 383.74943 
L 255.331729 182.253507 
z
" clip-path="url(#p99d471f0f3)" style="fill: #b0bec5; fill-opacity: 0.7; stroke: #455a64; stroke-opacity: 0.7; stroke-width: 1.5"/>
    <path d="M 279.705171 194.440228 
L 279.705171 395.936151 
L 328.452055 371.562709 
L 328.452055 170.066786 
z
" clip-path="url(#p99d471f0f3)" style="fill: #b0bec5; fill-opacity: 0.7; stroke: #455a64; stroke-opacity: 0.7; stroke-width: 1.5"/>
    <path d="M 255.331729 182.253507 
L 255.331729 383.74943 
L 279.705171 395.936151 
L 279.705171 194.440228 
z
" clip-path="url(#p99d471f0f3)" style="fill: #b0bec5; fill-opacity: 0.7; stroke: #455a64; stroke-opacity: 0.7; stroke-width: 1.5"/>
    <path d="M 255.331729 182.253507 
L 279.705171 194.440228 
L 328.452055 170.066786 
L 304.078613 157.880065 
z
" clip-path="url(#p99d471f0f3)" style="fill: #b0bec5; fill-opacity: 0.7; stroke: #455a64; stroke-opacity: 0.7; stroke-width: 1.5"/>
   </g>
   <g id="Path3DCollection_2">
    <defs>
     <path id="C0_0_171c2a0068" d="M 0 2.738613 
C 0.726289 2.738613 1.422928 2.450055 1.936492 1.936492 
C 2.450055 1.422928 2.738613 0.726289 2.738613 -0 
C 2.738613 -0.726289 2.450055 -1.422928 1.936492 -1.936492 
C 1.422928 -2.450055 0.726289 -2.738613 0 -2.738613 
C -0.726289 -2.738613 -1.422928 -2.450055 -1.936492 -1.936492 
C -2.450055 -1.422928 -2.738613 -0.726289 -2.738613 0 
C -2.738613 0.726289 -2.450055 1.422928 -1.936492 1.936492 
C -1.422928 2.450055 -0.726289 2.738613 0 2.738613 
z
"/>
    </defs>
    <g clip-path="url(#p99d471f0f3)">
     <use xlink:href="#C0_0_171c2a0068" x="328.452055" y="371.562709" style="fill: #455a64; fill-opacity: 0.9; stroke: #455a64; stroke-opacity: 0.9"/>
    </g>
    <g clip-path="url(#p99d471f0f3)">
     <use xlink:href="#C0_0_171c2a0068" x="255.331729" y="383.74943" style="fill: #455a64; fill-opacity: 0.9; stroke: #455a64; stroke-opacity: 0.9"/>
    </g>
    <g clip-path="url(#p99d471f0f3)">
     <use xlink:href="#C0_0_171c2a0068" x="279.705171" y="395.936151" style="fill: #455a64; fill-opacity: 0.9; stroke: #455a64; stroke-opacity: 0.9"/>
    </g>
    <g clip-path="url(#p99d471f0f3)">
     <use xlink:href="#C0_0_171c2a0068" x="304.078613" y="157.880065" style="fill: #455a64; fill-opacity: 0.9; stroke: #455a64; stroke-opacity: 0.9"/>
    </g>
    <g clip-path="url(#p99d471f0f3)">
     <use xlink:href="#C0_0_171c2a0068" x="328.452055" y="170.066786" style="fill: #455a64; fill-opacity: 0.9; stroke: #455a64; stroke-opacity: 0.9"/>
    </g>
    <g clip-path="url(#p99d471f0f3)">
     <use xlink:href="#C0_0_171c2a0068" x="255.331729" y="182.253507" style="fill: #455a64; fill-opacity: 0.9; stroke: #455a64; stroke-opacity: 0.9"/>
    </g>
    <g clip-path="url(#p99d471f0f3)">
     <use xlink:href="#C0_0_171c2a0068" x="279.705171" y="194.440228" style="fill: #455a64; fill-opacity: 0.9; stroke: #455a64; stroke-opacity: 0.9"/>
    </g>
   </g>
  </g>
 </g>
 <defs>
  <clipPath id="p99d471f0f3">
   <rect x="7.2" y="7.2" width="554.4" height="554.4"/>
  </clipPath>
 </defs>
</svg>
