<?xml version="1.0" encoding="utf-8" standalone="no"?>
<!DOCTYPE svg PUBLIC "-//W3C//DTD SVG 1.1//EN"
  "http://www.w3.org/Graphics/SVG/1.1/DTD/svg11.dtd">
<svg xmlns:xlink="http://www.w3.org/1999/xlink" width="464.059457pt" height="457.92pt" viewBox="0 0 464.059457 457.92" xmlns="http://www.w3.org/2000/svg" version="1.1">
 <metadata>
  <rdf:RDF xmlns:dc="http://purl.org/dc/elements/1.1/" xmlns:cc="http://creativecommons.org/ns#" xmlns:rdf="http://www.w3.org/1999/02/22-rdf-syntax-ns#">
   <cc:Work>
    <dc:type rdf:resource="http://purl.org/dc/dcmitype/StillImage"/>
    <dc:date>2026-02-02T15:08:45.112829</dc:date>
    <dc:format>image/svg+xml</dc:format>
    <dc:creator>
     <cc:Agent>
      <dc:title>Matplotlib v3.10.8, https://matplotlib.org/</dc:title>
     </cc:Agent>
    </dc:creator>
   </cc:Work>
  </rdf:RDF>
 </metadata>
 <defs>
  <style type="text/css">*{stroke-linejoin: round; stroke-linecap: butt}</style>
 </defs>
 <g id="figure_1">
  <g id="patch_1">
   <path d="M 0 457.92 
L 464.059457 457.92 
L 464.059457 0 
L 0 0 
z
" style="fill: #ffffff"/>
  </g>
  <g id="patch_2">
   <path d="M 7.2 450.72 
L 450.72 450.72 
L 450.72 7.2 
L 7.2 7.2 
z
" style="fill: #ffffff"/>
  </g>
  <g id="pane3d_1">
   <g id="patch_3">
    <path d="M 33.141415 315.654611 
L 234.953514 214.748562 
L 234.953514 29.372313 
L 33.141415 130.278362 
" style="fill: #f2f2f2; opacity: 0.5; stroke: #f2f2f2; stroke-linejoin: miter"/>
   </g>
  </g>
  <g id="pane3d_2">
   <g id="patch_4">
    <path d="M 234.953514 214.748562 
L 436.765612 315.654611 
L 436.765612 130.278362 
L 234.953514 29.372313 
" style="fill: #e6e6e6; opacity: 0.5; stroke: #e6e6e6; stroke-linejoin: miter"/>
   </g>
  </g>
  <g id="pane3d_3">
   <g id="patch_5">
    <path d="M 33.141415 315.654611 
L 234.953514 416.56066 
L 436.765612 315.654611 
L 234.953514 214.748562 
" style="fill: #ececec; opacity: 0.5; stroke: #ececec; stroke-linejoin: miter"/>
   </g>
  </g>
  <g id="grid3d_1">
   <g id="Line3DCollection_1">
    <path d="M 55.156517 326.662162 
L 256.968615 225.756112 
L 256.968615 40.379863 
" style="fill: none; stroke: #b0b0b0; stroke-width: 0.8"/>
    <path d="M 95.571961 346.869884 
L 297.384059 245.963835 
L 297.384059 60.587586 
" style="fill: none; stroke: #b0b0b0; stroke-width: 0.8"/>
    <path d="M 135.987406 367.077606 
L 337.799504 266.171557 
L 337.799504 80.795308 
" style="fill: none; stroke: #b0b0b0; stroke-width: 0.8"/>
    <path d="M 176.402851 387.285329 
L 378.214949 286.37928 
L 378.214949 101.00303 
" style="fill: none; stroke: #b0b0b0; stroke-width: 0.8"/>
    <path d="M 216.818295 407.493051 
L 418.630393 306.587002 
L 418.630393 121.210753 
" style="fill: none; stroke: #b0b0b0; stroke-width: 0.8"/>
   </g>
  </g>
  <g id="grid3d_2">
   <g id="Line3DCollection_2">
    <path d="M 55.156517 119.270811 
L 55.156517 304.64706 
L 256.968615 405.55311 
" style="fill: none; stroke: #b0b0b0; stroke-width: 0.8"/>
    <path d="M 95.571961 99.063089 
L 95.571961 284.439338 
L 297.384059 385.345387 
" style="fill: none; stroke: #b0b0b0; stroke-width: 0.8"/>
    <path d="M 135.987406 78.855367 
L 135.987406 264.231616 
L 337.799504 365.137665 
" style="fill: none; stroke: #b0b0b0; stroke-width: 0.8"/>
    <path d="M 176.402851 58.647644 
L 176.402851 244.023893 
L 378.214949 344.929943 
" style="fill: none; stroke: #b0b0b0; stroke-width: 0.8"/>
    <path d="M 216.818295 38.439922 
L 216.818295 223.816171 
L 418.630393 324.72222 
" style="fill: none; stroke: #b0b0b0; stroke-width: 0.8"/>
   </g>
  </g>
  <g id="grid3d_3">
   <g id="Line3DCollection_3">
    <path d="M 436.765612 296.323424 
L 234.953514 195.417375 
L 33.141415 296.323424 
" style="fill: none; stroke: #b0b0b0; stroke-width: 0.8"/>
    <path d="M 436.765612 259.199468 
L 234.953514 158.293419 
L 33.141415 259.199468 
" style="fill: none; stroke: #b0b0b0; stroke-width: 0.8"/>
    <path d="M 436.765612 222.075512 
L 234.953514 121.169463 
L 33.141415 222.075512 
" style="fill: none; stroke: #b0b0b0; stroke-width: 0.8"/>
    <path d="M 436.765612 184.951555 
L 234.953514 84.045506 
L 33.141415 184.951555 
" style="fill: none; stroke: #b0b0b0; stroke-width: 0.8"/>
    <path d="M 436.765612 147.827599 
L 234.953514 46.92155 
L 33.141415 147.827599 
" style="fill: none; stroke: #b0b0b0; stroke-width: 0.8"/>
   </g>
  </g>
  <g id="axis3d_1">
   <g id="line2d_1">
    <path d="M 33.141415 315.654611 
L 234.953514 416.56066 
" style="fill: none; stroke: #000000; stroke-width: 0.8; stroke-linecap: square"/>
   </g>
   <g id="xtick_1">
    <g id="line2d_2">
     <path d="M 56.771013 325.854913 
L 51.927523 328.276658 
" style="fill: none; stroke: #000000; stroke-width: 0.8; stroke-linecap: square"/>
    </g>
   </g>
   <g id="xtick_2">
    <g id="line2d_3">
     <path d="M 97.186458 346.062635 
L 92.342968 348.484381 
" style="fill: none; stroke: #000000; stroke-width: 0.8; stroke-linecap: square"/>
    </g>
   </g>
   <g id="xtick_3">
    <g id="line2d_4">
     <path d="M 137.601903 366.270358 
L 132.758412 368.692103 
" style="fill: none; stroke: #000000; stroke-width: 0.8; stroke-linecap: square"/>
    </g>
   </g>
   <g id="xtick_4">
    <g id="line2d_5">
     <path d="M 178.017347 386.47808 
L 173.173857 388.899825 
" style="fill: none; stroke: #000000; stroke-width: 0.8; stroke-linecap: square"/>
    </g>
   </g>
   <g id="xtick_5">
    <g id="line2d_6">
     <path d="M 218.432792 406.685802 
L 213.589302 409.107548 
" style="fill: none; stroke: #000000; stroke-width: 0.8; stroke-linecap: square"/>
    </g>
   </g>
  </g>
  <g id="axis3d_2">
   <g id="line2d_7">
    <path d="M 436.765612 315.654611 
L 234.953514 416.56066 
" style="fill: none; stroke: #000000; stroke-width: 0.8; stroke-linecap: square"/>
   </g>
   <g id="xtick_6">
    <g id="line2d_8">
     <path d="M 255.354118 404.745861 
L 260.197608 407.167606 
" style="fill: none; stroke: #000000; stroke-width: 0.8; stroke-linecap: square"/>
    </g>
   </g>
   <g id="xtick_7">
    <g id="line2d_9">
     <path d="M 295.769562 384.538139 
L 300.613053 386.959884 
" style="fill: none; stroke: #000000; stroke-width: 0.8; stroke-linecap: square"/>
    </g>
   </g>
   <g id="xtick_8">
    <g id="line2d_10">
     <path d="M 336.185007 364.330416 
L 341.028497 366.752162 
" style="fill: none; stroke: #000000; stroke-width: 0.8; stroke-linecap: square"/>
    </g>
   </g>
   <g id="xtick_9">
    <g id="line2d_11">
     <path d="M 376.600452 344.122694 
L 381.443942 346.544439 
" style="fill: none; stroke: #000000; stroke-width: 0.8; stroke-linecap: square"/>
    </g>
   </g>
   <g id="xtick_10">
    <g id="line2d_12">
     <path d="M 417.015896 323.914972 
L 421.859387 326.336717 
" style="fill: none; stroke: #000000; stroke-width: 0.8; stroke-linecap: square"/>
    </g>
   </g>
  </g>
  <g id="axis3d_3">
   <g id="line2d_13">
    <path d="M 436.765612 315.654611 
L 436.765612 130.278362 
" style="fill: none; stroke: #000000; stroke-width: 0.8; stroke-linecap: square"/>
   </g>
   <g id="xtick_11">
    <g id="line2d_14">
     <path d="M 435.151115 295.516176 
L 439.994605 297.937921 
" style="fill: none; stroke: #000000; stroke-width: 0.8; stroke-linecap: square"/>
    </g>
   </g>
   <g id="xtick_12">
    <g id="line2d_15">
     <path d="M 435.151115 258.39222 
L 439.994605 260.813965 
" style="fill: none; stroke: #000000; stroke-width: 0.8; stroke-linecap: square"/>
    </g>
   </g>
   <g id="xtick_13">
    <g id="line2d_16">
     <path d="M 435.151115 221.268263 
L 439.994605 223.690008 
" style="fill: none; stroke: #000000; stroke-width: 0.8; stroke-linecap: square"/>
    </g>
   </g>
   <g id="xtick_14">
    <g id="line2d_17">
     <path d="M 435.151115 184.144307 
L 439.994605 186.566052 
" style="fill: none; stroke: #000000; stroke-width: 0.8; stroke-linecap: square"/>
    </g>
   </g>
   <g id="xtick_15">
    <g id="line2d_18">
     <path d="M 435.151115 147.02035 
L 439.994605 149.442095 
" style="fill: none; stroke: #000000; stroke-width: 0.8; stroke-linecap: square"/>
    </g>
   </g>
  </g>
  <g id="axes_1">
   <g id="Path3DCollection_1">
    <defs>
     <path id="C0_0_1afbe84aa6" d="M 0 2.738613 
C 0.726289 2.738613 1.422928 2.450055 1.936492 1.936492 
C 2.450055 1.422928 2.738613 0.726289 2.738613 -0 
C 2.738613 -0.726289 2.450055 -1.422928 1.936492 -1.936492 
C 1.422928 -2.450055 0.726289 -2.738613 0 -2.738613 
C -0.726289 -2.738613 -1.422928 -2.450055 -1.936492 -1.936492 
C -2.450055 -1.422928 -2.738613 -0.726289 -2.738613 0 
C -2.738613 0.726289 -2.450055 1.422928 -1.936492 1.936492 
C -1.422928 2.450055 -0.726289 2.738613 0 2.738613 
z
"/>
    </defs>
    <g clip-path="url(#pf2a0ee49f7)">
     <use xlink:href="#C0_0_1afbe84aa6" x="158.814898" y="271.163758" style="fill: #c62828; fill-opacity: 0.3; stroke: #c62828; stroke-opacity: 0.3"/>
    </g>
    <g clip-path="url(#pf2a0ee49f7)">
     <use xlink:href="#C0_0_1afbe84aa6" x="304.310499" y="271.163758" style="fill: #c62828; fill-opacity: 0.3; stroke: #c62828; stroke-opacity: 0.3"/>
    </g>
    <g clip-path="url(#pf2a0ee49f7)">
     <use xlink:href="#C0_0_1afbe84aa6" x="318.851894" y="278.434456" style="fill: #c62828; fill-opacity: 0.3; stroke: #c62828; stroke-opacity: 0.3"/>
    </g>
   </g>
   <g id="text_1">
    <!-- a -->
    <g style="fill: #e53935" transform="translate(130.685749 335.508816) scale(0.14 -0.14)">
     <defs>
      <path id="DejaVuSans-Bold-61" d="M 2106 1575 
Q 1756 1575 1579 1456 
Q 1403 1338 1403 1106 
Q 1403 894 1545 773 
Q 1688 653 1941 653 
Q 2256 653 2472 879 
Q 2688 1106 2688 1447 
L 2688 1575 
L 2106 1575 
z
M 3816 1997 
L 3816 0 
L 2688 0 
L 2688 519 
Q 2463 200 2181 54 
Q 1900 -91 1497 -91 
Q 953 -91 614 226 
Q 275 544 275 1050 
Q 275 1666 698 1953 
Q 1122 2241 2028 2241 
L 2688 2241 
L 2688 2328 
Q 2688 2594 2478 2717 
Q 2269 2841 1825 2841 
Q 1466 2841 1156 2769 
Q 847 2697 581 2553 
L 581 3406 
Q 941 3494 1303 3539 
Q 1666 3584 2028 3584 
Q 2975 3584 3395 3211 
Q 3816 2838 3816 1997 
z
" transform="scale(0.015625)"/>
     </defs>
     <use xlink:href="#DejaVuSans-Bold-61"/>
    </g>
   </g>
   <g id="text_2">
    <!-- b -->
    <g style="fill: #43a047" transform="translate(130.685749 283.1304) scale(0.14 -0.14)">
     <defs>
      <path id="DejaVuSans-Bold-62" d="M 2400 722 
Q 2759 722 2948 984 
Q 3138 1247 3138 1747 
Q 3138 2247 2948 2509 
Q 2759 2772 2400 2772 
Q 2041 2772 1848 2508 
Q 1656 2244 1656 1747 
Q 1656 1250 1848 986 
Q 2041 722 2400 722 
z
M 1656 2988 
Q 1888 3294 2169 3439 
Q 2450 3584 2816 3584 
Q 3463 3584 3878 3070 
Q 4294 2556 4294 1747 
Q 4294 938 3878 423 
Q 3463 -91 2816 -91 
Q 2450 -91 2169 54 
Q 1888 200 1656 506 
L 1656 0 
L 538 0 
L 538 4863 
L 1656 4863 
L 1656 2988 
z
" transform="scale(0.015625)"/>
     </defs>
     <use xlink:href="#DejaVuSans-Bold-62"/>
    </g>
   </g>
   <g id="text_3">
    <!-- c -->
    <g style="fill: #1e88e5" transform="translate(78.307332 261.206961) scale(0.14 -0.14)">
     <defs>
      <path id="DejaVuSans-Bold-63" d="M 3366 3391 
L 3366 2478 
Q 3138 2634 2908 2709 
Q 2678 2784 2431 2784 
Q 1963 2784 1702 2511 
Q 1441 2238 1441 1747 
Q 1441 1256 1702 982 
Q 1963 709 2431 709 
Q 2694 709 2930 787 
Q 3166 866 3366 1019 
L 3366 103 
Q 3103 6 2833 -42 
Q 2563 -91 2291 -91 
Q 1344 -91 809 395 
Q 275 881 275 1747 
Q 275 2613 809 3098 
Q 1344 3584 2291 3584 
Q 2566 3584 2833 3536 
Q 3100 3488 3366 3391 
z
" transform="scale(0.015625)"/>
     </defs>
     <use xlink:href="#DejaVuSans-Bold-63"/>
    </g>
   </g>
   <g id="Line3DCollection_4">
    <path d="M 126.805866 285.070341 
L 78.307332 309.319608 
" clip-path="url(#pf2a0ee49f7)" style="fill: none; stroke: #43a047; stroke-width: 2"/>
    <path d="M 126.805866 285.070341 
L 122.121267 288.565647 
" clip-path="url(#pf2a0ee49f7)" style="fill: none; stroke: #43a047; stroke-width: 2"/>
    <path d="M 126.805866 285.070341 
L 122.121267 286.259634 
" clip-path="url(#pf2a0ee49f7)" style="fill: none; stroke: #43a047; stroke-width: 2"/>
   </g>
   <g id="Line3DCollection_5">
    <path d="M 78.307332 264.77086 
L 78.307332 309.319608 
" clip-path="url(#pf2a0ee49f7)" style="fill: none; stroke: #1e88e5; stroke-width: 2"/>
    <path d="M 78.307332 264.77086 
L 77.052098 268.446322 
" clip-path="url(#pf2a0ee49f7)" style="fill: none; stroke: #1e88e5; stroke-width: 2"/>
    <path d="M 78.307332 264.77086 
L 79.562567 269.701556 
" clip-path="url(#pf2a0ee49f7)" style="fill: none; stroke: #1e88e5; stroke-width: 2"/>
   </g>
   <g id="Line3DCollection_6">
    <path d="M 126.805866 333.568875 
L 78.307332 309.319608 
" clip-path="url(#pf2a0ee49f7)" style="fill: none; stroke: #e53935; stroke-width: 2"/>
    <path d="M 126.805866 333.568875 
L 122.121267 332.379582 
" clip-path="url(#pf2a0ee49f7)" style="fill: none; stroke: #e53935; stroke-width: 2"/>
    <path d="M 126.805866 333.568875 
L 122.121267 330.073569 
" clip-path="url(#pf2a0ee49f7)" style="fill: none; stroke: #e53935; stroke-width: 2"/>
   </g>
   <g id="Poly3DCollection_1">
    <path d="M 158.814898 92.968767 
L 304.310499 92.968767 
L 304.310499 271.163758 
L 158.814898 271.163758 
z
" clip-path="url(#pf2a0ee49f7)" style="fill: #ef9a9a; fill-opacity: 0.7; stroke: #c62828; stroke-opacity: 0.7; stroke-width: 1.5"/>
    <path d="M 318.851894 100.239465 
L 318.851894 278.434456 
L 304.310499 271.163758 
L 304.310499 92.968767 
z
" clip-path="url(#pf2a0ee49f7)" style="fill: #ef9a9a; fill-opacity: 0.7; stroke: #c62828; stroke-opacity: 0.7; stroke-width: 1.5"/>
    <path d="M 318.851894 278.434456 
L 318.851894 351.182256 
L 173.356293 351.182256 
L 158.814898 343.911558 
L 158.814898 271.163758 
L 304.310499 271.163758 
z
" clip-path="url(#pf2a0ee49f7)" style="fill: #ef9a9a; fill-opacity: 0.7; stroke: #c62828; stroke-opacity: 0.7; stroke-width: 1.5"/>
    <path d="M 158.814898 271.163758 
L 158.814898 343.911558 
L 158.814898 165.716568 
L 158.814898 92.968767 
z
" clip-path="url(#pf2a0ee49f7)" style="fill: #ef9a9a; fill-opacity: 0.7; stroke: #c62828; stroke-opacity: 0.7; stroke-width: 1.5"/>
    <path d="M 318.851894 351.182256 
L 318.851894 278.434456 
L 318.851894 100.239465 
L 318.851894 172.987265 
z
" clip-path="url(#pf2a0ee49f7)" style="fill: #ef9a9a; fill-opacity: 0.7; stroke: #c62828; stroke-opacity: 0.7; stroke-width: 1.5"/>
    <path d="M 158.814898 92.968767 
L 158.814898 165.716568 
L 173.356293 172.987265 
L 318.851894 172.987265 
L 318.851894 100.239465 
L 304.310499 92.968767 
z
" clip-path="url(#pf2a0ee49f7)" style="fill: #ef9a9a; fill-opacity: 0.7; stroke: #c62828; stroke-opacity: 0.7; stroke-width: 1.5"/>
    <path d="M 158.814898 165.716568 
L 158.814898 343.911558 
L 173.356293 351.182256 
L 173.356293 172.987265 
z
" clip-path="url(#pf2a0ee49f7)" style="fill: #ef9a9a; fill-opacity: 0.7; stroke: #c62828; stroke-opacity: 0.7; stroke-width: 1.5"/>
    <path d="M 318.851894 172.987265 
L 173.356293 172.987265 
L 173.356293 351.182256 
L 318.851894 351.182256 
z
" clip-path="url(#pf2a0ee49f7)" style="fill: #ef9a9a; fill-opacity: 0.7; stroke: #c62828; stroke-opacity: 0.7; stroke-width: 1.5"/>
   </g>
   <g id="Path3DCollection_2">
    <defs>
     <path id="C1_0_a76f9e7a6b" d="M 0 2.738613 
C 0.726289 2.738613 1.422928 2.450055 1.936492 1.936492 
C 2.450055 1.422928 2.738613 0.726289 2.738613 -0 
C 2.738613 -0.726289 2.450055 -1.422928 1.936492 -1.936492 
C 1.422928 -2.450055 0.726289 -2.738613 0 -2.738613 
C -0.726289 -2.738613 -1.422928 -2.450055 -1.936492 -1.936492 
C -2.450055 -1.422928 -2.738613 -0.726289 -2.738613 0 
C -2.738613 0.726289 -2.450055 1.422928 -1.936492 1.936492 
C -1.422928 2.450055 -0.726289 2.738613 0 2.738613 
z
"/>
    </defs>
    <g clip-path="url(#pf2a0ee49f7)">
     <use xlink:href="#C1_0_a76f9e7a6b" x="158.814898" y="92.968767" style="fill: #c62828; fill-opacity: 0.9; stroke: #c62828; stroke-opacity: 0.9"/>
    </g>
    <g clip-path="url(#pf2a0ee49f7)">
     <use xlink:href="#C1_0_a76f9e7a6b" x="304.310499" y="92.968767" style="fill: #c62828; fill-opacity: 0.9; stroke: #c62828; stroke-opacity: 0.9"/>
    </g>
    <g clip-path="url(#pf2a0ee49f7)">
     <use xlink:href="#C1_0_a76f9e7a6b" x="318.851894" y="100.239465" style="fill: #c62828; fill-opacity: 0.9; stroke: #c62828; stroke-opacity: 0.9"/>
    </g>
    <g clip-path="url(#pf2a0ee49f7)">
     <use xlink:href="#C1_0_a76f9e7a6b" x="158.814898" y="343.911558" style="fill: #c62828; fill-opacity: 0.9; stroke: #c62828; stroke-opacity: 0.9"/>
    </g>
    <g clip-path="url(#pf2a0ee49f7)">
     <use xlink:href="#C1_0_a76f9e7a6b" x="318.851894" y="351.182256" style="fill: #c62828; fill-opacity: 0.9; stroke: #c62828; stroke-opacity: 0.9"/>
    </g>
    <g clip-path="url(#pf2a0ee49f7)">
     <use xlink:href="#C1_0_a76f9e7a6b" x="173.356293" y="351.182256" style="fill: #c62828; fill-opacity: 0.9; stroke: #c62828; stroke-opacity: 0.9"/>
    </g>
    <g clip-path="url(#pf2a0ee49f7)">
     <use xlink:href="#C1_0_a76f9e7a6b" x="158.814898" y="165.716568" style="fill: #c62828; fill-opacity: 0.9; stroke: #c62828; stroke-opacity: 0.9"/>
    </g>
    <g clip-path="url(#pf2a0ee49f7)">
     <use xlink:href="#C1_0_a76f9e7a6b" x="318.851894" y="172.987265" style="fill: #c62828; fill-opacity: 0.9; stroke: #c62828; stroke-opacity: 0.9"/>
    </g>
    <g clip-path="url(#pf2a0ee49f7)">
     <use xlink:href="#C1_0_a76f9e7a6b" x="173.356293" y="172.987265" style="fill: #c62828; fill-opacity: 0.9; stroke: #c62828; stroke-opacity: 0.9"/>
    </g>
   </g>
  </g>
 </g>
 <defs>
  <clipPath id="pf2a0ee49f7">
   <rect x="7.2" y="7.2" width="443.52" height="443.52"/>
  </clipPath>
 </defs>
</svg>
