<?xml version="1.0" encoding="utf-8" standalone="no"?>
<!DOCTYPE svg PUBLIC "-//W3C//DTD SVG 1.1//EN"
  "http://www.w3.org/Graphics/SVG/1.1/DTD/svg11.dtd">
<svg xmlns:xlink="http://www.w3.org/1999/xlink" width="424.8pt" height="424.8pt" viewBox="0 0 424.8 424.8" xmlns="http://www.w3.org/2000/svg" version="1.1">
 <metadata>
  <rdf:RDF xmlns:dc="http://purl.org/dc/elements/1.1/" xmlns:cc="http://creativecommons.org/ns#" xmlns:rdf="http://www.w3.org/1999/02/22-rdf-syntax-ns#">
   <cc:Work>
    <dc:type rdf:resource="http://purl.org/dc/dcmitype/StillImage"/>
    <dc:date>2026-01-27T08:32:34.158283</dc:date>
    <dc:format>image/svg+xml</dc:format>
    <dc:creator>
     <cc:Agent>
      <dc:title>Matplotlib v3.10.8, https://matplotlib.org/</dc:title>
     </cc:Agent>
    </dc:creator>
   </cc:Work>
  </rdf:RDF>
 </metadata>
 <defs>
  <style type="text/css">*{stroke-linejoin: round; stroke-linecap: butt}</style>
 </defs>
 <g id="figure_1">
  <g id="patch_1">
   <path d="M 0 424.8 
L 424.8 424.8 
L 424.8 0 
L 0 0 
z
" style="fill: #ffffff"/>
  </g>
  <g id="patch_2">
   <path d="M 7.2 417.6 
L 417.6 417.6 
L 417.6 7.2 
L 7.2 7.2 
z
" style="fill: #ffffff"/>
  </g>
  <g id="axes_1">
   <g id="Path3DCollection_1">
    <defs>
     <path id="C0_0_1016b61184" d="M 0 2.738613 
C 0.726289 2.738613 1.422928 2.450055 1.936492 1.936492 
C 2.450055 1.422928 2.738613 0.726289 2.738613 -0 
C 2.738613 -0.726289 2.450055 -1.422928 1.936492 -1.936492 
C 1.422928 -2.450055 0.726289 -2.738613 0 -2.738613 
C -0.726289 -2.738613 -1.422928 -2.450055 -1.936492 -1.936492 
C -2.450055 -1.422928 -2.738613 -0.726289 -2.738613 0 
C -2.738613 0.726289 -2.450055 1.422928 -1.936492 1.936492 
C -1.422928 2.450055 -0.726289 2.738613 0 2.738613 
z
"/>
    </defs>
    <g clip-path="url(#p64127cd9df)">
     <use xlink:href="#C0_0_1016b61184" x="202.408784" y="215.566061" style="fill: #0369a1; fill-opacity: 0.3; stroke: #0369a1; stroke-opacity: 0.3"/>
    </g>
    <g clip-path="url(#p64127cd9df)">
     <use xlink:href="#C0_0_1016b61184" x="235.886715" y="177.313441" style="fill: #0369a1; fill-opacity: 0.3; stroke: #0369a1; stroke-opacity: 0.3"/>
    </g>
    <g clip-path="url(#p64127cd9df)">
     <use xlink:href="#C0_0_1016b61184" x="235.886715" y="169.438806" style="fill: #0369a1; fill-opacity: 0.3; stroke: #0369a1; stroke-opacity: 0.3"/>
    </g>
    <g clip-path="url(#p64127cd9df)">
     <use xlink:href="#C0_0_1016b61184" x="168.930853" y="186.283825" style="fill: #0369a1; fill-opacity: 0.3; stroke: #0369a1; stroke-opacity: 0.3"/>
    </g>
    <g clip-path="url(#p64127cd9df)">
     <use xlink:href="#C0_0_1016b61184" x="168.930853" y="178.40919" style="fill: #0369a1; fill-opacity: 0.3; stroke: #0369a1; stroke-opacity: 0.3"/>
    </g>
   </g>
   <g id="Poly3DCollection_1">
    <path d="M 168.930853 186.283825 
L 168.930853 178.40919 
L 235.886715 169.438806 
L 235.886715 177.313441 
L 202.408784 215.566061 
z
" clip-path="url(#p64127cd9df)" style="fill: #0ea5e9; fill-opacity: 0.7; stroke: #0369a1; stroke-opacity: 0.7; stroke-width: 1.5"/>
    <path d="M 202.408784 215.566061 
L 235.886715 177.313441 
L 284.901808 201.820987 
L 275.931423 252.327381 
L 217.945946 278.326228 
z
" clip-path="url(#p64127cd9df)" style="fill: #0ea5e9; fill-opacity: 0.7; stroke: #0369a1; stroke-opacity: 0.7; stroke-width: 1.5"/>
    <path d="M 260.394261 147.925151 
L 284.901808 193.946352 
L 284.901808 201.820987 
L 235.886715 177.313441 
L 235.886715 169.438806 
z
" clip-path="url(#p64127cd9df)" style="fill: #0ea5e9; fill-opacity: 0.7; stroke: #0369a1; stroke-opacity: 0.7; stroke-width: 1.5"/>
    <path d="M 217.945946 278.326228 
L 175.49763 265.782958 
L 150.990084 219.761756 
L 168.930853 186.283825 
L 202.408784 215.566061 
z
" clip-path="url(#p64127cd9df)" style="fill: #0ea5e9; fill-opacity: 0.7; stroke: #0369a1; stroke-opacity: 0.7; stroke-width: 1.5"/>
    <path d="M 217.945946 135.38188 
L 260.394261 147.925151 
L 235.886715 169.438806 
L 168.930853 178.40919 
L 159.960469 161.380727 
z
" clip-path="url(#p64127cd9df)" style="fill: #0ea5e9; fill-opacity: 0.7; stroke: #0369a1; stroke-opacity: 0.7; stroke-width: 1.5"/>
    <path d="M 168.930853 178.40919 
L 168.930853 186.283825 
L 150.990084 219.761756 
L 150.990084 211.887121 
L 159.960469 161.380727 
z
" clip-path="url(#p64127cd9df)" style="fill: #0ea5e9; fill-opacity: 0.7; stroke: #0369a1; stroke-opacity: 0.7; stroke-width: 1.5"/>
    <path d="M 275.931423 252.327381 
L 284.901808 201.820987 
L 284.901808 193.946352 
L 266.961039 227.424283 
L 266.961039 235.298918 
z
" clip-path="url(#p64127cd9df)" style="fill: #0ea5e9; fill-opacity: 0.7; stroke: #0369a1; stroke-opacity: 0.7; stroke-width: 1.5"/>
    <path d="M 275.931423 252.327381 
L 266.961039 235.298918 
L 200.005177 244.269303 
L 175.49763 265.782958 
L 217.945946 278.326228 
z
" clip-path="url(#p64127cd9df)" style="fill: #0ea5e9; fill-opacity: 0.7; stroke: #0369a1; stroke-opacity: 0.7; stroke-width: 1.5"/>
    <path d="M 233.483108 198.142047 
L 266.961039 227.424283 
L 284.901808 193.946352 
L 260.394261 147.925151 
L 217.945946 135.38188 
z
" clip-path="url(#p64127cd9df)" style="fill: #0ea5e9; fill-opacity: 0.7; stroke: #0369a1; stroke-opacity: 0.7; stroke-width: 1.5"/>
    <path d="M 200.005177 244.269303 
L 200.005177 236.394667 
L 150.990084 211.887121 
L 150.990084 219.761756 
L 175.49763 265.782958 
z
" clip-path="url(#p64127cd9df)" style="fill: #0ea5e9; fill-opacity: 0.7; stroke: #0369a1; stroke-opacity: 0.7; stroke-width: 1.5"/>
    <path d="M 217.945946 135.38188 
L 159.960469 161.380727 
L 150.990084 211.887121 
L 200.005177 236.394667 
L 233.483108 198.142047 
z
" clip-path="url(#p64127cd9df)" style="fill: #0ea5e9; fill-opacity: 0.7; stroke: #0369a1; stroke-opacity: 0.7; stroke-width: 1.5"/>
    <path d="M 233.483108 198.142047 
L 200.005177 236.394667 
L 200.005177 244.269303 
L 266.961039 235.298918 
L 266.961039 227.424283 
z
" clip-path="url(#p64127cd9df)" style="fill: #0ea5e9; fill-opacity: 0.7; stroke: #0369a1; stroke-opacity: 0.7; stroke-width: 1.5"/>
   </g>
   <g id="Path3DCollection_2">
    <defs>
     <path id="C1_0_fc5f7980c5" d="M 0 2.738613 
C 0.726289 2.738613 1.422928 2.450055 1.936492 1.936492 
C 2.450055 1.422928 2.738613 0.726289 2.738613 -0 
C 2.738613 -0.726289 2.450055 -1.422928 1.936492 -1.936492 
C 1.422928 -2.450055 0.726289 -2.738613 0 -2.738613 
C -0.726289 -2.738613 -1.422928 -2.450055 -1.936492 -1.936492 
C -2.450055 -1.422928 -2.738613 -0.726289 -2.738613 0 
C -2.738613 0.726289 -2.450055 1.422928 -1.936492 1.936492 
C -1.422928 2.450055 -0.726289 2.738613 0 2.738613 
z
"/>
    </defs>
    <g clip-path="url(#p64127cd9df)">
     <use xlink:href="#C1_0_fc5f7980c5" x="217.945946" y="278.326228" style="fill: #0369a1; fill-opacity: 0.9; stroke: #0369a1; stroke-opacity: 0.9"/>
    </g>
    <g clip-path="url(#p64127cd9df)">
     <use xlink:href="#C1_0_fc5f7980c5" x="284.901808" y="201.820987" style="fill: #0369a1; fill-opacity: 0.9; stroke: #0369a1; stroke-opacity: 0.9"/>
    </g>
    <g clip-path="url(#p64127cd9df)">
     <use xlink:href="#C1_0_fc5f7980c5" x="260.394261" y="147.925151" style="fill: #0369a1; fill-opacity: 0.9; stroke: #0369a1; stroke-opacity: 0.9"/>
    </g>
    <g clip-path="url(#p64127cd9df)">
     <use xlink:href="#C1_0_fc5f7980c5" x="284.901808" y="193.946352" style="fill: #0369a1; fill-opacity: 0.9; stroke: #0369a1; stroke-opacity: 0.9"/>
    </g>
    <g clip-path="url(#p64127cd9df)">
     <use xlink:href="#C1_0_fc5f7980c5" x="275.931423" y="252.327381" style="fill: #0369a1; fill-opacity: 0.9; stroke: #0369a1; stroke-opacity: 0.9"/>
    </g>
    <g clip-path="url(#p64127cd9df)">
     <use xlink:href="#C1_0_fc5f7980c5" x="159.960469" y="161.380727" style="fill: #0369a1; fill-opacity: 0.9; stroke: #0369a1; stroke-opacity: 0.9"/>
    </g>
    <g clip-path="url(#p64127cd9df)">
     <use xlink:href="#C1_0_fc5f7980c5" x="150.990084" y="219.761756" style="fill: #0369a1; fill-opacity: 0.9; stroke: #0369a1; stroke-opacity: 0.9"/>
    </g>
    <g clip-path="url(#p64127cd9df)">
     <use xlink:href="#C1_0_fc5f7980c5" x="175.49763" y="265.782958" style="fill: #0369a1; fill-opacity: 0.9; stroke: #0369a1; stroke-opacity: 0.9"/>
    </g>
    <g clip-path="url(#p64127cd9df)">
     <use xlink:href="#C1_0_fc5f7980c5" x="150.990084" y="211.887121" style="fill: #0369a1; fill-opacity: 0.9; stroke: #0369a1; stroke-opacity: 0.9"/>
    </g>
    <g clip-path="url(#p64127cd9df)">
     <use xlink:href="#C1_0_fc5f7980c5" x="266.961039" y="235.298918" style="fill: #0369a1; fill-opacity: 0.9; stroke: #0369a1; stroke-opacity: 0.9"/>
    </g>
    <g clip-path="url(#p64127cd9df)">
     <use xlink:href="#C1_0_fc5f7980c5" x="217.945946" y="135.38188" style="fill: #0369a1; fill-opacity: 0.9; stroke: #0369a1; stroke-opacity: 0.9"/>
    </g>
    <g clip-path="url(#p64127cd9df)">
     <use xlink:href="#C1_0_fc5f7980c5" x="266.961039" y="227.424283" style="fill: #0369a1; fill-opacity: 0.9; stroke: #0369a1; stroke-opacity: 0.9"/>
    </g>
    <g clip-path="url(#p64127cd9df)">
     <use xlink:href="#C1_0_fc5f7980c5" x="200.005177" y="244.269303" style="fill: #0369a1; fill-opacity: 0.9; stroke: #0369a1; stroke-opacity: 0.9"/>
    </g>
    <g clip-path="url(#p64127cd9df)">
     <use xlink:href="#C1_0_fc5f7980c5" x="200.005177" y="236.394667" style="fill: #0369a1; fill-opacity: 0.9; stroke: #0369a1; stroke-opacity: 0.9"/>
    </g>
    <g clip-path="url(#p64127cd9df)">
     <use xlink:href="#C1_0_fc5f7980c5" x="233.483108" y="198.142047" style="fill: #0369a1; fill-opacity: 0.9; stroke: #0369a1; stroke-opacity: 0.9"/>
    </g>
   </g>
  </g>
 </g>
 <defs>
  <clipPath id="p64127cd9df">
   <rect x="7.2" y="7.2" width="410.4" height="410.4"/>
  </clipPath>
 </defs>
</svg>
