<?xml version="1.0" encoding="utf-8" standalone="no"?>
<!DOCTYPE svg PUBLIC "-//W3C//DTD SVG 1.1//EN"
  "http://www.w3.org/Graphics/SVG/1.1/DTD/svg11.dtd">
<svg xmlns:xlink="http://www.w3.org/1999/xlink" width="424.8pt" height="424.8pt" viewBox="0 0 424.8 424.8" xmlns="http://www.w3.org/2000/svg" version="1.1">
 <metadata>
  <rdf:RDF xmlns:dc="http://purl.org/dc/elements/1.1/" xmlns:cc="http://creativecommons.org/ns#" xmlns:rdf="http://www.w3.org/1999/02/22-rdf-syntax-ns#">
   <cc:Work>
    <dc:type rdf:resource="http://purl.org/dc/dcmitype/StillImage"/>
    <dc:date>2026-01-27T08:32:34.128610</dc:date>
    <dc:format>image/svg+xml</dc:format>
    <dc:creator>
     <cc:Agent>
      <dc:title>Matplotlib v3.10.8, https://matplotlib.org/</dc:title>
     </cc:Agent>
    </dc:creator>
   </cc:Work>
  </rdf:RDF>
 </metadata>
 <defs>
  <style type="text/css">*{stroke-linejoin: round; stroke-linecap: butt}</style>
 </defs>
 <g id="figure_1">
  <g id="patch_1">
   <path d="M 0 424.8 
L 424.8 424.8 
L 424.8 0 
L 0 0 
z
" style="fill: #ffffff"/>
  </g>
  <g id="patch_2">
   <path d="M 7.2 417.6 
L 417.6 417.6 
L 417.6 7.2 
L 7.2 7.2 
z
" style="fill: #ffffff"/>
  </g>
  <g id="axes_1">
   <g id="Path3DCollection_1">
    <defs>
     <path id="C0_0_03cef3ea43" d="M 0 2.738613 
C 0.726289 2.738613 1.422928 2.450055 1.936492 1.936492 
C 2.450055 1.422928 2.738613 0.726289 2.738613 -0 
C 2.738613 -0.726289 2.450055 -1.422928 1.936492 -1.936492 
C 1.422928 -2.450055 0.726289 -2.738613 0 -2.738613 
C -0.726289 -2.738613 -1.422928 -2.450055 -1.936492 -1.936492 
C -2.450055 -1.422928 -2.738613 -0.726289 -2.738613 0 
C -2.738613 0.726289 -2.450055 1.422928 -1.936492 1.936492 
C -1.422928 2.450055 -0.726289 2.738613 0 2.738613 
z
"/>
    </defs>
    <g clip-path="url(#pf47db319fe)">
     <use xlink:href="#C0_0_03cef3ea43" x="208.623649" y="227.163157" style="fill: #0369a1; fill-opacity: 0.3; stroke: #0369a1; stroke-opacity: 0.3"/>
    </g>
    <g clip-path="url(#pf47db319fe)">
     <use xlink:href="#C0_0_03cef3ea43" x="228.710407" y="190.704613" style="fill: #0369a1; fill-opacity: 0.3; stroke: #0369a1; stroke-opacity: 0.3"/>
    </g>
    <g clip-path="url(#pf47db319fe)">
     <use xlink:href="#C0_0_03cef3ea43" x="228.710407" y="182.829978" style="fill: #0369a1; fill-opacity: 0.3; stroke: #0369a1; stroke-opacity: 0.3"/>
    </g>
    <g clip-path="url(#pf47db319fe)">
     <use xlink:href="#C0_0_03cef3ea43" x="188.53689" y="196.086844" style="fill: #0369a1; fill-opacity: 0.3; stroke: #0369a1; stroke-opacity: 0.3"/>
    </g>
    <g clip-path="url(#pf47db319fe)">
     <use xlink:href="#C0_0_03cef3ea43" x="188.53689" y="188.212209" style="fill: #0369a1; fill-opacity: 0.3; stroke: #0369a1; stroke-opacity: 0.3"/>
    </g>
   </g>
   <g id="Poly3DCollection_1">
    <path d="M 188.53689 196.086844 
L 188.53689 188.212209 
L 228.710407 182.829978 
L 228.710407 190.704613 
L 208.623649 227.163157 
z
" clip-path="url(#pf47db319fe)" style="fill: #0ea5e9; fill-opacity: 0.7; stroke: #0369a1; stroke-opacity: 0.7; stroke-width: 1.5"/>
    <path d="M 208.623649 227.163157 
L 228.710407 190.704613 
L 258.119463 205.409141 
L 252.737232 249.219948 
L 217.945946 278.326228 
z
" clip-path="url(#pf47db319fe)" style="fill: #0ea5e9; fill-opacity: 0.7; stroke: #0369a1; stroke-opacity: 0.7; stroke-width: 1.5"/>
    <path d="M 217.945946 278.326228 
L 192.476957 257.293294 
L 177.772429 216.173602 
L 188.53689 196.086844 
L 208.623649 227.163157 
z
" clip-path="url(#pf47db319fe)" style="fill: #0ea5e9; fill-opacity: 0.7; stroke: #0369a1; stroke-opacity: 0.7; stroke-width: 1.5"/>
    <path d="M 243.414935 156.414814 
L 258.119463 197.534506 
L 258.119463 205.409141 
L 228.710407 190.704613 
L 228.710407 182.829978 
z
" clip-path="url(#pf47db319fe)" style="fill: #0ea5e9; fill-opacity: 0.7; stroke: #0369a1; stroke-opacity: 0.7; stroke-width: 1.5"/>
    <path d="M 188.53689 188.212209 
L 188.53689 196.086844 
L 177.772429 216.173602 
L 177.772429 208.298967 
L 183.15466 164.48816 
z
" clip-path="url(#pf47db319fe)" style="fill: #0ea5e9; fill-opacity: 0.7; stroke: #0369a1; stroke-opacity: 0.7; stroke-width: 1.5"/>
    <path d="M 217.945946 135.38188 
L 243.414935 156.414814 
L 228.710407 182.829978 
L 188.53689 188.212209 
L 183.15466 164.48816 
z
" clip-path="url(#pf47db319fe)" style="fill: #0ea5e9; fill-opacity: 0.7; stroke: #0369a1; stroke-opacity: 0.7; stroke-width: 1.5"/>
    <path d="M 252.737232 249.219948 
L 247.355002 225.495899 
L 207.181484 230.87813 
L 192.476957 257.293294 
L 217.945946 278.326228 
z
" clip-path="url(#pf47db319fe)" style="fill: #0ea5e9; fill-opacity: 0.7; stroke: #0369a1; stroke-opacity: 0.7; stroke-width: 1.5"/>
    <path d="M 252.737232 249.219948 
L 258.119463 205.409141 
L 258.119463 197.534506 
L 247.355002 217.621264 
L 247.355002 225.495899 
z
" clip-path="url(#pf47db319fe)" style="fill: #0ea5e9; fill-opacity: 0.7; stroke: #0369a1; stroke-opacity: 0.7; stroke-width: 1.5"/>
    <path d="M 207.181484 230.87813 
L 207.181484 223.003495 
L 177.772429 208.298967 
L 177.772429 216.173602 
L 192.476957 257.293294 
z
" clip-path="url(#pf47db319fe)" style="fill: #0ea5e9; fill-opacity: 0.7; stroke: #0369a1; stroke-opacity: 0.7; stroke-width: 1.5"/>
    <path d="M 227.268243 186.544952 
L 247.355002 217.621264 
L 258.119463 197.534506 
L 243.414935 156.414814 
L 217.945946 135.38188 
z
" clip-path="url(#pf47db319fe)" style="fill: #0ea5e9; fill-opacity: 0.7; stroke: #0369a1; stroke-opacity: 0.7; stroke-width: 1.5"/>
    <path d="M 217.945946 135.38188 
L 183.15466 164.48816 
L 177.772429 208.298967 
L 207.181484 223.003495 
L 227.268243 186.544952 
z
" clip-path="url(#pf47db319fe)" style="fill: #0ea5e9; fill-opacity: 0.7; stroke: #0369a1; stroke-opacity: 0.7; stroke-width: 1.5"/>
    <path d="M 227.268243 186.544952 
L 207.181484 223.003495 
L 207.181484 230.87813 
L 247.355002 225.495899 
L 247.355002 217.621264 
z
" clip-path="url(#pf47db319fe)" style="fill: #0ea5e9; fill-opacity: 0.7; stroke: #0369a1; stroke-opacity: 0.7; stroke-width: 1.5"/>
   </g>
   <g id="Path3DCollection_2">
    <defs>
     <path id="C1_0_7ba4e2bca4" d="M 0 2.738613 
C 0.726289 2.738613 1.422928 2.450055 1.936492 1.936492 
C 2.450055 1.422928 2.738613 0.726289 2.738613 -0 
C 2.738613 -0.726289 2.450055 -1.422928 1.936492 -1.936492 
C 1.422928 -2.450055 0.726289 -2.738613 0 -2.738613 
C -0.726289 -2.738613 -1.422928 -2.450055 -1.936492 -1.936492 
C -2.450055 -1.422928 -2.738613 -0.726289 -2.738613 0 
C -2.738613 0.726289 -2.450055 1.422928 -1.936492 1.936492 
C -1.422928 2.450055 -0.726289 2.738613 0 2.738613 
z
"/>
    </defs>
    <g clip-path="url(#pf47db319fe)">
     <use xlink:href="#C1_0_7ba4e2bca4" x="217.945946" y="278.326228" style="fill: #0369a1; fill-opacity: 0.9; stroke: #0369a1; stroke-opacity: 0.9"/>
    </g>
    <g clip-path="url(#pf47db319fe)">
     <use xlink:href="#C1_0_7ba4e2bca4" x="252.737232" y="249.219948" style="fill: #0369a1; fill-opacity: 0.9; stroke: #0369a1; stroke-opacity: 0.9"/>
    </g>
    <g clip-path="url(#pf47db319fe)">
     <use xlink:href="#C1_0_7ba4e2bca4" x="258.119463" y="205.409141" style="fill: #0369a1; fill-opacity: 0.9; stroke: #0369a1; stroke-opacity: 0.9"/>
    </g>
    <g clip-path="url(#pf47db319fe)">
     <use xlink:href="#C1_0_7ba4e2bca4" x="258.119463" y="197.534506" style="fill: #0369a1; fill-opacity: 0.9; stroke: #0369a1; stroke-opacity: 0.9"/>
    </g>
    <g clip-path="url(#pf47db319fe)">
     <use xlink:href="#C1_0_7ba4e2bca4" x="243.414935" y="156.414814" style="fill: #0369a1; fill-opacity: 0.9; stroke: #0369a1; stroke-opacity: 0.9"/>
    </g>
    <g clip-path="url(#pf47db319fe)">
     <use xlink:href="#C1_0_7ba4e2bca4" x="192.476957" y="257.293294" style="fill: #0369a1; fill-opacity: 0.9; stroke: #0369a1; stroke-opacity: 0.9"/>
    </g>
    <g clip-path="url(#pf47db319fe)">
     <use xlink:href="#C1_0_7ba4e2bca4" x="177.772429" y="216.173602" style="fill: #0369a1; fill-opacity: 0.9; stroke: #0369a1; stroke-opacity: 0.9"/>
    </g>
    <g clip-path="url(#pf47db319fe)">
     <use xlink:href="#C1_0_7ba4e2bca4" x="177.772429" y="208.298967" style="fill: #0369a1; fill-opacity: 0.9; stroke: #0369a1; stroke-opacity: 0.9"/>
    </g>
    <g clip-path="url(#pf47db319fe)">
     <use xlink:href="#C1_0_7ba4e2bca4" x="183.15466" y="164.48816" style="fill: #0369a1; fill-opacity: 0.9; stroke: #0369a1; stroke-opacity: 0.9"/>
    </g>
    <g clip-path="url(#pf47db319fe)">
     <use xlink:href="#C1_0_7ba4e2bca4" x="247.355002" y="225.495899" style="fill: #0369a1; fill-opacity: 0.9; stroke: #0369a1; stroke-opacity: 0.9"/>
    </g>
    <g clip-path="url(#pf47db319fe)">
     <use xlink:href="#C1_0_7ba4e2bca4" x="247.355002" y="217.621264" style="fill: #0369a1; fill-opacity: 0.9; stroke: #0369a1; stroke-opacity: 0.9"/>
    </g>
    <g clip-path="url(#pf47db319fe)">
     <use xlink:href="#C1_0_7ba4e2bca4" x="207.181484" y="230.87813" style="fill: #0369a1; fill-opacity: 0.9; stroke: #0369a1; stroke-opacity: 0.9"/>
    </g>
    <g clip-path="url(#pf47db319fe)">
     <use xlink:href="#C1_0_7ba4e2bca4" x="207.181484" y="223.003495" style="fill: #0369a1; fill-opacity: 0.9; stroke: #0369a1; stroke-opacity: 0.9"/>
    </g>
    <g clip-path="url(#pf47db319fe)">
     <use xlink:href="#C1_0_7ba4e2bca4" x="217.945946" y="135.38188" style="fill: #0369a1; fill-opacity: 0.9; stroke: #0369a1; stroke-opacity: 0.9"/>
    </g>
    <g clip-path="url(#pf47db319fe)">
     <use xlink:href="#C1_0_7ba4e2bca4" x="227.268243" y="186.544952" style="fill: #0369a1; fill-opacity: 0.9; stroke: #0369a1; stroke-opacity: 0.9"/>
    </g>
   </g>
  </g>
 </g>
 <defs>
  <clipPath id="pf47db319fe">
   <rect x="7.2" y="7.2" width="410.4" height="410.4"/>
  </clipPath>
 </defs>
</svg>
