<?xml version="1.0" encoding="utf-8" standalone="no"?>
<!DOCTYPE svg PUBLIC "-//W3C//DTD SVG 1.1//EN"
  "http://www.w3.org/Graphics/SVG/1.1/DTD/svg11.dtd">
<svg xmlns:xlink="http://www.w3.org/1999/xlink" width="424.8pt" height="424.8pt" viewBox="0 0 424.8 424.8" xmlns="http://www.w3.org/2000/svg" version="1.1">
 <metadata>
  <rdf:RDF xmlns:dc="http://purl.org/dc/elements/1.1/" xmlns:cc="http://creativecommons.org/ns#" xmlns:rdf="http://www.w3.org/1999/02/22-rdf-syntax-ns#">
   <cc:Work>
    <dc:type rdf:resource="http://purl.org/dc/dcmitype/StillImage"/>
    <dc:date>2026-01-26T17:06:15.996899</dc:date>
    <dc:format>image/svg+xml</dc:format>
    <dc:creator>
     <cc:Agent>
      <dc:title>Matplotlib v3.10.8, https://matplotlib.org/</dc:title>
     </cc:Agent>
    </dc:creator>
   </cc:Work>
  </rdf:RDF>
 </metadata>
 <defs>
  <style type="text/css">*{stroke-linejoin: round; stroke-linecap: butt}</style>
 </defs>
 <g id="figure_1">
  <g id="patch_1">
   <path d="M 0 424.8 
L 424.8 424.8 
L 424.8 0 
L 0 0 
z
" style="fill: #ffffff"/>
  </g>
  <g id="patch_2">
   <path d="M 7.2 417.6 
L 417.6 417.6 
L 417.6 7.2 
L 7.2 7.2 
z
" style="fill: #ffffff"/>
  </g>
  <g id="axes_1">
   <g id="Path3DCollection_1">
    <defs>
     <path id="C0_0_cd434fa64d" d="M 0 2.738613 
C 0.726289 2.738613 1.422928 2.450055 1.936492 1.936492 
C 2.450055 1.422928 2.738613 0.726289 2.738613 -0 
C 2.738613 -0.726289 2.450055 -1.422928 1.936492 -1.936492 
C 1.422928 -2.450055 0.726289 -2.738613 0 -2.738613 
C -0.726289 -2.738613 -1.422928 -2.450055 -1.936492 -1.936492 
C -2.450055 -1.422928 -2.738613 -0.726289 -2.738613 0 
C -2.738613 0.726289 -2.450055 1.422928 -1.936492 1.936492 
C -1.422928 2.450055 -0.726289 2.738613 0 2.738613 
z
"/>
    </defs>
    <g clip-path="url(#pb3f8523e41)">
     <use xlink:href="#C0_0_cd434fa64d" x="285.533153" y="205.721914" style="fill: #0369a1; fill-opacity: 0.3; stroke: #0369a1; stroke-opacity: 0.3"/>
    </g>
    <g clip-path="url(#pb3f8523e41)">
     <use xlink:href="#C0_0_cd434fa64d" x="150.358739" y="205.721914" style="fill: #0369a1; fill-opacity: 0.3; stroke: #0369a1; stroke-opacity: 0.3"/>
    </g>
    <g clip-path="url(#pb3f8523e41)">
     <use xlink:href="#C0_0_cd434fa64d" x="305.976834" y="215.943755" style="fill: #0369a1; fill-opacity: 0.3; stroke: #0369a1; stroke-opacity: 0.3"/>
    </g>
    <g clip-path="url(#pb3f8523e41)">
     <use xlink:href="#C0_0_cd434fa64d" x="129.915058" y="215.943755" style="fill: #0369a1; fill-opacity: 0.3; stroke: #0369a1; stroke-opacity: 0.3"/>
    </g>
   </g>
   <g id="Poly3DCollection_1">
    <path d="M 285.533153 205.721914 
L 150.358739 205.721914 
L 150.358739 119.955306 
L 285.533153 119.955306 
z
" clip-path="url(#pb3f8523e41)" style="fill: #0ea5e9; fill-opacity: 0.7; stroke: #0369a1; stroke-opacity: 0.7; stroke-width: 1.5"/>
    <path d="M 150.358739 205.721914 
L 129.915058 215.943755 
L 129.915058 130.177146 
L 150.358739 119.955306 
z
" clip-path="url(#pb3f8523e41)" style="fill: #0ea5e9; fill-opacity: 0.7; stroke: #0369a1; stroke-opacity: 0.7; stroke-width: 1.5"/>
    <path d="M 285.533153 119.955306 
L 305.976834 130.177146 
L 305.976834 215.943755 
L 285.533153 205.721914 
z
" clip-path="url(#pb3f8523e41)" style="fill: #0ea5e9; fill-opacity: 0.7; stroke: #0369a1; stroke-opacity: 0.7; stroke-width: 1.5"/>
    <path d="M 285.533153 205.721914 
L 305.976834 215.943755 
L 305.976834 283.530962 
L 285.533153 293.752803 
L 150.358739 293.752803 
L 129.915058 283.530962 
L 129.915058 215.943755 
L 150.358739 205.721914 
z
" clip-path="url(#pb3f8523e41)" style="fill: #0ea5e9; fill-opacity: 0.7; stroke: #0369a1; stroke-opacity: 0.7; stroke-width: 1.5"/>
    <path d="M 129.915058 197.764353 
L 129.915058 130.177146 
L 129.915058 215.943755 
L 129.915058 283.530962 
z
" clip-path="url(#pb3f8523e41)" style="fill: #0ea5e9; fill-opacity: 0.7; stroke: #0369a1; stroke-opacity: 0.7; stroke-width: 1.5"/>
    <path d="M 305.976834 130.177146 
L 305.976834 197.764353 
L 305.976834 283.530962 
L 305.976834 215.943755 
z
" clip-path="url(#pb3f8523e41)" style="fill: #0ea5e9; fill-opacity: 0.7; stroke: #0369a1; stroke-opacity: 0.7; stroke-width: 1.5"/>
    <path d="M 129.915058 130.177146 
L 129.915058 197.764353 
L 150.358739 207.986194 
L 285.533153 207.986194 
L 305.976834 197.764353 
L 305.976834 130.177146 
L 285.533153 119.955306 
L 150.358739 119.955306 
z
" clip-path="url(#pb3f8523e41)" style="fill: #0ea5e9; fill-opacity: 0.7; stroke: #0369a1; stroke-opacity: 0.7; stroke-width: 1.5"/>
    <path d="M 305.976834 197.764353 
L 285.533153 207.986194 
L 285.533153 293.752803 
L 305.976834 283.530962 
z
" clip-path="url(#pb3f8523e41)" style="fill: #0ea5e9; fill-opacity: 0.7; stroke: #0369a1; stroke-opacity: 0.7; stroke-width: 1.5"/>
    <path d="M 129.915058 283.530962 
L 150.358739 293.752803 
L 150.358739 207.986194 
L 129.915058 197.764353 
z
" clip-path="url(#pb3f8523e41)" style="fill: #0ea5e9; fill-opacity: 0.7; stroke: #0369a1; stroke-opacity: 0.7; stroke-width: 1.5"/>
    <path d="M 150.358739 293.752803 
L 285.533153 293.752803 
L 285.533153 207.986194 
L 150.358739 207.986194 
z
" clip-path="url(#pb3f8523e41)" style="fill: #0ea5e9; fill-opacity: 0.7; stroke: #0369a1; stroke-opacity: 0.7; stroke-width: 1.5"/>
   </g>
   <g id="Path3DCollection_2">
    <defs>
     <path id="C1_0_3f8bfdac8f" d="M 0 2.738613 
C 0.726289 2.738613 1.422928 2.450055 1.936492 1.936492 
C 2.450055 1.422928 2.738613 0.726289 2.738613 -0 
C 2.738613 -0.726289 2.450055 -1.422928 1.936492 -1.936492 
C 1.422928 -2.450055 0.726289 -2.738613 0 -2.738613 
C -0.726289 -2.738613 -1.422928 -2.450055 -1.936492 -1.936492 
C -2.450055 -1.422928 -2.738613 -0.726289 -2.738613 0 
C -2.738613 0.726289 -2.450055 1.422928 -1.936492 1.936492 
C -1.422928 2.450055 -0.726289 2.738613 0 2.738613 
z
"/>
    </defs>
    <g clip-path="url(#pb3f8523e41)">
     <use xlink:href="#C1_0_3f8bfdac8f" x="285.533153" y="119.955306" style="fill: #0369a1; fill-opacity: 0.9; stroke: #0369a1; stroke-opacity: 0.9"/>
    </g>
    <g clip-path="url(#pb3f8523e41)">
     <use xlink:href="#C1_0_3f8bfdac8f" x="150.358739" y="119.955306" style="fill: #0369a1; fill-opacity: 0.9; stroke: #0369a1; stroke-opacity: 0.9"/>
    </g>
    <g clip-path="url(#pb3f8523e41)">
     <use xlink:href="#C1_0_3f8bfdac8f" x="305.976834" y="130.177146" style="fill: #0369a1; fill-opacity: 0.9; stroke: #0369a1; stroke-opacity: 0.9"/>
    </g>
    <g clip-path="url(#pb3f8523e41)">
     <use xlink:href="#C1_0_3f8bfdac8f" x="129.915058" y="130.177146" style="fill: #0369a1; fill-opacity: 0.9; stroke: #0369a1; stroke-opacity: 0.9"/>
    </g>
    <g clip-path="url(#pb3f8523e41)">
     <use xlink:href="#C1_0_3f8bfdac8f" x="129.915058" y="283.530962" style="fill: #0369a1; fill-opacity: 0.9; stroke: #0369a1; stroke-opacity: 0.9"/>
    </g>
    <g clip-path="url(#pb3f8523e41)">
     <use xlink:href="#C1_0_3f8bfdac8f" x="305.976834" y="283.530962" style="fill: #0369a1; fill-opacity: 0.9; stroke: #0369a1; stroke-opacity: 0.9"/>
    </g>
    <g clip-path="url(#pb3f8523e41)">
     <use xlink:href="#C1_0_3f8bfdac8f" x="150.358739" y="293.752803" style="fill: #0369a1; fill-opacity: 0.9; stroke: #0369a1; stroke-opacity: 0.9"/>
    </g>
    <g clip-path="url(#pb3f8523e41)">
     <use xlink:href="#C1_0_3f8bfdac8f" x="285.533153" y="293.752803" style="fill: #0369a1; fill-opacity: 0.9; stroke: #0369a1; stroke-opacity: 0.9"/>
    </g>
    <g clip-path="url(#pb3f8523e41)">
     <use xlink:href="#C1_0_3f8bfdac8f" x="129.915058" y="197.764353" style="fill: #0369a1; fill-opacity: 0.9; stroke: #0369a1; stroke-opacity: 0.9"/>
    </g>
    <g clip-path="url(#pb3f8523e41)">
     <use xlink:href="#C1_0_3f8bfdac8f" x="305.976834" y="197.764353" style="fill: #0369a1; fill-opacity: 0.9; stroke: #0369a1; stroke-opacity: 0.9"/>
    </g>
    <g clip-path="url(#pb3f8523e41)">
     <use xlink:href="#C1_0_3f8bfdac8f" x="150.358739" y="207.986194" style="fill: #0369a1; fill-opacity: 0.9; stroke: #0369a1; stroke-opacity: 0.9"/>
    </g>
    <g clip-path="url(#pb3f8523e41)">
     <use xlink:href="#C1_0_3f8bfdac8f" x="285.533153" y="207.986194" style="fill: #0369a1; fill-opacity: 0.9; stroke: #0369a1; stroke-opacity: 0.9"/>
    </g>
   </g>
  </g>
 </g>
 <defs>
  <clipPath id="pb3f8523e41">
   <rect x="7.2" y="7.2" width="410.4" height="410.4"/>
  </clipPath>
 </defs>
</svg>
